v -2.76661 -0.160181 2.23865
v -2.77525 -0.358046 2.24081
v -2.6001 -0.181608 2.3971
v -2.78452 -0.550101 2.23326
v -2.61641 -0.376539 2.3835
v -2.62752 -0.564381 2.35258
v -2.89973 -0.541818 2.06201
v -2.63794 -0.742548 2.30297
v -2.79197 -0.908884 2.16288
v -2.64577 -0.908174 2.22999
v -2.79777 -0.735072 2.21943
v -2.33247 -1.04019 2.21416
v -2.50217 -1.05874 2.19914
v -2.36108 -1.1414 2.10632
v -2.89208 -0.352426 2.04381
v -2.91735 -0.724972 2.07988
v -2.93842 -0.737106 1.88337
v -2.89699 -0.906601 2.05994
v -1.89265 -0.56317 2.25144
v -2.09601 -0.729739 2.29492
v -1.92476 -0.726023 2.22205
v -2.25027 -0.568081 2.38494
v -2.06807 -0.563257 2.32791
v -2.22592 -0.393254 2.42222
v -2.16483 -1.02643 2.18614
v -2.20283 -1.12136 2.08839
v -2.01152 -1.01804 2.1125
v -1.96557 -0.880517 2.18056
v -2.30345 -0.894616 2.28335
v -2.12633 0.161571 2.467
v -1.99548 -0.0348581 2.36177
v -1.95799 0.144091 2.35843
v -2.16847 -0.0257834 2.46285
v -1.72887 -0.564691 2.14792
v -1.58522 -0.567066 2.01524
v -1.70293 -0.396874 2.16354
v -2.57564 0.0172807 2.40277
v -2.74461 0.0395953 2.22889
v -2.40158 -0.202922 2.47861
v -2.37423 -0.00873464 2.50067
v -1.67983 -0.0582478 2.14321
v -1.80397 0.123265 2.2456
v -1.83472 -0.0479499 2.25318
v -2.48409 0.415281 2.36826
v -2.28112 0.388152 2.48674
v -2.21447 0.580462 2.44937
v -2.42072 0.60733 2.32969
v -2.33403 0.189776 2.50327
v -2.5357 0.217521 2.39315
v -1.59015 0.626411 2.19396
v -1.82387 0.49624 2.34098
v -1.67801 0.459247 2.23093
v -1.74093 0.672609 2.29471
v -1.64451 0.851122 2.21931
v -1.92504 0.722813 2.38436
v -1.84486 0.905814 2.30613
v -1.51544 0.249821 1.99906
v -1.6573 0.10587 2.1372
v -1.54274 0.0959635 1.99907
v -1.75085 0.291591 2.24239
v -1.61447 0.265586 2.1356
v -1.55843 0.425282 2.12194
v -2.58412 0.626202 2.14013
v -2.35824 0.796779 2.28631
v -2.14607 0.77088 2.40087
v -1.4758 0.79005 2.13279
v -1.3883 0.978627 2.01107
v -1.52955 1.03953 2.10897
v -1.76483 1.07597 2.19324
v -2.51976 0.80899 2.10001
v -2.30754 0.987199 2.24619
v -2.07756 0.953329 2.32408
v -2.01004 1.11495 2.22959
v -2.23619 1.16051 2.1829
v -2.1541 1.29844 2.1163
v -1.67507 1.24961 2.10004
v -1.42825 1.27168 1.96336
v -1.99543 1.50884 2.00946
v -2.12743 1.51734 1.89441
v -2.21584 1.42165 1.92447
v -1.70786 1.63434 1.94675
v -1.76187 1.56261 1.98913
v -1.60581 1.54598 1.9762
v -1.53917 1.64992 1.89739
v -1.64896 1.71217 1.88363
v -1.61587 1.61455 1.94749
v -1.95642 1.66306 1.84516
v -2.04362 1.59691 1.8708
v -1.85301 1.65771 1.93082
v -2.44183 -0.571701 2.40039
v -2.42356 -0.391562 2.44483
v -2.19873 -0.212354 2.45108
v -2.66167 -1.07571 2.15924
v -2.06999 0.348949 2.45835
v -1.92855 1.26763 2.14617
v -1.92307 1.58542 1.97156
v -2.65765 -1.31265 1.88757
v -2.51178 -1.18501 2.08123
v -2.66641 -1.22987 2.06213
v -2.93346 -0.92798 1.91109
v -2.93912 -1.14056 1.92763
v -2.89319 -1.04602 2.04183
v -2.89172 -0.157351 2.02464
v -2.65112 0.437522 2.17816
v -2.75398 0.439506 1.94515
v -2.82365 0.245599 1.97767
v -2.70571 0.24003 2.20926
v -2.66708 0.619335 1.90778
v -2.58958 0.793852 1.86997
v -1.55816 0.276682 1.82513
v -1.58719 0.116769 1.81204
v -1.57496 -0.214131 1.80261
v -1.58369 -0.0481127 1.80428
v -1.54893 -0.06277 2.00374
v -2.92805 -0.176765 1.77747
v -2.94076 -0.368935 1.81129
v -2.87114 0.0446805 2.00373
v -2.84287 0.220683 1.7174
v -2.89845 0.0222509 1.74645
v -2.76403 0.410936 1.68884
v -2.66827 0.586845 1.66095
v -2.05914 1.54747 1.70646
v -2.15246 1.47555 1.71566
v -2.25467 1.38713 1.72793
v -1.97154 1.61351 1.7166
v -1.88053 1.67297 1.73426
v -1.87871 1.71163 1.81524
v -1.52484 1.56972 1.94456
v -1.69452 -0.861448 1.95136
v -1.62099 -0.720495 1.98059
v -1.7655 -0.724024 2.11905
v -1.86727 -0.393971 2.26816
v -1.5934 -0.544686 1.7978
v -1.64111 -0.703499 1.77732
v -1.88718 -1.01622 2.01467
v -1.82207 -0.873404 2.07709
v -1.97399 -1.12235 1.89223
v -2.36669 -1.20923 1.97008
v -2.24663 -1.17768 1.98552
v -2.07284 -1.1273 2.00675
v -2.5015 -1.26223 1.93192
v -2.69533 -0.287995 1.32476
v -2.4793 -0.370681 1.20871
v -2.73578 -0.47414 1.36613
v -2.03207 -0.467492 1.33297
v -1.97131 -0.297046 1.30693
v -1.82699 -0.509345 1.43667
v -1.90344 -0.662574 1.47941
v -1.63726 -0.545118 1.57532
v -2.81464 -0.0267831 1.49652
v -2.6447 -0.100605 1.28864
v -2.23423 -1.0758 1.57579
v -2.27457 -1.17988 1.69302
v -2.45448 -1.18757 1.62751
v -2.78593 -1.27105 1.69297
v -2.84465 -1.13909 1.59157
v -2.64803 -1.28851 1.71507
v -2.64223 -1.18889 1.57658
v -2.78368 -0.652313 1.4111
v -2.91916 -0.587009 1.61759
v -2.88186 -0.406985 1.57359
v -2.24629 -0.425779 1.24497
v -2.18654 -0.248652 1.20964
v -2.58341 0.0893686 1.2644
v -2.36124 0.00329793 1.14696
v -2.12441 -0.0689494 1.19859
v -1.92225 -0.12198 1.314
v -1.76656 -0.340297 1.42179
v -1.72816 -0.166844 1.43486
v -1.54111 -0.0322877 1.60289
v -1.55056 -0.201585 1.58342
v -2.50073 0.27218 1.24232
v -2.27209 0.182203 1.13824
v -2.67084 0.349498 1.4459
v -2.57472 0.525964 1.42591
v -2.40137 0.446734 1.23108
v -2.30525 0.620111 1.24667
v -2.08685 0.523592 1.18605
v -1.98017 0.679599 1.23251
v -2.1896 0.779437 1.26653
v -2.47442 0.694731 1.41807
v -1.79139 0.581691 1.30828
v -1.66952 0.722136 1.38342
v -1.6532 0.505004 1.42391
v -1.54629 0.636357 1.47913
v -1.8896 0.43217 1.26084
v -2.37497 0.858499 1.40483
v -2.04531 0.914753 1.30688
v -1.68357 0.939695 1.43272
v -1.83398 0.820554 1.30675
v -1.8801 1.0224 1.4066
v -2.14413 1.30403 1.54948
v -1.80454 1.29581 1.5371
v -1.93774 1.21088 1.48833
v -1.52831 0.85398 1.48924
v -1.33011 0.95944 1.59433
v -2.0927 1.10998 1.43238
v -1.76512 1.59543 1.6743
v -1.76565 1.73268 1.77716
v -1.71118 1.65112 1.70982
v -2.42495 -0.184472 1.16984
v -2.62863 -1.0432 1.48289
v -2.83532 -0.980247 1.53735
v -2.60747 -0.884896 1.40366
v -2.83062 -0.816794 1.47091
v -2.39093 -0.932433 1.39893
v -1.62513 1.43878 1.62203
v -1.81819 1.52897 1.63775
v -1.59984 1.51911 1.66014
v -1.60447 1.60992 1.69844
v -2.01526 -0.950981 1.58626
v -2.05668 -1.07765 1.66613
v -1.48107 0.428826 1.68738
v -1.53944 0.450902 1.54143
v -1.38779 0.534518 1.67684
v -1.47374 0.579262 1.58933
v -1.53477 0.129224 1.62829
v -1.60234 0.310268 1.50733
v -1.51037 0.284885 1.65803
v -1.70167 -0.842508 1.78563
v -1.80658 -0.832553 1.64151
v -2.94065 -0.767937 1.6738
v -2.57412 0.755908 1.63402
v -1.57862 -0.38171 1.81133
v -1.57442 -0.376701 1.57087
v -2.93001 -0.943758 1.72245
v -2.85675 -0.219774 1.53148
v -2.75119 0.164292 1.46993
v -2.28498 1.20976 1.54793
v -2.36098 1.27633 1.75019
v -1.51738 1.6229 1.77945
v -1.43503 1.13599 1.57795
v -1.25291 1.09062 1.62778
v -1.4463 1.49682 1.92422
v -1.41667 1.40235 1.9097
v -1.45327 1.53608 1.71463
v -1.85195 -0.967458 1.69122
v -1.89332 -1.08265 1.77526
v -2.10933 -1.16702 1.77216
v -2.17574 -1.1833 1.89132
v -1.77547 1.72835 1.87624
v -1.6255 1.70758 1.76414
v -2.82779 -1.22701 2.01535
v -2.80618 -1.0798 2.10644
v -2.83482 -1.29848 1.82938
v -1.26063 1.72062 1.64747
v -1.25864 1.87286 1.63837
v -1.10017 1.80384 1.64509
v -1.10632 1.65469 1.65004
v -1.17638 1.30073 1.90644
v -1.24986 1.25351 1.8906
v -1.17987 1.13819 1.90107
v -1.09633 1.21183 1.90234
v -1.12438 1.02669 1.90146
v -1.18151 1.60955 1.91111
v -1.07765 1.67319 1.90298
v -1.18449 1.76224 1.91966
v -1.27723 1.54602 1.87654
v -1.28245 1.69771 1.87674
v -1.2058 0.821534 1.62864
v -1.04984 0.802028 1.74813
v -1.09074 0.706118 1.78056
v -0.99803 0.702 1.85751
v -0.978205 0.639883 1.78066
v -0.86474 0.513731 1.762
v -0.878411 0.489457 1.8919
v -0.921028 0.617824 1.91618
v -1.28332 0.629155 1.7083
v -1.35096 0.678665 1.65144
v -1.19591 0.73609 1.68746
v -1.42125 0.758103 1.57606
v -1.18667 0.72194 1.77977
v -1.18106 0.785674 1.87376
v -1.28923 0.665495 1.8312
v -1.38947 0.550688 1.83081
v -1.42427 0.725622 1.92129
v -1.46573 0.569275 1.95693
v -1.35775 2.25257 1.74003
v -1.27704 2.31433 1.62595
v -1.27734 2.17356 1.62979
v -1.12327 2.39139 1.63687
v -1.22313 2.42027 1.62648
v -1.12523 2.25391 1.63246
v -1.03641 2.35818 1.76018
v -1.03446 2.19443 1.7514
v -1.07918 2.3046 1.89818
v -1.20922 2.2483 1.93829
v -1.32759 2.3312 1.85607
v -1.31817 2.17247 1.8751
v -1.12704 2.10933 1.63149
v -1.08123 2.14037 1.89271
v -1.19705 2.07847 1.93973
v -1.36112 1.93973 1.76087
v -1.35696 1.78486 1.76306
v -1.10791 1.95537 1.64331
v -1.04654 2.0421 1.76363
v -1.08132 1.8308 1.90406
v -1.027 1.8909 1.77817
v -1.08827 1.98686 1.89868
v -1.19268 1.91792 1.93161
v -1.29498 1.85114 1.88266
v -1.30369 2.00842 1.88911
v -1.34512 1.63316 1.76798
v -1.02561 1.73605 1.78133
v -1.27215 1.56631 1.653
v -1.01257 1.58285 1.77736
v -1.08051 1.52073 1.90112
v -1.26745 1.39714 1.88249
v -1.17936 1.4569 1.90896
v -1.28727 1.41517 1.65887
v -1.33911 1.481 1.77797
v -1.13475 1.50448 1.64699
v -1.16211 1.35093 1.6444
v -1.33062 1.33942 1.80488
v -1.31698 1.27406 1.70105
v -1.05766 1.29926 1.77291
v -1.06216 1.43357 1.77478
v -1.09104 1.36295 1.89508
v -1.05068 1.16304 1.73943
v -1.3217 1.16543 1.82475
v -1.3058 1.24575 1.8272
v -1.1095 0.98785 1.66076
v -1.05573 0.921868 1.89108
v -1.01471 1.06224 1.69271
v -1.26023 1.15261 1.86166
v -1.35793 2.40511 1.72106
v -1.35502 2.46552 1.82287
v -1.12069 2.52512 1.6336
v -1.26886 2.5483 1.66144
v -1.05022 2.53604 1.76311
v -1.36028 2.09722 1.75645
v -1.26716 2.02377 1.63267
v -1.08575 2.44705 1.90567
v -1.21756 2.43955 1.93202
v -1.21882 2.56697 1.8043
v 0.21058 -0.383032 1.21091
v 0.323627 -0.538215 1.29987
v 0.19759 -0.542551 1.23171
v 0.0803534 -0.38192 1.168
v 0.0840034 -0.22326 1.14492
v 0.325703 -0.377182 1.29573
v 0.429987 -0.528866 1.40346
v 0.167478 -0.694812 1.26672
v 0.264676 -0.847435 1.35363
v 0.117965 -0.835024 1.31845
v 0.309116 -0.697968 1.31154
v 0.406619 -0.848115 1.41066
v 0.431026 -0.688011 1.39935
v -0.0921993 -0.939255 1.34929
v -0.00697341 -1.09129 1.44229
v -0.161102 -1.04779 1.42729
v 0.0592318 -0.974662 1.36107
v 0.141472 -1.12403 1.46289
v 0.0764481 -1.21066 1.57631
v 0.426667 -0.371008 1.40518
v 0.50503 -0.366518 1.53727
v 0.512583 -0.520293 1.53182
v 0.52656 -0.675582 1.51957
v 0.526043 -0.836086 1.50792
v -0.303867 -0.715037 1.31798
v -0.378562 -0.814545 1.38521
v -0.424845 -0.646476 1.34957
v -0.314021 -0.980929 1.43578
v -0.239655 -0.883764 1.35939
v -0.0288569 -0.810156 1.29805
v -0.171131 -0.770751 1.29795
v 0.473332 -0.997666 1.51422
v 0.539339 -1.14255 1.60193
v 0.421153 -1.16393 1.52956
v 0.196722 -0.0601799 1.19668
v 0.28231 0.0977445 1.29759
v 0.306589 -0.0586656 1.29216
v -0.304994 -0.323964 1.2266
v -0.436782 -0.200575 1.28636
v -0.306475 -0.201212 1.21491
v -0.521381 -0.364037 1.34516
v -0.563321 -0.255204 1.36769
v -0.763403 -0.382876 1.51827
v -0.796552 -0.23917 1.54921
v -0.665841 -0.321757 1.43585
v -0.694411 -0.187736 1.46032
v 0.420316 -0.214567 1.40506
v 0.405841 -0.0598647 1.40563
v 0.501862 -0.214089 1.53795
v -0.0483172 -0.220231 1.13199
v -0.0583446 -0.0674425 1.11174
v -0.080434 0.086713 1.10271
v 0.0745237 -0.0636363 1.13409
v 0.173444 0.098917 1.20268
v 0.0554167 0.0961622 1.12925
v 0.208586 -0.221538 1.20049
v 0.0247519 0.253987 1.13704
v 0.142932 0.256164 1.21433
v 0.379292 0.0921459 1.41115
v -0.625926 0.128603 1.40127
v -0.546865 0.298419 1.30958
v -0.507496 0.164443 1.31077
v 0.462989 0.0827244 1.5419
v 0.488667 -0.0639921 1.53889
v 0.10448 0.409286 1.23742
v 0.210069 0.40306 1.33322
v 0.248753 0.251462 1.31105
v -0.593425 0.435057 1.30785
v -0.42651 0.330577 1.22055
v -0.0131768 0.407916 1.15603
v -0.113511 0.240136 1.10272
v -0.474005 0.470687 1.22204
v -0.639482 0.574699 1.31921
v -0.516942 0.612771 1.24311
v -0.706403 0.400377 1.3975
v -0.808864 0.368825 1.49357
v -0.848196 0.51067 1.4981
v 0.0643667 0.558117 1.2724
v 0.0233365 0.704005 1.31309
v 0.124375 0.694696 1.41001
v 0.207092 0.674269 1.51408
v 0.168556 0.550298 1.36822
v 0.258138 0.532836 1.47293
v 0.302683 0.388816 1.44183
v -0.126739 0.848849 1.27464
v -0.0940982 0.70316 1.22876
v -0.233035 0.686161 1.17966
v -0.152271 0.992206 1.32774
v -0.18306 1.12892 1.39339
v -0.020717 1.00059 1.40356
v 0.047121 1.12148 1.58898
v -0.0503883 1.13903 1.4722
v 0.0809138 0.988595 1.51131
v -0.802674 0.681141 1.41741
v -0.852462 0.820621 1.45179
v -0.728226 0.850357 1.38799
v -0.898593 0.654239 1.50537
v -0.750514 0.540465 1.40499
v 0.0967063 0.841722 1.4567
v -0.0049488 0.851392 1.35788
v -0.269051 1.38104 1.53806
v -0.320434 1.49763 1.61104
v -0.213408 1.49304 1.72022
v -0.147875 1.38345 1.63821
v -0.415307 1.34705 1.50237
v -0.461796 1.46844 1.56675
v -0.223644 1.25813 1.46487
v -0.373176 1.22198 1.43706
v -0.516649 1.58394 1.63113
v -0.581129 1.69005 1.69892
v -0.459506 1.68707 1.75947
v -0.381796 1.60395 1.6829
v -0.773011 1.53124 1.62782
v -0.846209 1.63757 1.70435
v -0.652458 1.5599 1.62283
v -0.719067 1.68089 1.69924
v -0.048584 -0.368778 1.16233
v -0.180219 -0.212543 1.15934
v 0.0249485 -0.676233 1.24912
v 0.207815 -0.994371 1.3944
v -0.196117 -0.0708564 1.14617
v -0.221662 0.0724429 1.14249
v -0.256869 0.216208 1.14073
v -0.296924 0.361608 1.14596
v -0.152631 0.391821 1.1152
v -0.339943 0.507296 1.1606
v -0.192986 0.539999 1.14345
v -0.379807 0.651955 1.19145
v -0.55902 0.753202 1.27526
v -0.418681 0.795008 1.22968
v -0.268729 0.830745 1.22413
v -0.596863 0.889149 1.32527
v -0.485875 1.05729 1.3677
v -0.4528 0.930574 1.29055
v -0.301172 0.965295 1.29244
v -0.334972 1.09436 1.3682
v -0.602035 1.43686 1.55887
v -0.850894 0.202494 1.60894
v -0.875783 0.349759 1.61734
v -0.772802 0.228313 1.49083
v 0.350576 -1.28843 1.62261
v 0.163611 -1.28153 1.74517
v 0.215274 -1.25573 1.59503
v 0.0268035 -1.24172 1.71741
v 0.561533 -1.09997 1.74157
v 0.554172 -1.21391 1.74608
v 0.557793 -0.515476 1.68132
v 0.545841 -0.216102 1.69348
v 0.549134 -0.364797 1.68939
v 0.533437 -0.0708526 1.69613
v 0.51052 0.0689258 1.69725
v 0.326182 0.501468 1.58778
v 0.379956 0.365937 1.56268
v 0.425442 0.225923 1.54817
v 0.263555 0.636971 1.62337
v 0.142972 0.951188 1.63546
v -0.939208 0.644066 1.62346
v -0.841669 0.350959 1.75554
v -0.896156 0.496268 1.62569
v 0.295874 -1.31014 1.77855
v 0.567245 -0.667472 1.66858
v 0.573961 -0.662354 1.82555
v 0.557774 -0.808638 1.80601
v 0.568017 -0.513076 1.83951
v 0.535589 -0.0747537 1.86454
v 0.549538 -0.217867 1.85864
v 0.556138 -0.364724 1.85015
v 0.475188 0.202379 1.69689
v 0.432175 0.328297 1.69952
v 0.480713 0.187603 1.86791
v 0.444258 0.301766 1.86073
v 0.37919 0.451581 1.70636
v 0.311499 0.58693 1.72364
v 0.114411 1.08072 1.71583
v -0.165813 1.45008 1.85357
v -0.0594138 1.36357 1.76722
v -0.430713 1.63608 1.88226
v -0.304704 1.58574 1.80649
v -1.0698 0.887324 1.64239
v -1.01972 1.0404 1.69587
v -0.971066 1.36824 1.68265
v -0.929548 1.49978 1.70601
v -0.856556 1.38556 1.59006
v -0.84638 1.24875 1.55121
v -0.973915 1.08769 1.54905
v -0.998887 1.23308 1.63624
v -0.865879 1.4849 1.6207
v -1.00487 0.935354 1.57006
v -0.987461 0.807257 1.61786
v -0.95326 0.800178 1.52384
v -1.00974 1.195 1.86885
v -0.90817 0.951195 1.50701
v -0.702937 -0.51426 1.49037
v -0.613351 -0.630795 1.45621
v -0.791446 -0.575959 1.59959
v -0.609905 -0.443459 1.40807
v -0.528876 -0.556977 1.38102
v -0.823506 -0.425246 1.63992
v -0.456403 -0.898956 1.4702
v -0.504614 -0.731732 1.42134
v -0.583881 -0.808148 1.51269
v -0.530285 -0.961434 1.57946
v -0.0688948 -1.16525 1.55715
v -0.222315 -1.11848 1.53477
v -0.382237 -1.049 1.5351
v -0.266437 -1.15453 1.65499
v -0.431142 -1.09328 1.64267
v -0.00985417 -1.22613 1.86361
v -0.114781 -1.19809 1.68908
v -0.150849 -1.20041 1.82698
v 0.0673382 -0.593295 2.33725
v 0.221104 -0.575049 2.3261
v 0.0545972 -0.438736 2.39172
v -0.48905 -0.75598 2.06502
v -0.525044 -0.616585 2.12936
v -0.61784 -0.764055 1.98116
v 0.351923 -0.54817 2.24976
v 0.333781 -0.39334 2.26852
v 0.207678 -0.416336 2.35862
v 0.478465 -0.677827 2.12122
v 0.370464 -0.702862 2.22564
v 0.493015 -0.828996 2.10053
v -0.046827 -1.03946 2.11185
v -0.0609185 -0.907297 2.20311
v -0.18377 -1.02833 2.05927
v 0.318619 -0.238811 2.28333
v 0.436987 -0.377197 2.14879
v 0.424552 -0.226829 2.16155
v 0.514584 -0.367802 2.00785
v 0.507456 -0.219936 2.02
v 0.565085 -0.810917 1.96788
v 0.555099 -0.663033 1.98462
v -0.237384 -0.607867 2.26243
v -0.408394 -0.462898 2.25388
v -0.383276 -0.612012 2.20222
v -0.0745932 -0.75717 2.26291
v -0.218606 -0.75775 2.20946
v 0.229189 -0.87675 2.2095
v 0.233385 -1.0257 2.14022
v 0.364976 -1.00027 2.11343
v 0.368039 -0.851434 2.17098
v 0.22838 -0.727876 2.27221
v 0.383566 -1.14407 2.05287
v 0.50622 -1.10291 2.00901
v 0.482941 -0.968614 2.05131
v 0.176397 -0.0968709 2.39241
v 0.300088 -0.0846606 2.28963
v 0.156428 0.061767 2.38963
v -0.573708 -0.312567 2.21108
v -0.717506 -0.314904 2.12196
v -0.701168 -0.475747 2.09828
v 0.492718 -0.0743572 2.02734
v 0.220765 0.358027 2.24832
v 0.106812 0.367168 2.3483
v 0.250049 0.216076 2.27249
v -0.578179 -0.15246 2.22181
v -0.709246 0.00581371 2.12806
v -0.716092 -0.153431 2.12716
v 0.31854 0.346768 2.13266
v -0.00419302 0.211165 2.44929
v -0.0247728 0.36961 2.42725
v -0.177833 0.360003 2.45791
v -0.161109 0.196291 2.4665
v 0.0812639 0.509605 2.30825
v -0.0453762 0.521662 2.389
v 0.191145 0.492087 2.21184
v -0.472613 0.329838 2.34139
v -0.333039 0.343129 2.42178
v -0.495925 0.489384 2.34878
v -0.627053 0.47778 2.25658
v -0.601717 0.322196 2.24406
v -0.727139 0.317896 2.14385
v -0.750438 0.470424 2.15693
v 0.285201 0.469591 2.10352
v 0.0630098 0.64397 2.25443
v -0.652704 0.633787 2.26063
v 0.168922 0.615377 2.1598
v 0.257678 0.578243 2.05684
v -0.203568 0.673392 2.38642
v -0.360882 0.665768 2.38787
v -0.35005 0.505402 2.41362
v -0.193564 0.519871 2.4322
v -0.0600095 0.665095 2.33473
v -0.0498206 0.939876 2.20642
v -0.180661 1.09672 2.17366
v -0.19361 0.962143 2.2586
v -0.669489 0.790389 2.2454
v -0.512971 0.952924 2.24323
v -0.668426 0.938707 2.19189
v -0.92671 0.754407 2.07141
v -0.806223 0.772767 2.16178
v -0.816539 0.921936 2.11958
v 0.0662033 0.894788 2.12615
v 0.0772388 1.01435 2.0427
v -0.0360194 1.07128 2.1245
v -0.362226 0.822619 2.3469
v -0.203546 0.821438 2.33027
v -0.522161 0.809109 2.3141
v -0.780515 0.620965 2.16721
v -0.890449 0.610459 2.06018
v 0.0573078 0.76973 2.19146
v 0.158709 0.724845 2.0975
v -0.308927 1.37825 2.03294
v -0.324497 1.2396 2.11037
v -0.167057 1.23103 2.08596
v -0.160062 1.35398 1.98178
v -0.830042 1.22721 2.03462
v -0.825143 1.07198 2.07089
v -0.655379 1.23235 2.08241
v -0.0321088 1.18959 2.02036
v -0.578795 1.63964 1.90935
v -0.722563 1.63624 1.90191
v -0.608171 1.51399 1.97675
v -0.769495 1.51118 1.95384
v -0.636115 1.37758 2.03374
v -0.80765 1.37614 1.99838
v -0.296788 1.50286 1.93392
v -0.448694 1.51676 1.9737
v 0.0411648 -0.27799 2.4268
v -0.119523 -0.29327 2.4089
v -0.103659 -0.449913 2.36423
v 0.0854694 -0.898705 2.22497
v 0.246588 -1.16338 2.0545
v -0.133103 -0.132133 2.43864
v -0.300047 0.0185659 2.40274
v -0.146145 0.0313928 2.45918
v -0.514762 0.650014 2.34256
v -0.353047 0.964184 2.27007
v -0.469888 1.3804 2.04528
v -0.332443 -0.892096 2.07383
v -0.460678 -0.893931 2.0037
v -0.314782 -1.01939 1.99947
v -0.966292 0.737954 1.95543
v -0.826686 0.00982077 2.01592
v -0.839185 -0.148116 2.01217
v -0.836394 -0.310803 1.99702
v -0.773582 -0.623694 1.92258
v -0.661815 -0.623728 2.04425
v -0.81752 -0.473393 1.97269
v -0.717955 -0.760909 1.85727
v 0.108991 -1.15591 2.028
v -0.0309551 -1.14607 1.99505
v -0.168678 -1.13447 1.95391
v -0.299755 -1.11975 1.90418
v 0.548582 -0.94821 1.92262
v 0.381026 0.0692075 2.16578
v 0.467486 0.0669083 2.02872
v 0.351139 0.211892 2.15309
v 0.357359 0.440742 1.98095
v 0.433626 0.201435 2.02238
v 0.21479 0.740201 1.93596
v 0.149066 0.828463 2.03056
v -0.85657 0.332927 1.88705
v -0.809174 0.196163 1.7447
v -0.796118 0.0405696 1.73445
v -0.811954 0.0229403 1.87228
v -0.82767 0.178563 1.87942
v -0.80406 -0.114066 1.71441
v -0.82011 -0.133231 1.857
v -0.773047 -0.593534 1.75753
v -0.801048 -0.444223 1.80405
v -0.743997 -0.740065 1.69196
v 0.556497 -0.953376 1.77346
v 0.513283 0.0615931 1.8677
v 0.28094 0.61255 1.93047
v 0.280519 0.642445 1.85123
v 0.235699 0.66296 1.99571
v 0.353833 0.518735 1.80602
v 0.249734 0.711168 1.77864
v 0.398101 0.327278 2.00375
v 0.323011 0.530207 1.94363
v 0.400132 0.411954 1.84028
v 0.140694 1.0125 1.83851
v 0.0699848 1.11224 1.93196
v 0.146663 0.926122 1.94444
v -0.984058 0.9893 1.83206
v -0.867654 1.62973 1.85206
v -0.931816 1.50948 1.89084
v -0.996105 0.83899 1.87721
v -0.998796 0.880438 1.93788
v -1.0263 0.910506 1.84227
v -0.962028 0.905105 2.04767
v -0.541503 -1.03307 1.84358
v -0.436854 -1.02135 1.93411
v -0.287795 -1.16149 1.78228
v -0.405312 -1.10932 1.87482
v -0.431366 -1.10916 1.75046
v -0.762771 1.70126 1.78547
v -0.557817 1.71455 1.84637
v -0.66807 1.73164 1.81709
v 0.468547 -1.27324 1.67812
v 0.400791 -1.25296 1.95271
v 0.263166 -1.26936 1.93295
v 0.495923 -1.21011 1.95103
v 0.423706 -1.31107 1.82073
v 0.557102 -1.08088 1.87909
v 0.540817 -1.23005 1.84777
v -1.41282 1.42835 1.69527
v -0.733 1.40534 1.56946
v -0.975206 1.37013 1.89594
v -1.81018 1.48227 2.03355
v -0.0430849 1.28641 1.8981
v -0.56077 1.31091 1.49845
v -0.48753 1.23633 2.10435
v -2.07179 1.41544 2.05732
v -1.62493 1.47744 2.00832
v -0.701937 1.27499 1.51773
v -1.89899 1.46151 1.60391
v -0.522043 1.18293 1.43782
v -1.70552 1.36559 1.57703
v 0.0566819 1.19585 1.80958
v -0.00427863 1.24202 1.67884
v -1.64107 1.38076 2.04803
v -1.50222 1.26209 1.59577
v -1.43067 1.33056 1.64166
v -1.37721 1.1156 1.69492
v -0.667664 1.14365 1.4641
v -0.815257 1.11059 1.50693
v -0.339591 1.0977 2.18259
v -0.500489 1.09069 2.16422
v -2.01056 1.38785 1.57219
v -1.61486 1.20639 1.54798
v -0.631116 1.01773 1.39769
v -0.662164 1.08218 2.12715
v -0.770055 0.979887 1.45054
v -0.992289 1.06104 2.00939
v -2.46271 1.14393 1.78327
v -2.40464 1.08852 1.56255
v -0.0628212 0.803056 2.27201
v 0.178746 0.894046 1.75432
v -1.12032 0.776547 1.86899
v -1.54482 1.03879 1.53142
v 0.198667 0.81962 1.8565
v -2.50217 0.927507 1.59685
v -1.29525 1.02884 1.76844
v -1.31513 1.05458 1.88896
v -2.25061 1.00615 1.39707
v -2.47528 0.996163 2.06442
v 0.165739 0.814162 1.5696
v -1.33758 0.898875 1.89377
v 0.211566 0.767828 1.68094
v -1.27355 0.855797 1.92335
v -1.21855 0.982329 1.97236
v -0.685161 0.714291 1.34436
v -1.72138 1.12685 1.49577
v -1.41084 0.744504 2.01461
v -2.53504 0.972539 1.82871
v -0.857703 0.4682 2.04466
v -1.48853 0.586944 2.08327
v -0.0539468 0.556642 1.19011
v -1.49251 0.405826 1.98677
v -1.49834 0.425108 1.83603
v -1.99946 0.536697 2.4353
v -1.8998 0.320871 2.35376
v -0.825157 0.165064 2.0198
v -0.710011 0.163365 2.13118
v -0.826785 0.0555546 1.59807
v -1.73879 0.362643 1.38499
v -1.6597 0.161025 1.48478
v -1.81295 0.210388 1.35733
v -0.386041 0.192363 1.21941
v -0.476787 0.0346661 1.30725
v -0.351576 0.0579174 1.21855
v -0.576777 0.00711005 2.22415
v -0.4411 0.0114242 2.31734
v -0.452037 0.171143 2.32817
v -0.583426 0.165667 2.23148
v -0.739344 0.0888405 1.48885
v -0.598915 -0.00376712 1.39611
v -0.714851 -0.0504716 1.47963
v -0.814831 -0.0915454 1.57846
v -1.871 0.0482381 1.33176
v -1.69744 0.00150474 1.45921
v -0.32597 -0.0734347 1.21444
v -0.454711 -0.0881665 1.29785
v -0.580913 -0.131657 1.3816
v -1.85036 -0.221029 2.26581
v -1.68942 -0.226124 2.1566
v -2.01846 -0.214556 2.36643
v -0.819207 -0.268715 1.68382
v -0.816333 -0.289306 1.83602
v -2.95189 -0.55339 1.84769
v 0.454999 -0.527702 2.13504
v -0.257312 -0.456524 2.31407
v -0.349959 -0.550745 1.29415
v -0.238243 -0.603119 1.26767
v 0.529071 -0.515748 1.99551
v -2.30188 -0.596833 1.29678
v -0.695567 -0.701949 1.55248
v -2.14785 -0.791628 1.42164
v -2.34907 -0.767852 1.34145
v -0.663446 -0.870298 1.62796
v -1.96754 -0.809093 1.52861
v -2.09402 -0.631943 1.37451
v 0.563197 -0.819252 1.65188
v -1.7337 -0.695594 1.5992
v -0.648758 -0.884916 1.78481
v -0.578074 -0.900917 1.91746
v -0.355721 -0.754823 2.14076
v 0.54308 -0.975625 1.6319
v -1.77342 -0.945993 1.79413
v 0.34782 -1.00225 1.44339
v -2.93958 -1.11844 1.76909
v -0.200108 -0.899425 2.14267
v -0.57369 -1.00831 1.70795
v 0.284392 -1.15278 1.48709
v 0.0944957 -1.04258 2.1444
v -2.32291 -1.22546 1.82724
v 0.128548 -1.24813 1.89775
v -2.48031 -1.25828 1.7718
v -2.56825 -0.724816 1.33128
v -2.52563 -0.553861 1.26153
v -0.112047 -0.644367 1.24813
v -0.662688 0.263633 1.40004
v -1.97594 0.274093 1.22877
v -2.17765 0.356917 1.15232
v -2.04022 -0.39182 2.35781
v -0.315555 0.180359 2.4182
v -0.446604 -0.482274 1.32477
v -0.177756 -0.349147 1.18644
v 0.0277804 -0.115433 2.45087
v -2.19373 -0.942683 1.48537
v 0.0625375 -0.535395 1.19984
v -0.0946162 1.26589 1.55382
v 0.076736 -0.743699 2.27486
v -2.47971 -0.902616 2.2728
v -0.396475 -0.407038 1.28564
v -2.05332 0.106047 1.20788
v -0.287358 -0.142094 2.38205
v 0.19374 -0.256523 2.38203
v -2.30764 1.30273 1.9626
v -0.0874363 -0.602099 2.30905
v -2.45976 -0.738712 2.33311
v 0.343733 0.241601 1.42234
v -0.5579 -0.470327 2.18513
v 0.13294 0.217117 2.37539
v -0.071165 -0.5102 1.20148
v 0.276758 0.067714 2.2863
v 0.407037 -0.0774262 2.16786
v -2.39797 1.16494 2.01001
v -1.55075 -0.227133 2.01516
v -0.275082 -0.301532 2.3566
v -0.316892 -0.436961 1.25319
v -0.433878 -0.148096 2.30455
v -0.198083 -0.479968 1.21904
v 0.321173 -0.217213 1.29198
v -1.79738 -0.999727 1.917
v 0.0130223 0.0485507 2.45593
v -2.27618 -0.733224 2.33171
v -2.13014 -0.885389 2.24754
v -1.86414 1.38945 2.08313
v -0.426942 -0.307914 2.29083
v -2.4238 -1.07231 1.50255
v -1.55872 -0.39858 2.03513
v -0.841769 0.317575 2.03193
v -0.423476 -0.301074 1.28391
v -1.28873 1.16383 1.75857
v -1.23144 1.20114 1.64142
f 15 2 1 103
f 3 1 2 5
f 7 4 2 15
f 3 37 38 1
f 5 2 4 6
f 16 11 4 7
f 5 91 39 3
f 6 4 11 8
f 91 5 6 90
f 7 817 17 16
f 9 10 8 11
f 90 6 8 868
f 8 10 861 868
f 9 244 93 10
f 102 244 9 18
f 10 93 13 861
f 18 9 11 16
f 14 12 13 98
f 13 12 29 861
f 25 12 14 26
f 141 138 14 98
f 115 116 15 103
f 15 116 817 7
f 18 16 17 100
f 160 222 17 817
f 20 21 19 23
f 852 23 19 132
f 29 885 20 884
f 34 19 21 131
f 21 20 885 28
f 22 90 868 884
f 24 22 23 852
f 23 22 884 20
f 90 22 24 91
f 814 92 24 852
f 25 27 28 885
f 29 12 25 885
f 27 25 26 140
f 138 139 26 14
f 137 135 27 140
f 28 136 131 21
f 135 136 28 27
f 31 32 30 33
f 30 48 40 33
f 42 32 31 43
f 31 33 92 814
f 32 789 94 30
f 34 131 130 35
f 34 36 132 19
f 36 34 35 889
f 224 889 35 133
f 36 813 812 132
f 876 813 36 889
f 37 3 39 40
f 37 40 48 49
f 38 37 49 107
f 38 117 103 1
f 38 107 106 117
f 92 33 40 39
f 42 43 41 58
f 812 813 41 43
f 42 60 789 32
f 814 812 43 31
f 44 45 46 47
f 44 49 48 45
f 44 47 63 104
f 107 49 44 104
f 46 788 55 65
f 46 45 94 788
f 65 64 47 46
f 48 30 94 45
f 51 52 50 53
f 50 66 54 53
f 50 52 62 784
f 52 60 61 62
f 52 51 789 60
f 53 55 788 51
f 55 53 54 56
f 54 68 69 56
f 56 72 65 55
f 58 59 57 61
f 111 110 57 59
f 57 110 787 786
f 60 42 58 61
f 58 41 114 59
f 786 62 61 57
f 64 70 63 47
f 63 108 105 104
f 64 71 773 70
f 65 72 71 64
f 66 67 68 54
f 784 781 66 50
f 77 68 67 320
f 67 66 781 775
f 72 56 69 73
f 77 76 69 68
f 69 76 95 73
f 70 109 108 63
f 70 773 782 109
f 71 72 73 74
f 75 74 73 95
f 773 71 74 875
f 866 875 74 75
f 75 740 80 866
f 886 95 76 748
f 236 235 77 733
f 748 76 77 235
f 78 79 80 740
f 88 79 78 96
f 124 80 79 123
f 230 866 80 124
f 81 82 83 86
f 81 89 96 82
f 83 741 234 128
f 83 82 736 741
f 86 84 85 81
f 89 81 85 241
f 85 242 199 241
f 85 84 231 242
f 128 84 86 83
f 126 125 87 127
f 241 127 87 89
f 89 87 88 96
f 88 122 123 79
f 125 122 88 87
f 92 39 91 24
f 98 13 93 99
f 95 886 740 75
f 736 82 96 78
f 98 99 97 141
f 243 245 97 99
f 845 141 97 157
f 244 243 99 93
f 100 101 102 18
f 100 17 222 226
f 226 838 101 100
f 245 243 101 838
f 102 101 243 244
f 104 105 106 107
f 105 120 118 106
f 105 108 121 120
f 121 108 109 223
f 217 219 110 111
f 114 113 111 59
f 112 113 114 876
f 170 113 112 171
f 112 224 225 171
f 113 170 217 111
f 114 41 813 876
f 115 103 117 119
f 161 116 115 227
f 118 119 117 106
f 119 150 227 115
f 119 118 228 150
f 228 118 120 174
f 174 120 121 175
f 181 175 121 223
f 208 743 122 125
f 756 123 122 743
f 192 124 123 756
f 124 192 229 230
f 208 125 126 198
f 126 127 241 199
f 231 84 128 234
f 129 130 131 136
f 134 130 129 220
f 135 882 129 136
f 836 220 129 882
f 133 35 130 134
f 132 812 814 852
f 225 224 133 149
f 149 133 134 831
f 134 220 221 831
f 135 137 238 882
f 240 239 137 140
f 138 843 240 139
f 140 26 139 240
f 843 138 141 845
f 150 151 142 227
f 161 227 142 144
f 144 142 143 847
f 151 201 143 142
f 823 847 143 162
f 144 847 846 159
f 145 162 163 146
f 823 162 145 829
f 147 145 146 168
f 169 168 146 167
f 147 168 225 149
f 829 145 147 148
f 148 147 149 831
f 164 151 150 228
f 151 164 165 201
f 152 153 154 888
f 211 212 152 857
f 153 152 212 239
f 153 239 240 843
f 153 843 845 154
f 157 158 154 845
f 202 888 154 158
f 157 155 156 158
f 156 203 202 158
f 245 838 156 155
f 245 155 157 97
f 159 160 161 144
f 205 222 160 159
f 817 116 161 160
f 201 163 162 143
f 165 166 163 201
f 163 166 167 146
f 172 173 165 164
f 166 165 173 863
f 167 166 863 807
f 170 171 169 808
f 169 171 225 168
f 169 167 807 808
f 172 174 175 176
f 228 174 172 164
f 176 851 173 172
f 173 851 850 863
f 176 177 178 851
f 176 175 181 177
f 177 180 179 178
f 182 186 178 179
f 850 851 178 186
f 183 182 179 190
f 179 180 188 190
f 181 187 180 177
f 772 188 180 187
f 184 182 183 185
f 189 195 183 190
f 271 185 183 195
f 186 182 184 793
f 184 214 218 793
f 214 184 185 216
f 185 271 269 216
f 223 769 187 181
f 188 772 197 191
f 196 195 189 767
f 191 189 190 188
f 191 780 767 189
f 193 194 192 756
f 192 194 197 229
f 193 756 743 745
f 194 193 757 780
f 232 233 196 767
f 196 260 271 195
f 197 194 780 191
f 198 126 199 200
f 198 200 210 209
f 242 210 200 199
f 202 204 206 888
f 204 202 203 205
f 203 226 222 205
f 838 226 203 156
f 205 159 846 204
f 846 826 206 204
f 749 745 207 750
f 209 207 208 198
f 208 207 745 743
f 209 733 750 207
f 210 236 733 209
f 211 237 238 212
f 825 828 211 857
f 213 219 218 214
f 213 215 275 787
f 215 213 214 216
f 274 275 215 268
f 216 269 268 215
f 218 219 217 794
f 217 170 808 794
f 219 213 787 110
f 836 237 221 220
f 223 109 782 769
f 224 112 876 889
f 229 197 772 763
f 763 762 230 229
f 892 315 893 751
f 893 319 324 233
f 233 324 322 196
f 234 235 236 231
f 235 234 741 748
f 242 231 236 210
f 828 221 237 211
f 238 137 239 212
f 238 237 836 882
f 246 247 248 249
f 303 294 246 305
f 294 293 247 246
f 295 248 247 332
f 331 332 247 293
f 248 295 298 304
f 304 306 249 248
f 249 312 305 246
f 253 318 250 252
f 250 309 308 251
f 252 250 251 325
f 314 321 251 308
f 251 321 892 325
f 254 253 252 778
f 252 325 771 778
f 253 316 317 318
f 316 253 254 319
f 259 258 255 257
f 255 309 307 256
f 255 258 308 309
f 257 255 256 297
f 301 259 257 300
f 258 259 303 311
f 259 301 294 303
f 260 261 262 270
f 269 271 260 270
f 260 196 322 514
f 261 260 514 524
f 264 263 262 261
f 262 766 272 270
f 714 766 262 263
f 264 265 266 267
f 524 492 264 261
f 264 267 668 263
f 265 264 492 494
f 688 266 265 493
f 635 267 266 783
f 267 635 625 668
f 268 269 270 272
f 268 272 273 274
f 273 272 766 323
f 274 273 777 276
f 276 277 275 274
f 275 277 786 787
f 775 781 276 777
f 781 784 277 276
f 279 280 278 326
f 289 288 278 331
f 279 282 281 283
f 279 283 290 280
f 280 290 295 332
f 331 278 280 332
f 281 284 285 283
f 281 328 330 284
f 282 279 326 329
f 328 281 282 329
f 285 284 286 291
f 290 283 285 296
f 285 291 299 296
f 292 291 286 287
f 286 284 330 333
f 288 289 287 334
f 287 286 333 334
f 326 278 288 327
f 292 287 289 302
f 292 300 299 291
f 301 302 293 294
f 295 290 296 298
f 297 298 296 299
f 297 299 300 257
f 304 298 297 256
f 300 292 302 301
f 302 289 331 293
f 310 311 303 305
f 307 306 304 256
f 306 317 312 249
f 317 306 307 318
f 308 258 311 314
f 309 250 318 307
f 312 313 310 305
f 315 314 311 310
f 316 313 312 317
f 313 893 315 310
f 313 316 319 893
f 314 315 892 321
f 323 324 319 254
f 320 750 733 77
f 749 750 320 751
f 892 770 771 325
f 775 770 320 67
f 711 324 323 716
f 714 716 323 766
f 323 254 777 273
f 515 322 324 711
f 327 335 329 326
f 334 335 327 288
f 335 330 328 329
f 330 335 334 333
f 337 338 336 341
f 336 339 340 391
f 343 338 337 346
f 348 346 337 342
f 339 336 338 858
f 370 391 340 388
f 340 385 386 388
f 340 339 452 385
f 342 337 341 355
f 341 881 382 355
f 341 336 391 881
f 342 355 356 357
f 342 357 358 348
f 344 345 343 346
f 858 338 343 454
f 348 347 344 346
f 837 455 344 347
f 454 343 345 365
f 455 352 345 344
f 359 347 348 358
f 350 351 349 352
f 350 353 354 538
f 351 363 364 349
f 538 539 351 350
f 352 455 353 350
f 352 349 365 345
f 353 841 478 354
f 544 538 354 479
f 355 382 384 356
f 356 384 483 484
f 357 356 484 482
f 358 357 482 496
f 359 358 496 830
f 359 830 835 367
f 359 367 837 347
f 360 366 364 361
f 362 360 361 535
f 363 534 361 364
f 529 532 362 535
f 362 820 821 360
f 363 540 537 534
f 363 351 539 540
f 364 366 365 349
f 366 848 454 365
f 366 360 821 848
f 368 369 367 835
f 841 837 367 369
f 368 480 481 726
f 478 841 369 476
f 369 368 726 476
f 371 372 370 389
f 390 389 370 388
f 370 372 881 391
f 371 394 383 372
f 371 389 393 402
f 371 402 869 394
f 374 375 373 891
f 373 878 862 891
f 880 878 373 855
f 376 377 374 891
f 811 810 374 377
f 456 453 375 809
f 375 374 810 809
f 375 453 855 373
f 862 854 376 891
f 377 380 381 811
f 531 380 377 376
f 530 533 378 528
f 380 378 379 381
f 379 378 533 815
f 528 378 380 531
f 806 805 381 379
f 384 382 383 399
f 881 372 383 382
f 453 456 386 385
f 388 386 387 390
f 392 390 387 406
f 456 457 387 386
f 387 457 458 406
f 390 392 393 389
f 400 393 392 405
f 394 398 399 383
f 394 869 489 398
f 396 397 395 849
f 797 804 395 397
f 796 397 396 404
f 398 489 503 486
f 399 485 483 384
f 399 398 486 485
f 400 401 402 393
f 417 401 400 413
f 785 413 400 405
f 869 402 401 419
f 404 396 403 407
f 403 410 433 408
f 849 410 403 396
f 405 392 406 460
f 405 460 462 785
f 406 458 459 460
f 408 409 407 403
f 459 404 407 461
f 408 779 464 409
f 461 407 409 463
f 410 411 412 433
f 475 411 410 849
f 473 474 411 475
f 494 412 411 474
f 412 494 492 432
f 413 414 415 417
f 413 785 421 414
f 435 434 415 414
f 417 415 416 418
f 434 774 416 415
f 416 774 776 490
f 419 401 417 418
f 418 487 488 419
f 490 487 418 416
f 419 488 489 869
f 420 421 422 466
f 420 423 425 435
f 421 420 435 414
f 462 422 421 785
f 422 462 461 463
f 465 466 422 463
f 423 420 466 470
f 425 423 424 427
f 443 442 424 471
f 470 471 424 423
f 425 427 426 428
f 491 428 426 509
f 426 747 746 509
f 426 427 859 747
f 442 859 427 424
f 435 425 428 434
f 429 430 431 779
f 525 430 429 432
f 523 527 430 525
f 527 760 431 430
f 433 412 432 429
f 779 408 433 429
f 434 428 491 774
f 436 437 438 439
f 436 440 441 437
f 436 442 443 440
f 436 439 859 442
f 444 447 437 441
f 447 513 438 437
f 510 511 439 438
f 747 859 439 511
f 440 738 472 441
f 744 738 440 443
f 468 744 443 471
f 444 445 446 447
f 444 450 451 445
f 444 441 472 450
f 446 512 513 447
f 446 445 725 724
f 518 522 448 734
f 450 448 449 451
f 522 517 449 448
f 734 448 450 472
f 712 723 451 449
f 451 723 725 445
f 453 385 452 855
f 452 339 858 872
f 872 858 454 848
f 841 353 455 837
f 457 798 796 458
f 457 456 809 798
f 459 461 462 460
f 796 404 459 458
f 464 465 463 409
f 465 464 467 469
f 470 466 465 469
f 468 469 467 758
f 467 431 760 758
f 467 464 779 431
f 468 471 470 469
f 690 689 473 792
f 474 473 689 493
f 792 473 475 803
f 477 478 476 495
f 730 495 476 726
f 543 479 477 844
f 478 477 479 354
f 480 731 732 481
f 480 368 835 698
f 500 501 483 485
f 502 484 483 501
f 499 482 484 502
f 699 500 485 486
f 486 503 505 699
f 504 488 487 507
f 504 503 489 488
f 507 487 490 508
f 704 508 490 776
f 708 765 491 509
f 492 524 525 432
f 494 474 493 265
f 844 477 495 728
f 496 497 498 830
f 496 482 499 497
f 497 567 566 498
f 497 499 822 567
f 680 698 498 566
f 499 502 564 822
f 500 587 565 501
f 565 564 502 501
f 504 506 505 503
f 505 685 682 699
f 505 506 705 685
f 506 504 507 707
f 506 707 684 705
f 507 508 703 707
f 701 703 508 704
f 709 708 509 746
f 510 438 513 652
f 737 511 510 641
f 746 747 511 737
f 652 513 512 653
f 512 446 724 646
f 514 322 515 523
f 515 526 521 520
f 516 521 526 735
f 518 516 517 522
f 712 449 517 713
f 735 713 517 516
f 518 519 521 516
f 742 519 518 734
f 520 521 519 753
f 519 742 752 753
f 523 515 520 527
f 524 514 523 525
f 643 642 526 761
f 711 761 526 515
f 527 520 753 760
f 528 531 532 529
f 530 528 529 824
f 536 824 529 535
f 530 824 697 695
f 854 532 531 376
f 820 362 532 854
f 533 530 695 696
f 535 361 534 536
f 536 534 537 827
f 542 840 537 540
f 541 539 538 544
f 541 542 540 539
f 541 544 545 720
f 722 542 541 720
f 543 545 544 479
f 676 677 543 844
f 543 677 678 545
f 545 678 679 720
f 546 548 656 867
f 548 546 547 554
f 547 577 556 552
f 860 577 547 546
f 548 654 655 656
f 549 834 570 550
f 551 549 550 673
f 666 549 551 833
f 552 553 554 547
f 555 818 552 556
f 562 553 552 818
f 865 554 553 561
f 654 548 554 865
f 555 567 822 818
f 557 555 556 576
f 557 566 567 555
f 676 842 558 677
f 560 558 559 839
f 559 571 572 839
f 559 558 842 657
f 560 678 677 558
f 562 563 561 553
f 581 865 561 582
f 562 564 565 563
f 562 818 822 564
f 582 561 563 874
f 563 565 587 874
f 580 680 566 557
f 569 570 568 819
f 568 572 571 867
f 656 819 568 867
f 834 572 568 570
f 569 887 584 870
f 569 819 877 887
f 870 550 570 569
f 571 559 657 860
f 573 574 575 576
f 860 657 573 577
f 574 573 657 842
f 575 578 579 580
f 575 574 658 578
f 577 573 576 556
f 576 575 580 557
f 578 727 729 579
f 731 680 580 579
f 581 856 654 865
f 883 856 581 583
f 583 581 582 873
f 583 871 595 883
f 584 585 586 870
f 593 585 584 591
f 879 591 584 887
f 585 671 674 586
f 672 673 586 674
f 681 874 587 682
f 587 500 699 682
f 609 601 588 594
f 590 588 589 871
f 589 588 601 599
f 594 588 590 683
f 592 593 591 799
f 800 799 591 879
f 790 669 592 791
f 669 670 593 592
f 671 585 593 670
f 684 609 594 705
f 594 683 685 705
f 595 596 597 598
f 595 598 661 883
f 599 600 596 589
f 617 597 596 600
f 596 595 871 589
f 616 603 597 617
f 598 597 603 853
f 660 661 598 853
f 612 610 599 601
f 600 599 610 618
f 614 617 600 618
f 613 612 601 609
f 605 606 602 604
f 802 801 602 606
f 604 602 603 616
f 603 602 801 853
f 611 605 604 662
f 608 607 606 605
f 606 607 791 802
f 607 608 783 890
f 790 791 607 890
f 608 605 611 634
f 611 622 626 634
f 633 622 611 662
f 636 610 612 637
f 702 637 612 613
f 613 609 684 706
f 700 702 613 706
f 614 615 616 617
f 631 615 614 632
f 616 615 662 604
f 618 764 632 614
f 636 764 618 610
f 620 621 619 630
f 619 628 629 630
f 619 621 632 764
f 619 764 636 628
f 631 632 621 663
f 754 663 621 620
f 623 624 622 633
f 622 624 627 626
f 623 633 631 663
f 754 755 623 663
f 623 755 759 624
f 624 759 643 627
f 625 626 627 717
f 625 635 634 626
f 627 643 761 717
f 710 629 628 687
f 645 630 629 709
f 630 645 640 620
f 662 615 631 633
f 783 608 634 635
f 687 628 636 637
f 686 687 637 702
f 638 639 640 641
f 638 652 653 664
f 638 664 739 639
f 754 620 640 639
f 641 640 645 737
f 652 638 641 510
f 642 644 650 651
f 642 651 735 526
f 644 642 643 759
f 664 650 644 739
f 645 709 746 737
f 653 512 646 648
f 648 646 647 649
f 647 712 713 649
f 724 725 647 646
f 664 653 648 650
f 649 651 650 648
f 735 651 649 713
f 659 655 654 856
f 656 655 877 819
f 727 578 658 728
f 658 574 842 676
f 659 864 877 655
f 661 659 856 883
f 864 659 661 660
f 667 665 666 719
f 718 719 666 833
f 834 549 666 665
f 667 679 678 560
f 667 560 839 665
f 714 263 668 715
f 717 715 668 625
f 694 670 669 691
f 671 670 694 816
f 671 816 696 674
f 675 551 673 672
f 673 550 870 586
f 695 672 674 696
f 695 697 675 672
f 675 832 833 551
f 728 658 676 844
f 679 667 719 721
f 683 681 682 685
f 873 681 683 590
f 710 687 686 768
f 688 493 689 692
f 783 266 688 890
f 690 691 692 689
f 806 693 690 792
f 691 690 693 694
f 790 692 691 669
f 692 790 890 688
f 694 693 815 816
f 696 816 815 533
f 832 675 697 827
f 698 680 731 480
f 698 835 830 498
f 700 706 703 701
f 702 700 701 686
f 701 704 768 686
f 765 768 704 776
f 706 684 707 703
f 710 708 709 629
f 765 708 710 768
f 712 647 725 723
f 715 711 716 714
f 761 711 715 717
f 721 719 718 722
f 832 840 718 833
f 721 722 720 679
f 840 542 722 718
f 732 730 726 481
f 728 495 730 727
f 730 732 729 727
f 729 732 731 579
f 738 742 734 472
f 736 78 740 886
f 748 741 736 886
f 739 755 754 639
f 759 755 739 644
f 742 738 744 752
f 758 752 744 468
f 745 749 757 193
f 751 232 757 749
f 752 758 760 753
f 757 232 767 780
f 762 763 769 782
f 773 875 762 782
f 866 230 762 875
f 765 776 774 491
f 769 763 772 187
f 771 770 775 778
f 777 254 778 775
f 784 62 786 277
f 788 94 789 51
f 791 592 799 802
f 793 218 794 795
f 793 795 850 186
f 807 795 794 808
f 863 850 795 807
f 797 397 796 798
f 809 810 797 798
f 799 800 801 802
f 800 660 853 801
f 800 879 864 660
f 804 805 803 395
f 806 792 803 805
f 803 475 849 395
f 810 811 804 797
f 805 804 811 381
f 815 693 806 379
f 820 854 862 878
f 880 821 820 878
f 872 848 821 880
f 825 826 823 829
f 827 697 824 536
f 826 846 847 823
f 857 206 826 825
f 840 832 827 537
f 829 148 828 825
f 828 148 831 221
f 839 572 834 665
f 872 880 855 452
f 888 206 857 152
f 867 571 860 546
f 884 868 861 29
f 864 879 887 877
f 873 590 871 583
f 874 681 873 582
f 892 751 320 770
f 893 233 232 751
