v -2.33826 -0.581724 2.39124
v -2.32729 -0.352585 2.45162
v -2.65456 -0.485855 2.34797
v -2.60835 -0.737025 2.31319
v -2.26856 -0.813092 2.30894
v -2.23228 -1.05438 2.18218
v -2.5473 -0.991968 2.22574
v -2.82366 -0.899277 2.15067
v -2.92447 -1.03623 1.96812
v -2.75938 -1.1489 2.10127
v -2.26202 -0.106706 2.48138
v -2.45675 0.284534 2.43555
v -2.57881 0.0280901 2.39846
v -2.79579 0.126753 2.12773
v -2.85212 -0.139028 2.11447
v -2.64175 -0.231997 2.36898
v -2.13459 0.141698 2.46806
v -1.99678 0.396456 2.42978
v -1.78036 0.279366 2.2607
v -2.69547 0.38457 2.14804
v -2.15984 0.798323 2.38822
v -2.30028 0.536954 2.43548
v -1.86249 0.662311 2.36307
v -1.63572 0.533226 2.2109
v -2.33554 1.11879 2.14538
v -2.43786 0.872103 2.1815
v -2.02961 1.03918 2.27395
v -1.43813 0.721508 2.04769
v -1.76138 1.48519 2.02731
v -1.71737 1.6935 1.91846
v -2.07144 1.52673 1.95962
v -2.51241 -1.19683 2.06865
v -1.49852 0.438346 2.03706
v -1.4748 0.669058 1.86462
v -1.59551 0.173369 2.09764
v -2.56068 0.88755 1.82314
v -2.48179 1.11331 1.81983
v -2.35799 1.30482 1.78731
v -1.93454 1.65631 1.74228
v -2.19479 1.45339 1.74243
v -2.20147 1.33142 2.06456
v -2.9363 -0.350536 1.78715
v -2.86354 -0.3994 2.11383
v -2.91695 -0.0901129 1.76247
v -2.86258 0.177476 1.75567
v -2.56226 0.625153 2.16995
v -2.76803 0.430218 1.75716
v -1.32584 0.929007 1.92029
v -2.69114 -0.850981 1.41932
v -2.93202 -0.80669 1.5906
v -2.86318 -0.586874 1.51201
v -2.61799 -0.654868 1.31329
v -2.92413 -1.00095 1.68861
v -1.9709 -0.504206 1.37094
v -2.24317 -0.46313 1.25877
v -1.89821 -0.219562 1.33317
v -1.62683 0.0834821 1.51729
v -1.66087 -0.224966 1.48263
v -2.00963 0.324871 1.20177
v -1.84088 0.0627539 1.35185
v -2.09434 0.0719031 1.19064
v -2.6135 0.418244 1.40932
v -2.70233 0.165308 1.40562
v -2.42262 0.118662 1.16784
v -2.33654 0.376985 1.17837
v -1.91992 0.546585 1.23709
v -1.87097 0.727977 1.27426
v -1.61963 0.686255 1.41519
v -1.75212 0.322553 1.38342
v -1.58841 0.553779 1.48474
v -1.5098 0.367281 1.62821
v -2.51817 0.648961 1.43941
v -2.65133 0.660319 1.78646
v -2.03031 1.10271 1.43096
v -2.1001 0.971204 1.34266
v -2.36983 1.05134 1.49517
v -2.17328 0.808127 1.27363
v -1.78258 0.98451 1.40899
v -1.53619 0.924988 1.50278
v -1.56341 0.861282 1.47015
v -1.74734 1.10134 1.47856
v -2.44721 0.857145 1.4731
v -2.24674 0.60983 1.21931
v -1.59913 0.779845 1.43209
v -1.9745 1.24904 1.50274
v -2.15124 1.32841 1.56544
v -1.9597 1.43762 1.59479
v -2.2653 1.20767 1.5328
v -1.66527 1.4296 1.61014
v -1.45374 1.35557 1.96776
v -1.33872 1.0577 1.66203
v -2.54972 -0.412727 1.23735
v -2.7537 -1.0356 1.5108
v -2.42028 -0.948905 1.4072
v -2.53037 -1.12317 1.53805
v -2.64897 -1.25655 1.65455
v -1.82443 0.868718 1.32822
v -2.07023 -0.769388 1.45051
v -1.84143 -0.822022 1.61279
v -2.18957 -1.01936 1.54487
v -1.99445 -1.1023 1.72692
v -2.34831 -1.19635 1.68927
v -2.2456 -1.19158 1.93329
v -1.60191 0.130986 1.82591
v -1.5674 -0.180677 1.78285
v -1.72352 -0.542839 1.51195
v -2.92871 -1.20615 1.74387
v -2.79199 -1.1934 1.60527
v -2.80921 -0.349037 1.45553
v -2.76772 -0.094656 1.41839
v -2.9214 -1.22532 1.91765
v -2.93703 -0.825473 1.8975
v -1.5415 0.439628 1.62951
v -1.43907 0.66407 1.65441
v -1.67254 -0.795014 1.86204
v -1.92274 -1.04209 2.02185
v -1.92157 -0.828577 2.17985
v -1.5428 1.54249 1.80138
v -2.74014 -1.31015 1.9442
v -2.78558 -1.3064 1.76776
v -2.53437 -1.28022 1.8496
v -0.919064 0.928916 1.81554
v -1.02839 0.924865 1.78835
v -0.950443 0.833926 1.68642
v -1.28842 0.626836 1.70255
v -1.41076 0.730985 1.63612
v -0.991007 0.893996 2.0145
v -1.00209 0.773158 1.86345
v -0.905627 0.538246 1.93778
v -0.900521 0.55789 1.68844
v -1.06142 0.717782 1.7781
v -0.943364 0.745439 1.69509
v -0.860844 0.527341 1.76203
v -1.25846 2.33514 1.67432
v -1.2644 2.10779 1.62511
v -1.36903 2.13474 1.74766
v -1.08325 2.08197 1.68907
v -1.04107 2.27844 1.69674
v -1.04117 2.24829 1.908
v -1.07032 2.04186 1.87697
v -1.23661 2.24663 1.88029
v -1.25411 1.9966 1.92658
v -1.36178 1.93857 1.77148
v -1.24495 1.88889 1.63082
v -1.05676 1.85137 1.66905
v -1.06315 1.81105 1.87134
v -1.24491 1.76045 1.90519
v -1.24622 1.6537 1.64386
v -1.05745 1.58373 1.87477
v -1.33663 1.44403 1.78159
v -1.34894 1.70187 1.76672
v -1.27427 1.40388 1.65251
v -1.05886 1.61846 1.67961
v -1.07582 1.38049 1.68215
v -1.06559 1.35482 1.85812
v -1.24323 1.51476 1.89422
v -1.21995 1.27604 1.89883
v -1.28031 1.13688 1.66705
v -1.30741 1.166 1.85137
v -1.03176 1.08775 1.86779
v -1.04869 1.12881 1.67546
v -1.07733 0.962747 1.67773
v -1.33432 0.912228 1.69767
v -1.0388 0.963538 1.81354
v -1.06808 1.07922 1.89751
v -1.12742 1.03174 1.88555
v -1.41997 0.735277 1.7527
v -0.963706 0.726497 1.60929
v -1.25529 0.648674 1.78755
v -1.42336 0.730413 1.68596
v -1.54578 0.401632 1.8924
v -1.47406 0.708508 1.65148
v -1.3592 0.64871 1.77259
v 0.149299 -0.510832 1.21035
v 0.361149 -0.76595 1.35375
v 0.103684 -0.791913 1.30101
v 0.364096 -0.461585 1.3337
v 0.140406 -0.219367 1.16458
v 0.339534 -0.164456 1.3138
v 0.520904 -1.00459 1.57923
v 0.285607 -1.05774 1.44298
v 0.546249 -0.703818 1.54662
v -0.404965 -0.68124 1.35002
v -0.0911841 -0.53729 1.21005
v -0.169426 -0.767902 1.29672
v 0.429796 -1.30155 1.68946
v -0.470386 -0.434055 1.32708
v -0.582016 -0.544547 1.40999
v -0.514683 -0.26141 1.33611
v -0.0921281 -0.265028 1.14644
v 0.0791228 0.0636742 1.1399
v -0.0290138 0.32895 1.13118
v 0.167256 0.39214 1.28416
v -0.468816 0.184063 1.27948
v -0.373315 -0.0288285 1.24203
v -0.645964 0.126307 1.41591
v -0.185211 0.566329 1.15209
v 0.0232392 0.63903 1.27992
v -0.266338 0.246635 1.14263
v -0.600685 0.387976 1.32406
v -0.413586 0.469223 1.18906
v -0.773989 0.591992 1.41906
v -0.598905 0.657753 1.29318
v 0.181471 0.699629 1.48939
v 0.318287 0.448078 1.50702
v -0.384548 0.765895 1.21515
v -0.143059 0.867202 1.27408
v -0.35158 1.04666 1.34043
v 0.0587704 0.945146 1.45632
v -0.808441 0.814434 1.42499
v -0.603804 0.921327 1.34143
v -0.304549 1.32665 1.49375
v -0.460446 1.46857 1.56688
v -0.281484 1.54783 1.72076
v -0.139991 1.40325 1.6923
v -0.544744 1.19571 1.44746
v -0.818118 1.04601 1.4912
v -0.703909 1.35352 1.54395
v -0.793362 1.48207 1.61104
v -0.98538 1.14963 1.71945
v -0.303849 -0.251282 1.21905
v -0.301483 -0.4926 1.26079
v -0.865772 0.528854 1.51688
v -0.815844 -0.216976 1.69232
v -0.739357 -0.153314 1.49735
v -0.820558 -0.466002 1.64051
v -0.107124 1.16083 1.44708
v 0.0199847 1.22717 1.71178
v -0.865354 0.303186 1.60089
v -0.824596 0.293276 1.76209
v 0.482048 0.207117 1.80494
v 0.542695 -0.0876097 1.81371
v 0.427765 0.175238 1.52061
v 0.371774 0.484667 1.78683
v 0.236308 0.738432 1.7619
v -0.983395 0.947886 1.54399
v -0.917497 1.26982 1.94814
v -0.859757 1.42806 1.89701
v 0.481457 -0.381495 2.08112
v 0.265035 -0.124071 2.32497
v 0.299868 -0.418471 2.29834
v 0.514048 -0.912692 2.03063
v 0.515736 -0.657009 2.06545
v 0.314796 -0.707885 2.25338
v 0.0467963 -1.02272 2.15515
v -0.25486 -0.765223 2.189
v -0.212214 -1.0064 2.05997
v -0.372544 0.0645726 2.36697
v -0.631378 0.0360169 2.18512
v -0.334785 -0.220093 2.34674
v 0.457786 -0.0902494 2.09646
v 0.203416 0.174454 2.32874
v -0.159453 0.422437 2.45
v -0.0653602 0.122178 2.46999
v 0.10551 0.466217 2.30836
v 0.394675 0.203737 2.09326
v -0.0211769 0.743581 2.27069
v -0.300591 0.70733 2.38627
v -0.595884 0.63588 2.29775
v -0.47034 0.959604 2.24996
v -0.325502 1.21757 2.12115
v -0.160264 1.00884 2.22247
v -0.0571564 1.24629 1.98919
v 0.0816895 1.02175 2.02858
v -0.656158 1.19623 2.0931
v -0.778149 0.921646 2.13798
v -0.218057 1.42889 1.95115
v 0.309609 -0.979397 2.14339
v 0.0255208 -0.753376 2.27359
v -0.0192736 -0.182398 2.44656
v -0.456151 0.351865 2.35683
v -0.577947 -0.520573 2.15266
v -0.809965 -0.518659 1.93164
v -0.511265 -0.764551 2.04665
v -0.840552 0.022928 1.98818
v -0.859519 0.289979 1.98007
v -0.798174 0.0367925 1.7269
v 0.165633 -1.26739 1.65175
v 0.35143 -1.22199 2.00104
v 0.0943817 -1.21553 1.94516
v 0.563201 -0.381755 1.81376
v 0.29539 0.487244 2.07369
v 0.172864 0.753174 2.04368
v -0.779338 1.56417 1.9468
v -0.811254 1.37861 1.9969
v -0.599054 1.55432 1.95767
v -0.967815 0.866528 1.6957
v -0.9637 0.98833 1.77009
v -0.354179 -1.11028 1.59975
v -0.0876897 -1.18587 1.62262
v -0.35258 -1.1461 1.81199
v -0.609348 -0.971284 1.70723
v -0.718723 -0.754003 1.83698
v -0.726018 -0.686639 1.57352
v -0.851322 1.63626 1.74663
v -0.574414 1.60324 1.6414
v -0.671715 1.73126 1.79668
v -0.436653 1.62758 1.71785
v -0.468558 1.69466 1.8191
v 0.576431 -1.143 1.81754
v 0.528695 -1.12224 1.99589
v -1.89479 1.26046 2.145
v -1.49518 0.987039 1.54039
v -1.71172 1.24415 1.53349
v -1.58895 1.16447 2.09937
v -1.72922 0.915657 2.24734
v 0.148283 0.997142 1.73536
v -1.39439 0.763844 1.86815
v -1.2038 0.788755 1.88693
v -1.12745 0.952049 1.9243
v -1.47605 0.721919 1.66628
v -0.753421 0.329504 1.45355
v -1.88833 0.0179205 2.29238
v -0.691228 0.311809 2.17166
v -1.65006 -0.0973401 2.12046
v -0.790834 0.0723278 1.53856
v -1.67888 -0.364453 2.14918
v -1.95631 -0.237241 2.33162
v -0.571831 -0.076249 1.37681
v -2.01515 -0.474679 2.32688
v -2.49154 -0.149424 1.18882
v -2.16779 -0.196617 1.20435
v -2.95397 -0.596962 1.83265
v -2.86766 -0.649034 2.13665
v 0.574628 -0.667597 1.80582
v 0.510463 -0.411514 1.54867
v -0.851642 -0.248766 1.98129
v -1.76162 -0.616545 2.15602
v -1.58224 -0.492101 1.80506
v 0.55678 -0.939307 1.79784
v -0.46233 -1.00012 1.93608
v -0.158038 -1.18381 1.8797
v 0.00636009 -1.04609 1.39586
v -0.293179 -0.499882 2.28416
v -0.688425 -0.365807 1.45332
v -0.273733 -0.975916 1.41335
v -2.08572 -0.63472 2.31849
v -0.374693 1.5674 1.91945
v 0.0126918 -0.473658 2.37723
v -0.615995 -0.243125 2.19294
v -0.484248 1.39479 2.03843
v -0.159166 0.00204027 1.12704
v -2.3276 -0.714439 1.32934
v 0.274442 0.122551 1.29676
v -0.526558 -0.84674 1.48962
v -0.812361 0.584762 2.13057
v 0.49208 -0.115465 1.53398
v -1.36138 0.879496 1.81741
v -1.29041 0.690826 1.83163
v -0.918577 0.776186 1.66585
v -1.31459 0.954515 1.85595
v -1.44868 0.672064 1.70292
f 1 3 4 5
f 1 5 117 337
f 3 1 2 16
f 13 16 2 11
f 2 320 318 11
f 337 320 2 1
f 15 43 3 16
f 3 43 324 4
f 6 5 4 7
f 4 324 8 7
f 32 103 6 7
f 117 5 6 116
f 9 10 8 112
f 32 7 8 10
f 50 53 9 112
f 10 9 111 119
f 12 13 11 17
f 12 20 14 13
f 12 17 18 22
f 46 20 12 22
f 13 14 15 16
f 44 15 14 45
f 19 18 17 313
f 17 11 318 313
f 24 23 18 19
f 19 313 315 35
f 45 14 20 47
f 25 26 21 27
f 306 27 21 23
f 23 21 22 18
f 26 46 22 21
f 23 24 28 306
f 35 33 24 19
f 36 26 25 37
f 38 37 25 41
f 27 302 41 25
f 33 34 28 24
f 305 306 28 48
f 29 31 41 302
f 29 302 305 90
f 31 29 30 39
f 90 118 30 29
f 38 41 31 40
f 32 10 119 121
f 104 171 33 35
f 34 33 171 71
f 48 28 352 167
f 352 70 68 311
f 46 26 36 73
f 82 36 37 76
f 76 37 38 88
f 38 40 86 88
f 40 31 39 87
f 118 89 39 30
f 51 323 42 109
f 44 42 43 15
f 43 42 323 324
f 63 110 44 45
f 109 42 44 110
f 47 20 46 73
f 47 62 63 45
f 48 91 90 305
f 49 50 51 52
f 53 50 49 93
f 343 94 49 52
f 92 52 51 109
f 51 50 112 323
f 52 92 55 343
f 53 107 111 9
f 58 106 54 56
f 56 54 55 322
f 98 343 55 54
f 55 92 321 322
f 57 58 56 60
f 105 58 57 104
f 60 61 59 69
f 64 65 59 61
f 71 57 60 69
f 60 56 322 61
f 61 322 321 64
f 64 63 62 65
f 73 72 62 47
f 321 110 63 64
f 66 59 65 83
f 65 62 72 83
f 66 67 68 70
f 66 70 69 59
f 67 66 83 77
f 67 97 84 68
f 71 69 70 34
f 104 57 71 171
f 73 36 82 72
f 74 75 76 88
f 81 78 74 85
f 86 85 74 88
f 74 78 97 75
f 76 75 77 82
f 97 67 77 75
f 79 80 78 81
f 78 80 84 97
f 80 79 126 170
f 81 85 87 304
f 81 304 303 79
f 83 72 82 77
f 170 172 84 80
f 84 172 311 68
f 87 85 86 40
f 89 304 87 39
f 90 91 89 118
f 91 113 114 303
f 348 113 91 48
f 91 303 304 89
f 92 109 110 321
f 94 95 93 49
f 93 95 96 108
f 93 108 107 53
f 98 100 94 343
f 95 94 100 102
f 96 95 102 121
f 107 108 96 120
f 106 99 98 54
f 100 98 99 101
f 99 106 329 115
f 102 100 101 103
f 115 116 101 99
f 103 101 116 6
f 121 102 103 32
f 104 35 315 105
f 106 58 105 329
f 105 315 317 329
f 120 119 111 107
f 324 323 112 8
f 125 126 114 113
f 117 116 115 328
f 320 337 117 328
f 120 96 121 119
f 122 165 166 123
f 164 122 124 162
f 350 122 123 287
f 310 288 123 166
f 124 168 132 348
f 203 202 350 210
f 236 210 350 287
f 125 113 348 132
f 169 170 126 125
f 303 114 126 79
f 127 128 129 346
f 127 266 237 220
f 127 346 259 266
f 127 220 288 310
f 133 129 128 131
f 128 127 310 309
f 129 276 314 346
f 131 132 130 133
f 168 223 130 132
f 130 229 230 133
f 312 229 130 223
f 173 169 131 349
f 169 125 132 131
f 276 129 133 230
f 134 135 136 141
f 138 137 135 134
f 145 144 135 137
f 136 143 142 141
f 136 135 144 143
f 139 140 137 138
f 141 139 138 134
f 141 142 140 139
f 140 146 145 137
f 146 140 142 147
f 147 142 143 151
f 144 148 151 143
f 148 144 145 153
f 145 146 149 153
f 149 146 147 156
f 147 151 150 156
f 148 153 154 152
f 157 156 150 159
f 158 159 150 152
f 152 150 151 148
f 155 154 153 149
f 158 152 154 161
f 160 161 154 155
f 156 157 155 149
f 157 165 160 155
f 162 163 158 161
f 159 158 163 351
f 165 157 159 166
f 162 161 160 164
f 348 163 162 124
f 165 122 164 160
f 351 163 167 308
f 351 308 309 310
f 167 352 311 308
f 168 350 202 223
f 173 172 170 169
f 173 349 311 172
f 175 176 174 177
f 174 178 179 177
f 174 184 190 178
f 180 181 175 182
f 175 177 326 182
f 181 333 176 175
f 176 185 184 174
f 177 179 347 326
f 191 344 179 178
f 179 344 233 347
f 180 330 300 186
f 180 182 325 330
f 181 180 186 278
f 181 278 290 333
f 184 185 183 222
f 294 188 183 345
f 183 185 336 345
f 333 336 185 176
f 221 222 187 189
f 189 187 188 335
f 222 183 188 187
f 225 319 189 335
f 191 178 190 342
f 195 342 190 221
f 222 221 190 184
f 191 192 193 344
f 191 342 199 192
f 192 199 201 197
f 193 192 197 198
f 233 344 193 205
f 312 200 194 196
f 196 194 195 319
f 195 194 199 342
f 225 316 196 319
f 229 312 196 316
f 197 201 203 206
f 197 206 207 198
f 198 204 205 193
f 198 207 209 204
f 200 201 199 194
f 200 312 223 202
f 202 203 201 200
f 203 210 211 206
f 235 234 205 204
f 211 208 207 206
f 209 207 208 227
f 208 216 212 227
f 208 211 217 216
f 209 227 228 307
f 235 204 209 307
f 210 236 217 211
f 212 213 214 215
f 218 213 212 216
f 213 218 219 296
f 213 296 298 214
f 214 338 267 215
f 215 228 227 212
f 218 216 217 220
f 219 218 220 237
f 219 237 238 295
f 220 217 236 288
f 319 195 221 189
f 273 327 224 226
f 275 277 224 327
f 316 225 224 277
f 226 224 225 335
f 228 215 267 263
f 275 276 230 277
f 316 277 230 229
f 251 232 231 256
f 231 234 282 256
f 233 231 232 347
f 234 231 233 205
f 235 307 264 283
f 235 283 282 234
f 285 238 237 265
f 238 285 284 295
f 240 241 239 251
f 239 241 244 243
f 325 281 239 243
f 240 252 254 270
f 241 240 270 339
f 242 243 244 268
f 330 325 243 242
f 244 241 339 269
f 246 247 245 269
f 245 247 332 280
f 247 246 274 331
f 291 332 247 331
f 253 271 248 254
f 270 254 248 250
f 314 249 248 271
f 250 248 249 340
f 250 334 339 270
f 252 240 251 256
f 251 239 281 232
f 282 255 252 256
f 257 258 253 255
f 253 258 259 271
f 255 253 254 252
f 264 262 257 283
f 282 283 257 255
f 258 257 262 260
f 259 258 260 266
f 261 265 260 262
f 261 263 267 341
f 285 265 261 341
f 263 261 262 264
f 307 228 263 264
f 265 237 266 260
f 269 245 268 244
f 268 245 280 279
f 268 279 301 242
f 334 246 269 339
f 346 314 271 259
f 327 273 272 340
f 274 272 273 293
f 294 293 273 226
f 274 246 334 272
f 314 276 275 249
f 275 327 340 249
f 278 186 279 280
f 332 290 278 280
f 279 186 300 301
f 347 232 281 326
f 297 295 284 286
f 286 284 285 341
f 286 338 299 297
f 287 123 288 236
f 333 290 289 336
f 345 336 289 292
f 291 289 290 332
f 292 289 291 331
f 292 293 294 345
f 293 292 331 274
f 294 226 335 188
f 296 219 295 297
f 298 296 297 299
f 338 214 298 299
f 301 300 330 242
f 302 27 306 305
f 309 308 311 349
f 318 317 315 313
f 317 318 320 328
f 326 281 325 182
f 329 317 328 115
f 334 250 340 272
f 341 267 338 286
f 348 48 167 163
f 349 131 128 309
f 350 168 124 122
f 351 310 166 159
f 352 28 34 70
