v -2.678 -0.875677 2.23055
v -2.55157 -0.793239 2.30149
v -2.69346 -0.780958 2.26975
v -2.55797 -0.689264 2.34208
v -2.24191 -0.480658 2.40694
v -2.40593 -0.36163 2.45368
v -2.40623 -0.477805 2.42441
v -2.5661 -0.468618 2.39551
v -2.56632 -0.351626 2.41131
v -2.69949 -0.342854 2.31697
v -2.70105 -0.458196 2.31285
v -2.70294 -0.569692 2.3066
v -2.8083 -0.45357 2.19852
v -2.81232 -0.562197 2.20162
v -2.56358 -0.581061 2.37253
v -2.70088 -0.678385 2.29573
v -2.40512 -0.590752 2.39202
v -2.80592 -0.865856 2.17873
v -2.78435 -0.957052 2.14993
v -2.8791 -0.945159 2.0709
v -2.14492 -1.04468 2.16387
v -2.27736 -1.03911 2.20653
v -2.30333 -1.11989 2.12275
v -2.42678 -1.10866 2.15477
v -2.689 -1.23426 2.05819
v -2.70677 -1.29156 1.98384
v -2.58321 -1.24717 2.02662
v -2.60858 -1.29465 1.93866
v -2.80876 -0.340394 2.19675
v -2.88822 -0.457508 2.06397
v -2.90384 -0.664131 2.08639
v -2.91378 -0.761765 2.09496
v -2.81591 -0.667386 2.20336
v -2.90317 -0.859023 2.08737
v -2.09381 -0.711403 2.29971
v -1.94656 -0.707861 2.23978
v -2.08684 -0.594196 2.3283
v -1.96371 -0.824405 2.20504
v -2.24348 -0.595809 2.37425
v -2.12139 -0.940064 2.22176
v -2.10582 -0.826395 2.26272
v -2.25207 -0.82297 2.30272
v -2.26189 -0.93344 2.25933
v -2.41153 -1.02367 2.22793
v -2.40422 -0.919572 2.27491
v -2.66706 -1.07017 2.16035
v -2.66866 -0.977778 2.19747
v -2.8718 -1.02911 2.06896
v -2.87877 -1.10786 2.05402
v -2.78167 -1.13393 2.10191
v -2.77778 -1.04872 2.12795
v -2.80734 -0.22292 2.19201
v -2.69749 -0.224024 2.31889
v -2.80251 -0.102516 2.18347
v -1.92308 -0.115885 2.31239
v -1.92177 -0.232348 2.31137
v -1.77893 -0.220441 2.21814
v -1.9222 -0.350722 2.30419
v -2.07496 -0.359378 2.37896
v -1.77596 -0.338935 2.21656
v -1.63666 -0.321279 2.11621
v -1.64118 -0.202514 2.11779
v -1.77833 -0.459683 2.20716
v -1.63818 -0.444901 2.10978
v -2.40385 -0.241496 2.47352
v -2.56567 -0.231271 2.42221
v -2.79225 0.0198842 2.17102
v -2.68056 0.021126 2.30666
v -2.69149 -0.102261 2.3154
v -2.66437 0.14485 2.29311
v -2.55037 0.0165661 2.42216
v -2.53475 0.141397 2.41159
v -1.89602 0.219526 2.32873
v -1.87265 0.327552 2.33697
v -2.01405 0.339952 2.43031
v -2.03622 0.225868 2.42635
v -2.05321 0.110133 2.41734
v -2.77461 0.142571 2.15405
v -2.75047 0.263833 2.13353
v -2.85384 0.131085 1.99069
v -2.87454 0.0100084 2.01202
v -2.88615 -0.110704 2.02965
v -2.17442 0.360082 2.49083
v -2.36694 0.257564 2.48462
v -2.19581 0.239579 2.49568
v -2.34411 0.380305 2.46898
v -2.48876 0.387016 2.37599
v -2.51522 0.265744 2.39645
v -2.31355 0.498966 2.4452
v -2.45625 0.504306 2.35061
v -2.58036 0.50316 2.22892
v -2.61449 0.387194 2.25347
v -2.72099 0.381924 2.10886
v -2.642 0.267258 2.27494
v -1.84451 0.433458 2.34371
v -1.81734 0.539582 2.3407
v -1.95949 0.565391 2.41861
v -1.98682 0.453175 2.4307
v -1.70978 0.421628 2.2466
v -1.73566 0.320381 2.23895
v -2.2811 0.613449 2.41835
v -2.14762 0.478532 2.47918
v -2.42132 0.617472 2.32372
v -2.24736 0.724502 2.38833
v -2.38657 0.727589 2.29655
v -2.54245 0.614853 2.20238
v -1.65847 0.620434 2.24033
v -1.79089 0.644883 2.32451
v -1.68514 0.522119 2.24685
v -1.62689 0.715768 2.22783
v -1.76116 0.747034 2.30409
v -1.9332 0.675041 2.39292
v -1.56072 0.510743 2.14544
v -2.68123 0.495232 2.08297
v -2.63573 0.604882 2.0564
v -2.14496 1.03599 2.26884
v -2.10317 1.12981 2.22185
v -2.29093 1.05757 2.22219
v -2.17992 0.937906 2.31444
v -1.99424 1.01231 2.28651
v -2.02613 0.918066 2.34406
v -1.73079 0.846073 2.27248
v -1.56123 0.902056 2.16266
v -1.70294 0.940783 2.22287
v -1.42715 0.861504 2.0971
v -1.59587 0.809251 2.20254
v -1.47034 0.777549 2.12543
v -1.50259 0.691158 2.14044
v -1.42806 0.681283 2.00418
v -1.40896 0.748991 1.98302
v -1.41036 0.819673 1.9275
v -2.21453 0.834841 2.35769
v -2.05774 0.815877 2.39219
v -2.3533 0.837492 2.27158
v -2.32594 0.949354 2.25024
v -2.18734 1.40837 1.99323
v -2.13847 1.32667 2.10138
v -2.08307 1.40463 2.06182
v -2.24679 1.32958 2.02207
v -2.24344 1.15446 2.18348
v -2.3583 1.15508 2.08393
v -2.32203 1.3154 1.90584
v -2.38292 1.23155 1.92645
v -2.40782 1.0577 2.11559
v -1.84726 1.3677 2.09158
v -1.80655 1.45243 2.0477
v -1.91552 1.46727 2.0437
v -2.01331 1.30452 2.12942
v -2.1924 1.24365 2.1419
v -2.05936 1.21944 2.17525
v -2.02568 1.47829 2.0242
v -1.96678 1.55006 1.98652
v -2.12426 1.4812 1.96713
v -1.54435 1.59775 1.94146
v -1.62613 1.61132 1.94908
v -1.57367 1.51246 1.98404
v -1.48789 1.50445 1.9684
v -1.59482 1.42371 2.02335
v -1.49173 1.41725 2.00342
v -2.05857 1.54994 1.94187
v -2.12454 1.53731 1.86886
v -2.26227 1.39753 1.88746
v -1.80837 1.62621 1.95495
v -1.90526 1.62436 1.947
v -1.86312 1.54632 2.00055
v -1.76227 1.53661 2.00247
v -2.24686 -0.709007 2.3365
v -2.07305 -0.240982 2.39165
v -2.23209 -0.245437 2.45561
v -2.23731 -0.363294 2.43122
v -2.54326 -1.00131 2.22192
v -2.40229 -0.80964 2.30997
v -2.40266 -0.701186 2.35003
v -2.67448 -1.15891 2.11656
v -2.54903 -1.09384 2.16827
v -2.56255 -1.17543 2.10112
v -2.79178 -1.20407 2.05664
v -2.22639 -0.125211 2.47184
v -2.39917 -0.119101 2.48752
v -2.0697 -0.123083 2.40168
v -2.21926 -0.00421609 2.48177
v -2.38054 0.1308 2.49523
v -2.39211 0.00501763 2.49646
v -2.20743 0.117128 2.49151
v -2.11828 0.593506 2.45478
v -2.08838 0.706007 2.42568
v -1.84529 0.980143 2.27094
v -1.8738 0.88471 2.32578
v -1.90306 0.782883 2.36701
v -1.69941 1.43689 2.03896
v -1.66569 1.52372 1.99485
v -1.71371 1.62185 1.95366
v -1.43027 0.753722 1.8548
v -1.47582 0.515179 2.00937
v -1.58029 0.414974 2.14297
v -1.49171 0.423716 2.00166
v -1.60201 0.319162 2.13691
v -1.50424 0.330536 1.99583
v -1.54999 0.0388504 1.97261
v -1.53749 0.138106 1.97985
v -1.63523 0.121075 2.12288
v -1.55289 -0.177585 1.95926
v -2.72959 -1.32171 1.89692
v -2.64065 -1.30464 1.83852
v -2.51959 -1.27505 1.87817
v -2.48177 -1.24126 1.97873
v -2.93856 -1.16336 1.93626
v -2.88432 -1.16812 2.01443
v -2.93911 -0.858577 1.96122
v -2.93969 -0.768422 1.95519
v -2.93865 -0.57621 1.92845
v -2.89594 -0.562972 2.07555
v -2.93487 -0.472171 1.91291
v -2.93092 -0.363934 1.89643
v -2.88803 -0.346849 2.05459
v -2.88974 -0.229973 2.04429
v -2.78638 0.368454 1.93949
v -2.05407 1.59439 1.86035
v -2.08339 1.56712 1.77832
v -1.45218 0.602173 2.0161
v -1.43341 0.621884 1.87218
v -1.51873 0.46373 1.84475
v -1.53983 0.372543 1.84022
v -1.588 0.0753387 1.80677
v -1.55378 -0.0662521 1.96455
v -1.58112 -0.0322411 1.7869
v -2.93013 -1.091 1.95683
v -2.9383 -1.0953 1.84939
v -2.93797 -1.1674 1.84357
v -2.93326 -0.950192 1.8407
v -2.92668 -0.940674 1.9618
v -2.94732 -0.695583 1.79514
v -2.93373 -0.786422 1.81337
v -2.94368 -0.675136 1.94279
v -2.95018 -0.600869 1.77527
v -2.92511 -0.134536 1.85576
v -2.91176 -0.0147711 1.83356
v -2.93036 -0.251905 1.87679
v -2.7546 0.451463 1.73644
v -2.80754 0.340081 1.75806
v -2.74027 0.481275 1.91422
v -2.85233 0.224601 1.785
v -2.68793 0.58728 1.88789
v -2.55347 0.909678 1.83158
v -2.5896 0.799957 1.84994
v -2.5493 0.820502 2.01155
v -2.35462 1.30229 1.77366
v -1.39775 1.40898 1.93311
v -1.43447 1.47394 1.91179
v -1.46801 1.57297 1.8915
v -1.53039 1.6423 1.84808
v -1.46513 1.57825 1.77392
v -1.45024 1.479 1.83042
v -1.44556 1.5007 1.71168
v -1.41664 1.38708 1.77326
v -1.39483 1.29523 1.89769
v -1.38273 1.20946 1.89122
v -1.37306 1.21286 1.67306
v -1.38016 1.0957 1.90395
v -1.34504 0.962427 1.96992
v -1.4219 0.890535 1.87177
v -1.8334 -0.815722 2.12433
v -1.71219 -0.803695 2.03184
v -1.80773 -0.699142 2.15958
v -1.67899 -0.687763 2.06241
v -1.78976 -0.580071 2.18634
v -1.65292 -0.567914 2.08899
v -1.65133 -0.761671 1.88265
v -1.60479 -0.65069 1.90095
v -1.55691 -0.416762 1.93944
v -1.57144 -0.535057 1.91763
v -1.98821 -0.93751 2.15967
v -1.86767 -0.926936 2.07731
v -2.02089 -1.04414 2.09879
v -2.18338 -1.12541 2.07441
v -2.07093 -1.12564 2.00956
v -1.96807 -1.11716 1.93143
v -1.90839 -1.03272 2.01762
v -1.75527 -0.91373 1.98845
v -2.3406 -1.18358 2.02453
v -2.23565 -1.18094 1.96681
v -2.13707 -1.17291 1.89871
v -2.56728 -1.28214 1.77246
v -2.43718 -1.25376 1.81098
v -2.29393 -1.21794 1.85568
v -2.21127 -1.19651 1.78249
v -2.38544 -1.22958 1.92023
v -2.74234 -0.772386 1.40002
v -2.76086 -0.856162 1.44775
v -2.88319 -0.789334 1.51213
v -2.68912 -0.581162 1.3303
v -2.80374 -0.505586 1.4393
v -2.66252 -0.4767 1.30314
v -2.88641 -0.872393 1.54677
v -2.77481 -0.939702 1.49189
v -2.88097 -0.949432 1.58475
v -2.67772 -1.30113 1.73699
v -2.74947 -1.27283 1.67628
v -2.63369 -1.26198 1.66643
v -2.72888 -1.22455 1.61196
v -2.90585 -0.545344 1.59871
v -2.83036 -0.605326 1.46345
v -2.92865 -0.640058 1.62173
v -2.0833 -0.253709 1.25148
v -2.1216 -0.366756 1.26368
v -2.27981 -0.294848 1.19556
v -1.97075 -0.435163 1.34521
v -1.92833 -0.324655 1.33245
v -2.40509 -0.725479 1.32847
v -2.26352 -0.790001 1.37053
v -2.43556 -0.826335 1.35729
v -2.23161 -0.686648 1.34298
v -2.37539 -0.623145 1.29444
v -2.0998 -0.741174 1.42
v -2.13761 -0.838884 1.45251
v -2.33101 -0.983206 1.44994
v -2.17388 -0.934543 1.49215
v -2.21021 -1.02682 1.53997
v -2.90585 -1.09852 1.63057
v -2.89176 -1.02728 1.60867
v -2.80806 -1.09896 1.55355
v -2.64263 -0.366112 1.28162
v -2.7582 -0.292105 1.38987
v -2.78033 -0.401245 1.41453
v -2.85138 -0.226438 1.52277
v -2.00742 -0.0252138 1.25252
v -1.8922 -0.210307 1.33575
v -2.04571 -0.138153 1.24982
v -1.71179 -0.159953 1.44566
v -1.74372 -0.277335 1.43036
v -2.58248 -0.134599 1.23625
v -2.43888 -0.215714 1.17596
v -2.61492 -0.251658 1.25893
v -2.73142 -0.177867 1.36599
v -2.69757 -0.0611355 1.34425
v -1.53748 0.00962808 1.61637
v -1.65625 0.0619221 1.49327
v -1.62479 0.164396 1.51223
v -1.54628 -0.101115 1.58637
v -1.68098 -0.0471651 1.46916
v -2.79424 0.00562614 1.47548
v -2.82499 0.18114 1.60873
v -2.75311 0.12278 1.45588
v -2.82743 -0.111219 1.49775
v -2.86282 0.0633035 1.63192
v -2.90905 -0.173164 1.68148
v -2.89043 -0.0556836 1.65665
v -2.20373 -0.0610178 1.17105
v -2.4029 -0.0964276 1.15756
v -2.3589 0.0233434 1.14662
v -2.54374 -0.0155448 1.21764
v -2.49871 0.103596 1.20285
v -2.55864 0.290515 1.29732
v -2.44705 0.221703 1.1931
v -2.61087 0.174353 1.30933
v -2.70576 0.239295 1.43835
v -2.65234 0.353523 1.4244
v -1.76439 0.506877 1.337
v -1.88138 0.592553 1.25598
v -1.7095 0.604014 1.36155
v -1.82476 0.690891 1.29036
v -1.60851 0.524803 1.45744
v -2.77887 0.297414 1.58711
v -2.1562 0.0562252 1.1694
v -2.25031 0.257149 1.14055
v -2.10652 0.17031 1.17319
v -2.30868 0.142001 1.14003
v -2.32753 0.450091 1.19363
v -2.50185 0.404535 1.29041
v -2.44097 0.515097 1.28972
v -2.3879 0.336408 1.19127
v -2.59521 0.465427 1.41441
v -1.4431 0.632899 1.62816
v -1.48308 0.543614 1.59581
v -1.55461 0.615561 1.47774
v -2.72481 0.410394 1.56953
v -2.19039 0.370204 1.15317
v -2.12777 0.478101 1.17066
v -1.99682 0.391036 1.20478
v -1.93999 0.492355 1.2278
v -2.06768 0.581078 1.19478
v -2.05274 0.283415 1.18648
v -2.36215 0.886835 1.40616
v -2.30462 0.986421 1.41169
v -2.25786 0.827615 1.31504
v -2.19541 0.924334 1.33396
v -2.12918 1.00892 1.36951
v -2.23862 1.07353 1.4334
v -2.54782 0.730216 1.53751
v -2.49775 0.835926 1.52672
v -2.47315 0.678449 1.40818
v -2.45095 0.942576 1.51641
v -2.41607 0.782822 1.40693
v -2.01008 0.942234 1.32586
v -1.94921 0.779235 1.26248
v -2.07569 0.858307 1.27658
v -2.37879 0.622005 1.29448
v -2.26398 0.557249 1.20657
v -2.20056 0.660324 1.22626
v -1.44695 0.802531 1.53766
v -1.39378 0.912873 1.60543
v -1.37806 0.720267 1.67191
v -2.535 0.573754 1.40846
v -2.66709 0.520276 1.55609
v -2.60577 0.625792 1.54625
v -2.13854 0.761103 1.24925
v -2.00905 0.681484 1.22738
v -2.13233 1.35621 1.58112
v -2.04257 1.29735 1.52811
v -2.10675 1.22599 1.49463
v -1.56635 1.45713 1.64254
v -1.47646 1.35133 1.62332
v -1.58917 1.37868 1.60707
v -2.19903 1.28685 1.55826
v -2.1722 1.15215 1.46236
v -2.26672 1.21325 1.53789
v -2.33227 1.13199 1.52336
v -2.06666 1.42347 1.60583
v -1.9818 1.36834 1.55961
v -2.002 1.48859 1.63163
v -1.93618 1.55308 1.65899
v -1.92406 1.43737 1.59236
v -1.56368 1.66003 1.74087
v -1.6593 1.62651 1.70255
v -1.68593 1.6897 1.74026
v -1.55599 1.60565 1.7047
v -1.55361 1.53238 1.6734
v -1.66521 1.49011 1.63494
v -1.65487 1.56088 1.6682
v -2.1261 1.47325 1.67919
v -2.05764 1.53791 1.69299
v -2.32649 1.25924 1.64948
v -2.26133 1.3359 1.65469
v -1.98554 1.5973 1.70847
v -1.93741 1.67422 1.79909
v -1.9117 1.65684 1.73258
v -1.86857 1.50485 1.62598
v -1.78634 1.46056 1.60663
v -1.81164 1.57426 1.66164
v -2.52231 -0.557451 1.2622
v -2.54906 -0.66007 1.3019
v -2.5772 -0.755197 1.34618
v -2.71809 -0.678997 1.36052
v -2.60597 -0.846117 1.38922
v -2.65352 -1.01446 1.47393
v -2.63043 -0.933156 1.43007
v -2.67813 -1.09048 1.51552
v -2.31112 -0.409268 1.22424
v -2.34387 -0.519183 1.2553
v -2.49667 -0.446095 1.226
v -1.87353 0.303925 1.29535
v -1.92416 0.197923 1.27774
v -1.71147 0.871956 1.38641
v -1.65499 0.698102 1.39196
v -1.7645 0.785028 1.32967
v -1.77442 1.02995 1.43757
v -1.72174 1.11347 1.49157
v -1.66234 0.958033 1.45181
v -1.61163 1.05107 1.50997
v -1.88547 0.869375 1.30934
v -1.94746 1.01629 1.38823
v -1.82781 0.950221 1.37461
v -1.88972 1.09338 1.44466
v -1.8332 1.17446 1.48871
v -1.97966 -0.78971 1.51128
v -1.93193 -0.696847 1.48451
v -1.86876 -0.836925 1.60354
v -2.02021 -0.882501 1.54174
v -1.9098 -0.923666 1.62803
v -2.05716 -0.976411 1.58234
v -1.58922 0.264954 1.52727
v -1.54938 0.362167 1.55261
v -1.52071 0.215141 1.66874
v -1.54555 -0.381203 1.7321
v -1.60215 -0.339392 1.53575
v -1.57743 -0.217483 1.55468
v -1.56495 -0.504286 1.71543
v -1.64059 -0.459845 1.53343
v -2.25276 -1.10663 1.6023
v -2.14431 -1.14726 1.70577
v -2.29954 -1.17424 1.67313
v -2.92756 -0.98038 1.71799
v -2.9321 -1.04882 1.73468
v -2.93427 -0.904466 1.69833
v -2.94051 -0.821401 1.67454
v -2.91964 -0.287932 1.7069
v -2.86927 -0.338436 1.54954
v -2.69594 0.559687 1.71818
v -2.45102 1.08586 1.64937
v -2.38998 1.17581 1.64765
v -2.39581 1.04305 1.51479
v -2.50154 0.9851 1.65815
v -2.01195 1.62205 1.78295
v -1.53233 0.113486 1.64823
v -2.93427 -0.87244 1.82835
v -2.93997 -0.732696 1.64798
v -2.94079 -0.502655 1.75269
v -2.9291 -0.39835 1.73124
v -2.88405 -0.444323 1.57655
v -2.88769 0.105857 1.8098
v -2.54032 0.876583 1.67319
v -2.58228 0.768321 1.68916
v -2.28683 1.38019 1.76606
v -2.51912 1.01929 1.81281
v -1.32283 0.820907 1.66019
v -1.3824 0.860937 1.76395
v -1.84171 -0.94764 1.69044
v -1.94518 -1.01495 1.66899
v -1.84411 -1.03518 1.75065
v -1.77562 -0.880139 1.69859
v -1.98442 -1.10595 1.73521
v -2.05234 -1.14938 1.81976
v -2.09608 -1.06875 1.63608
v -1.70775 -0.861228 1.85199
v -1.81128 -1.0116 1.92443
v -1.77092 -0.951958 1.81357
v -1.8406 1.70096 1.89336
v -1.92082 1.67778 1.88222
v -1.98993 1.61592 1.91559
v -1.58406 1.68823 1.87705
v -1.66234 1.70594 1.89155
v -1.99797 1.63516 1.8419
v -1.75234 1.70785 1.89662
v -1.66181 1.73008 1.82403
v -1.71269 1.71639 1.75967
v -1.83756 1.71377 1.76664
v -1.84414 1.72798 1.81992
v -1.78852 1.67235 1.72298
v -1.74105 1.65289 1.70979
v -1.71557 1.58262 1.67121
v -1.75144 1.53048 1.64231
v -1.60354 1.70139 1.76826
v -1.73308 1.73274 1.80768
v -2.86807 -1.22962 1.97797
v -2.80477 -1.25922 1.99526
v -2.8209 -1.29542 1.91787
v -2.90884 -1.2501 1.83091
v -2.90141 -1.24673 1.91075
v -2.92072 -1.17287 1.66547
v -2.82509 -1.16861 1.59786
v -2.83572 -1.22713 1.65877
v -2.75762 -1.31684 1.8138
v -2.78332 -1.29867 1.73831
v -2.94114 -1.17534 1.77702
v -2.91046 -1.23593 1.74447
v -2.83862 -1.29627 1.82657
v -2.83768 -1.2767 1.73466
v -0.976026 0.811194 1.89985
v -0.982017 0.874766 1.85713
v -1.01918 0.84564 1.87441
v -1.03554 0.78833 1.92096
v -0.985349 0.950676 1.85932
v -0.952647 0.743218 1.9095
v -1.03766 0.745099 1.8762
v -1.14296 0.814539 1.90979
v -1.23972 0.850992 1.91086
v -1.18875 0.806982 1.89387
v -1.31797 0.882086 1.87647
v -1.28012 0.825417 1.89862
v -1.1427 1.61267 1.64163
v -1.14921 1.50519 1.64369
v -1.27996 1.50439 1.65557
v -1.27429 1.61198 1.6551
v -1.08357 1.5058 1.90181
v -1.0837 1.61757 1.90324
v -1.19201 1.50513 1.90778
v -1.19382 1.61448 1.90958
v -1.3459 0.943084 1.79834
v -1.3592 0.885456 1.81143
v -0.980724 0.653753 1.7247
v -0.924603 0.670336 1.69998
v -1.33813 0.844985 1.8644
v -1.33267 0.796547 1.87195
v -1.01339 0.677065 1.79521
v -0.897222 0.62487 1.86571
v -0.91628 0.683931 1.89919
v -1.01838 0.695684 1.83893
v -0.929035 0.591442 1.7681
v -0.887005 0.518388 1.89887
v -0.861264 0.531619 1.80016
v -0.904935 0.606201 1.71775
v -0.874662 0.518204 1.72212
v -1.29151 0.610385 1.75062
v -1.34636 0.542115 1.73756
v -1.27057 0.669389 1.8333
v -1.42382 0.678354 1.8607
v -1.47166 0.545272 1.86552
v -1.41299 0.471753 1.71376
v -1.36015 2.36202 1.75284
v -1.36609 2.46568 1.76197
v -1.2929 2.47053 1.63476
v -1.28277 2.36754 1.62977
v -1.14561 2.47711 1.62228
v -1.14027 2.37399 1.6265
v -1.05306 2.49332 1.71379
v -1.0526 2.38138 1.71553
v -1.0427 2.3854 1.83145
v -1.05315 2.51322 1.83505
v -1.11109 2.46127 1.92133
v -1.10969 2.37487 1.9165
v -1.21934 2.36608 1.93502
v -1.21134 2.46939 1.93931
v -1.31898 2.46095 1.88429
v -1.31879 2.36054 1.8725
v -1.27986 2.26206 1.62966
v -1.3583 2.25852 1.74959
v -1.14101 2.26819 1.63156
v -1.05087 2.26983 1.71505
v -1.04134 2.26855 1.8304
v -1.11194 2.26357 1.91771
v -1.22512 2.26009 1.93585
v -1.32029 2.25746 1.86719
v -1.36004 2.15171 1.75132
v -1.27924 2.15435 1.63193
v -1.13869 2.1591 1.62224
v -1.05118 2.15956 1.70959
v -1.04085 2.15684 1.82594
v -1.11236 2.15397 1.91601
v -1.32354 2.15121 1.8692
v -1.03922 2.04805 1.81987
v -1.04863 2.05061 1.70253
v -1.27651 2.04427 1.6369
v -1.35921 2.04228 1.7553
v -1.22681 2.1526 1.93682
v -1.22396 2.04474 1.93648
v -1.10933 2.04609 1.91129
v -1.32127 2.04203 1.87213
v -1.13715 1.93838 1.62235
v -1.27415 1.93499 1.64335
v -1.14383 2.04949 1.61764
v -1.21722 1.93727 1.93093
v -1.10526 1.94482 1.91018
v -1.04664 1.94366 1.70246
v -1.03357 1.83363 1.70442
v -1.13437 1.82895 1.62947
v -1.01956 1.83608 1.81937
v -1.03988 1.94554 1.81815
v -1.09427 1.83732 1.90964
v -1.31027 1.82563 1.86588
v -1.2086 1.82979 1.92242
v -1.27066 1.71981 1.6524
v -1.34884 1.71737 1.75973
v -1.35911 1.82604 1.75551
v -1.27186 1.82752 1.64744
v -1.13879 1.7207 1.63641
v -1.20046 1.72351 1.91494
v -1.30146 1.71913 1.86433
v -1.34322 1.60955 1.76341
v -1.03713 1.72324 1.70735
v -1.03717 1.61425 1.70673
v -1.01608 1.61598 1.81844
v -1.01458 1.72586 1.82326
v -1.08669 1.73127 1.90743
v -1.29361 1.6116 1.86387
v -1.3407 1.50221 1.76617
v -1.0435 1.50473 1.70568
v -1.01661 1.50423 1.8159
v -1.29128 1.50359 1.86561
v -1.08821 1.39739 1.8988
v -1.19339 1.39545 1.90652
v -1.33719 1.3952 1.76799
v -1.28416 1.39657 1.65742
v -1.0555 1.39763 1.70322
v -1.02787 1.39661 1.81075
v -1.29042 1.39576 1.86705
v -1.16526 1.29203 1.64702
v -1.15938 1.39877 1.64527
v -1.0618 1.29373 1.69788
v -1.02963 1.29242 1.7999
v -1.18879 1.28672 1.90451
v -1.08419 1.28812 1.89168
v -1.28501 1.28848 1.66086
v -1.1622 1.18456 1.64796
v -1.28043 1.18358 1.66486
v -1.33119 1.18667 1.77321
v -1.33449 1.28938 1.77053
v -1.04651 1.18727 1.68799
v -1.07209 1.17992 1.8948
v -1.01903 1.17867 1.79734
v -1.28298 1.18526 1.87346
v -1.28903 1.28848 1.87097
v -1.00145 1.06695 1.78873
v -1.04684 1.07322 1.67887
v -1.27623 1.08792 1.87584
v -1.17461 1.0793 1.89872
v -1.18013 1.18177 1.90236
v -1.31565 1.08945 1.7784
v -1.28731 1.08515 1.67365
v -1.17118 1.07677 1.64938
v -1.06745 1.07201 1.88842
v -1.19516 0.973293 1.63733
v -0.991622 0.938388 1.77335
v -1.06201 0.951953 1.65275
v -1.06963 0.960444 1.90517
v -1.28455 1.00253 1.88132
v -1.18134 0.981278 1.90886
v -1.30112 1.00071 1.67963
v -1.33387 1.01276 1.78452
v -1.03728 0.767627 1.77337
v -1.02964 0.777333 1.86717
v -0.949085 0.883788 1.79664
v -1.20481 0.892777 1.91603
v -1.26381 0.878654 1.63446
v -1.33502 0.92249 1.70332
v -1.12373 0.82254 1.65131
v -1.29654 0.929607 1.88445
v -1.36094 1.93262 1.75771
v -1.31681 1.93269 1.87135
v -1.27066 0.736345 1.85452
v -1.27177 2.5558 1.67196
v -1.18371 2.55807 1.66407
v -1.15994 2.56776 1.74801
v -1.29252 2.56384 1.76902
v -1.17448 2.56175 1.87194
v -1.27954 2.55653 1.86243
v 0.211376 -0.433343 1.21847
v 0.34226 -0.389521 1.31134
v 0.229166 -0.540961 1.24375
v 0.361712 -0.495877 1.33175
v 0.246768 -0.644932 1.27252
v 0.187835 -0.323205 1.19577
v 0.320851 -0.280444 1.29028
v 0.448963 -0.351402 1.43779
v 0.43115 -0.242929 1.4175
v 0.464211 -0.457239 1.45752
v 0.259688 -0.745347 1.30733
v 0.410549 -0.791661 1.39218
v 0.265977 -0.84097 1.35078
v 0.522543 -0.851207 1.51079
v 0.403889 -0.884574 1.42758
v 0.0334209 -1.10977 1.45783
v -0.110993 -1.06335 1.42924
v 0.00963189 -1.03113 1.38584
v 0.151352 -1.07582 1.426
v 0.170689 -1.15091 1.48633
v 0.303169 -1.18896 1.51272
v 0.324903 -1.24996 1.56983
v 0.197703 -1.21615 1.54665
v 0.233311 -1.2677 1.60678
v 0.523539 -0.324637 1.5932
v 0.531947 -0.432156 1.61044
v -0.347363 -0.669363 1.32189
v -0.472678 -0.69056 1.38845
v -0.375478 -0.559658 1.30663
v -0.317973 -0.779088 1.34603
v -0.266598 -0.42544 1.22974
v -0.403092 -0.45051 1.29651
v -0.429643 -0.342003 1.29082
v -0.222477 -1.0874 1.49214
v -0.138734 -0.967347 1.36999
v -0.259148 -0.997189 1.42064
v -0.288489 -0.889154 1.37791
v -0.0100858 -0.931587 1.33813
v -0.163638 -0.861247 1.32915
v -0.0295207 -0.826076 1.30144
v 0.395881 -0.974313 1.45799
v 0.267412 -0.935494 1.38911
v 0.514138 -1.10436 1.5669
v 0.398034 -1.06446 1.48395
v 0.500488 -1.02312 1.54691
v 0.127157 -0.0995749 1.15327
v 0.295182 -0.169299 1.26946
v 0.15914 -0.212071 1.17281
v 0.227568 0.0570215 1.2375
v 0.378807 -0.0191683 1.37996
v 0.263034 -0.0566209 1.25277
v 0.407763 -0.132287 1.39771
v -0.560671 -0.366032 1.36949
v -0.535856 -0.474251 1.36855
v -0.688636 -0.387836 1.45614
v -0.578885 -0.258386 1.37769
v -0.715649 -0.17457 1.47725
v -0.593572 -0.152007 1.38985
v -0.450729 -0.233574 1.29577
v -0.468811 -0.126166 1.30698
v 0.184807 0.169639 1.22697
v 0.256976 0.318322 1.34741
v 0.302359 0.207055 1.35428
v 0.342819 0.0941251 1.36569
v -0.576133 0.288164 1.33251
v -0.430969 0.220122 1.24548
v -0.541576 0.187458 1.33056
v -0.487408 -0.0200939 1.31963
v -0.626506 0.0563185 1.41136
v -0.51186 0.0845991 1.32684
v 0.398237 0.238032 1.50086
v 0.437872 0.125044 1.5132
v 0.490033 0.143136 1.68617
v 0.00728695 0.241351 1.12858
v -0.0385347 0.353711 1.13196
v 0.141688 0.282806 1.22142
v 0.0942316 0.393557 1.22292
v 0.0446285 0.502471 1.22974
v 0.20963 0.428485 1.3456
v -0.469077 0.323649 1.25011
v -0.61461 0.386909 1.33423
v -0.511524 0.425485 1.25433
v -0.554029 0.527366 1.26663
v -0.444711 0.57512 1.20377
v -0.401619 0.470019 1.18329
v -0.357953 0.364105 1.1727
v -0.230861 0.412144 1.12671
v -0.653599 0.485456 1.34129
v -0.714415 0.352891 1.4164
v 0.352768 0.349213 1.49223
v 0.158979 0.535077 1.34892
v 0.252049 0.562505 1.48794
v 0.304026 0.457597 1.48805
v 0.40829 0.367159 1.66167
v -0.0874412 0.463485 1.14435
v -0.136891 0.571113 1.16332
v -0.00613304 0.609147 1.24207
v -0.0566556 0.713504 1.25834
v 0.058722 0.741488 1.36523
v 0.107054 0.638523 1.35586
v -0.693433 0.584181 1.35662
v -0.595028 0.628754 1.28977
v -0.487337 0.677853 1.23417
v -0.74833 0.448877 1.41928
v -0.858116 0.512133 1.51122
v -0.782854 0.544799 1.42967
v 0.200484 0.664533 1.49147
v 0.304471 0.575069 1.65087
v 0.35858 0.473216 1.65519
v -0.0274552 0.950242 1.37645
v 0.0323235 1.06957 1.50786
v 0.0791516 0.971983 1.49682
v -0.607025 0.970997 1.36528
v -0.488565 1.01791 1.34639
v -0.451632 0.926984 1.28847
v -0.57155 0.877194 1.30929
v -0.834707 0.874139 1.45086
v -0.78703 0.778168 1.40671
v -0.941161 0.821605 1.50586
v 0.0142259 0.845144 1.37184
v 0.116794 0.869139 1.49621
v -0.152115 0.921032 1.29355
v -0.196867 1.01537 1.33241
v -0.0698212 1.04983 1.39498
v -0.531856 0.779149 1.26455
v -0.411831 0.831356 1.23851
v -0.826631 0.638867 1.44241
v -0.933071 0.688427 1.54523
v -0.879595 0.730261 1.46642
v -0.681999 0.826513 1.3536
v -0.739325 0.681767 1.37637
v -0.639015 0.728599 1.31818
v -0.89078 0.603339 1.52187
v 0.15339 0.765564 1.49602
v -0.105243 0.818241 1.27178
v -0.180213 1.22807 1.45851
v -0.239033 1.31018 1.49579
v -0.143918 1.32646 1.56744
v -0.298159 1.3912 1.53664
v -0.357387 1.47106 1.57929
v -0.208343 1.40672 1.59349
v -0.0816729 1.24518 1.54561
v -0.0226607 1.16014 1.52543
v -0.639279 1.39645 1.54698
v -0.544612 1.4269 1.54753
v -0.601338 1.29795 1.49976
v -0.731826 1.36451 1.55541
v -0.844895 1.43778 1.60607
v -0.765637 1.46754 1.59962
v -0.147252 1.40945 1.68832
v -0.449728 1.45141 1.55773
v -0.397518 1.36294 1.51128
v -0.122304 1.14222 1.42394
v -0.293893 1.19141 1.41942
v -0.345503 1.27667 1.46549
v -0.335991 1.55361 1.65814
v -0.414233 1.55278 1.62423
v -0.465053 1.63876 1.67689
v -0.407171 1.63507 1.70448
v -0.270955 1.48091 1.62356
v -0.591026 1.52521 1.59961
v -0.63794 1.62981 1.65861
v -0.725291 1.60184 1.65278
v -0.683398 1.73309 1.74884
v -0.809833 1.56752 1.65014
v -0.67993 1.49761 1.59767
v -0.0698837 -0.615072 1.23204
v -0.0937703 -0.506898 1.20363
v 0.0798967 -0.582687 1.21567
v -0.238893 -0.534331 1.24766
v 0.124029 -0.887201 1.33504
v 0.136491 -0.98629 1.37557
v 0.0975625 -0.685842 1.25512
v -0.0489172 -0.719293 1.26966
v 0.27373 -1.02764 1.42731
v 0.284493 -1.11217 1.46886
v 0.412175 -1.14622 1.51647
v 0.424638 -1.21459 1.56714
v -0.180054 -0.177718 1.15309
v -0.0288412 -0.142975 1.11891
v -0.149526 -0.28784 1.16496
v 0.0893731 0.0136593 1.141
v -0.277557 0.150762 1.15787
v -0.102476 0.0816594 1.1054
v -0.242124 0.0422855 1.15454
v -0.14228 0.193142 1.10716
v -0.185862 0.303714 1.1132
v 0.0504196 0.127466 1.1302
v -0.275714 0.521303 1.14393
v -0.320883 0.627426 1.17117
v -0.366367 0.731014 1.20326
v -0.366545 1.06293 1.35093
v -0.324953 0.974254 1.29653
v -0.282007 0.880631 1.24729
v -0.234354 0.780721 1.2125
v -0.499493 1.33265 1.49885
v -0.454168 1.24081 1.45231
v -0.501229 1.54381 1.60822
v -0.54827 1.64138 1.66527
v -0.894543 0.496405 1.61729
v -0.923508 0.583858 1.61628
v -0.945221 0.664526 1.62715
v -0.884253 0.405268 1.61758
v -0.809398 0.325201 1.50278
v -0.869527 0.310796 1.61591
v -0.832895 0.419241 1.50625
v -0.853567 0.213414 1.61314
v -0.783576 0.22892 1.50076
v -0.758977 0.131693 1.49963
v -0.836904 0.115143 1.61031
v -0.825444 -0.084555 1.59707
v -0.740127 0.0318991 1.49503
v -0.726814 -0.0699783 1.48879
v -0.827538 0.0165059 1.60508
v -0.816492 -0.18803 1.5853
v -0.70506 -0.280616 1.46448
v 0.153145 -1.26787 1.66593
v 0.104853 -1.23029 1.60124
v 0.547181 -0.993034 1.66252
v 0.501244 -0.938977 1.53612
v 0.555434 -0.912362 1.65088
v 0.523009 -0.75618 1.49451
v 0.501935 -0.659688 1.48811
v 0.497139 -0.103151 1.5487
v 0.520216 0.027996 1.70609
v 0.539759 -0.0875976 1.72479
v 0.513738 -0.216398 1.56988
v 0.553246 -0.202524 1.74117
v 0.452526 0.256695 1.67346
v 0.472239 0.0113397 1.52954
v 0.16809 0.87859 1.65179
v -0.0202775 1.25747 1.67264
v 0.0964427 1.08258 1.65615
v 0.0412538 1.17402 1.66238
v -0.334141 1.59478 1.73374
v -0.278858 1.54277 1.71626
v -0.212034 1.47802 1.7041
v -0.837486 0.317562 1.73354
v -0.853945 0.418337 1.73068
v -0.80245 0.115356 1.73423
v -0.811802 -0.304382 1.71047
v -0.807596 -0.198171 1.72174
v -0.815402 -0.294649 1.57036
v -0.814363 -0.412167 1.70036
v 0.276446 -1.30397 1.66483
v 0.208156 -1.29392 1.72344
v 0.271336 -1.30633 1.7679
v 0.313294 -1.31809 1.71502
v 0.563604 -1.1491 1.70974
v 0.555472 -1.07182 1.6784
v 0.563362 -1.13714 1.81127
v 0.522845 -1.17821 1.60921
v 0.559817 -1.05788 1.79302
v 0.563134 -0.826529 1.64441
v 0.55755 -0.898768 1.78153
v 0.557149 -0.814044 1.78377
v 0.565743 -0.722362 1.78274
v 0.562816 -0.734397 1.63679
v 0.559545 -0.637776 1.62991
v 0.544378 -0.537856 1.62242
v 0.483703 -0.558361 1.47587
v 0.491022 0.146016 1.87308
v 0.417585 0.37281 1.84582
v 0.370638 0.478676 1.83888
v 0.26502 0.677678 1.82189
v 0.31756 0.579778 1.82982
v 0.0655355 1.18116 1.81109
v 0.136573 0.982585 1.65323
v 0.182861 0.882415 1.81747
v -0.245723 1.54488 1.79275
v -0.321431 1.59983 1.78296
v -0.173787 1.48616 1.79562
v -0.970963 1.21039 1.8063
v -0.998792 1.24971 1.91681
v -0.990626 0.836627 1.68376
v -0.944755 1.43 1.7505
v -0.946057 1.44751 1.84377
v -0.911413 1.54412 1.83187
v -0.976456 1.34794 1.8739
v -0.96485 1.32138 1.77312
v -0.845312 1.64446 1.8495
v -0.777568 1.6968 1.72913
v -0.855918 1.63172 1.73523
v -0.911648 1.54016 1.73545
v -0.880769 0.977321 1.49886
v -1.00653 0.926881 1.57099
v -0.91609 1.32237 1.58425
v -0.823344 1.33732 1.5672
v -0.914487 1.21535 1.559
v -0.912238 1.40094 1.60462
v -0.805913 1.23171 1.53397
v -0.90606 1.09743 1.5328
v -0.89729 1.5162 1.65095
v -0.975006 0.769328 1.5941
v -0.966839 0.720337 1.68638
v -0.954274 1.42239 1.66075
v -0.983638 1.31778 1.66483
v -1.0016 1.20371 1.6724
v -0.996917 1.03683 1.68422
v -0.545433 -0.812773 1.48531
v -0.640727 -0.820923 1.56885
v -0.588802 -0.70692 1.46628
v -0.73699 -0.619365 1.55157
v -0.661907 -0.495079 1.45337
v -0.626599 -0.601729 1.45747
v -0.505575 -0.582387 1.37532
v -0.69105 -0.722428 1.557
v -0.707851 -0.832107 1.66833
v -0.749541 -0.733339 1.6734
v -0.807687 -0.521097 1.69167
v -0.785808 -0.629416 1.68206
v -0.778765 -0.513746 1.55178
v -0.721046 -0.731598 1.78802
v -0.756652 -0.631538 1.80723
v -0.176843 -1.15204 1.5818
v -0.269913 -1.15735 1.66987
v -0.0756525 -1.13659 1.51002
v -0.324251 -1.10601 1.56979
v -0.414159 -1.10947 1.66114
v 0.146999 -1.27567 1.79529
v -0.0329335 -1.18803 1.59593
v 0.0198189 -1.2278 1.67078
v -0.12395 -1.19248 1.67408
v 0.0636665 -1.17545 1.53299
v 0.315904 -0.713897 2.25107
v 0.428034 -0.677723 2.17719
v 0.309242 -0.611299 2.27881
v 0.164388 -0.425309 2.37359
v 0.175151 -0.535947 2.34943
v 0.290452 -0.389966 2.30768
v 0.283882 -0.274544 2.31538
v 0.154958 -0.310457 2.39516
v -0.664243 -0.645534 2.02873
v -0.625892 -0.742986 1.98967
v -0.524051 -0.730723 2.06069
v -0.328936 -0.606511 2.22782
v -0.445737 -0.619951 2.1695
v -0.416788 -0.719165 2.12721
v -0.557598 -0.632275 2.1025
v -0.590413 -0.530714 2.14104
v -0.472776 -0.517066 2.20608
v 0.52846 -0.842827 2.05462
v 0.432297 -0.870719 2.13039
v 0.515169 -0.921084 2.02373
v 0.426996 -0.958082 2.09709
v 0.563833 -0.816705 1.92803
v 0.437486 -0.77742 2.16295
v 0.528261 -0.745228 2.06859
v 0.106835 -1.05235 2.13701
v 8.37588e-05 -1.06526 2.10161
v 0.130551 -1.12479 2.06579
v 0.0876824 -0.965725 2.19524
v -0.0251343 -0.983967 2.16597
v -0.103288 -1.07465 2.05301
v 0.0297825 -1.13518 2.02855
v 0.34935 -1.17107 2.04476
v 0.251004 -1.1896 2.03024
v 0.366561 -1.24103 1.97732
v 0.272887 -1.25397 1.95906
v 0.491046 -0.441319 2.06861
v 0.543448 -0.427378 1.92063
v 0.540091 -0.319438 1.91679
v 0.488189 -0.332941 2.06844
v 0.550846 -0.530735 1.92482
v 0.501198 -0.546061 2.06744
v 0.561039 -0.630425 1.92938
v 0.562712 -0.725656 1.93381
v -0.37261 -0.394816 2.2929
v -0.227403 -0.486431 2.31335
v -0.246481 -0.378289 2.34542
v -0.0441802 -0.889742 2.2169
v -0.174321 -0.800935 2.20999
v -0.154547 -0.89972 2.16663
v -0.131981 -0.993058 2.11594
v 0.324088 -0.992572 2.13344
v 0.33435 -1.08393 2.09212
v 0.31901 -0.900022 2.16898
v 0.430415 -1.0494 2.06994
v 0.349412 0.111121 2.19221
v 0.240181 0.0823828 2.31771
v 0.370848 -0.00716607 2.19914
v 0.259599 -0.0372049 2.32002
v 0.274273 -0.156438 2.3197
v 0.394121 -0.243139 2.20209
v 0.485062 -0.218974 2.06909
v 0.385374 -0.125726 2.2027
v -0.279598 -0.154741 2.38328
v -0.149312 -0.133497 2.43502
v -0.297935 -0.0413265 2.39449
v -0.168486 -0.0172576 2.446
v -0.317757 0.0722448 2.39933
v -0.523367 -0.188721 2.25347
v -0.511967 -0.299978 2.2485
v -0.402363 -0.172819 2.31945
v -0.116561 -0.360375 2.38883
v -0.132815 -0.248376 2.4179
v -0.532958 -0.0778376 2.25217
v -0.646514 -0.090711 2.17706
v -0.755441 -0.0994407 2.096
v -0.639512 -0.201216 2.18064
v 0.463898 0.0161116 2.05732
v 0.478346 -0.102524 2.06532
v 0.13461 -0.0707667 2.41386
v 0.116377 0.0497054 2.41704
v 0.00551873 -0.224071 2.44103
v 0.147128 -0.191075 2.40735
v -0.00745054 -0.105369 2.45769
v 0.213796 0.200933 2.31128
v 0.288566 0.342776 2.17424
v 0.181777 0.317425 2.30266
v 0.322592 0.228347 2.18424
v 0.441958 0.134769 2.04636
v 0.459101 0.261025 1.8592
v 0.412413 0.251033 2.03493
v 0.14463 0.430895 2.29086
v 0.0259117 0.404119 2.39345
v 0.0616258 0.288502 2.40552
v 0.249257 0.454166 2.1632
v 0.103524 0.540099 2.27501
v -0.516396 0.373886 2.31895
v -0.408681 0.405363 2.39289
v -0.446899 0.512277 2.37735
v 0.330938 0.473299 2.01184
v 0.375808 0.363997 2.02287
v -0.187473 0.590211 2.4105
v -0.147398 0.482633 2.43513
v -0.0141186 0.515242 2.37475
v 0.16159 0.665119 2.13591
v 0.0606856 0.644595 2.256
v 0.206401 0.561428 2.1505
v -0.555982 0.476542 2.30733
v -0.599142 0.57501 2.29161
v -0.488537 0.614258 2.35704
v -0.657418 0.447444 2.22714
v -0.718762 0.329606 2.1532
v -0.619129 0.348715 2.23637
v -0.756057 0.426557 2.14376
v 0.28144 0.576942 2.00016
v -0.0983857 0.72369 2.32856
v -0.229573 0.693901 2.38392
v -0.0553411 0.622106 2.35345
v -0.0611849 0.947212 2.20971
v -0.0217342 0.848037 2.22314
v 0.0832493 0.868977 2.11752
v 0.0479468 0.970801 2.11147
v -0.60695 0.890675 2.24649
v -0.64124 0.97002 2.18951
v -0.71642 0.850843 2.19824
v 0.119989 0.982686 1.97418
v 0.15188 0.880106 1.9775
v 0.0789363 1.0774 1.96404
v 0.00292443 1.06427 2.09625
v -0.184344 0.919646 2.27911
v -0.231454 1.00569 2.24079
v -0.315405 0.88766 2.31894
v -0.107485 1.03831 2.18601
v -0.157742 1.11984 2.15392
v -0.279169 1.08249 2.19325
v -0.140304 0.824572 2.30709
v 0.0188051 0.747599 2.2384
v -0.530322 0.711817 2.32943
v -0.641105 0.671545 2.26932
v -0.743775 0.637058 2.19793
v -0.681198 0.764378 2.24077
v -0.784347 0.727854 2.17761
v -0.877629 0.694545 2.10471
v -0.838745 0.607151 2.11456
v -0.795763 0.519296 2.12735
v -0.699932 0.543915 2.21341
v 0.186626 0.777148 1.9803
v 0.231366 0.676708 1.98843
v -0.271836 0.793659 2.35535
v -0.159571 1.30108 2.03096
v -0.264129 1.2733 2.08756
v -0.210528 1.19805 2.1209
v -0.0467522 1.14818 2.07565
v -0.10286 1.22857 2.05445
v -0.603958 1.16578 2.11601
v -0.644611 1.24964 2.07923
v -0.716659 1.13138 2.09341
v -0.758705 1.21714 2.05857
v -0.876594 1.18634 2.02998
v -0.827904 1.09817 2.06419
v -0.0291094 1.24511 1.94132
v -0.375206 1.23558 2.11342
v -0.31359 1.34544 2.05568
v -0.421293 1.31354 2.07729
v -0.212661 1.3707 2.00378
v -0.265937 1.43868 1.97539
v -0.40368 1.48555 1.98627
v -0.360041 1.41479 2.02125
v -0.81971 1.39363 1.98791
v -0.795758 1.3036 2.02515
v -0.712337 1.42189 2.00247
v -0.637207 1.53399 1.96492
v -0.737485 1.51236 1.95997
v -0.837708 1.48847 1.95081
v -0.855745 1.58208 1.90712
v -0.201409 1.45542 1.8935
v -0.264463 1.51962 1.8759
v -0.317985 1.50558 1.94429
v -0.0851267 1.32002 1.92675
v -0.141446 1.38955 1.90935
v -0.504072 1.46916 2.00222
v -0.537786 1.55013 1.96055
v -0.441871 1.55752 1.94808
v -0.464584 1.39098 2.04031
v -0.571103 1.3633 2.04687
v -0.53175 1.28022 2.08232
v 0.0175953 -0.340263 2.41709
v 0.0301889 -0.452482 2.38538
v 0.042849 -0.559979 2.34958
v 0.0550941 -0.661697 2.30446
v 0.183619 -0.642328 2.31411
v -0.100808 -0.470661 2.35715
v 0.190778 -0.74176 2.27057
v 0.204537 -0.934583 2.19216
v 0.197206 -0.838779 2.23128
v -0.0269161 0.0133761 2.46453
v -0.190321 0.0992715 2.45462
v -0.21648 0.216076 2.45497
v -0.0760134 0.253172 2.46322
v -0.109368 0.369979 2.45222
v -0.248061 0.331266 2.4495
v -0.372825 0.295478 2.40042
v -0.343034 0.184137 2.40321
v -0.322423 0.551347 2.41647
v -0.28384 0.4434 2.43532
v -0.363358 0.655058 2.38977
v -0.40512 0.754412 2.36003
v -0.446909 0.847626 2.32093
v -0.571477 0.805748 2.29718
v -0.606969 1.44764 2.00771
v -0.681359 1.33466 2.04229
v -0.259387 -0.905319 2.10405
v -0.339497 -1.00907 1.99496
v -0.234107 -0.997635 2.0538
v -0.443705 -1.02225 1.92977
v -0.306461 -1.09187 1.93564
v -0.204159 -1.0818 1.99528
v -0.0695455 -1.14541 1.98147
v -0.16771 -1.15493 1.92664
v -0.12134 -1.20572 1.84209
v -0.0315921 -1.20442 1.90372
v 0.061215 -1.1993 1.9547
v -0.9391 0.67152 2.01085
v -0.912289 0.588132 2.0082
v -0.875557 0.505428 2.02602
v -0.811894 0.315711 2.06793
v -0.882347 0.414746 1.93792
v -0.870467 0.311668 1.95918
v -0.78613 0.215511 2.07456
v -0.856091 0.209639 1.9687
v -0.766016 0.113137 2.07939
v -0.841343 0.108249 1.97562
v -0.846647 -0.102117 1.99269
v -0.827205 -0.207069 1.86635
v -0.842233 -0.21312 2.00576
v -0.76001 0.00799087 2.08771
v -0.795483 -0.54893 1.96212
v -0.701561 -0.54407 2.06431
v -0.820724 -0.438051 1.9788
v -0.729401 -0.435404 2.08916
v 0.0977427 -1.24816 1.8752
v 0.183264 -1.25358 1.92331
v 0.221265 -1.28947 1.84368
v 0.301446 -1.29903 1.87895
v 0.563434 -1.12714 1.88747
v 0.553096 -1.06135 1.90143
v 0.522154 -1.09747 1.98988
v 0.508988 -1.00897 2.01035
v 0.548993 -0.984071 1.90578
v 0.557754 -0.902724 1.9111
v 0.576303 -0.628443 1.77802
v 0.567143 -0.423883 1.76223
v 0.556569 -0.316516 1.75356
v 0.53775 -0.206039 1.91148
v 0.530292 -0.089548 1.90239
v 0.515561 0.0287192 1.88975
v 0.152212 0.986624 1.81705
v 0.0255354 1.16529 1.9518
v -0.840744 0.31997 1.84696
v -0.851623 0.426855 1.8323
v -0.822813 0.216148 1.85394
v -0.843702 0.00536581 1.9837
v -0.819189 -0.0986883 1.86093
v -0.815255 -0.422615 1.83822
v -0.790134 -0.528816 1.82545
v 0.573877 -0.528164 1.77118
v 0.115126 1.08835 1.81447
v 0.0118532 1.26749 1.80933
v -0.933422 1.46447 1.92547
v -0.775799 1.69877 1.84412
v -0.89029 0.981328 2.06715
v -0.986608 0.952648 2.0305
v -0.950584 0.868413 2.05776
v -0.934283 1.0671 2.03783
v -0.991515 1.14775 1.98802
v -1.01276 1.02834 1.97364
v -0.928122 1.37578 1.97004
v -0.919014 1.28342 2.00867
v -0.967392 0.758887 2.00072
v -1.00857 0.922973 1.94416
v -1.01473 0.967752 1.92242
v -0.912988 0.78228 2.08348
v -0.995361 0.841972 1.97794
v -0.541234 -1.02922 1.84628
v -0.486611 -1.08235 1.76025
v -0.408323 -1.10371 1.86828
v -0.350157 -1.13885 1.77323
v -0.264277 -1.16035 1.8645
v -0.204719 -1.18599 1.76846
v -0.586769 -0.920153 1.59313
v -0.645666 -0.917867 1.67358
v -0.583547 -0.995986 1.73764
v -0.535566 -1.02455 1.65413
v -0.457727 -1.0254 1.57388
v -0.653985 -0.89328 1.7534
v -0.500067 1.70959 1.75218
v -0.588093 1.73636 1.7485
v -0.564286 1.63517 1.91079
v -0.758005 1.60729 1.91452
v -0.675648 1.70482 1.85915
v -0.363983 1.57281 1.90855
v -0.328379 1.58564 1.84901
v -0.41364 1.62452 1.88401
v -0.481249 1.63881 1.89833
v -0.659197 1.62269 1.91737
v -0.404587 1.65314 1.76914
v -0.402998 1.64726 1.83428
v -0.576087 1.70951 1.8554
v -0.484131 1.69516 1.83692
v 0.341182 -1.31584 1.79583
v 0.395026 -1.31957 1.71303
v 0.354611 -1.29591 1.63431
v 0.417729 -1.31374 1.81127
v 0.456507 -1.21127 1.97069
v 0.443833 -1.1382 2.03258
v 0.388699 -1.29102 1.89614
v 0.450116 -1.29975 1.71993
v 0.497412 -1.28334 1.72949
v 0.437347 -1.2665 1.63332
v 0.547659 -1.22039 1.7655
v 0.516688 -1.23421 1.6703
v 0.471609 -1.26121 1.89163
v -1.86448 1.61527 1.68873
v -2.19643 1.47147 1.87786
v -2.15459 1.51307 1.77709
v -0.106873 1.42039 1.7981
v -0.045161 1.34878 1.80471
v -0.0836788 1.33569 1.68044
v -1.72932 1.34837 2.08122
v -1.49326 1.32235 2.0325
v -1.83172 1.3876 1.57103
v -1.88359 1.31204 1.53652
v -1.61227 1.33144 2.05843
v -1.96552 1.3869 2.08601
v -1.69278 1.41726 1.59935
v -1.94027 1.2361 1.49918
v -1.88587 1.28107 2.13482
v -1.7575 1.2578 2.12254
v -1.73119 1.33874 1.56269
v -0.702271 1.26237 1.51368
v -0.56311 1.20154 1.45327
v -0.48877 1.19896 2.11896
v -0.562989 1.08423 2.15701
v -2.00117 1.1594 1.45955
v -2.43924 1.14131 1.9501
v -2.30416 1.24519 2.05162
v -2.47495 1.1231 1.79665
v -2.41786 1.21659 1.7835
v -0.326723 1.15875 2.15069
v -0.445022 1.12001 2.16019
v -0.676621 1.04844 2.13502
v -0.671731 1.16114 1.4715
v -1.49553 1.2243 2.05533
v -1.78594 1.16493 2.16522
v -0.785714 1.01371 2.10208
v -1.6486 1.13755 2.12803
v -1.50432 1.25308 1.59337
v -0.784335 1.12498 1.49906
v -1.779 1.25697 1.52573
v -0.402135 1.04443 2.2099
v -0.523609 1.00661 2.2074
v -1.66941 1.20236 1.53353
v -0.243925 1.10514 1.37529
v -0.409507 1.15041 1.40465
v -0.525156 1.1079 1.40354
v -1.95979 1.10267 2.2297
v -1.81573 1.07192 2.21451
v -0.640109 1.06356 1.42226
v -0.756443 1.01941 1.45739
v -0.749426 0.932215 2.14783
v -1.55649 1.152 1.55488
v -1.49317 1.11809 2.07235
v -0.359339 0.969069 2.26629
v -0.85444 0.899106 2.10622
v -1.52166 0.999928 2.11708
v -1.67313 1.03627 2.17152
v -0.720068 0.922013 1.40624
v -0.820221 0.815212 2.14584
v -1.40446 1.07017 1.66361
v -2.31709 0.72523 1.30474
v -1.06543 0.828049 1.88575
v -1.09357 0.799881 1.90739
v 0.219363 0.77948 1.81874
v -1.12934 0.782462 1.8741
v 0.202982 0.774695 1.65259
v -2.4721 0.835596 2.15755
v -2.50396 0.725079 2.17761
v 0.117807 0.766222 2.12293
v -1.23807 0.78203 1.87113
v -1.38838 0.847738 1.83549
v -1.14566 0.749653 1.83248
v -1.12706 0.724338 1.78701
v -2.63557 0.663507 1.70365
v -2.6332 0.691494 1.86776
v -2.5901 0.712755 2.03242
v -0.185807 0.677187 1.18537
v 0.249803 0.674847 1.651
v -1.53541 0.603557 2.14645
v -0.841757 0.41309 2.0519
v -1.5198 0.456011 1.568
v -0.585939 0.246524 2.24061
v -0.688106 0.228994 2.15851
v -1.483 0.404988 1.70181
v -1.70368 0.329515 1.41969
v -1.65552 0.428947 1.43717
v -0.816732 0.21744 1.7333
v -0.316402 0.25752 1.16497
v -1.51997 0.234963 1.98877
v -1.55622 0.278197 1.83685
v -1.51467 0.313315 1.69328
v -0.396317 0.115113 1.24082
v -1.81847 0.40675 1.31514
v -1.75005 0.229415 1.40355
v -0.665553 0.124906 2.16263
v -0.811374 0.112178 1.85817
v -0.651657 0.15762 1.41444
v -0.681697 0.256399 1.4151
v -1.62003 0.220873 2.13063
v -1.75667 0.218127 2.23001
v -0.653336 0.0179273 2.1693
v -1.91193 0.110058 2.31995
v -0.562073 0.140498 2.24548
v -0.545154 0.0320447 2.24913
v -0.454335 0.16012 2.32541
v -0.796088 0.0119229 1.73213
v -0.807912 0.00719592 1.86141
v -1.64379 0.0179151 2.11943
v -1.77267 0.113601 2.22149
v -1.78138 0.00582933 2.21663
v -1.78951 0.124824 1.3853
v -0.416201 -0.0609357 2.32359
v -1.82437 0.0166577 1.36747
v -1.96444 0.0889227 1.26462
v -0.210453 -0.0672074 1.1518
v -0.341687 -0.098175 1.22675
v -1.64577 -0.0898557 2.1168
v -1.85903 -0.0954276 1.34979
v -0.799266 -0.0927589 1.72697
v -1.7817 -0.105322 2.2172
v -0.263506 -0.267592 2.36927
v -1.56441 -0.142635 1.77141
v -1.54931 -0.260103 1.74699
v -0.750019 -0.209958 2.1013
v -0.745659 -0.322645 2.10128
v -2.858 -0.698074 1.48766
v 0.381877 -0.59834 1.35097
v -0.208603 -0.592365 2.27881
v -0.0846556 -0.576892 2.3202
v -1.93484 -0.589146 2.26628
v -1.92791 -0.46945 2.28595
v 0.400963 -0.69585 1.37077
v 0.512558 -0.647274 2.06751
v 0.417968 -0.574484 2.18644
v -0.755074 -0.651065 1.93451
v -0.191649 -0.697701 2.24612
v -0.0711054 -0.682692 2.28751
v -2.81809 -0.768693 2.19947
v -0.306268 -0.708918 2.19027
v -0.283392 -0.808961 2.14973
v -2.46658 -0.921132 1.39441
v -2.05935 -0.641577 1.39283
v -2.19827 -0.581058 1.31851
v 0.112512 -0.785504 1.29944
v -1.64106 -0.721112 1.70976
v -0.494059 -0.828771 2.01959
v -0.590523 -0.839514 1.94902
v 0.0751167 -0.867721 2.23684
v -2.49703 -1.00812 1.44023
v -1.87818 -0.602466 1.45821
v -1.81419 -0.750941 1.58445
v -0.390578 -0.818461 2.08659
v -0.365472 -0.91575 2.04319
v -2.92409 -1.01809 1.96539
v -2.79014 -1.02073 1.52301
v 0.556593 -0.97939 1.78551
v -0.683706 -0.828539 1.76789
v -0.623173 -0.928272 1.81765
v -0.667425 -0.842773 1.86756
v -2.9344 -1.02476 1.84881
v -1.71481 -0.80421 1.69973
v -2.93821 -1.11442 1.74751
v -2.7033 -1.16385 1.55669
v 0.215838 -1.02539 2.14475
v -2.59437 -1.2092 1.60902
v 0.232425 -1.11057 2.09052
v 0.538137 -1.18059 1.94368
v 0.15485 -1.19641 1.99796
v -2.45025 -1.18163 2.06932
v -0.0593572 -1.22362 1.75101
v 0.545145 -1.22079 1.85808
v -2.3629 -1.22377 1.74208
v 0.0789975 -1.2588 1.73741
v -2.4508 -1.19402 1.63851
v -2.50453 -1.24497 1.70429
v 0.0153034 -1.24024 1.81857
v 0.490946 -1.27659 1.80412
v -2.29631 -0.890105 1.40449
v -2.19398 1.40643 1.66507
v -0.438353 -0.800273 1.40847
v -2.16013 -0.475748 1.28879
v -1.69278 -0.568874 1.54832
v -1.82527 -0.503118 1.43474
v -1.77868 -0.394119 1.42264
v -0.710991 -0.748062 1.90246
v -0.608051 -0.0474856 1.40296
v -0.367235 0.0093463 1.23419
v 0.319533 -0.808636 2.21175
v -1.88726 -1.08523 1.83898
v -1.92333 1.19213 2.17915
v -2.08109 -0.476899 2.35508
v -0.364391 -1.01489 1.49418
v -0.481796 0.268432 2.32309
v -2.56 -0.1081 2.42453
v -2.54434 -0.898828 2.26248
v -0.563821 -0.936652 1.90528
v -0.468771 -0.9275 1.97846
v -0.350985 -0.501656 2.2619
v -0.293421 -0.316058 1.22061
v -0.119949 -0.397241 1.1831
v -2.48434 1.04077 1.97248
v -0.389801 -0.284664 2.31241
v -0.499501 -0.918654 1.51888
v -0.806178 -0.404172 1.55792
v -0.0586993 -0.787963 2.25516
v -0.317823 -0.206724 1.22094
v -0.0480313 0.133885 2.4658
v 0.0924348 0.170037 2.41358
v -1.62286 1.29256 1.57136
v -2.06322 -0.00618021 2.41052
v -2.06382 1.08243 1.41687
v 0.0647058 -0.765417 2.26958
v 0.40665 -0.467477 2.19192
v -1.49811 0.706867 1.50323
v -1.57654 0.179773 1.82244
v 0.00305742 -0.254704 1.13552
v 0.0340155 -0.364913 1.15693
v -2.46855 -0.331627 1.20027
v -0.433966 0.0500244 2.32674
v -1.75099 -0.664302 1.56754
v -2.65759 0.0565435 1.32504
v -0.212597 -0.643031 1.27073
v -1.3677 1.3269 1.69934
v -2.22004 1.451 1.76787
v -2.52778 -1.08204 1.49818
v -2.56167 -1.14824 1.55397
v -0.402344 -0.909812 1.44147
v -0.63093 -0.312865 2.17924
v -1.54985 0.883232 1.48336
v -1.50227 0.983931 1.53517
v -1.6292 1.23612 2.09166
v -2.4453 0.948776 2.14095
v -1.46377 1.43331 1.65725
v -1.92146 -0.0017058 2.31328
v -1.55143 -0.295387 1.95118
v 0.301378 -0.50159 2.29286
v 0.399968 -0.356457 2.19836
v -0.0656357 -0.0309517 1.10822
v -1.59233 -0.623083 1.7071
v -0.188512 -0.753015 1.29505
v -0.914344 1.5404 1.89349
v 0.0589196 -0.474229 1.18493
v -2.24328 -0.178946 1.17788
v -2.52091 0.932703 1.99395
v -1.5996 0.790332 1.43274
v -2.41068 -1.13152 1.57552
v -0.82285 -0.314039 1.85026
v -0.616365 -0.424211 2.16913
v -0.495411 -0.410141 2.23321
v -2.82459 0.250894 1.96704
v -0.837578 -0.325147 1.99113
v -0.485648 0.930178 2.26566
v -2.01524 -0.540412 1.36658
v -2.36992 -1.06407 1.50901
v -0.994027 1.07499 1.86216
v -1.20845 0.726117 1.68616
v -1.43688 0.949451 1.75843
v -0.988988 0.768621 1.74286
f 2 3 1 1552
f 1 18 19 47
f 2 1552 45 172
f 173 4 2 172
f 3 2 4 16
f 3 1495 18 1
f 3 16 33 1495
f 17 15 4 173
f 6 7 5 170
f 17 39 5 7
f 5 39 37 1548
f 169 65 6 170
f 7 6 9 8
f 8 9 10 11
f 8 11 12 15
f 17 7 8 15
f 53 10 9 66
f 65 66 9 6
f 52 29 10 53
f 11 10 29 13
f 13 14 12 11
f 212 14 13 30
f 14 33 16 12
f 14 212 31 33
f 15 12 16 4
f 167 39 17 173
f 20 19 18 34
f 18 1495 32 34
f 46 47 19 51
f 19 20 48 51
f 20 34 209 231
f 20 231 1511 48
f 21 22 23 275
f 21 274 272 40
f 21 275 276 274
f 24 23 22 44
f 22 21 40 43
f 45 44 22 43
f 1526 280 23 24
f 24 175 176 1526
f 25 27 176 174
f 27 25 26 28
f 26 25 177 535
f 28 26 203 204
f 28 205 206 27
f 30 13 29 215
f 216 215 29 52
f 211 212 30 213
f 30 215 214 213
f 33 31 32 1495
f 32 210 209 34
f 32 31 234 210
f 38 36 35 41
f 42 41 35 167
f 37 35 36 1487
f 37 39 167 35
f 37 1487 1488 1548
f 38 41 40 272
f 264 36 38 262
f 38 272 273 262
f 41 42 43 40
f 42 167 173 172
f 43 42 172 45
f 44 171 175 24
f 171 44 45 1552
f 50 174 46 51
f 171 47 46 175
f 1552 1 47 171
f 48 49 50 51
f 207 208 49 227
f 1511 227 49 48
f 50 49 208 177
f 52 54 82 216
f 54 52 53 69
f 68 67 54 69
f 55 56 57 1477
f 59 58 56 168
f 56 55 180 168
f 58 60 57 56
f 57 62 1474 1477
f 59 1548 1488 58
f 60 61 62 57
f 60 63 64 61
f 60 58 1488 63
f 202 62 61 1592
f 62 202 225 1474
f 63 266 267 64
f 1487 266 63 1488
f 1592 61 64 270
f 69 53 66 1551
f 179 1551 66 65
f 67 78 80 81
f 67 81 82 54
f 68 70 78 67
f 68 69 1551 71
f 71 72 70 68
f 70 94 79 78
f 72 182 84 88
f 94 70 72 88
f 183 182 72 71
f 73 74 75 76
f 73 76 77 1459
f 100 74 73 1457
f 95 98 75 74
f 75 98 102 83
f 76 75 83 85
f 85 184 77 76
f 77 184 181 1567
f 80 78 79 1607
f 92 93 79 94
f 237 81 80 500
f 242 500 80 1607
f 237 236 82 81
f 82 236 238 216
f 84 85 83 86
f 84 86 87 88
f 182 184 85 84
f 102 89 86 83
f 87 86 89 90
f 87 90 91 92
f 88 87 92 94
f 89 101 103 90
f 91 114 93 92
f 103 106 91 90
f 1607 79 93 217
f 95 96 97 98
f 100 99 95 74
f 95 99 109 96
f 107 108 96 109
f 97 185 102 98
f 108 112 97 96
f 99 195 113 109
f 100 197 195 99
f 1456 197 100 1457
f 101 89 102 185
f 104 105 103 101
f 104 132 134 105
f 185 186 104 101
f 106 103 105 1425
f 114 91 106 115
f 107 109 113 1436
f 108 107 110 111
f 122 111 110 126
f 110 128 127 126
f 1436 128 110 107
f 112 108 111 189
f 185 97 112 186
f 220 1436 113 194
f 217 93 114 241
f 243 241 114 115
f 1425 1433 115 106
f 135 119 116 118
f 1404 117 116 120
f 118 116 117 140
f 149 140 117 150
f 118 140 141 144
f 118 144 1589 135
f 120 116 119 121
f 1405 1404 120 187
f 132 133 121 119
f 187 120 121 188
f 123 124 122 126
f 189 111 122 188
f 124 187 188 122
f 124 1414 1405 187
f 124 123 1413 1414
f 126 127 125 123
f 130 131 125 127
f 1413 123 125 260
f 127 128 129 130
f 129 586 193 130
f 129 220 221 586
f 129 128 1436 220
f 131 130 193 573
f 260 125 131 261
f 1428 261 131 572
f 135 134 132 119
f 186 133 132 104
f 188 121 133 189
f 134 1424 1425 105
f 134 135 1589 1424
f 137 138 136 139
f 142 139 136 162
f 138 1372 147 151
f 138 137 148 1372
f 153 136 138 151
f 139 142 143 1384
f 139 1384 149 137
f 141 140 149 1384
f 143 142 247 1386
f 144 141 1383 1558
f 145 146 147 1372
f 145 1372 148 1375
f 145 1367 190 146
f 166 165 147 146
f 148 137 149 150
f 1547 1375 148 150
f 1404 1547 150 117
f 151 147 165 152
f 153 151 152 160
f 163 164 152 165
f 153 160 161 1362
f 162 136 153 1362
f 157 250 154 156
f 520 155 154 251
f 156 154 155 191
f 166 191 155 192
f 155 520 521 192
f 158 159 157 156
f 248 249 157 159
f 158 156 191 190
f 158 190 1367 1371
f 1368 159 158 1371
f 256 248 159 1368
f 160 152 164 519
f 218 161 160 519
f 161 218 219 1363
f 247 142 162 503
f 1581 503 162 1362
f 166 192 163 165
f 517 164 163 523
f 521 523 163 192
f 164 517 518 519
f 190 191 166 146
f 168 169 170 59
f 178 169 168 180
f 169 178 179 65
f 170 5 1548 59
f 174 176 175 46
f 174 50 177 25
f 206 1526 176 27
f 177 208 534 535
f 181 183 179 178
f 181 178 180 1567
f 180 55 1591 1567
f 184 182 183 181
f 1551 179 183 71
f 189 133 186 112
f 193 586 585 709
f 194 113 195 196
f 194 196 222 587
f 197 198 196 195
f 223 222 196 198
f 198 1446 1447 223
f 198 197 1456 1446
f 199 200 201 1465
f 200 199 224 1572
f 200 1572 1447 1446
f 1456 201 200 1446
f 201 1456 1457 1466
f 201 1466 1467 1465
f 226 225 202 1479
f 1480 1479 202 1592
f 203 26 535 536
f 203 536 546 542
f 204 283 205 28
f 204 297 299 283
f 542 297 204 203
f 287 206 205 284
f 206 287 280 1526
f 207 538 534 208
f 207 229 537 538
f 230 231 209 495
f 209 210 233 495
f 211 235 232 234
f 212 211 234 31
f 235 211 213 497
f 214 215 216 238
f 214 498 497 213
f 239 240 217 241
f 217 240 242 1607
f 430 1363 219 431
f 219 493 434 431
f 522 493 219 218
f 587 221 220 194
f 584 583 221 587
f 221 583 585 586
f 588 222 223 1441
f 223 1447 1448 1441
f 225 226 224 199
f 336 494 224 226
f 225 199 1465 1474
f 227 228 229 207
f 483 1519 228 1517
f 228 227 1511 1517
f 229 544 545 537
f 229 228 1519 544
f 230 482 483 1517
f 230 1517 1511 231
f 232 235 303 496
f 234 232 233 210
f 233 485 484 495
f 233 232 496 485
f 235 497 301 303
f 236 346 486 238
f 345 347 237 500
f 237 347 346 236
f 498 214 238 486
f 239 241 243 488
f 239 488 404 376
f 240 363 342 242
f 376 363 240 239
f 1431 488 243 1432
f 1433 1432 243 115
f 244 245 246 1601
f 244 501 502 245
f 244 1601 1558 504
f 1432 1433 246 245
f 247 503 433 432
f 250 157 249 253
f 255 253 249 248
f 251 154 250 252
f 252 250 253 254
f 252 426 423 251
f 252 254 427 426
f 254 253 255 1590
f 411 427 254 1590
f 256 1580 255 248
f 256 257 258 1580
f 257 256 1368 1391
f 257 1391 1410 259
f 258 257 259 1417
f 258 1395 412 1580
f 1409 1395 258 1417
f 1614 260 261 506
f 1614 506 505 401
f 259 1410 1413 260
f 1587 1417 1614 401
f 264 262 263 265
f 263 268 269 265
f 273 279 263 262
f 1487 36 264 266
f 266 264 265 267
f 269 271 267 265
f 270 64 267 271
f 279 514 268 263
f 477 271 269 1596
f 269 268 1502 1596
f 270 474 1480 1592
f 271 477 474 270
f 272 274 278 273
f 280 281 275 23
f 275 281 282 276
f 276 277 278 274
f 277 276 282 512
f 277 512 511 1546
f 278 515 279 273
f 1546 515 278 277
f 279 515 516 514
f 281 280 287 285
f 285 286 282 281
f 284 205 283 1532
f 283 299 1522 1532
f 286 480 512 282
f 286 285 1529 481
f 1529 285 287 284
f 288 289 290 1483
f 294 290 289 295
f 289 288 444 446
f 440 441 291 293
f 293 291 292 324
f 292 302 301 499
f 292 291 443 302
f 323 322 293 324
f 293 322 450 440
f 496 290 294 485
f 296 294 295 1512
f 446 445 295 289
f 295 445 447 1512
f 296 320 482 484
f 485 294 296 484
f 297 542 543 298
f 299 297 298 300
f 298 541 540 300
f 1522 299 300 1520
f 303 301 302 1483
f 304 305 306 1600
f 304 328 327 308
f 308 307 305 304
f 306 305 1538 448
f 1575 332 306 448
f 307 1610 1538 305
f 307 308 1541 1540
f 330 1541 308 327
f 309 313 312 310
f 442 441 309 311
f 311 309 310 1535
f 314 315 310 312
f 310 315 317 1535
f 311 1498 444 442
f 312 1500 1499 314
f 441 440 313 309
f 313 449 1500 312
f 314 465 468 315
f 317 318 316 1535
f 316 318 479 1611
f 316 1611 1506 1498
f 317 315 468 470
f 318 317 470 513
f 318 513 480 479
f 319 320 321 540
f 482 320 319 483
f 1519 483 319 539
f 320 296 1512 321
f 1575 450 322 333
f 323 334 333 322
f 344 334 323 325
f 325 323 324 487
f 499 487 324 292
f 325 346 347 344
f 327 328 326 1475
f 348 364 326 328
f 366 1471 326 364
f 326 1471 1470 1475
f 329 330 327 1475
f 328 304 1600 348
f 329 476 475 330
f 333 331 332 1575
f 332 331 351 349
f 1600 306 332 349
f 333 334 335 331
f 343 1578 335 341
f 344 341 335 334
f 335 1578 351 331
f 336 337 338 494
f 336 339 340 337
f 1479 339 336 226
f 338 1451 1442 471
f 338 337 1468 1451
f 339 1479 1480 476
f 476 329 340 339
f 340 1470 1468 337
f 1475 1470 340 329
f 342 343 341 345
f 500 242 342 345
f 343 356 355 1578
f 363 356 343 342
f 345 341 344 347
f 487 486 346 325
f 349 350 348 1600
f 348 350 367 364
f 351 352 350 349
f 351 1578 355 352
f 353 354 352 355
f 352 354 367 350
f 353 369 371 354
f 355 356 357 353
f 357 356 363 376
f 357 372 369 353
f 358 360 362 1443
f 358 1450 380 359
f 358 1443 1442 1450
f 360 358 359 361
f 359 380 381 407
f 359 407 395 361
f 360 454 375 362
f 361 455 454 360
f 460 455 361 395
f 365 366 364 367
f 366 365 377 382
f 366 382 452 1471
f 371 365 367 354
f 369 370 368 371
f 378 377 368 398
f 369 372 403 370
f 391 397 370 403
f 370 397 398 368
f 377 365 371 368
f 372 357 376 404
f 373 374 375 1571
f 374 373 584 588
f 375 374 1438 362
f 377 378 379 382
f 380 379 378 381
f 378 398 399 381
f 451 379 380 1450
f 382 379 451 452
f 383 385 1418 393
f 385 383 384 386
f 387 386 384 388
f 384 383 392 491
f 385 386 396 406
f 396 386 387 394
f 415 1568 387 388
f 416 415 388 417
f 491 417 388 384
f 391 389 390 393
f 390 389 502 501
f 405 389 391 403
f 393 390 392 383
f 489 491 392 492
f 501 492 392 390
f 393 1418 397 391
f 395 396 394 460
f 394 387 1568 461
f 407 406 396 395
f 399 398 397 1418
f 407 381 399 406
f 400 1586 1587 401
f 400 1571 1602 1586
f 402 400 401 505
f 402 583 584 373
f 402 505 1613 583
f 402 373 1571 400
f 404 405 403 372
f 405 404 488 1431
f 405 1431 502 389
f 1418 385 406 399
f 408 409 410 414
f 408 418 419 409
f 408 414 433 1536
f 1370 1374 409 419
f 409 1374 1382 410
f 416 414 410 415
f 1568 415 410 1382
f 412 413 411 1590
f 413 1373 428 411
f 1377 1373 413 1566
f 413 412 1395 1566
f 432 433 414 416
f 432 416 417 490
f 489 490 417 491
f 418 420 422 419
f 1536 430 418 408
f 1369 1370 419 422
f 430 431 420 418
f 422 420 421 437
f 431 434 421 420
f 436 1361 421 434
f 421 1361 439 437
f 422 437 438 1369
f 424 425 423 426
f 423 532 520 251
f 423 425 525 532
f 424 426 427 429
f 425 528 526 525
f 425 424 529 528
f 427 411 428 429
f 438 531 428 1373
f 429 530 529 424
f 531 530 429 428
f 432 490 1386 247
f 435 436 434 493
f 435 493 522 518
f 526 436 435 527
f 436 526 528 1361
f 438 437 439 531
f 528 529 439 1361
f 530 531 439 529
f 440 450 449 313
f 441 442 443 291
f 443 442 444 288
f 1483 302 443 288
f 1506 446 444 1498
f 445 446 1506 1582
f 445 1582 1583 447
f 1522 1520 447 1583
f 448 449 450 1575
f 1538 1500 449 448
f 452 451 1451 1468
f 1470 1471 452 1468
f 454 455 453 1602
f 460 462 453 455
f 453 458 1586 1602
f 1571 375 454 1602
f 456 462 461 463
f 458 456 457 459
f 463 464 457 456
f 458 453 462 456
f 1400 1409 459 457
f 459 1409 1417 1587
f 459 1587 1586 458
f 461 462 460 394
f 463 461 1568 1382
f 1370 1397 464 1374
f 464 463 1382 1374
f 464 1397 1400 457
f 465 467 469 468
f 1499 466 465 314
f 467 465 466 1508
f 467 510 507 469
f 470 468 469 508
f 471 473 494 338
f 473 471 472 1448
f 1441 1448 472 1438
f 1442 1443 472 471
f 474 475 476 1480
f 477 478 475 474
f 475 478 1541 330
f 478 1539 1540 1541
f 1596 1539 478 477
f 481 479 480 286
f 511 512 480 513
f 481 1529 1531 1603
f 481 1603 1611 479
f 495 484 482 230
f 499 498 486 487
f 489 492 504 1385
f 1386 490 489 1385
f 1572 224 494 473
f 1483 290 496 303
f 499 301 497 498
f 501 244 504 492
f 502 1431 1432 245
f 1536 433 503 1581
f 505 506 704 703
f 1428 569 506 261
f 508 469 507 509
f 507 510 516 509
f 508 511 513 470
f 511 508 509 1546
f 509 516 515 1546
f 1508 1518 510 467
f 1502 268 514 1518
f 1518 514 516 510
f 518 517 527 435
f 522 218 519 518
f 524 521 520 532
f 533 523 521 524
f 523 533 527 517
f 526 527 533 525
f 532 525 533 524
f 535 534 538 536
f 537 545 547 546
f 546 536 538 537
f 540 541 539 319
f 539 545 544 1519
f 539 541 547 545
f 540 321 1520 300
f 541 298 543 547
f 547 543 542 546
f 548 549 550 551
f 548 553 1317 1321
f 1318 549 548 1321
f 550 549 552 701
f 550 701 700 1420
f 550 1420 1422 551
f 553 548 551 554
f 551 1422 1429 554
f 1318 1319 552 549
f 553 554 577 576
f 553 576 1261 1317
f 699 1419 555 700
f 702 556 555 1419
f 1420 700 555 557
f 557 555 556 559
f 706 558 556 702
f 1422 1420 557 1427
f 559 556 558 572
f 568 569 558 706
f 1427 557 559 573
f 560 561 562 563
f 641 645 560 563
f 649 650 560 645
f 650 656 561 560
f 662 562 561 667
f 663 667 561 656
f 655 648 563 562
f 651 565 564 657
f 566 564 565 567
f 565 653 646 567
f 652 653 565 651
f 566 567 654 658
f 566 660 659 564
f 647 654 567 646
f 569 1428 572 558
f 569 568 704 506
f 570 578 575 574
f 570 571 581 578
f 570 574 699 1010
f 571 570 1010 917
f 572 131 573 559
f 573 193 709 1427
f 574 575 576 577
f 575 1262 1261 576
f 577 1430 1615 574
f 1429 1430 577 554
f 579 575 578 580
f 1262 575 579 1263
f 1298 1265 579 580
f 580 578 581 582
f 580 582 954 1298
f 917 916 581 571
f 582 581 916 915
f 1615 1430 1613 705
f 1613 505 703 705
f 1429 709 585 1430
f 588 584 587 222
f 1438 374 588 1441
f 589 590 591 592
f 605 606 589 592
f 604 603 590 589
f 590 713 710 591
f 715 713 590 603
f 592 591 593 594
f 607 605 592 594
f 593 591 710 711
f 593 711 712 595
f 595 596 594 593
f 608 607 594 596
f 597 596 595 598
f 609 608 596 597
f 597 598 599 600
f 597 600 610 609
f 598 595 712 714
f 601 600 599 602
f 599 598 714 602
f 611 610 600 601
f 601 604 612 611
f 602 603 604 601
f 603 602 714 715
f 604 589 606 612
f 613 606 605 614
f 615 614 605 607
f 608 616 615 607
f 617 616 608 609
f 617 609 610 618
f 618 610 611 624
f 611 612 619 624
f 613 619 612 606
f 614 622 623 613
f 630 622 614 615
f 621 630 615 616
f 616 617 620 621
f 618 626 620 617
f 623 627 619 613
f 637 633 621 620
f 628 629 622 630
f 629 707 623 622
f 708 627 623 707
f 624 625 626 618
f 627 625 624 619
f 631 632 626 625
f 626 632 637 620
f 631 625 627 708
f 628 633 634 635
f 629 628 635 644
f 629 644 643 707
f 633 628 630 621
f 639 640 631 708
f 636 637 632 638
f 640 638 632 631
f 636 634 633 637
f 652 649 634 636
f 635 645 641 644
f 649 645 635 634
f 653 652 636 638
f 638 640 646 653
f 639 647 646 640
f 641 642 643 644
f 648 642 641 563
f 643 642 647 639
f 708 707 643 639
f 647 642 648 654
f 658 654 648 655
f 652 651 650 649
f 657 656 650 651
f 662 661 655 562
f 665 658 655 661
f 657 564 659 664
f 657 664 663 656
f 660 566 658 665
f 669 664 659 671
f 660 670 671 659
f 672 676 661 662
f 662 667 666 672
f 663 668 666 667
f 669 668 663 664
f 670 660 665 681
f 665 661 676 681
f 668 677 673 666
f 669 679 677 668
f 678 671 670 686
f 671 678 679 669
f 673 674 672 666
f 673 677 683 689
f 674 675 676 672
f 689 688 674 673
f 688 687 675 674
f 676 675 680 681
f 678 690 682 679
f 679 682 683 677
f 680 675 687 684
f 686 670 681 680
f 682 692 693 683
f 691 689 683 693
f 684 685 686 680
f 684 695 696 685
f 694 690 685 696
f 686 685 690 678
f 695 684 687 698
f 688 689 691 697
f 688 697 698 687
f 690 694 692 682
f 1615 705 693 692
f 703 691 693 705
f 1615 692 694 1419
f 694 696 702 1419
f 695 706 702 696
f 697 691 703 704
f 698 697 704 568
f 706 695 698 568
f 699 700 701 990
f 989 988 1612 1313
f 1001 990 701 1014
f 1612 552 1319 1314
f 710 713 712 711
f 714 712 713 715
f 716 721 722 717
f 718 716 717 719
f 724 723 717 722
f 717 723 725 719
f 718 720 888 884
f 1599 716 718 884
f 720 718 719 1484
f 1489 726 720 1484
f 762 722 721 763
f 1599 1574 721 716
f 740 723 724 942
f 762 767 724 722
f 724 767 939 942
f 740 741 725 723
f 725 976 1484 719
f 727 728 726 1489
f 888 720 726 1501
f 729 730 727 937
f 938 937 727 1489
f 728 727 730 757
f 728 886 1501 726
f 936 935 729 969
f 935 756 730 729
f 732 733 731 1032
f 731 734 735 1039
f 734 731 733 887
f 750 753 733 732
f 886 887 733 753
f 757 890 734 887
f 734 890 891 735
f 735 891 736 738
f 738 736 737 739
f 892 893 737 736
f 737 893 1357 1350
f 738 739 932 933
f 738 933 1039 735
f 1350 960 739 737
f 740 942 943 1291
f 740 1291 1290 741
f 741 975 976 725
f 741 1290 1304 975
f 744 742 743 1021
f 743 742 745 1537
f 1020 1021 743 1017
f 1579 742 744 885
f 745 742 1579 1597
f 746 747 748 1556
f 883 885 746 1557
f 768 748 747 769
f 885 744 747 746
f 747 744 1021 769
f 748 768 771 774
f 750 732 749 751
f 749 1030 1031 1033
f 1032 1030 749 732
f 1549 751 749 1033
f 750 751 752 754
f 1537 745 752 1584
f 752 751 1549 1584
f 1597 754 752 745
f 754 755 753 750
f 754 1597 889 755
f 886 753 755 1501
f 757 730 756 890
f 756 935 760 759
f 757 887 886 728
f 759 760 758 892
f 758 760 934 965
f 964 967 758 965
f 759 891 890 756
f 762 763 761 766
f 765 767 762 766
f 895 761 763 1573
f 1574 1573 763 721
f 765 766 764 779
f 765 779 787 945
f 765 945 939 767
f 766 761 897 764
f 931 771 768 770
f 770 768 769 1019
f 958 931 770 1561
f 772 773 771 931
f 775 774 771 773
f 926 928 772 930
f 772 928 1543 773
f 783 775 773 1543
f 774 1563 1556 748
f 1563 774 775 1473
f 777 778 776 791
f 776 778 779 764
f 789 791 776 903
f 776 764 897 903
f 786 778 777 805
f 792 794 777 791
f 786 787 779 778
f 781 782 780 795
f 780 1455 804 796
f 780 782 1454 1455
f 782 781 1449 785
f 784 785 783 1543
f 783 1544 1473 775
f 785 784 1454 782
f 1544 783 785 1449
f 788 787 786 944
f 786 805 809 944
f 788 940 945 787
f 789 903 899 901
f 791 789 790 792
f 793 792 790 810
f 790 902 802 810
f 901 902 790 789
f 794 792 793 806
f 793 810 811 812
f 815 806 793 812
f 805 777 794 808
f 794 806 807 808
f 795 780 796 797
f 795 801 1445 781
f 797 798 799 800
f 801 795 797 800
f 797 796 803 798
f 817 818 799 798
f 799 905 904 800
f 906 905 799 818
f 802 801 800 904
f 802 904 811 810
f 1445 801 802 902
f 803 796 804 819
f 803 816 817 798
f 821 816 803 819
f 923 919 804 1455
f 822 807 806 815
f 807 823 824 808
f 809 805 808 824
f 811 904 905 1434
f 1434 813 812 811
f 813 814 815 812
f 813 850 835 814
f 910 850 813 1434
f 814 849 822 815
f 816 821 842 846
f 840 818 817 847
f 817 816 846 847
f 818 840 841 906
f 820 821 819 921
f 919 921 819 804
f 820 915 916 848
f 848 842 821 820
f 823 807 822 1435
f 822 849 1423 1435
f 980 981 823 1435
f 978 809 824 979
f 981 979 824 823
f 826 827 825 839
f 850 837 825 835
f 827 836 835 825
f 946 836 827 983
f 948 983 827 826
f 828 829 830 831
f 829 907 908 830
f 1406 1403 829 828
f 909 841 830 908
f 841 840 831 830
f 1415 828 831 845
f 832 1415 845 833
f 832 1000 1407 1415
f 834 832 833 844
f 842 844 833 846
f 834 1001 1000 832
f 835 836 849 814
f 836 946 1423 849
f 837 838 839 825
f 908 838 837 909
f 837 850 910 909
f 838 908 907 1401
f 858 826 839 868
f 1401 868 839 838
f 845 831 840 847
f 841 909 910 906
f 843 844 842 848
f 1009 834 844 843
f 846 833 845 847
f 848 916 917 843
f 851 852 853 857
f 851 857 858 868
f 856 853 852 854
f 852 851 869 870
f 853 856 865 1366
f 870 867 854 852
f 856 854 855 875
f 867 866 855 854
f 1366 947 857 853
f 858 857 947 949
f 948 826 858 949
f 876 860 859 881
f 861 859 860 911
f 861 1378 862 859
f 863 864 862 1003
f 862 864 881 859
f 862 1378 1006 1003
f 863 1008 880 864
f 1002 1005 863 1003
f 865 856 875 952
f 865 952 987 1364
f 866 913 872 855
f 876 913 866 860
f 911 860 866 867
f 869 851 868 1401
f 869 1402 912 870
f 870 912 911 867
f 871 872 873 874
f 950 951 871 874
f 871 951 952 875
f 875 855 872 871
f 913 914 873 872
f 1335 1334 873 914
f 986 950 874 1344
f 874 873 1334 1344
f 876 877 914 913
f 877 876 881 878
f 879 877 878 997
f 879 1335 914 877
f 879 997 1308 1338
f 880 878 881 864
f 997 878 880 998
f 885 883 882 1579
f 884 882 883 1599
f 883 1557 1574 1599
f 884 888 889 882
f 889 888 1501 755
f 889 1597 1579 882
f 891 759 892 736
f 892 758 967 893
f 1359 1357 893 967
f 1473 1472 894 1563
f 896 894 895 1573
f 897 761 895 1595
f 895 894 1472 1595
f 896 1556 1563 894
f 896 1573 1574 1557
f 897 1595 899 903
f 899 900 898 901
f 900 1544 1449 898
f 1473 1544 900 1472
f 900 899 1595 1472
f 1445 902 901 898
f 910 1434 905 906
f 1403 1402 907 829
f 911 912 1379 861
f 912 1402 1403 1379
f 915 820 921 918
f 915 918 954 582
f 917 1010 1009 843
f 919 920 918 921
f 918 920 953 954
f 919 923 922 920
f 922 923 924 925
f 922 1444 953 920
f 922 925 955 1444
f 1454 924 923 1455
f 925 924 927 929
f 927 928 926 929
f 1454 784 927 924
f 1543 928 927 784
f 955 925 929 1463
f 929 926 1476 1463
f 930 772 931 958
f 956 957 930 958
f 930 957 1476 926
f 960 961 932 739
f 932 1530 1037 933
f 934 760 935 936
f 934 1513 968 965
f 1513 934 936 970
f 937 973 969 729
f 937 938 974 973
f 940 941 939 945
f 940 788 977 1294
f 942 939 941 943
f 1294 1293 941 940
f 1077 1291 943 1292
f 943 941 1293 1292
f 977 788 944 1128
f 944 809 978 1128
f 982 949 947 1306
f 948 949 982 1305
f 948 1305 1295 983
f 985 951 950 986
f 951 985 987 952
f 1299 1297 953 1444
f 1297 1298 954 953
f 955 1453 1299 1444
f 955 1463 1464 1453
f 1272 957 956 1604
f 956 959 1302 1604
f 959 956 958 1561
f 962 961 960 963
f 960 1350 1349 963
f 961 1035 1530 932
f 1035 961 962 1281
f 1282 1281 962 1348
f 1348 962 963 1349
f 964 1358 1359 967
f 964 966 1528 1358
f 966 964 965 968
f 1284 1283 966 968
f 968 1513 1287 1284
f 970 936 969 971
f 971 969 973 972
f 1288 970 971 1061
f 972 973 974 1289
f 972 1082 1061 971
f 974 938 976 975
f 974 975 1304 1289
f 976 938 1489 1484
f 977 1127 1116 1294
f 979 1138 1139 978
f 1153 981 980 1186
f 980 1421 1185 1186
f 980 1435 1423 1421
f 981 1153 1138 979
f 984 946 983 1295
f 1423 946 984 1421
f 1214 987 985 1215
f 986 1340 1215 985
f 1014 1612 988 1013
f 989 994 995 988
f 990 1009 1010 699
f 991 992 993 999
f 1012 995 991 1011
f 992 991 995 994
f 993 992 1307 1598
f 994 1315 1307 992
f 1316 1315 994 989
f 995 1012 1013 988
f 997 998 996 1308
f 996 998 999 993
f 996 993 1598 1213
f 1008 999 998 880
f 1011 991 999 1008
f 1396 1407 1000 1007
f 1007 1000 1001 1014
f 1009 990 1001 834
f 1002 1012 1011 1005
f 1013 1012 1002 1004
f 1004 1002 1003 1006
f 1008 863 1005 1011
f 1007 1004 1006 1396
f 1006 1378 1390 1396
f 1007 1014 1013 1004
f 1584 1560 1015 1537
f 1017 1015 1016 1022
f 1560 1328 1016 1015
f 1017 1022 1018 1020
f 1017 743 1537 1015
f 1019 1020 1018 1027
f 1018 1026 1025 1027
f 1021 1020 1019 769
f 1561 770 1019 1027
f 1022 1016 1023 1024
f 1026 1018 1022 1024
f 1328 1329 1023 1016
f 1333 1514 1023 1329
f 1024 1028 1029 1026
f 1024 1023 1514 1028
f 1302 959 1025 1303
f 1025 959 1561 1027
f 1026 1029 1303 1025
f 1029 1028 1542 1492
f 1030 1032 1036 1038
f 1034 1033 1031 1325
f 1031 1030 1038 1327
f 1032 731 1039 1036
f 1331 1332 1034 1323
f 1549 1033 1034 1332
f 1035 1281 1280 1279
f 1533 1530 1035 1279
f 1038 1036 1037 1527
f 1037 1036 1039 933
f 1533 1527 1037 1530
f 1229 1231 1040 1042
f 1042 1040 1041 1491
f 1041 1040 1545 1062
f 1042 1593 1044 1229
f 1042 1491 1570 1593
f 1043 1047 1225 1226
f 1227 1044 1043 1226
f 1045 1043 1044 1593
f 1045 1046 1047 1043
f 1045 1594 1099 1046
f 1045 1593 1570 1594
f 1047 1046 1098 1121
f 1047 1121 1120 1225
f 1048 1049 1050 1054
f 1048 1276 1275 1492
f 1492 1542 1049 1048
f 1503 1050 1049 1504
f 1049 1542 1516 1504
f 1051 1052 1053 1496
f 1056 1052 1051 1555
f 1055 1054 1052 1056
f 1053 1052 1054 1050
f 1503 1509 1053 1050
f 1276 1048 1054 1055
f 1278 1276 1055 1605
f 1606 1605 1055 1056
f 1083 1606 1056 1555
f 1057 1063 1062 1058
f 1059 1057 1058 1060
f 1058 1092 1090 1060
f 1061 1057 1059 1288
f 1059 1060 1093 1286
f 1059 1286 1287 1288
f 1060 1090 1091 1093
f 1061 1082 1063 1057
f 1092 1058 1062 1545
f 1062 1063 1490 1041
f 1063 1082 1081 1490
f 1064 1067 1068 1065
f 1066 1064 1065 1070
f 1089 1069 1065 1068
f 1066 1525 1072 1523
f 1521 1064 1066 1523
f 1067 1064 1521 1232
f 1088 1089 1068 1086
f 1068 1067 1505 1086
f 1070 1065 1069 1256
f 1069 1089 1252 1255
f 1525 1066 1070 1260
f 1352 1353 1071 1073
f 1071 1091 1523 1072
f 1073 1071 1072 1074
f 1354 1073 1074 1282
f 1525 1280 1074 1072
f 1075 1076 1077 1078
f 1075 1080 1079 1076
f 1594 1570 1075 1078
f 1077 1292 1100 1078
f 1290 1291 1077 1076
f 1079 1081 1289 1304
f 1290 1076 1079 1304
f 1081 1079 1080 1490
f 1080 1075 1570 1491
f 1289 1081 1082 972
f 1084 1085 1083 1555
f 1083 1559 1108 1606
f 1084 1230 1110 1085
f 1085 1110 1111 1478
f 1085 1478 1559 1083
f 1087 1088 1086 1562
f 1087 1562 1494 1493
f 1252 1089 1088 1250
f 1497 1250 1088 1087
f 1232 1521 1090 1092
f 1091 1071 1353 1093
f 1091 1090 1521 1523
f 1233 1232 1092 1545
f 1093 1353 1285 1286
f 1116 1127 1094 1096
f 1094 1126 1123 1095
f 1096 1094 1095 1097
f 1118 1097 1095 1119
f 1095 1123 1565 1119
f 1096 1097 1098 1101
f 1098 1046 1099 1101
f 1118 1121 1098 1097
f 1101 1099 1100 1117
f 1293 1117 1100 1292
f 1594 1078 1100 1099
f 1116 1096 1101 1117
f 1111 1103 1102 1478
f 1469 1109 1102 1104
f 1104 1102 1103 1105
f 1103 1111 1120 1122
f 1103 1122 1234 1105
f 1104 1106 1576 1469
f 1106 1104 1105 1235
f 1462 1576 1106 1241
f 1107 1112 1113 1115
f 1107 1109 1469 1112
f 1109 1107 1108 1559
f 1115 1585 1108 1107
f 1108 1585 1605 1606
f 1478 1102 1109 1559
f 1226 1225 1110 1230
f 1111 1110 1225 1120
f 1112 1469 1576 1461
f 1461 1458 1113 1112
f 1115 1113 1114 1481
f 1114 1113 1458 1274
f 1115 1481 1482 1585
f 1293 1294 1116 1117
f 1122 1118 1119 1234
f 1119 1565 1564 1234
f 1122 1120 1121 1118
f 1124 1125 1123 1126
f 1123 1125 1132 1565
f 1138 1133 1124 1139
f 1125 1124 1133 1130
f 1126 1094 1127 1129
f 1126 1129 1139 1124
f 1128 1129 1127 977
f 1139 1129 1128 978
f 1130 1131 1132 1125
f 1134 1142 1131 1130
f 1131 1142 1141 1238
f 1131 1238 1237 1132
f 1134 1130 1133 1145
f 1135 1136 1137 1146
f 1135 1146 1149 1151
f 1240 1136 1135 1550
f 1135 1151 1439 1550
f 1239 1243 1136 1240
f 1242 1137 1136 1243
f 1147 1146 1137 1148
f 1137 1242 1244 1148
f 1138 1153 1145 1133
f 1140 1141 1142 1156
f 1154 1155 1140 1156
f 1244 1242 1140 1155
f 1242 1243 1141 1140
f 1144 1156 1142 1134
f 1143 1145 1153 1186
f 1143 1186 1185 1426
f 1145 1143 1144 1134
f 1144 1175 1154 1156
f 1426 1175 1144 1143
f 1149 1146 1147 1184
f 1176 1177 1147 1148
f 1147 1177 1178 1184
f 1148 1244 1245 1176
f 1150 1152 1437 1264
f 1152 1150 1151 1149
f 1440 1439 1151 1150
f 1152 1149 1184 1183
f 1152 1183 1263 1437
f 1158 1174 1154 1175
f 1155 1154 1174 1187
f 1157 1158 1159 1160
f 1167 1171 1157 1160
f 1158 1157 1168 1174
f 1158 1175 1426 1159
f 1159 1165 1164 1160
f 1159 1426 1185 1165
f 1166 1167 1160 1164
f 1161 1163 1179 1247
f 1161 1247 1246 1609
f 1399 1162 1161 1609
f 1163 1161 1162 1408
f 1162 1399 1381 1389
f 1180 1179 1163 1416
f 1163 1408 1412 1416
f 1295 1164 1165 984
f 1421 984 1165 1185
f 1191 1167 1166 1296
f 1166 1164 1295 1305
f 1167 1191 1172 1171
f 1168 1157 1171 1169
f 1168 1170 1187 1174
f 1170 1168 1169 1411
f 1169 1171 1172 1173
f 1172 1191 1192 1190
f 1387 1173 1172 1190
f 1173 1398 1411 1169
f 1176 1247 1179 1177
f 1246 1247 1176 1245
f 1178 1177 1179 1180
f 1181 1182 1178 1180
f 1178 1182 1183 1184
f 1180 1416 1320 1181
f 1261 1262 1182 1181
f 1263 1183 1182 1262
f 1244 1155 1187 1245
f 1187 1170 1246 1245
f 1188 1189 1190 1192
f 1188 1192 1199 1217
f 1203 1201 1189 1188
f 1190 1189 1200 1387
f 1199 1192 1191 1296
f 1193 1380 1224 1194
f 1193 1195 1389 1381
f 1195 1193 1194 1196
f 1194 1224 1223 1249
f 1195 1198 1393 1389
f 1196 1197 1198 1195
f 1196 1194 1249 1208
f 1208 1316 1197 1196
f 1312 1198 1197 1313
f 1309 1393 1198 1312
f 1365 1217 1199 1306
f 1201 1202 1200 1189
f 1224 1380 1200 1202
f 1388 1387 1200 1380
f 1201 1203 1204 1206
f 1222 1202 1201 1206
f 1223 1224 1202 1222
f 1217 1218 1203 1188
f 1205 1206 1204 1216
f 1204 1203 1218 1214
f 1220 1219 1205 1221
f 1219 1222 1206 1205
f 1207 1209 1211 1212
f 1209 1207 1208 1249
f 1208 1207 1315 1316
f 1210 1211 1209 1248
f 1337 1211 1210 1343
f 1213 1212 1211 1337
f 1315 1207 1212 1307
f 1307 1212 1213 1598
f 1213 1337 1308 996
f 1214 1215 1216 1204
f 1364 987 1214 1218
f 1216 1339 1221 1205
f 1216 1215 1340 1339
f 1218 1217 1365 1364
f 1223 1222 1219 1248
f 1220 1210 1248 1219
f 1220 1336 1343 1210
f 1336 1220 1221 1342
f 1221 1339 1341 1342
f 1227 1228 1229 1044
f 1227 1226 1230 1486
f 1228 1227 1486 1494
f 1562 1569 1228 1494
f 1569 1231 1229 1228
f 1485 1486 1230 1084
f 1505 1233 1231 1569
f 1545 1040 1231 1233
f 1232 1233 1505 1067
f 1235 1105 1234 1564
f 1235 1236 1241 1106
f 1236 1237 1238 1239
f 1236 1239 1240 1241
f 1564 1237 1236 1235
f 1237 1564 1565 1132
f 1243 1239 1238 1141
f 1240 1550 1462 1241
f 1246 1170 1411 1609
f 1248 1209 1249 1223
f 1251 1252 1250 1510
f 1509 1510 1250 1497
f 1554 1253 1251 1510
f 1252 1251 1254 1255
f 1254 1251 1253 1324
f 1253 1322 1323 1324
f 1553 1322 1253 1554
f 1254 1326 1257 1255
f 1256 1069 1255 1257
f 1256 1257 1258 1259
f 1256 1259 1260 1070
f 1327 1258 1257 1326
f 1533 1259 1258 1527
f 1279 1260 1259 1533
f 1280 1525 1260 1279
f 1261 1181 1320 1317
f 1265 1437 1263 579
f 1265 1266 1264 1437
f 1264 1267 1440 1150
f 1297 1266 1265 1298
f 1267 1264 1266 1268
f 1266 1297 1299 1268
f 1452 1440 1267 1269
f 1268 1270 1269 1267
f 1268 1299 1453 1270
f 1300 1274 1269 1270
f 1458 1452 1269 1274
f 1272 1273 1271 1301
f 1271 1114 1274 1300
f 1271 1273 1481 1114
f 1476 957 1272 1301
f 1272 1604 1608 1273
f 1277 1275 1276 1278
f 1277 1302 1303 1275
f 1608 1277 1278 1482
f 1280 1281 1282 1074
f 1282 1348 1351 1354
f 1283 1284 1285 1524
f 1528 966 1283 1524
f 1284 1287 1286 1285
f 1285 1353 1352 1524
f 1513 970 1288 1287
f 1305 982 1296 1166
f 1306 1199 1296 982
f 1301 1271 1300 1464
f 1453 1464 1300 1270
f 1302 1277 1608 1604
f 1492 1275 1303 1029
f 1366 1365 1306 947
f 1309 1310 1311 1412
f 1310 1309 1312 1314
f 1310 1314 1319 1318
f 1321 1311 1310 1318
f 1416 1412 1311 1320
f 1314 1312 1313 1612
f 1316 989 1313 1197
f 1321 1317 1320 1311
f 1322 1553 1515 1330
f 1323 1034 1325 1324
f 1330 1331 1323 1322
f 1324 1325 1326 1254
f 1325 1031 1327 1326
f 1327 1038 1527 1258
f 1332 1331 1328 1560
f 1331 1330 1329 1328
f 1333 1329 1330 1515
f 1334 1335 1346 1347
f 1335 879 1338 1346
f 1338 1343 1336 1346
f 1347 1346 1336 1342
f 1338 1308 1337 1343
f 1345 1341 1339 1340
f 1340 986 1344 1345
f 1341 1345 1347 1342
f 1347 1345 1344 1334
f 1348 1349 1355 1351
f 1355 1349 1350 1357
f 1351 1355 1356 1534
f 1351 1534 1360 1354
f 1354 1360 1352 1073
f 1356 1355 1357 1359
f 1356 1359 1358 1534
f 1524 1352 1360 1528
f 1362 161 1363 1581
f 1536 1581 1363 430
f 1366 865 1364 1365
f 1375 1376 1367 145
f 1588 1391 1368 1371
f 1369 438 1373 1377
f 1377 1397 1370 1369
f 1371 1367 1376 1588
f 1392 1376 1375 1547
f 1376 1392 1394 1588
f 1400 1397 1377 1566
f 1378 861 1379 1390
f 1380 1193 1381 1388
f 1398 1388 1381 1399
f 1384 143 1383 141
f 1386 1385 1383 143
f 1385 504 1558 1383
f 1387 1388 1398 1173
f 1408 1162 1389 1393
f 1390 1379 1403 1406
f 1404 1405 1392 1547
f 1393 1309 1412 1408
f 1394 1392 1405 1414
f 1395 1409 1400 1566
f 1396 1390 1406 1407
f 1398 1399 1609 1411
f 1402 869 1401 907
f 1415 1407 1406 828
f 1414 1413 1410 1394
f 1588 1394 1410 1391
f 1433 1425 1424 246
f 1601 246 1424 1589
f 1429 1422 1427 709
f 1438 472 1443 362
f 1460 1439 1440 1452
f 1449 781 1445 898
f 1572 473 1448 1447
f 1451 451 1450 1442
f 1457 73 1459 1466
f 1460 1452 1458 1461
f 1459 1591 1467 1466
f 1567 1591 1459 77
f 1550 1439 1460 1462
f 1462 1460 1461 1576
f 1464 1463 1476 1301
f 1474 1465 1467 1477
f 1591 55 1477 1467
f 1608 1482 1481 1273
f 1482 1278 1605 1585
f 1485 1493 1494 1486
f 1485 1051 1496 1493
f 1485 1084 1555 1051
f 1490 1080 1491 1041
f 1493 1496 1497 1087
f 1509 1497 1496 1053
f 1498 311 1535 316
f 1507 466 1499 1610
f 1499 1500 1538 1610
f 1502 1518 1508 1577
f 1510 1509 1503 1554
f 1553 1554 1503 1504
f 1562 1086 1505 1569
f 1508 466 1507 1577
f 1539 1577 1507 1540
f 1520 321 1512 447
f 1515 1516 1514 1333
f 1542 1028 1514 1516
f 1516 1515 1553 1504
f 1531 1532 1522 1583
f 1534 1358 1528 1360
f 1529 284 1532 1531
f 1540 1507 1610 307
f 1549 1332 1560 1584
f 1557 746 1556 896
f 1558 1601 1589 144
f 1596 1502 1577 1539
f 1580 412 1590 255
f 1582 1506 1611 1603
f 1603 1531 1583 1582
f 1612 1014 701 552
f 1613 1430 585 583
f 1614 1417 259 260
f 1615 1419 699 574
