v -0.911434 1.57521 -1.79913
v -0.716034 1.5314 -1.83481
v -0.858247 1.6095 -1.61222
v -0.66471 1.58479 -1.65546
v -0.61584 1.62297 -1.47398
v -0.806819 1.63311 -1.42745
v -1.04357 1.68445 -1.56932
v -1.09669 1.66153 -1.7586
v -0.647889 1.56857 -2.19777
v -0.792294 1.55049 -2.22861
v -0.593644 1.66883 -2.27172
v -0.503839 1.65756 -1.71437
v -0.537556 1.59406 -1.88803
v -1.14092 1.65305 -1.95719
v -1.34308 1.78444 -2.11236
v -1.16119 1.68596 -2.1649
v -0.992335 1.70101 -1.38305
v -0.755422 1.6576 -1.24543
v -0.939339 1.71541 -1.19995
v -1.45747 1.84779 -1.64827
v -1.31854 1.75629 -1.90672
v -1.27699 1.75501 -1.70781
v -1.1704 1.78317 -1.33056
v -0.412998 1.79072 -1.78725
v -0.38797 1.86222 -1.61784
v -0.47181 1.72276 -1.54147
v -1.49944 1.85451 -1.84878
v -1.68386 1.94676 -1.78254
v -1.52475 1.88567 -2.05664
v -1.1113 1.79714 -1.14725
v -1.27489 1.88774 -1.08773
v -1.34205 1.87056 -1.26958
v -0.435563 1.79223 -1.37233
v -1.50941 1.97182 -2.26003
v -1.44625 2.12007 -2.42513
v -1.31674 1.88644 -2.3084
v -1.35946 1.99782 -0.845265
v -1.20962 1.90047 -0.90631
v -1.14141 1.92106 -0.726519
v -0.863915 1.90827 -2.46786
v -0.795218 2.10377 -2.50354
v -0.688211 1.85954 -2.42391
v -1.50868 1.96376 -1.20179
v -1.43169 1.98527 -1.02427
v -0.554384 1.83769 -2.32516
v -0.639607 2.05167 -2.44371
v -2.3066 2.11085 -0.239518
v -2.302 2.03563 -0.355547
v -2.2389 2.01851 -0.517052
v -0.299403 2.08794 -1.53194
v -0.355117 1.93626 -1.45169
v -0.366624 2.01788 -2.0944
v -0.395135 1.87299 -2.02749
v -0.456656 1.83414 -2.18983
v -2.25205 2.03356 -0.507505
v -2.30402 2.1006 -0.661118
v -2.35297 1.95598 -0.66791
v -2.26263 2.09221 -0.389147
v -2.22299 2.17663 -0.527258
v -2.41115 2.16467 -0.752249
v -2.47206 1.99754 -0.775572
v -1.57555 2.09879 -0.95964
v -1.66027 2.081 -1.13079
v -1.50024 2.10469 -0.784435
v -2.26718 2.24457 -0.303115
v -2.29108 2.15101 -0.314424
v -2.61327 2.0481 -0.77723
v -2.42893 2.09102 -0.230486
v -2.47216 2.22258 -0.192401
v -2.54255 2.22445 -0.772109
v -2.34296 2.24255 -0.236713
v -1.73928 2.06531 -1.31046
v -1.88686 2.20116 -1.22553
v -2.66468 2.27241 -0.723371
v -2.73156 2.10132 -0.7105
v -0.706694 2.30317 -2.5152
v -0.565959 2.25795 -2.45194
v -2.30791 2.21597 -0.224024
v -2.19823 2.16153 -0.433637
v -2.22702 2.24249 -0.322001
v -2.66861 2.10849 -0.195866
v -2.63637 2.26955 -0.220651
v -0.320904 2.08136 -1.93863
v -0.307134 2.30774 -1.86264
v -0.300185 2.15779 -1.77809
v -1.70354 2.22716 -0.892136
v -1.79576 2.21772 -1.05453
v -2.80272 2.13801 -0.595266
v -2.7512 2.30461 -0.622302
v -2.22118 2.09221 -0.581153
v -2.14013 2.25609 -0.537028
v -2.19657 2.26146 -0.666087
v -2.25067 2.25898 -0.666778
v -2.28133 2.29717 -0.775314
v -2.31199 2.1205 -0.719457
v -2.82459 2.14512 -0.458014
v -2.78544 2.31646 -0.486742
v -2.80021 2.13087 -0.3095
v -2.7544 2.30153 -0.3366
v -0.274878 2.23986 -1.61681
v -0.330119 2.00958 -1.69576
v -1.54638 2.23652 -0.55782
v -1.42512 2.11585 -0.607891
v -1.45959 2.2838 -0.407281
v -1.33495 2.16307 -0.444981
v -2.39561 2.34716 -0.84953
v -2.43493 2.16809 -0.808288
v -2.34251 2.33229 -0.774669
v -1.15895 2.23247 -2.54409
v -1.05642 2.43346 -2.57427
v -0.874659 2.36507 -2.55395
v -0.970991 2.16544 -2.53457
v -2.10316 2.32129 -0.406798
v -2.19398 2.27894 -0.399301
v -2.19487 2.39935 -0.252646
v -2.54008 2.39466 -0.843004
v -2.57844 2.21965 -0.810197
v -2.32783 2.36003 -0.159021
v -2.46677 2.20466 -0.136598
v -2.60617 2.43853 -0.228564
v -2.45725 2.40639 -0.180131
v -2.31901 2.3907 -0.199348
v -2.47337 2.387 -0.120962
v -1.36324 2.37755 -0.297564
v -1.22679 2.26184 -0.3233
v -2.08798 2.42423 -0.348375
v -2.13601 2.33175 -0.529744
v -2.04371 2.4885 -0.496553
v -1.73969 2.3411 -0.652366
v -1.81985 2.35533 -0.814399
v -1.62356 2.22773 -0.725262
v -2.48313 2.39996 -0.806817
v -2.62229 2.44798 -0.76066
v -2.65129 2.26765 -0.158163
v -2.63391 2.44048 -0.157347
v -1.66369 2.34597 -0.492275
v -1.90788 2.37663 -0.970964
v -2.19028 2.37777 -0.210423
v -2.71715 2.47016 -0.346372
v -0.736831 2.46498 -0.99171
v -2.79626 2.30617 -0.60811
v -2.77116 2.47599 -0.622072
v -2.71122 2.26841 -0.740127
v -2.67948 2.43754 -0.764142
v -2.11801 2.39488 -0.764234
v -2.04186 2.36834 -0.630571
v -2.05163 2.4078 -0.273563
v -2.78479 2.30688 -0.277972
v -1.58503 2.38901 -0.344969
v -1.266 2.30446 -0.897029
v -1.19718 2.40221 -1.00077
v -1.45518 2.36855 -0.876345
v -2.72217 2.48206 -0.653502
v -1.97841 2.39436 -0.486654
v -2.81945 2.31975 -0.445606
v -2.75765 2.48017 -0.275994
v -2.79679 2.49151 -0.448574
v -2.21289 2.45342 -0.865095
v -1.37778 2.49616 -1.02155
v -1.34963 2.35735 -0.69199
v -1.21531 2.43507 -0.566003
v -1.141 2.32139 -0.756005
v -1.0924 2.41102 -0.656114
v -2.75313 2.48951 -0.501029
v -1.01243 2.34721 -0.871294
v -0.918487 2.46836 -0.640654
v -2.34143 2.51642 -0.92608
v -1.50244 2.46062 -0.218614
v -2.16069 2.41344 -0.678696
v -2.25948 2.49457 -0.802836
v -0.660531 2.52027 -1.05547
v -0.708443 2.5399 -1.16329
v -1.78368 2.39942 -0.398663
v -1.91943 2.43988 -0.339528
v -1.84627 2.42599 -0.561201
v -1.71916 2.40929 -0.240631
v -0.823096 2.50191 -1.08796
v -0.960384 2.46877 -0.932317
v -2.02558 2.50429 -0.848049
v -1.93218 2.44958 -0.708874
v -2.00693 2.57277 -0.274422
v -1.55697 2.63042 -0.994902
v -2.27916 2.54709 -0.113025
v -2.1252 2.54001 -0.158236
v -2.50333 2.56718 -0.907083
v -2.44389 2.57035 -0.117023
v -1.86391 2.45439 -0.173131
v -0.291274 2.39218 -1.70188
v -0.340643 2.53939 -1.793
v -0.304436 2.63425 -1.63595
v -0.251912 2.48451 -1.54623
v -2.15091 2.50164 -0.0874627
v -2.30888 2.51513 -0.0588538
v -1.99988 2.51797 -0.144968
v -2.46991 2.55737 -0.0664662
v -0.642492 2.58089 -1.18999
v -1.38637 2.5242 -0.515741
v -1.24204 2.63411 -0.434589
v -2.59888 2.60374 -0.189773
v -1.26471 2.49547 -0.227631
v -1.40927 2.55629 -0.121155
v -0.418633 2.5946 -2.05588
v -0.419208 2.67742 -1.88662
v -0.347772 2.45429 -1.95492
v -0.731197 2.57169 -0.91043
v -2.42195 2.57164 -0.839364
v -2.58628 2.62762 -0.794152
v -1.54679 2.57774 0.013518
v -1.24149 2.64118 -1.01882
v -0.245807 2.73906 -1.4901
v -2.74799 2.64811 -0.643515
v -2.65178 2.60528 -0.804447
v -2.2919 2.65347 0.0478842
v -0.215958 2.52477 -1.13798
v -0.214474 2.42384 -1.29734
v -0.221015 2.5839 -1.39053
v -1.081 2.52329 -1.03131
v -1.06955 2.79556 -0.99167
v -0.19878 2.68656 -1.2327
v -2.70124 2.63928 -0.328073
v -1.00643 2.54542 -0.230056
v -1.17037 2.62934 -0.188425
v -0.662564 2.61833 -1.00747
v -1.95041 2.58566 0.00769126
v -2.73564 2.65497 -0.273204
v -0.697888 2.66291 -1.10226
v -2.74047 2.66466 -0.499651
v -2.11833 2.62167 0.0317897
v -0.947207 2.6206 -0.997561
v -0.850217 2.56956 -0.830577
v -2.78382 2.664 -0.45534
v -2.63796 2.77216 -0.871746
v -2.47001 2.74648 -0.983957
v -1.07296 2.56484 -0.512093
v -1.3192 2.68846 -0.0704946
v -0.702912 2.75096 -1.32636
v -1.6303 2.51763 -0.846723
v -1.70947 2.71221 -0.810691
v -1.52368 2.47867 -0.662671
v -0.820129 2.67227 -1.21146
v -0.833739 2.64283 -1.05633
v -2.18766 2.5368 -1.24147
v -2.09255 2.5701 -1.01429
v -2.27071 2.68537 -0.995558
v -2.31322 2.69544 -1.18974
v -2.35401 2.69798 -1.38213
v -2.26209 2.51298 -1.44943
v -2.46781 2.71037 0.00820609
v -2.63468 2.77875 -0.0853015
v -2.374 2.71683 -1.56701
v -1.3987 2.76633 -0.979387
v -1.08127 2.77704 -0.190986
v -2.72743 2.83821 -0.477955
v -2.07692 2.74733 0.141036
v -2.27304 2.79216 0.145079
v -0.560574 2.76111 -1.23373
v -0.507253 2.81464 -1.98243
v -0.388351 2.77183 -1.72335
v -1.66054 2.82046 -0.948919
v -1.50661 2.66965 -0.523228
v -1.61965 2.81592 -0.467555
v -1.37741 2.74133 -0.446573
v -0.578587 2.79806 -1.08886
v -0.243631 2.88583 -0.909864
v -0.23516 2.62487 -0.977812
v -0.204978 2.78856 -1.07059
v -0.750943 2.77582 -0.673078
v -0.660307 2.77852 -0.801029
v -1.23166 2.83931 -0.0616951
v -0.876064 2.83385 -1.08276
v -2.5171 2.74303 -1.14831
v -0.637374 2.79703 -0.951794
v -2.55157 2.74903 -1.33249
v -1.45513 2.71907 0.0796521
v -0.910903 2.7029 -0.245401
v -0.820926 2.86406 -0.282675
v -2.74892 2.82911 -0.25095
v -0.99941 2.77579 -0.46019
v -1.16202 2.80826 -0.42395
v -1.87189 2.72707 -0.227345
v -1.87142 2.82634 -0.0823201
v -1.71455 2.83956 -0.11816
v -1.74196 2.78681 -0.273627
v -2.54333 2.85007 -1.68663
v -2.36415 2.76751 -1.73797
v -1.81803 2.84138 -0.4045
v -0.829369 2.86632 -1.20568
v -2.32431 2.8317 -1.88781
v -1.52236 2.93465 -0.983824
v -1.62957 2.65352 -0.652208
v -1.79392 2.90387 -0.752548
v -1.73388 2.81167 -0.617221
v -2.25085 2.90614 -2.01572
v -2.40425 3.00357 -1.96637
v -0.497262 2.89855 -1.80339
v -0.31503 2.88465 -1.58437
v -0.281282 2.72029 -0.819435
v -0.359959 2.808 -0.670904
v -0.991351 2.9316 -0.222209
v -1.87265 2.85031 -0.294536
v -1.9068 2.98588 -0.243118
v -1.59967 2.8591 -0.173447
v -1.59282 2.82962 -0.333107
v -1.24695 2.88724 -0.952116
v -1.3814 3.03673 -0.954487
v -2.0324 2.87622 0.24548
v -2.49586 2.92436 -1.83842
v -1.9318 2.94364 -0.334927
v -0.557227 2.95952 -1.26853
v -0.739593 2.91135 -1.30223
v -1.46844 2.84202 -0.423435
v -1.43703 2.8933 -0.292707
v -2.32506 3.12849 -2.06181
v -2.21863 2.86961 0.0162415
v -2.1726 3.04099 0.049384
v -2.02801 3.04919 0.00316295
v -1.05128 2.9993 -0.982306
v -1.17439 3.00303 -0.905867
v -1.4935 2.91444 -0.0704158
v -1.81924 2.98173 -0.549989
v -0.46953 2.8871 -0.542065
v -0.31452 2.97599 -0.757578
v -0.776088 2.96882 -0.664016
v -0.58491 2.9935 -0.916244
v -0.425949 3.05537 -0.629536
v -0.690022 2.97058 -0.809505
v -2.05406 2.86936 -0.0256942
v -1.96272 3.05474 -0.0989016
v -1.95703 2.905 -0.158466
v -1.14195 3.0009 -0.0914996
v -0.8406 2.72927 -0.516905
v -0.998924 2.97084 -0.437164
v -1.8528 3.07074 -0.683605
v -2.91726 2.95535 -0.867602
v -2.8028 2.86312 -0.871401
v -2.8641 2.95194 -0.676516
v -0.863312 2.96137 -0.52656
v -0.51489 2.98525 -1.08256
v -1.36006 2.87298 0.111847
v -1.26199 3.03109 0.122934
v -1.54257 2.92171 0.232786
v -2.75004 2.82525 -0.700695
v -1.30595 2.85472 -0.403537
v -1.25827 3.02108 -0.394746
v -2.79835 2.83132 -0.463348
v -2.80158 2.9946 -0.471319
v -1.25169 3.12688 -0.9452
v -1.91637 2.80892 -0.383194
v -1.97183 2.90409 -0.55581
v -0.910001 3.02848 -1.09718
v -0.422485 3.01581 -1.66519
v -0.609289 3.02454 -1.88578
v -1.95758 3.07127 -0.49148
v -1.88245 2.99445 0.0268526
v -2.16868 3.0407 -2.08967
v -1.43069 3.11063 -0.0489033
v -1.35783 3.0726 -0.258407
v -1.05731 3.2164 -0.117976
v -2.64667 2.98878 -0.761329
v -2.49398 3.08066 -0.734501
v -2.60734 2.92783 -0.944622
v -0.741176 3.09282 -1.28933
v -0.849127 3.0523 -1.22289
v -1.67125 3.67168 -1.34439
v -1.67869 3.69641 -1.26406
v -2.89167 3.02116 -1.25179
v -2.87158 3.07198 -1.44388
v -2.73733 2.9015 -1.47138
v -2.45929 2.99112 0.153858
v -2.24726 2.9298 0.223876
v -2.43784 3.11854 0.204987
v -2.29498 3.12421 -1.67104
v -2.26244 3.11963 -1.82132
v -2.30568 2.92419 -0.821731
v -2.25795 3.08292 -0.743434
v -2.49032 2.99036 -0.75953
v -1.69408 2.97399 -0.000539093
v -1.65332 3.14801 0.0595311
v -2.41341 3.13353 -0.663202
v -1.83987 3.18548 -0.798194
v -1.74302 3.00856 -0.867623
v -2.49637 3.02467 -1.52523
v -2.46141 3.10389 -1.70438
v -1.89897 3.12748 0.155718
v -1.50397 3.22195 -0.943173
v -1.6306 3.11677 -0.930189
v -0.595334 3.14339 -1.26915
v -2.06273 3.16143 -0.615081
v -2.09149 2.99872 -0.684445
v -2.67464 3.06063 -0.584176
v -2.42825 3.01842 -0.907663
v -2.29323 3.15436 -0.865952
v -2.2353 3.14102 -1.05841
v -2.07523 3.20447 -2.10752
v -1.95641 3.12001 -2.22004
v -2.69456 3.00945 -0.437102
v -2.63809 3.1743 -0.381156
v -2.67185 3.14626 -0.193426
v -0.902717 3.08783 -0.28809
v -1.09467 3.16664 -0.996018
v -2.3756 3.0586 0.0430643
v -2.10809 3.21845 0.0962044
v -1.93333 3.21533 -0.626639
v -0.844144 3.14651 -0.682963
v -1.94023 3.18016 0.350789
v -1.75855 2.97195 0.29824
v -1.6953 3.13349 0.334297
v -2.23168 3.28436 -2.12045
v -0.563245 3.19244 -0.902678
v -0.518393 3.18147 -1.08993
v -0.694049 3.16983 -0.779319
v -2.37905 3.20781 -0.700219
v -0.924223 3.16206 -0.536017
v -0.980158 3.21363 -1.11524
v -1.03588 3.16746 -0.473982
v -1.13158 2.99545 -0.413368
v -1.14705 3.17506 -0.465508
v -1.35582 3.30131 -0.924991
v -2.76074 2.98659 -0.239204
v -2.91442 3.11571 -0.444205
v -2.64688 3.07816 0.00436808
v -2.75796 3.16447 -0.224503
v -2.64556 2.94096 -0.0296004
v -2.99642 3.21981 -1.23366
v -2.21936 3.25545 -0.702496
v -0.744618 3.02628 -0.34797
v -0.700225 3.18013 -0.441719
v -1.32803 3.24512 -0.280451
v -1.24797 3.19056 -0.435645
v -1.34367 3.29276 -0.0516419
v -0.716044 3.15542 -1.96858
v -0.812203 3.36272 -1.8551
v -0.68065 3.24905 -1.79604
v -1.97134 3.38076 -2.09512
v -1.83686 3.29259 -2.16552
v -1.91929 3.34195 -0.729944
v -0.894047 3.23214 -1.25711
v -2.82239 3.09294 -0.619652
v -2.90289 3.2465 -0.643862
v -2.81397 3.15107 -0.446989
v -2.58245 3.09517 -0.0192933
v -2.62543 3.32092 -0.145078
v -0.787405 3.27054 -1.30773
v -1.81596 3.38662 0.147445
v -1.55226 3.34106 0.0708839
v -2.18746 3.1484 -1.2589
v -2.13935 3.31113 -1.02219
v -2.07351 3.31137 -1.21947
v -2.36689 3.30079 -0.61515
v -2.88627 3.27897 -0.467914
v -2.553 3.15132 -0.568109
v -2.62187 3.23768 -0.41538
v -2.47233 3.27855 -0.552395
v -2.70239 3.15757 -0.422098
v -2.73127 3.25654 -0.25771
v -0.469846 3.26367 -1.61124
v -0.610634 3.37489 -1.67115
v -0.549581 3.13497 -1.73191
v -2.44136 3.30756 -0.453415
v -1.18857 3.36582 -0.962586
v -2.80483 3.22387 -0.277435
v -2.56786 3.33419 -0.320649
v -2.71113 3.34256 -1.69104
v -2.76549 3.29247 -1.52772
v -2.65661 3.13074 -1.53277
v -2.87393 3.31111 -0.292062
v -0.650598 3.32541 -1.29532
v -2.18036 3.25131 -1.81746
v -2.26641 3.33901 -1.96399
v -2.57124 3.352 -0.407662
v -1.55522 3.55688 -1.13256
v -1.6077 3.60819 -1.40413
v -2.12505 3.4615 -2.1236
v -1.84043 3.163 -1.19954
v -2.67012 3.31017 -0.244442
v -2.03465 3.3199 -0.606346
v -2.89732 3.30996 -0.0960369
v -2.89987 3.31236 -0.0211355
v -2.7725 3.25774 0.00587721
v -1.75057 3.53619 -1.35695
v -2.74141 3.26474 -0.0742317
v -2.91379 3.31927 -0.0917678
v -2.80545 3.26313 -0.101432
v -0.692135 3.33952 -0.534902
v -0.559016 3.12262 -0.52536
v -0.588434 3.36299 -1.11194
v -0.736791 3.36349 -0.792976
v -1.2705 3.38006 -0.508083
v -2.78114 3.31234 0.0980505
v -2.76021 3.30384 -0.0792472
v -2.06071 3.40538 0.154258
v -1.03006 3.33336 -0.600667
v -1.11645 3.34688 -0.553109
v -2.91622 3.29819 -0.248733
v -1.84303 3.46268 -0.79682
v -2.99974 3.30324 -0.423515
v -0.907987 3.31626 -0.71927
v -1.66835 3.59278 -1.42202
v -1.20339 3.33973 -0.555004
v -2.71447 3.34833 -0.0544862
v -1.9896 3.46466 -0.640951
v -2.6474 3.41914 -0.238429
v -1.73371 3.29268 -0.845109
v -2.77848 3.47582 0.0800233
v -2.69981 3.43449 -0.0594858
v -2.55792 3.33644 0.0585774
v -0.62532 3.37635 -0.931713
v -1.74532 3.53837 0.111224
v -1.62661 3.39817 -0.825281
v -1.06551 3.38349 -1.14122
v -2.92108 3.42521 -0.636373
v -2.87568 3.44515 -0.45919
v -0.951532 3.47014 -1.88116
v -0.907577 3.58096 -1.74731
v -1.59907 3.40091 -2.19677
v -1.73072 3.48505 -2.08773
v -1.62649 3.67907 -1.90816
v -2.17213 3.42834 -0.682016
v -1.32059 3.4897 -0.156444
v -2.542 3.27455 0.0329194
v -2.49814 3.46153 0.0813815
v -2.33397 3.23363 0.0951508
v -2.29359 3.42027 0.1631
v -1.26455 3.40487 -0.325472
v -1.43232 3.63296 -1.0518
v -1.54878 3.43223 -1.14698
v -0.854822 3.43795 -1.34018
v -0.974472 3.40335 -1.30004
v -1.54059 3.44227 -0.944763
v -2.88378 3.47065 -0.11467
v -2.89339 3.46187 0.0398518
v -2.86523 3.51858 -0.047103
v -2.8559 3.45974 -0.283749
v -2.0366 3.50055 -1.19386
v -1.39142 3.38358 -0.677012
v -2.91398 3.49296 -0.206258
v -2.43663 3.42092 -0.536106
v -1.22059 3.5205 -1.05126
v -2.09621 3.49644 -1.002
v -2.49712 3.49525 -0.26747
v -1.9363 3.60571 -0.70602
v -1.83726 3.59503 -2.00614
v -1.28675 3.44966 -0.696743
v -2.20735 3.32365 -0.83511
v -2.16065 3.50001 -0.816259
v -2.58785 3.50085 -0.373948
v -2.02518 3.64214 -2.09604
v -2.63846 3.33642 -2.05735
v -2.73681 3.47557 -2.04581
v -2.53648 3.43622 -2.12791
v -2.31218 3.53751 -2.1433
v -2.39164 3.35981 -2.12963
v -2.39384 3.6588 -2.08828
v -0.720937 3.50348 -1.30919
v -2.28532 3.51734 -0.673456
v -2.00264 3.59359 0.14785
v -0.956324 3.48941 -0.752649
v -1.08844 3.47653 -0.704649
v -2.96745 3.4987 -0.398786
v -2.65595 3.52956 -2.18532
v -1.51022 3.51781 -0.00511697
v -0.80042 3.53291 -0.804532
v -1.06076 3.67818 -1.72901
v -2.61304 3.56769 0.05084
v -2.57237 3.44828 0.0926762
v -1.09489 3.57647 -1.86947
v -1.72364 3.74869 -1.74557
v -2.76647 3.55566 -0.0815762
v -2.79461 3.49027 0.0389973
v -2.62554 3.46543 -1.99408
v -2.47405 3.37905 -1.97186
v -2.61976 3.50232 -2.1624
v -2.45532 3.53426 -2.06891
v -2.74256 3.60056 0.0827258
v -0.663566 3.54023 -1.13457
v -1.40128 3.56313 -0.674919
v -2.66024 3.39768 -1.84733
v -2.69923 3.56612 -1.83943
v -2.75187 3.5216 -1.67811
v -1.24085 3.51473 -0.895304
v -0.910538 3.42603 -0.136657
v -0.984279 3.5287 -0.0749773
v -1.03714 3.41888 0.00331931
v -1.08268 3.54528 -1.36777
v -1.16794 3.52894 -1.2122
v -1.27994 3.5841 -1.98996
v -1.41576 3.69276 -1.88934
v -1.22955 3.69209 -1.82395
v -2.87816 3.59101 -0.622281
v -0.701999 3.54685 -0.955813
v -1.93335 3.61229 -1.11682
v -1.8796 3.46174 -1.29882
v -2.11427 3.56148 -0.597773
v -2.04761 3.71643 -0.603726
v -0.934066 3.60278 -1.41808
v -2.78615 3.57829 -0.420644
v -1.19027 3.46449 -0.695907
v -2.91864 3.59484 -0.804042
v -1.46217 3.46428 -0.775775
v -0.873311 3.53794 -0.56732
v -1.02047 3.56908 -0.513695
v -1.02101 3.42625 -0.348407
v -2.71428 3.60845 -2.00813
v -1.13778 3.59395 -0.820016
v -2.55579 3.50197 -2.33715
v -1.02509 3.6416 -0.808669
v -2.43537 3.67008 -0.248232
v -2.57755 3.50136 -0.104562
v -2.40714 3.55243 -0.529351
v -1.74513 3.62109 -1.24951
v -1.21344 3.58321 -0.364055
v -1.27367 3.57622 -0.543047
v -1.66897 3.64472 -1.35801
v -0.692117 3.6116 -1.61359
v -0.848998 3.70888 -1.64961
v -2.7573 3.64492 -2.00692
v -2.85833 3.64625 -0.204145
v -0.858294 3.55289 -0.299877
v -2.31001 3.47074 -0.568057
v -2.90567 3.66261 -0.373398
v -2.3533 3.74175 -2.07232
v -2.21407 3.66699 -0.842103
v -2.1356 3.68163 -1.00799
v -2.27731 3.56651 -2.01618
v -2.31686 3.75497 -1.97614
v -3.01715 3.5289 -0.5949
v -2.95208 3.71716 -0.568608
v -2.8129 3.48219 -1.51658
v -2.73865 3.7035 -1.66218
v -2.74883 3.58784 -0.0423802
v -2.8325 3.62849 -0.0515575
v -2.74769 3.65664 0.00467903
v -2.89652 3.63684 0.113722
v -2.68917 3.69538 -2.15239
v -2.19512 3.69426 -2.10368
v -1.96692 3.51475 -1.38338
v -2.03025 3.7012 -1.36919
v -2.00267 3.70512 -1.55243
v -1.92537 3.53994 -1.57414
v -1.30826 3.65949 -1.14096
v -1.73577 3.7413 0.0833687
v -2.52151 3.598 -0.385196
v -1.54443 3.77329 -1.64268
v -0.887071 3.68343 -0.858619
v -2.30687 3.66786 -0.686408
v -1.5042 3.72689 -0.0337862
v -2.40282 3.67825 -0.532886
v -1.29875 3.64794 -1.29455
v -1.19336 3.68439 -1.44518
v -2.61427 3.71691 -0.0273653
v -2.43904 3.71456 -1.96807
v -2.67274 3.61711 -0.112045
v -2.61552 3.72779 -2.32121
v -2.6662 3.6737 -2.18312
v -0.77688 3.71571 -0.984364
v -1.19509 3.80372 -1.69176
v -1.11128 3.84418 -1.61933
v -2.60574 3.62007 -0.21054
v -2.1552 3.7846 -0.507991
v -2.23465 3.63014 -0.511191
v -1.26451 3.7004 -0.970151
v -1.20829 3.74172 -0.901108
v -1.28995 3.66746 -1.03399
v -1.99649 3.85144 -1.06248
v -1.95351 3.53381 -1.01133
v -0.975449 3.69271 -0.202379
v -2.68181 3.74489 -1.85688
v -1.02423 3.77201 -1.45388
v -0.864025 3.68268 -0.498492
v -2.63224 3.73437 -1.98244
v -1.48505 3.75052 -0.879323
v -1.5484 3.86761 -0.743947
v -1.01519 3.79197 -1.64389
v -0.900951 3.66191 -0.651105
v -1.10886 3.64086 -0.694264
v -1.47162 3.89203 -1.4906
v -1.1062 3.79465 -0.859349
v -0.978741 3.83672 -0.906273
v -2.32486 3.6504 -0.37697
v -2.00557 3.74032 -0.909304
v -2.18946 3.79433 0.136876
v -1.97268 3.75808 0.109259
v -2.24008 3.61678 0.173336
v -2.88829 3.76886 0.134164
v -2.84438 3.75038 -0.0616065
v -2.82981 3.74423 -0.793601
v -1.32176 3.73737 -0.520466
v -1.4451 3.73801 -0.636007
v -2.87085 3.71435 -0.0475221
v -2.80955 3.68683 -0.241231
v -2.81331 3.73211 -0.42999
v -2.70866 3.79741 -1.94821
v -2.82834 3.60212 -1.87047
v -2.78711 3.78011 -1.83051
v -1.37856 3.66165 -2.03515
v -1.27714 3.73865 -2.1049
v -1.35162 3.70988 -1.90468
v -2.60028 3.7918 -0.114253
v -2.59522 3.87366 0.00155353
v -2.63361 3.79366 -0.0727027
v -1.93049 3.77263 -2.04788
v -1.85243 3.88887 -2.08277
v -1.25873 3.9492 -1.60415
v -2.8448 3.77518 -0.166678
v -1.9808 3.69075 -1.82942
v -1.9018 3.8675 -1.65817
v -1.8211 3.75346 -1.8083
v -1.98131 3.70604 -1.69488
v -2.62549 3.76578 -0.108336
v -2.55458 3.7278 -0.222462
v -2.61932 3.80868 -2.0609
v -0.902936 3.75801 -0.733558
v -1.53779 3.59065 -2.09957
v -1.55161 3.69079 -1.90213
v -1.70637 3.76075 -2.12125
v -1.10356 3.83204 -0.0868636
v -1.41453 3.82606 -2.08632
v -2.50307 3.67689 -0.0845078
v -2.42796 3.84066 -0.0876745
v -2.83545 3.81472 -0.340274
v -2.63413 3.80377 -1.99052
v -2.38888 3.78848 -0.710277
v -2.32447 3.7959 -0.874544
v -1.7168 3.57921 -0.775627
v -1.67684 3.84575 -0.588597
v -1.82012 3.72009 -0.666391
v -2.5627 3.75167 -2.06678
v -2.26049 3.81545 -1.03976
v -1.70745 3.61334 -1.32351
v -1.05135 3.78585 -0.696316
v -1.56229 3.94195 -0.0943377
v -1.35332 3.70129 -0.267199
v -1.38147 3.81623 -1.26555
v -1.38464 3.71412 -1.16261
v -2.39609 3.84299 -0.258919
v -2.28377 3.84859 -0.399671
v -2.43505 3.64938 0.0953938
v -2.37308 3.82282 0.0764272
v -2.48826 3.78511 -2.14197
v -2.00062 3.82357 -1.29148
v -2.03282 3.86429 -1.95119
v -2.5125 3.79091 -0.381847
v -2.48882 3.70238 -0.378639
v -2.57661 3.78993 -0.223576
v -1.83566 3.91143 -1.56969
v -1.85787 3.8724 -1.97645
v -2.13495 3.86965 -1.9245
v -2.10701 3.78328 -0.937682
v -1.5065 3.89293 -0.314226
v -2.45371 3.78682 -0.546429
v -1.94126 3.83319 -0.578015
v -2.71556 3.84474 -1.46679
v -2.797 3.67385 -1.49645
v -2.6889 3.87948 -1.63177
v -2.71353 3.8287 -0.602509
v -2.72655 3.81868 -0.420488
v -2.82753 3.73453 -0.612572
v -2.69859 3.84596 -0.0534677
v -2.72967 3.82938 0.126194
v -1.76851 3.90065 -0.00203344
v -2.41218 3.81563 -2.0473
v -1.72169 3.75145 -0.699339
v -1.90779 3.69235 -0.748953
v -1.98606 3.87075 -0.651039
v -1.79805 3.90682 -0.575567
v -2.88325 3.84278 -1.16072
v -2.84083 3.87925 -1.34105
v -2.99608 3.65515 -1.18464
v -1.2448 3.77838 -0.797702
v -2.08991 3.84653 -2.06622
v -2.83253 3.86426 -0.53687
v -2.56028 3.85442 -0.575432
v -2.64359 3.83469 -0.227575
v -1.09927 3.8557 -0.796228
v -2.5982 3.84173 -0.403185
v -2.05881 3.91849 -0.82668
v -0.79227 3.68039 -1.33585
v -0.737108 3.71704 -1.15851
v -0.878584 3.85478 -1.35099
v -2.81173 3.76219 -0.967367
v -2.68694 3.83983 -0.775555
v -1.39093 3.72309 -1.05316
v -2.25087 3.85837 -2.04434
v -0.973351 4.03125 -1.35371
v -1.11305 3.96883 -1.20577
v -1.11674 3.94655 -1.49246
v -2.80826 3.8357 0.150945
v -1.16045 3.91214 -1.75943
v -1.33286 3.85899 -1.70389
v -1.96225 3.94315 0.0900929
v -2.09654 3.89034 -1.57478
v -2.08227 3.84559 -1.18862
v -2.5579 3.82551 -2.08855
v -2.52043 3.85877 -0.744521
v -2.7862 3.83155 -0.0508396
v -2.66662 3.91226 -1.79709
v -1.39724 4.00698 -1.55508
v -2.47714 3.86696 -0.910765
v -1.33695 3.93875 -1.96882
v -2.76883 3.83439 0.0426097
v -1.37281 3.95403 -0.478366
v -2.1906 3.86036 -0.632796
v -2.36338 4.00618 -0.478232
v -2.10379 4.04112 -0.493171
v -1.63399 4.0196 -0.647701
v -2.81321 3.83476 -0.00307796
v -1.30926 3.87732 -0.710516
v -2.42996 3.89172 -0.690157
v -2.1075 4.15345 -0.617791
v -2.75087 3.81933 -0.236909
v -1.10513 3.96735 -1.58406
v -1.51832 3.85663 -0.521804
v -1.60751 3.92496 -2.08126
v -2.081 3.95101 -0.55353
v -1.50117 3.96076 -0.661071
v -1.55353 3.8696 -1.71448
v -2.42983 3.88274 -1.07583
v -0.992711 3.82751 -0.664804
v -0.984777 3.84316 -0.356726
v -1.13972 3.96695 -0.244076
v -2.49795 3.9225 -0.41445
v -2.5982 3.85492 -0.166925
v -2.75097 3.87552 -0.114354
v -2.65009 3.9438 -1.95069
v -2.0113 3.98994 -0.997504
v -2.66776 3.95875 -1.9334
v -2.00707 3.91479 0.219403
v -2.09102 3.73086 0.277866
v -1.80337 3.71192 0.308133
v -1.98068 3.99473 -1.06948
v -1.81608 3.94946 -0.498014
v -2.19995 3.84261 -1.20831
v -2.25962 4.10869 -0.392052
v -2.75203 3.81604 -1.30263
v -2.57551 3.89407 -1.27392
v -2.63994 3.96048 -2.07127
v -2.5408 3.96278 -0.326689
v -2.64656 3.9506 -0.337069
v -2.62611 3.95271 -0.367414
v -2.65305 3.85274 -0.943608
v -2.16746 3.97221 0.114157
v -2.35679 3.97656 0.0742604
v -2.61537 3.87171 -1.10914
v -1.56143 3.99425 -1.04647
v -1.56201 3.88961 -1.0434
v -1.16223 3.93937 -0.75987
v -2.25899 3.93049 -1.15791
v -2.53846 3.9151 -1.43965
v -0.967536 3.90004 -1.55521
v -1.56294 3.942 -0.421895
v -2.74039 3.91681 -0.953141
v -2.68532 3.9375 -1.14691
v -2.11179 3.99722 -0.795481
v -2.05601 3.96371 -0.939612
v -2.70538 3.90017 -0.269124
v -1.15739 3.96379 -0.870362
v -1.35341 3.93163 -0.914187
v -2.39885 4.00843 -0.282363
v -2.67501 3.9175 -0.48262
v -2.34084 3.92139 -1.81427
v -2.50674 3.94818 -1.77717
v -1.16245 3.77721 -1.94861
v -1.62897 4.04523 -0.94489
v -1.72468 3.87525 -1.78434
v -1.29896 4.09751 -0.135426
v -2.6396 3.99743 -2.15352
v -2.49527 3.96816 -1.93324
v -2.14824 3.86407 -1.38396
v -2.31565 3.94896 -1.58841
v -2.34323 3.92391 -1.41248
v -1.63943 3.95506 -0.477185
v -2.46953 3.96322 -2.07554
v -2.61239 3.95691 -2.10958
v -2.44929 4.13176 0.0156296
v -1.80056 4.08195 -0.0427823
v -1.67265 4.04902 -0.205176
v -1.28539 4.0581 -1.82016
v -2.60511 3.94917 -0.396688
v -2.51221 4.0016 -0.397565
v -2.57376 4.03921 -0.380307
v -2.53346 4.00104 -0.445701
v -2.78415 4.0468 -0.455406
v -1.05014 3.97604 -0.503301
v -2.16966 3.96323 -2.01045
v -1.98613 3.97669 -2.04677
v -1.78805 4.04711 -2.10572
v -2.74107 3.92341 -0.450139
v -2.74716 3.93729 -0.593751
v -1.64463 4.13627 -0.86384
v -1.99911 3.95243 -1.95874
v -2.15583 3.99248 -1.7376
v -2.57616 3.94948 -0.553507
v -2.47352 4.00156 -2.09787
v -2.34148 3.92913 -1.97548
v -2.51376 3.94126 -1.60655
v -1.69373 4.0512 -0.399851
v -2.5325 3.94649 -0.943672
v -2.32896 3.8978 -0.952306
v -2.46794 3.96217 -1.14698
v -1.81547 3.9124 -1.66439
v -2.23248 4.03838 -0.427411
v -2.52418 3.95727 -0.711119
v -2.69896 3.95052 -0.745903
v -2.63221 3.96046 -0.901437
v -2.74222 4.03472 -0.591027
v -2.48276 3.98653 -2.02537
v -2.30928 4.02777 -1.92636
v -2.07973 4.07459 -1.97247
v -2.56614 3.97168 -0.590231
v -2.4566 3.95982 -0.871237
v -2.552 3.97566 -1.0499
v -2.44384 4.01923 -0.503445
v -1.93748 4.102 -1.06389
v -1.49616 4.05026 -0.251988
v -1.93792 4.06095 -1.9837
v -2.58505 3.96266 -0.747818
v -2.69113 4.06372 -0.737687
v -2.38869 3.96633 -1.02912
v -2.50018 3.98996 -1.20516
v -2.34802 3.98835 -1.19378
v -1.96778 4.12288 0.0652994
v -2.02226 4.18905 -0.418293
v -1.96992 4.23385 -0.477624
v -2.37913 4.01995 -0.662999
v -1.9857 4.0571 -1.71141
v -2.44558 3.97657 -0.937995
v -2.44022 3.99383 -0.791957
v -2.4063 3.9766 -1.33635
v -2.58022 3.98163 -1.49558
v -2.6318 3.96154 -1.32787
v -2.30316 4.01812 -0.834985
v -1.60636 3.98651 -1.01069
v -2.41726 4.02182 -0.669178
v -1.89173 4.04346 -1.57803
v -1.99178 3.93311 -1.38094
v -2.19723 4.00318 -1.15576
v -2.25174 4.00029 -0.995127
v -2.49942 3.99415 -1.91285
v -2.50403 3.99602 -1.366
v -2.33487 4.01293 -1.35862
v -2.51288 3.99543 -1.78643
v -2.2967 4.07397 -1.81722
v -2.53616 3.99478 -1.6469
v -2.16555 4.12291 0.135092
v -2.25999 3.93475 0.191641
v -1.95047 4.08257 0.128752
v -1.34434 4.04852 -0.753455
v -1.17888 4.08122 -0.833562
v -2.3055 4.04373 -1.67657
v -2.09596 4.02762 -1.11295
v -0.786572 3.92632 -1.4018
v -0.945972 4.02773 -1.42019
v -0.812342 4.00072 -1.24268
v -2.346 4.00259 -1.51188
v -2.44261 4.00391 -1.25588
v -2.51073 4.05676 -1.2261
v -2.44047 3.98554 -1.09041
v -2.53919 4.01084 -1.07051
v -1.69757 4.06189 -1.20642
v -1.76362 4.03529 -1.26762
v -2.29715 4.03131 -0.87283
v -1.45687 4.17972 -1.55961
v -1.23819 4.19076 -1.51215
v -2.12206 4.03198 -0.963384
v -2.50709 3.89787 -0.139353
v -1.56131 4.01141 -0.85922
v -2.31772 4.02533 -1.30196
v -2.18792 3.98105 -1.35379
v -2.11861 4.04797 -1.54361
v -2.35267 4.04047 -1.52492
v -1.93644 4.04899 -0.454202
v -1.78241 4.13421 -1.03154
v -1.85996 4.05387 -1.09804
v -1.5323 4.07229 -1.60598
v -0.959054 4.12384 -1.24426
v -2.57558 3.7042 0.039541
v -2.44386 3.93035 0.098633
v -2.49121 4.01244 -1.42296
v -2.75597 4.10263 -0.495234
v -2.6936 4.12598 -0.669239
v -1.52562 4.16312 -1.07002
v -1.81021 4.13091 -0.358934
v -2.34666 4.05163 -1.46773
v -2.53706 4.09877 -1.38051
v -2.16853 4.02319 -1.32343
v -2.59408 4.02019 -1.68079
v -2.39152 4.05718 -1.69016
v -2.54096 4.00717 -1.52095
v -1.73816 4.14141 -1.95183
v -1.53506 4.05393 -1.97154
v -2.54259 4.02416 -1.58341
v -2.38203 4.07111 -1.63379
v -2.38254 4.06679 -0.577849
v -2.0585 4.03316 -1.26325
v -1.94993 4.04286 -1.18674
v -2.01596 4.06367 -1.07003
v -2.02912 4.07172 -1.42456
v -2.16739 4.0625 -1.49949
v -2.55388 4.13644 -1.03531
v -0.973829 3.98728 -0.962671
v -1.7022 4.18542 -0.578937
v -2.14547 4.06954 -0.958016
v -2.30763 4.001 -0.993374
v -2.16668 4.03663 -1.05236
v -2.3525 4.11563 0.100097
v -2.63315 4.04401 -1.89886
v -2.43821 4.07237 -2.0201
v -2.64779 4.04341 -2.04427
v -2.51381 4.17319 -1.19266
v -1.86787 4.03499 -1.31656
v -2.5426 4.03549 -0.305311
v -2.37624 4.17355 -0.531967
v -2.4557 4.15593 -0.361081
v -1.71169 3.96859 -1.12461
v -1.66196 4.02381 -1.30031
v -1.85061 4.06585 -1.27944
v -1.84314 4.05998 -1.14993
v -2.1144 4.11839 -1.69879
v -2.49264 4.21148 -1.3484
v -0.876816 4.0313 -1.10829
v -1.04859 4.10362 -1.03136
v -2.2097 4.1501 0.103072
v -2.50201 4.03228 -0.215849
v -2.5138 3.96777 -0.120069
v -2.28071 4.12962 -0.604686
v -2.37506 4.08721 -0.442847
v -2.18697 4.11107 -0.795535
v -2.1394 4.12276 -0.917788
v -2.27495 4.06681 -0.789279
v -0.959016 4.09058 -1.12652
v -2.05216 4.08411 -0.968651
v -2.64965 4.13075 -0.849625
v -2.59179 4.13308 -1.01526
v -1.74009 4.24315 -1.18747
v -2.20456 4.09804 -1.65248
v -1.8708 4.08171 -1.40339
v -1.89346 4.11174 -1.53939
v -2.02977 4.06968 -1.38469
v -1.20068 4.08042 -0.408483
v -1.35585 4.19653 -0.31404
v -2.02026 4.05772 -1.24043
v -2.01191 4.07775 -1.09762
v -1.93271 4.25702 -1.01997
v -2.08276 4.22412 -0.953398
v -1.70561 4.0731 -0.571288
v -1.81687 4.21248 -0.391403
v -2.25069 4.11922 -0.716555
v -1.75916 4.19271 -0.223049
v -2.0331 4.05131 -1.62288
v -1.67841 4.26697 -0.781573
v -2.55227 4.14486 -1.33478
v -2.01273 4.12503 -1.07184
v -2.55432 4.13677 -1.17712
v -1.71657 4.04112 -1.68452
v -1.61802 4.14511 -0.39442
v -1.44531 4.1736 -0.514668
v -1.70545 4.07997 -1.38726
v -1.72131 4.18541 -1.54372
v -2.59141 4.16868 -1.48602
v -2.30816 4.20365 -0.728806
v -1.89465 4.09908 -1.8408
v -1.8284 4.07919 -1.70531
v -2.01656 4.03463 -1.88895
v -2.04776 4.10559 -1.53956
v -2.06164 4.1562 -1.71925
v -2.19873 4.08109 -1.51254
v -1.10576 4.11077 -0.66852
v -2.36425 4.08414 0.0601474
v -2.22065 4.11925 -1.68359
v -2.2493 4.14564 -1.86206
v -2.42031 4.0762 -1.79946
v -2.02382 4.18961 -1.05976
v -2.44929 4.13176 0.0156296
v -2.59159 4.14511 -1.5306
v -2.64476 4.19819 -1.68317
v -1.78334 4.278 -0.952498
v -2.53392 4.19025 -0.357186
v -2.51798 4.03187 -0.113071
v -1.71994 4.05771 0.124098
v -1.74134 4.1572 -0.0267388
v -2.63121 4.0142 -0.285225
v -2.56814 4.03863 -0.206746
v -1.97257 4.20365 -1.08178
v -2.63227 4.17323 -0.488913
v -1.9393 4.21153 -1.90435
v -1.88429 4.23936 -0.382425
v -2.14394 4.33984 0.0893593
v -2.34747 4.37875 0.0500204
v -1.93652 4.30548 -1.21702
v -2.55952 4.18814 -0.643128
v -1.73148 4.11931 -1.11736
v -1.27006 4.15368 -0.590896
v -2.5474 4.15231 -0.0927166
v -2.14988 4.18016 -0.88969
v -1.85066 4.27693 -1.62546
v -1.94198 4.21065 -1.71494
v -2.22671 4.12493 -1.81555
v -2.06615 4.14647 -1.78127
v -1.62811 4.18108 -0.707991
v -1.91585 4.23112 0.0382077
v -2.12791 4.23244 -0.924506
v -2.14613 4.33092 -1.01301
v -1.84594 4.1534 -1.13375
v -2.08903 4.25333 -1.06245
v -2.49001 4.25591 -1.5021
v -2.25342 4.14676 -1.94443
v -2.14898 4.24559 -1.82143
v -2.50294 4.14801 -0.127451
v -2.56596 4.21751 -0.00720754
v -2.2451 4.25281 -0.920326
v -2.00675 4.30914 -1.03587
v -1.76019 4.25982 -0.198168
v -1.56011 4.21977 -0.230426
v -2.45961 4.26217 -1.30808
v -2.46871 4.24409 -1.14112
v -2.46721 4.1419 0.018867
v -2.60012 4.19686 -0.592266
v -2.37237 4.26969 -1.14841
v -2.42798 4.24578 -0.97934
v -1.94644 4.35423 -0.407571
v -2.1128 4.28057 -0.421156
v -1.85061 4.29517 -1.00553
v -1.67068 4.08729 -1.02471
v -1.6699 4.21443 -0.869528
v -1.82171 4.24483 -0.0641068
v -2.1054 4.12884 -0.857168
v -2.54897 4.21564 -0.783201
v -2.4663 4.2819 -1.46879
v -1.63457 4.24704 -1.22573
v -2.02299 4.2718 -1.78207
v -2.38138 4.20233 -0.554962
v -1.96349 4.30135 0.0355339
v -1.48284 4.29022 -1.18949
v -2.19083 4.29143 -1.10421
v -2.32973 4.1417 -1.92015
v -2.45431 4.16325 -0.304095
v -2.5716 4.25988 -0.25361
v -1.8572 4.25863 -1.18521
v -1.65392 4.21909 -1.18297
v -1.50843 4.18309 -0.0532413
v -1.81193 4.14866 -1.02603
v -1.74706 4.25405 -0.953422
v -2.07645 4.30493 0.0951592
v -2.29804 4.21207 -0.403086
v -2.33964 4.36954 -0.387977
v -2.50676 4.23555 -0.969428
v -2.49566 4.21614 -0.538221
v -2.43348 4.24111 -0.750726
v -2.33574 4.29594 -1.11367
v -2.61584 4.19534 -0.142426
v -1.79584 4.31844 -0.255796
v -2.47278 4.32066 -0.287557
v -2.38349 4.26918 -0.934982
v -2.30439 4.23187 -0.749636
v -1.90191 4.29119 -0.39842
v -1.79743 4.37873 -0.290517
v -2.33512 4.29789 -1.31199
v -2.45935 4.13749 -0.351464
v -2.46709 4.32279 -0.312497
v -1.99471 4.37445 -0.436939
v -2.13278 4.25956 -0.438019
v -2.17739 4.33362 -0.796779
v -2.30623 4.32031 -1.28274
v -2.56211 4.29846 -0.146215
v -2.52914 4.38971 -0.0723198
v -1.8322 4.38174 -0.0475621
v -2.16689 4.4198 -0.433098
v -2.05927 4.31245 -1.71041
v -1.81031 4.40887 -0.106947
v -2.04908 4.37583 -1.86335
v -1.93053 4.33955 -1.56628
v -1.77986 4.29406 -1.56999
v -1.91892 4.34411 -1.37312
v -2.48589 4.29784 -1.65532
v -2.28828 4.3371 -1.62259
v -2.27029 4.35831 -1.78014
v -1.92482 4.41477 -1.02384
v -2.16522 4.31392 -1.26671
v -1.72113 4.42227 -0.736294
v -1.79271 4.43022 -0.919512
v -2.29192 4.33748 -1.44592
v -2.1726 4.30505 -1.08596
v -2.12661 4.33008 -1.25215
v -2.28583 4.54493 0.0338155
v -2.58774 4.3197 -0.244638
v -2.2846 4.35413 -1.6081
v -2.47684 4.3161 -1.62985
v -2.40236 4.34951 0.0411092
v -1.96015 4.3211 -1.53005
v -2.11576 4.26244 -0.513627
v -2.15043 4.4633 -0.518419
v -1.99633 4.48518 -0.499072
v -2.42178 4.53421 -0.118791
v -2.22216 4.40728 -1.07574
v -2.22698 4.38775 -0.89323
v -2.46815 4.45475 -0.238179
v -2.07992 4.33029 -1.5739
v -2.52638 4.33989 -0.0688752
v -2.61436 4.29452 -1.0705
v -2.62288 4.34084 -1.07641
v -2.66162 4.34629 -1.24452
v -2.65803 4.37104 -1.25229
v -2.48125 4.33372 -1.81392
v -2.66004 4.26906 -2.01557
v -2.46919 4.36811 -1.98193
v -2.11734 4.32825 -1.42994
v -2.31015 4.31756 -1.46949
v -2.50939 4.39055 -1.08513
v -2.52353 4.45424 -1.25757
v -2.10527 4.34678 -1.41206
v -2.58789 4.389 -0.898066
v -2.66283 4.34994 -0.89775
v -1.61219 4.35314 -1.38595
v -2.32025 4.41371 -1.10782
v -2.17067 4.42668 -1.12703
v -1.98981 4.48875 -0.450156
v -2.54138 4.40503 -0.928086
v -2.08586 4.3584 -1.73029
v -2.0946 4.35052 -1.57503
v -2.21068 4.49859 -0.675485
v -2.14904 4.31206 -0.698221
v -1.7637 4.34803 -1.37379
v -2.35652 4.54786 -0.342622
v -1.82177 4.45339 -0.318964
v -1.96538 4.49693 0.0479056
v -2.52531 4.43262 -1.25693
v -2.46927 4.39221 -1.077
v -1.70859 4.41062 -0.789744
v -1.88803 4.45597 -1.03499
v -2.02151 4.44249 -1.10161
v -2.27544 4.37667 -1.77341
v -1.85503 4.50189 -0.41155
v -2.25202 4.37537 -0.434859
v -2.10334 4.50769 -0.463092
v -1.78431 4.44386 -0.929743
v -2.42763 4.44068 -0.879405
v -1.83783 4.58482 -0.403323
v -2.79972 4.42628 -1.34406
v -1.77099 4.51726 -0.160631
v -2.37609 4.41725 -1.08805
v -2.40468 4.41866 -0.929764
v -2.70986 4.51785 -1.36884
v -2.10624 4.52078 0.0655702
v -1.9287 4.47843 0.0138702
v -2.36004 4.49413 -0.378763
v -2.77239 4.44895 -0.812235
v -2.61829 4.53871 -0.865909
v -2.16223 4.30894 -0.574767
v -2.2188 4.53627 -0.6062
v -2.37248 4.50383 -1.24779
v -2.28134 4.50573 -0.764579
v -2.24901 4.72124 -0.00949328
v -2.21311 4.53019 -1.21325
v -2.37242 4.49923 -1.26218
v -1.958 4.39431 -0.45629
v -1.9229 4.58398 -1.05754
v -1.78104 4.56511 -0.163892
v -2.05649 4.5546 -1.16227
v -2.3528 4.70804 -0.222065
v -2.41287 4.54791 -0.255029
v -2.21493 4.54942 -1.24348
v -2.41044 4.56113 -0.100869
v -2.17318 4.65956 -0.542943
v -2.05376 4.66508 -0.519108
v -1.9333 4.63855 -0.521954
v -1.81421 4.52617 -0.56568
v -2.95094 4.53873 -1.32074
v -2.48787 4.68121 -0.85602
v -2.65121 4.55785 -0.842692
v -1.69939 4.35792 -0.626481
v -1.76651 4.62737 -0.310087
v -2.46431 4.55783 -0.862591
v -2.56939 4.60509 -1.38225
v -2.32341 4.71507 -0.814468
v -2.32581 4.73867 -0.328964
v -2.02685 4.63542 -0.47907
v -2.19839 4.58286 -0.425232
v -2.40443 4.66905 -1.35695
v -2.45787 4.6405 -1.38358
v -2.27501 4.71101 -1.32424
v -2.88272 4.58079 -0.83901
v -1.83763 4.70546 -0.528221
v -2.23165 4.68422 -0.682634
v -2.23925 4.71264 -1.28862
v -2.29488 4.736 -0.772366
v -1.86032 4.53277 -0.558695
v -1.8595 4.72653 -0.693698
v -1.79116 4.57625 -0.715129
v -1.77304 4.57861 -0.737634
v -1.76173 4.70023 -0.255296
v -2.05988 4.60933 -0.495372
v -2.35501 4.74504 -0.157214
v -1.82837 4.59758 -0.901623
v -1.76786 4.71265 -0.458759
v -2.2276 4.63337 -0.427251
v -2.05464 4.58765 -1.19228
v -2.80358 4.76326 -0.995993
v -2.71136 4.6684 -0.883132
v -1.84674 4.755 -0.676685
v -1.94186 4.72358 -0.549855
v -2.32098 4.55012 0.0318193
v -1.92007 4.75789 -0.861509
v -2.61095 4.76237 -0.906102
v -2.72765 4.69245 -0.880754
v -1.86171 4.68775 -0.0262944
v -2.51036 4.74793 -0.904727
v -2.07523 4.7503 -0.465338
v -2.29673 4.89103 -0.216203
v -2.21229 4.88274 -0.0369495
v -2.28175 4.90095 -0.814678
v -1.9318 4.69295 -0.568336
v -1.82328 4.61578 -0.916831
v -1.90325 4.76042 -0.866565
v -2.21418 4.75424 -0.398484
v -1.88013 4.79912 -0.561276
v -1.9238 4.62012 -1.07368
v -1.99707 4.77872 -1.03075
v -2.04886 4.8034 -0.449741
v -2.46375 4.90868 -0.847285
v -1.71581 4.81226 -0.405356
v -1.91713 4.85632 -0.510227
v -2.18453 4.89132 -0.718497
v -1.75457 4.81991 -0.622536
v -1.82719 4.8432 -0.120161
v -2.03223 4.86451 -0.0195658
v -1.74047 4.94828 -0.311383
v -2.25821 4.90352 -0.807662
v -2.0179 4.81923 -0.56366
v -2.633 4.87828 -1.01644
v -2.61724 4.91064 -0.986873
v -2.18605 4.84781 -0.571232
v -1.68542 4.87322 -0.379421
v -1.74453 4.78559 -0.207946
v -2.10258 4.7865 -0.475593
v -2.01509 4.88928 -0.50277
v -1.88168 4.88817 -0.655677
v -1.75312 4.79568 -0.628293
v -1.99519 4.75688 -1.02314
v -1.99687 4.94644 -0.807634
v -2.70365 4.89532 -1.19561
v -2.02111 5.02373 -0.0402016
v -2.2031 5.03496 -0.0467668
v -1.96839 4.92725 -0.820494
v -2.09865 4.83701 -0.480665
v -2.07787 4.71636 0.0389129
v -2.07866 4.90049 -0.00522268
v -2.30789 4.90971 -0.223776
v -2.21419 4.90086 -0.383413
v -2.21037 4.7499 -0.624633
v -2.83949 4.79642 -1.19284
v -2.79338 4.78168 -0.986284
v -2.66324 4.91898 -1.21124
v -2.14453 4.90528 -0.918006
v -1.85979 4.90012 -0.593448
v -2.21818 4.93477 -1.08797
v -1.70462 4.88268 -0.770477
v -2.11939 4.89884 -0.942025
v -2.26596 4.73572 -0.00417136
v -2.24618 4.91113 -0.0444224
v -2.2695 5.04777 -0.21139
v -1.90978 4.89937 -0.0466368
v -2.23578 4.97496 -0.638576
v -2.23246 4.96193 -1.13918
v -1.88181 4.92712 -0.677488
v -2.6577 4.7922 -1.33614
v -2.55171 4.9852 -1.23435
v -2.48645 4.84989 -1.30083
v -2.20232 4.92478 -0.37681
v -2.19612 5.08771 -0.362609
v -2.3822 5.07636 -0.945248
v -2.29321 5.04448 -0.781
v -2.28134 5.06503 -0.76435
v -2.16185 5.06981 -0.88078
v -2.35242 5.00398 -1.05407
v -2.46029 4.95267 -1.0853
v -2.49249 4.96371 -1.20851
v -2.32355 4.87092 -1.20311
v -1.77952 5.04984 -0.481923
v -1.79197 4.96492 -0.162233
v -2.12903 5.05629 -0.762451
v -1.87925 5.04715 -0.438938
v -2.22902 5.1134 -1.04766
v -2.22118 5.09643 -1.03301
v -1.76695 5.04792 -0.371742
v -2.17869 5.0546 -0.715863
v -1.9488 5.11025 -0.70341
v -2.14773 5.05436 -0.873342
v -1.92878 5.09935 -0.698644
v -1.92249 5.0748 -0.472097
v -1.79881 5.10722 -0.600688
v -2.24025 5.12646 -0.335107
v -1.98494 5.00464 -0.478832
v -1.96057 4.85368 -0.519478
v -2.40021 5.0879 -0.925028
v -2.21021 5.24693 -0.35287
v -2.24811 5.18056 -0.196636
v -2.17638 5.17459 -0.0434238
v -2.10095 5.09646 -0.0109937
v -2.24976 5.08331 -0.0796849
v -2.00219 5.16549 -0.040193
v -1.8691 5.17638 -0.104935
v -1.95377 5.11057 -0.0429291
v -1.79281 5.05975 -0.274679
v -1.65431 4.94969 -0.528489
v -2.27548 5.04288 -0.212694
v -2.03657 4.98405 -0.427552
v -1.83428 5.14219 -0.120563
v -1.63281 4.94915 -0.56749
v -1.80543 5.18338 -0.225797
v -2.03305 5.14688 -0.411124
v -2.06599 5.14913 -0.420842
v -1.91019 5.18713 -0.387132
v -1.79063 5.16844 -0.256599
v -1.91109 5.01128 -0.603411
v -1.86748 5.18159 -0.358173
v -2.17314 5.26086 -0.828131
v -2.30746 5.23833 -0.745204
v -1.97541 5.06893 -0.459583
v -2.17871 5.21082 -0.712596
v -1.97057 5.21545 -0.706287
v -2.25832 5.28782 -1.00753
v -2.1398 4.97821 -0.441952
v -2.18101 5.16222 -0.424197
v -1.8904 5.3357 -0.348389
v -2.14967 4.99835 -0.453352
v -1.99528 5.16675 -0.442792
v -1.85828 5.33507 -0.0880075
v -1.80552 5.35207 -0.212334
v -2.22913 5.26316 -0.16634
v -2.13536 5.30766 -0.0385732
v -2.05892 5.31277 -0.3955
v -1.77774 4.32607 -1.3993
v -0.402905 3.49877 -1.32802
v -0.525531 3.72087 -1.26785
v -0.424876 3.59774 -1.17315
v -0.520046 3.61969 -1.416
v -0.24376 3.10751 -1.27923
v -0.316533 3.25358 -1.38316
v -0.316578 3.36146 -1.22578
v -0.257255 3.21222 -1.11771
v -0.203995 2.84584 -1.33531
v -0.257033 2.99854 -1.43846
v -2.59017 3.88411 -0.0638224
v -2.59694 3.91049 -0.053851
v -0.776285 1.49205 -2.02407
v -0.738858 1.68557 -2.35544
v -0.976467 1.59875 -2.21629
v -0.927536 1.73461 -2.37153
v -0.517419 2.01248 -2.35779
v -0.470407 2.19723 -2.37954
v -0.412062 2.10927 -2.26876
v -1.19009 3.38952 -2.23785
v -1.13104 3.48646 -2.05143
v -0.975686 3.39192 -2.06848
v -1.0163 3.30242 -2.26425
v -0.748895 2.62898 -0.306644
v -0.851374 2.46592 -0.287917
v -0.534784 3.45428 -0.700316
v -0.538716 3.29019 -0.614969
v -0.398842 3.22551 -0.71852
v -0.489883 3.67764 -1.02417
v -0.426538 3.54312 -0.917024
v -0.350495 3.45978 -1.06713
v -0.582616 3.79571 -1.12068
v -2.29528 2.58362 -1.85419
v -2.29262 2.53265 -1.65577
v -2.20105 2.41701 -1.96502
v -2.20148 2.3529 -1.74968
v -0.853133 3.24027 -0.368299
v -0.851214 3.38076 -0.465288
v -0.590736 1.55518 -2.05625
v -0.503303 1.68601 -2.12969
v -0.442121 1.72586 -1.95932
v -0.355668 2.153 -2.17186
v -0.321645 2.22689 -2.02078
v -0.355494 2.36828 -2.111
v -0.388022 2.2809 -2.25562
v -0.357556 1.93615 -1.86164
v -0.397202 3.39052 -0.813432
v -0.556437 3.601 -0.795169
v -0.646028 3.83155 -1.34384
v -0.68551 3.91028 -1.19303
v -0.675705 3.84886 -0.994428
v -0.803896 3.8288 -1.54472
v -0.653008 3.73053 -1.4895
v -0.772143 3.95501 -1.06939
v -0.804577 3.87845 -0.902697
v -0.602913 3.73083 -0.8978
v -0.700327 3.49922 -0.622019
v -0.721137 3.6398 -0.706954
v -0.941514 3.8858 -0.830964
v -0.843972 3.95407 -0.970696
v -0.420124 3.38616 -1.47623
v -0.306521 3.30785 -0.958443
v -0.228916 3.05284 -1.00897
v -0.290899 3.14547 -0.852536
v -0.549033 3.50412 -1.55357
v -0.350765 3.13768 -1.53231
v -0.200077 2.95195 -1.17222
v -0.601343 2.95867 -0.435288
v -0.235794 2.3278 -1.45725
v -0.251213 2.26564 -1.21126
v -0.250495 2.36453 -1.05159
v -0.321584 2.55804 -0.732406
v -0.270894 2.46329 -0.891242
v -0.409049 2.64287 -0.585718
v -0.525912 2.72087 -0.459832
v -0.397031 2.40458 -0.667889
v -0.488747 2.48293 -0.524891
v -0.588374 2.32991 -0.485457
v -0.606548 2.55583 -0.400918
v -0.709384 2.39427 -0.372434
v -0.663035 2.79443 -0.355974
v -0.320903 2.21575 -0.978159
v -1.11354 2.39584 -0.254749
v -0.493044 2.26367 -0.619442
v -0.594882 2.1301 -0.586357
v -0.431554 2.17946 -0.768204
v -0.700135 2.17884 -0.470115
v -0.399462 1.97372 -1.05727
v -0.31893 2.11601 -1.13284
v -0.406683 2.07844 -0.912171
v -0.533083 1.75945 -1.13594
v -0.409797 1.8761 -1.20998
v -0.506739 1.85138 -0.983465
v -0.504649 1.95829 -0.848403
v -0.634384 1.8857 -0.784549
v -0.658894 1.78551 -0.918042
v -0.524067 2.05957 -0.723256
v -0.616302 1.97499 -0.695498
v -0.710613 1.99978 -0.599352
v -0.773327 1.87657 -0.711519
v -0.820732 2.0308 -0.514328
v -0.825853 2.23617 -0.375813
v -0.948231 2.08635 -0.433216
v -0.965852 2.30778 -0.302849
v -1.0866 2.16451 -0.368844
v -0.573195 1.68564 -1.30085
v -0.702747 1.7049 -1.07243
v -0.826422 1.78544 -0.85384
v -0.989083 1.83897 -0.78932
v -0.914133 1.91135 -0.633192
v -1.05573 1.97797 -0.561016
v -1.19757 2.06299 -0.498418
v -0.885374 1.73268 -1.01978
v -1.05346 1.80885 -0.965036
v -1.28783 2.01184 -0.664934
v -1.57594 1.95319 -1.38713
v -2.01177 2.36714 -1.12793
v -2.10568 2.33765 -1.32169
v -0.961286 1.55485 -1.99791
v -1.63888 1.94024 -1.57961
v -1.86498 2.04837 -1.70701
v -2.17291 2.32414 -1.53163
v -1.89209 2.08243 -1.92283
v -2.02742 2.17649 -1.62139
v -1.70969 1.97953 -1.9943
v -1.83343 2.29275 -2.33365
v -1.89021 2.1559 -2.14047
v -2.00946 2.40142 -2.25362
v -2.05837 2.27616 -2.05953
v -2.15828 2.53284 -2.15435
v -2.25689 2.6806 -2.0279
v -2.0637 2.68358 -2.28168
v -2.17449 2.80324 -2.15328
v -1.91214 2.57173 -2.38148
v -1.12414 1.80426 -2.34615
v -1.94863 2.85514 -2.34327
v -1.2476 2.04628 -2.45077
v -1.05369 1.97424 -2.46672
v -1.54694 2.38772 -2.50117
v -1.35239 2.3071 -2.52912
v -1.64327 2.20063 -2.38842
v -1.736 2.47602 -2.45228
v -1.24523 2.50845 -2.5732
v -1.43604 2.58872 -2.55186
v -1.6224 2.67371 -2.50837
v -1.67662 2.95786 -2.43505
v -1.50456 2.87402 -2.51037
v -1.83086 3.04184 -2.34054
v -2.07 2.95394 -2.21817
v -1.71424 3.22259 -2.28826
v -1.45367 3.32341 -2.31005
v -1.56243 3.14801 -2.39646
v -1.38947 3.07026 -2.47997
v -1.13118 2.71019 -2.57774
v -1.32029 2.79166 -2.55876
v -1.20362 2.98976 -2.5281
v -1.01486 2.90645 -2.5371
v -1.2796 3.24602 -2.38697
v -1.35481 3.46865 -2.16576
v -0.832132 3.28183 -2.03902
v -0.851559 3.20146 -2.24105
v -0.434987 2.50143 -2.21375
v -1.096 3.16669 -2.4271
v -0.91389 3.07821 -2.4214
v -0.755367 2.97205 -2.35839
v -0.680891 2.72492 -2.42465
v -0.625716 2.85506 -2.26386
v -0.547736 2.62231 -2.32266
v -0.470766 2.3954 -2.35559
v -0.834892 2.82019 -2.50562
v -0.607207 2.48572 -2.45889
v -0.766301 2.55929 -2.5372
v -0.944138 2.63243 -2.57579
v -1.49748 3.56351 -2.06098
v -0.330014 2.02081 -1.28983
v -0.266885 2.1716 -1.37097
v -2.60533 3.93276 -0.717963
v -2.73762 2.81322 -1.04593
v -2.74336 2.84753 -1.27381
v -2.55987 2.78917 -1.51653
v -2.71486 2.96155 -1.6545
v -3.00809 3.10904 -0.640283
v -2.91386 2.96791 -1.05585
v -3.02053 3.17353 -1.04086
v -3.02866 3.13885 -0.844039
v -2.96775 3.26796 -1.42039
v -2.84124 3.12664 -1.62447
v -3.05229 3.32218 -0.620192
v -3.06391 3.35624 -0.82156
v -3.02704 3.43853 -1.21025
v -2.99819 3.48298 -1.39487
v -2.96435 3.69722 -1.3675
v -3.03178 3.57008 -0.795303
v -2.79366 3.89581 -0.747221
v -2.95262 3.76676 -0.770244
v -2.87958 3.36672 -1.76084
v -2.79414 3.18463 -1.79178
v -2.93037 3.31732 -1.59698
v -2.81602 3.41752 -1.91095
v -2.90365 3.56572 -1.72896
v -2.86026 3.76062 -1.69401
v -2.96093 3.52666 -1.56976
v -2.9248 3.73624 -1.53946
v -2.79611 3.91057 -1.50915
v -2.7452 3.9278 -1.66157
v -2.72554 3.25225 -1.93946
v -2.67186 3.02599 -1.82337
v -2.59838 3.10473 -1.97121
v -2.50031 3.21933 -2.07468
v -2.10051 4.10357 -1.84475
v -1.29238 4.03461 -1.60747
v -1.72039 4.17266 -1.78399
v -1.49518 4.16165 -1.83213
v -2.46686 2.85551 0.0864899
v -1.627 2.76301 0.189767
v -1.71287 2.62491 0.0995769
v -1.82484 2.81467 0.245789
v -1.89303 2.68267 0.144479
v -1.79455 2.52002 -0.0231013
v -1.63888 2.47531 -0.100101
v -1.15136 3.34308 0.120971
v -1.1768 3.1827 0.122827
v -1.02212 3.98394 -0.784166
v -2.2161 3.07031 0.283021
v -1.98646 3.02216 0.316404
v -1.46506 3.08126 0.262173
v -2.18856 3.2173 0.323253
v -2.41702 3.23929 0.235407
v -2.61073 3.17879 0.0642285
v -2.40793 3.70226 0.198447
v -2.13238 3.54222 0.323583
v -1.89836 3.34744 0.36318
v -2.16926 3.3734 0.333149
v -1.13046 3.48983 0.101867
v -1.63701 3.30364 0.348686
v -1.74845 3.89815 0.238037
v -1.49738 3.86255 0.224874
v -1.48188 4.04266 0.105492
v -1.539 3.66944 0.296904
v -1.58576 3.48094 0.338295
v -1.85528 3.52574 0.348718
v -1.27887 3.7809 0.146552
v -1.30892 3.59399 0.221836
v -1.27082 3.95593 0.0244704
v -1.10646 3.66681 0.0353786
v -1.77888 3.3367 -0.936365
v -1.90132 3.35325 -1.11686
v -1.84366 3.50662 -0.838311
v -1.81705 3.31558 -1.35205
v -1.67012 3.28354 -1.14633
v -1.64012 3.58372 -0.801941
v -2.17072 4.19068 -0.756099
v -2.41783 5.26055 -0.895605
v -2.10969 4.76958 -1.20104
v -2.37419 4.86562 -1.26838
v -2.58049 4.81037 -1.35597
v -2.62933 4.54127 -1.38652
v -2.77689 4.69791 -1.36858
v -3.0209 4.65547 -1.1679
v -2.25331 5.17817 -0.576283
v -2.97214 4.65969 -0.971565
v -1.86925 4.09112 -0.488288
v -2.06383 4.05909 -0.567646
v -1.9307 4.2946 -0.456195
v -2.13342 4.11336 -0.75386
v -2.22254 5.01595 -0.575103
v -2.0989 4.74863 -1.18049
v -2.8145 4.67829 -1.33985
v -1.76864 4.36508 -0.547019
v -2.85629 4.77052 -1.16352
v -2.30223 3.35829 -0.666462
v -2.94833 3.41322 -0.817543
v -2.94105 3.41238 -0.999515
v -2.91665 3.60696 -0.984954
v -2.79437 3.02684 -0.988615
v -2.81295 3.0546 -0.802435
v -2.56839 2.91456 -1.14322
v -2.75323 3.03475 -1.17592
v -2.38974 3.1934 -1.85237
v -2.36278 2.97986 -1.09682
v -2.89687 3.21136 -1.00363
v -2.85881 3.22504 -1.18252
v -2.81988 3.25137 -1.35919
v -2.87501 3.45059 -1.35191
v -2.91583 3.42703 -1.17791
v -2.89584 3.62791 -1.16084
v -2.78613 3.78865 -1.13657
v -2.85584 3.65052 -1.33159
v -2.55359 3.25956 -1.86452
v -2.11519 3.63742 -1.93959
v -2.06359 3.43685 -1.92492
v -2.61044 3.19177 -1.70487
v -2.38348 3.90053 -1.24264
v -2.07248 3.69442 -1.18503
v -2.53008 2.95428 -1.34046
v -2.32328 2.99856 -1.30091
v -1.6598 3.69733 -1.23505
v -2.42237 4.04116 -1.86624
v -2.44045 4.04693 -1.95742
v -2.48088 4.35158 -1.79942
v -2.64524 4.02897 -1.85809
v -1.36585 4.12717 -1.0074
v -1.2054 4.11875 -0.986345
v -1.44342 4.32661 -1.37643
v -1.33858 4.2637 -1.15456
v -1.06218 4.1628 -1.13149
v -1.10322 4.22577 -1.2875
v -1.19904 4.22699 -1.13054
v -1.26313 4.29564 -1.3175
v -1.07548 4.12613 -1.45206
v -2.75599 4.0525 -0.315032
v -2.64256 4.21438 -1.64169
v -2.67824 4.2704 -1.81355
v -2.58371 3.96612 -0.915538
v -1.96789 4.32884 -1.39529
v -2.49174 4.21567 -0.809943
v -2.67617 4.25414 -1.8404
v -2.40803 3.48554 -0.411925
v -1.59449 3.69159 -0.721955
v -2.54808 2.81249 -0.803916
v -2.68462 2.84717 -0.667928
v -2.54104 3.17183 -0.540393
v -2.69807 2.97369 -0.243028
v -2.70423 2.80597 -0.289897
v -2.71215 2.66356 -0.676903
v -2.36271 2.74805 -0.851335
v -2.62583 3.02136 -0.620366
v -2.17756 2.66259 -0.814148
v -2.11728 2.83727 -0.773042
v -2.07185 2.57207 -0.66702
v -1.99872 2.73762 -0.629152
v -1.96352 2.64742 -0.446236
v -1.95285 2.73031 -0.201039
v -2.24758 2.70275 -0.0325069
v -2.42739 2.73112 -0.0624435
v -2.59944 2.76306 -0.13566
v -2.0755 2.69262 -0.0687901
v -2.40685 2.89343 -0.0108641
v -2.59745 2.92425 -0.0756491
v -2.24781 4.32912 0.102661
v -2.15 4.53088 0.0811498
v -1.27581 3.89197 -1.00685
v -1.18527 3.93527 -0.972985
v -0.873584 3.87134 -1.02268
v -0.9532 3.98062 -1.04525
v -0.94836 4.03954 -1.1826
v -0.828969 3.88639 -1.17812
v -1.30424 3.82245 -1.4832
v -1.64318 5.02778 -0.710191
v -1.98673 5.32262 -0.0359976
v -2.06755 4.69602 0.0269712
v -1.8875 4.65635 -0.024999
v -2.36773 4.2359 -0.393645
v -1.70237 2.06006 -2.2035
v -2.05692 2.20866 -1.83993
v -0.4366 1.98394 -2.23889
v -0.747374 3.76047 -0.803025
v -0.342489 2.31424 -0.82227
v -1.96972 2.1773 -1.41335
v -1.81101 2.04729 -1.50107
v -1.79587 2.76345 -2.43747
v -0.715851 3.08157 -2.171
v -0.515116 2.72709 -2.15945
v -1.35708 3.80297 -1.72683
v -0.755518 3.48078 -1.71967
v -0.610045 2.94783 -2.07759
v -3.05342 3.39547 -1.01873
v -3.02377 3.61333 -0.993213
v -2.92181 3.80475 -0.969584
v -2.70389 3.94495 -1.80221
v -1.39589 3.24526 0.268431
v -2.40911 3.36885 0.250885
v -1.34695 3.41041 0.254884
v -2.62534 2.61661 -0.134712
v -2.70336 3.07707 -1.35637
v -2.90889 3.22238 -0.821868
v -1.62602 4.2459 -1.57505
v -2.16838 4.02699 -1.19484
v -2.17961 4.04692 -1.35014
v -2.59004 4.03598 -1.74288
v -2.30889 4.00522 -1.14353
v -2.68955 4.14245 -0.356528
v -2.62593 4.10542 -0.886505
v -1.07378 3.984 -0.962995
v -1.7053 3.41023 -1.29635
v -1.84308 4.06337 -1.88609
v -2.00815 3.38423 -1.66267
v -2.16338 3.18543 -1.46628
v -2.04095 3.33757 -1.43253
v -1.62234 4.23289 -1.36258
v -2.06474 3.34105 -1.80905
v -1.04633 4.0004 -1.1171
v -1.92856 3.95763 -1.99681
v -2.15358 3.22738 -1.65643
v -1.22477 1.76872 -1.51675
v -1.40422 1.85612 -1.45624
v -1.91623 3.57717 -1.70225
v -2.23309 4.26877 -0.921268
v -1.85911 3.47773 -1.83983
v -1.93161 4.03307 -1.93611
v -1.21531 3.91746 -1.26937
v -1.37263 3.8458 -1.03425
v -2.30492 3.05307 -1.49878
v -2.43489 4.04444 -0.366845
v -2.75427 3.36658 0.151327
v -1.21182 3.54824 -0.861557
v -1.58391 3.50989 -1.32113
v -1.65822 3.57248 -1.35518
v -1.62784 3.60475 -1.22977
v -0.886233 3.33115 -0.22757
v -2.71642 3.56592 -0.263956
v -1.67643 3.90313 -1.31154
v -1.76955 3.83054 -1.70498
v -1.83982 3.93251 -1.777
v -2.41334 4.07246 -0.000185387
v -2.70829 3.88348 -0.0217408
v -1.54265 4.0755 -0.413151
v -1.70117 4.05714 -1.50008
v -2.68983 4.1884 -0.232694
v -2.61127 4.13577 -0.388866
v -2.63782 4.26906 -0.307161
v -1.85424 4.35951 -1.53223
v -1.84218 4.09446 -1.58783
v -1.96019 4.28919 -1.61937
v -2.26247 4.35523 -1.95046
v -2.57376 4.03921 -0.380307
v -1.76955 3.83054 -1.70498
v -1.89117 4.14344 -1.04179
v -2.70938 3.57116 -0.296198
v -1.65854 3.96288 -1.27525
v -2.52684 3.77841 -1.97423
v -1.75447 5.0804 -0.594791
v -1.95011 4.25555 -1.72047
v -2.41487 4.01036 -0.0853435
v -2.75002 3.65261 -0.0818289
v -2.22447 2.06165 -0.298
v -0.92865 3.29003 0.0509851
v -2.11816 4.89178 -0.815651
v -2.42897 4.92929 -0.922207
v -1.86023 5.02716 -0.117916
v -2.31469 4.53499 -0.801654
v -2.64615 4.45287 -0.246495
v -2.01869 4.2992 -1.22461
v -1.91559 4.10286 -1.75875
v -2.06938 4.39281 -1.06522
v -1.78224 4.26577 -0.501095
v -2.04276 4.14535 -0.382619
v -2.43723 3.9623 -0.276522
v -2.60313 3.83521 -2.14787
v -1.93504 3.86195 -1.0544
v -2.60039 3.25731 0.108156
v -1.32019 3.43078 -0.827189
v -1.62631 3.8181 -1.13914
v -2.03358 4.95706 -0.438832
v -2.52287 3.94458 -0.0189303
v -2.38634 3.89319 -2.0821
v -1.74835 3.70982 -1.97343
v -2.00795 4.17906 -0.996617
v -2.44383 5.01134 -1.07549
v -2.48676 4.37471 -0.194171
v -2.39827 4.21935 0.0569722
v -1.13876 3.8342 -0.680914
v -2.39302 3.51899 0.238895
v -1.84259 4.90204 -0.677243
v -1.67439 3.58384 -1.35832
v -2.41254 3.85754 -1.94475
v -1.59266 4.03188 -1.45185
v -2.73852 3.60297 -0.163939
v -2.27069 4.37298 -0.949689
v -2.56933 4.10832 -0.248901
v -1.75348 4.09809 -1.10933
v -1.44364 3.80718 -0.827018
v -2.46402 3.50242 -2.17046
v -1.60608 3.75192 -1.07441
v -2.62678 4.19387 -0.0975016
v -2.03217 4.12341 -1.0086
v -1.76815 4.03478 -1.05141
v -2.09865 4.18262 -0.944234
v -1.55149 3.9234 -1.00587
f 7 8 1 3
f 14 1551 1 8
f 3 1 2 4
f 1551 1445 2 1
f 5 6 3 4
f 17 7 3 6
f 13 12 4 2
f 12 26 5 4
f 18 6 5 1538
f 22 8 7 1827
f 7 17 23 1827
f 8 22 21 14
f 1445 10 9 1471
f 11 9 10 1446
f 11 1446 42 45
f 54 1472 11 45
f 1471 9 11 1472
f 12 24 25 26
f 12 13 1473 24
f 1445 1471 13 2
f 15 16 14 21
f 14 16 1447 1551
f 27 29 15 21
f 16 15 36 1567
f 18 19 17 6
f 1545 19 18 1539
f 23 17 19 30
f 21 22 20 27
f 28 27 20 1552
f 22 1827 1828 20
f 1828 1827 23 32
f 24 1478 101 25
f 33 26 25 51
f 50 51 25 101
f 1538 5 26 33
f 29 27 28 1557
f 29 34 36 15
f 29 1557 1786 34
f 30 31 32 23
f 38 31 30 1546
f 30 19 1545 1546
f 31 38 37 44
f 31 44 43 32
f 1548 1828 32 43
f 1523 1538 33 1524
f 36 34 35 1569
f 109 1569 35 1572
f 1571 1572 35 1573
f 35 34 1786 1573
f 36 1569 1570 1567
f 37 38 39 1547
f 39 38 1546 1541
f 1446 1448 40 42
f 42 40 41 46
f 41 76 77 46
f 1570 112 41 40
f 62 63 43 44
f 72 1548 43 63
f 64 62 44 37
f 45 42 46 1449
f 1788 54 45 1449
f 65 66 47 71
f 47 68 69 71
f 119 68 1868 78
f 48 47 66 58
f 49 1868 48 55
f 56 57 49 55
f 49 90 79 1868
f 50 100 1501 1608
f 1524 33 51 1607
f 1608 1607 51 50
f 52 53 54 1788
f 52 1788 1451 1474
f 52 83 1478 53
f 53 1473 1472 54
f 58 59 55 48
f 55 59 93 56
f 60 61 57 56
f 57 95 90 49
f 58 66 65 114
f 127 59 58 114
f 67 61 60 70
f 60 56 93 108
f 95 57 61 107
f 117 107 61 67
f 131 86 62 64
f 73 72 63 87
f 86 87 63 62
f 64 37 1547 103
f 74 75 67 70
f 143 117 67 75
f 68 81 82 69
f 134 81 68 119
f 69 82 120 121
f 70 60 108 132
f 133 74 70 132
f 115 65 71 122
f 121 122 71 69
f 1791 1792 72 73
f 73 1549 1550 1791
f 74 133 153 89
f 89 88 75 74
f 112 111 76 41
f 76 111 1604 1603
f 1449 46 77 1450
f 77 76 1603 1601
f 79 80 78 1868
f 80 79 91 113
f 118 78 80 138
f 81 98 99 82
f 81 134 148 98
f 82 99 139 120
f 84 85 83 1475
f 83 85 101 1478
f 1474 1475 83 52
f 84 188 100 85
f 1476 204 84 1475
f 137 87 86 130
f 1549 73 87 137
f 143 75 88 141
f 155 141 88 96
f 89 97 96 88
f 91 79 90 92
f 94 92 90 95
f 145 146 91 92
f 93 59 127 169
f 145 92 94 158
f 106 94 95 107
f 98 96 97 99
f 97 89 153 164
f 155 96 98 148
f 164 139 99 97
f 101 85 100 50
f 100 188 191 1501
f 104 102 103 105
f 103 102 131 64
f 125 124 104 105
f 136 102 104 149
f 104 124 168 149
f 105 1544 1537 125
f 1547 1544 105 103
f 158 94 106 167
f 185 167 106 116
f 116 106 107 117
f 169 170 108 93
f 108 170 206 132
f 109 110 111 112
f 109 112 1570 1569
f 110 109 1572 1575
f 110 1575 1586 1605
f 111 110 1605 1604
f 138 80 113 147
f 113 91 146 154
f 174 147 113 154
f 114 65 115 126
f 128 127 114 126
f 181 126 115 184
f 115 122 183 184
f 116 144 212 185
f 117 143 144 116
f 119 78 118 123
f 135 134 119 123
f 183 122 121 186
f 121 120 199 186
f 193 195 123 118
f 124 200 201 168
f 125 1515 200 124
f 125 1537 1536 1515
f 127 128 1762 169
f 128 126 181 1764
f 131 129 130 86
f 130 129 175 180
f 179 137 130 180
f 131 102 136 129
f 132 206 207 133
f 148 134 135 156
f 195 1806 135 123
f 225 156 135 1806
f 175 129 136 173
f 138 192 193 118
f 199 120 139 220
f 139 164 227 220
f 172 177 140 171
f 241 205 140 177
f 157 142 141 155
f 143 141 142 144
f 142 211 212 144
f 180 146 145 179
f 175 154 146 180
f 147 194 192 138
f 173 136 149 176
f 150 162 165 151
f 152 150 151 159
f 209 159 151 217
f 152 160 162 150
f 152 159 182 237
f 239 160 152 237
f 153 133 207 1757
f 156 157 155 148
f 211 142 157 231
f 225 231 157 156
f 179 145 158 243
f 197 161 160 239
f 162 160 161 163
f 161 197 198 234
f 163 166 165 162
f 163 161 234 166
f 1757 227 164 153
f 178 165 166 230
f 165 178 217 151
f 166 331 267 230
f 278 331 166 234
f 167 185 233 244
f 167 244 243 158
f 176 149 168 1652
f 168 201 208 1652
f 1760 170 169 1762
f 171 140 205 223
f 172 171 223 226
f 174 154 175 173
f 176 187 174 173
f 194 147 174 187
f 177 172 226 196
f 240 241 177 196
f 229 217 178 230
f 179 243 1549 137
f 209 251 182 159
f 182 251 289 259
f 1769 184 183 1766
f 1765 181 184 1769
f 186 1767 1766 183
f 224 194 187 1651
f 187 176 1652 1651
f 188 189 190 191
f 188 84 204 189
f 190 189 203 258
f 296 210 190 258
f 191 190 210 216
f 192 228 213 193
f 192 194 224 228
f 195 193 213 248
f 195 248 249 1806
f 236 240 196 256
f 263 256 196 226
f 197 239 290 260
f 260 262 198 197
f 278 234 198 279
f 1756 1768 199 220
f 199 1768 1767 186
f 221 222 200 1515
f 201 200 222 235
f 202 1795 257 203
f 202 204 1476 1594
f 1600 1795 202 1594
f 204 202 203 189
f 205 230 267 268
f 272 223 205 268
f 1752 207 206 1758
f 1760 1758 206 170
f 207 1752 1753 1757
f 235 274 208 201
f 1647 1648 208 274
f 210 296 1442 1441
f 211 231 345 342
f 212 232 233 185
f 212 211 342 232
f 214 215 216 219
f 214 265 1505 1503
f 215 214 1503 1502
f 216 210 1441 219
f 1501 191 216 215
f 218 209 217 229
f 218 304 251 209
f 218 317 318 304
f 350 317 218 270
f 265 214 219 266
f 1499 266 219 1441
f 220 227 253 1756
f 252 222 221 275
f 1456 275 221 1457
f 269 235 222 252
f 263 226 223 272
f 224 1650 254 228
f 228 254 255 213
f 229 241 270 218
f 241 229 230 205
f 231 225 277 345
f 232 1610 271 233
f 245 244 233 271
f 287 240 236 310
f 309 310 236 256
f 259 238 237 182
f 239 237 238 290
f 381 291 238 259
f 270 241 240 287
f 242 243 244 245
f 243 242 1550 1549
f 245 246 247 242
f 246 245 271 273
f 247 246 250 1466
f 247 1554 1550 242
f 255 1646 248 213
f 423 249 248 1646
f 250 246 273 1612
f 284 285 250 1612
f 1465 1466 250 285
f 251 304 305 289
f 252 275 276 299
f 252 299 330 269
f 253 227 1757 1753
f 254 1650 1649 306
f 255 254 306 370
f 255 370 369 1646
f 258 203 257 295
f 257 1798 352 295
f 292 261 260 290
f 262 260 261 311
f 261 286 283 303
f 312 311 261 303
f 261 292 320 286
f 279 198 262 343
f 312 343 262 311
f 309 256 263 338
f 263 272 324 338
f 265 266 264 297
f 298 297 264 322
f 1496 322 264 1495
f 1504 1505 265 297
f 1495 264 266 1499
f 267 331 337 323
f 268 267 323 326
f 324 272 268 326
f 274 235 269 339
f 271 1610 1611 273
f 273 1611 368 1612
f 274 339 341 1647
f 275 1456 1513 276
f 399 299 276 426
f 423 419 277 249
f 277 225 1806 249
f 416 332 278 279
f 279 343 344 416
f 280 281 282 283
f 280 283 286 300
f 280 300 301 281
f 281 301 328 354
f 319 302 282 377
f 354 377 282 281
f 302 303 283 282
f 288 285 284 307
f 284 1612 368 1613
f 301 300 286 308
f 286 320 353 308
f 350 270 287 363
f 294 293 288 307
f 288 1563 1465 285
f 1565 1563 288 293
f 381 259 289 386
f 385 386 289 305
f 291 292 290 238
f 380 333 291 381
f 292 291 333 320
f 293 294 313 355
f 294 307 1639 1640
f 1641 313 294 1640
f 296 258 295 351
f 296 351 1498 1442
f 298 1506 1504 297
f 298 321 1507 1506
f 301 308 329 328
f 319 312 303 302
f 304 318 347 305
f 418 385 305 347
f 406 1657 306 1649
f 1656 370 306 1657
f 307 284 1613 1639
f 349 348 308 353
f 362 310 309 387
f 310 362 363 287
f 344 343 312 357
f 394 355 313 408
f 314 315 316 327
f 384 316 315 402
f 315 314 1770 401
f 317 350 414 400
f 318 317 400 347
f 319 356 357 312
f 319 377 378 356
f 321 298 322 325
f 1460 325 322 1496
f 413 404 323 337
f 324 409 410 338
f 324 326 411 409
f 1459 485 325 1460
f 1500 321 325 485
f 326 323 404 411
f 328 329 327 316
f 1765 1769 327 329
f 1766 314 327 1769
f 384 354 328 316
f 329 308 348 1765
f 330 340 339 269
f 330 299 399 358
f 331 278 332 337
f 413 337 332 415
f 353 320 333 403
f 436 403 333 380
f 1610 335 334 1615
f 334 336 1614 1617
f 334 1617 1616 1615
f 336 334 335 342
f 345 346 336 342
f 336 346 420 1614
f 387 309 338 410
f 341 339 340 1658
f 340 330 358 1654
f 1803 1658 340 1654
f 1649 1647 341 406
f 1610 232 342 335
f 417 416 344 429
f 419 346 345 277
f 460 418 347 400
f 349 353 388 389
f 1764 348 349 1763
f 350 363 437 414
f 351 295 352 458
f 433 458 352 431
f 355 394 395 1581
f 1565 293 355 1581
f 428 357 356 430
f 357 428 429 344
f 358 399 1469 1842
f 358 1869 1653 1654
f 359 1708 438 390
f 359 361 1707 1708
f 361 359 360 391
f 360 359 390 451
f 392 391 360 412
f 453 412 360 451
f 361 391 1712 1709
f 467 443 362 387
f 363 362 443 437
f 364 1729 1885 365
f 1729 364 472 613
f 364 1897 1839 472
f 613 498 1897 729
f 845 1844 365 1885
f 366 367 368 1611
f 367 366 424 1618
f 1619 1613 368 367
f 369 371 1661 421
f 371 369 370 1656
f 1659 1660 371 1656
f 372 383 382 1835
f 468 373 372 1826
f 1820 1826 372 1835
f 383 372 373 1711
f 373 468 469 1711
f 389 375 374 1761
f 374 376 1752 1758
f 1760 1761 374 1758
f 376 374 375 379
f 376 1759 1753 1752
f 1754 1759 376 379
f 377 354 384 378
f 430 356 378 445
f 379 375 425 449
f 379 449 459 1754
f 380 381 386 503
f 495 436 380 503
f 382 1727 1728 1835
f 1807 1727 382 465
f 383 1724 465 382
f 384 444 445 378
f 384 402 491 444
f 503 386 385 509
f 388 353 403 476
f 388 476 518 425
f 389 388 425 375
f 389 1761 1763 349
f 390 438 440 454
f 391 392 393 1712
f 393 392 544 447
f 393 446 1728 1712
f 473 434 394 408
f 434 435 395 394
f 395 1580 1568 1581
f 395 435 1582 1580
f 396 397 398 1755
f 1753 1759 396 253
f 396 1755 1756 253
f 397 462 442 398
f 397 1754 459 462
f 397 396 1759 1754
f 398 441 1771 1755
f 399 426 427 1469
f 402 315 401 522
f 520 522 401 441
f 487 411 404 497
f 404 413 492 497
f 406 407 405 1657
f 405 1659 1656 1657
f 1665 1659 405 1664
f 406 341 1658 407
f 407 1667 1664 405
f 551 473 408 552
f 1641 552 408 313
f 409 507 486 410
f 487 507 409 411
f 467 387 410 486
f 544 392 412 1703
f 460 400 414 510
f 415 332 416 417
f 492 413 415 493
f 417 429 488 499
f 493 415 417 499
f 509 385 418 599
f 1884 460 538 580
f 543 535 1884 580
f 420 346 419 422
f 1646 369 421 423
f 422 421 1661 481
f 423 421 422 419
f 422 481 482 494
f 496 420 422 494
f 424 366 1615 1616
f 1799 1622 424 1616
f 619 449 425 518
f 485 427 426 1500
f 1513 1500 426 276
f 488 429 428 524
f 428 430 519 524
f 430 445 561 519
f 432 433 431 1592
f 431 352 1798 1794
f 432 513 514 1797
f 433 457 456 458
f 1797 457 433 432
f 516 435 434 542
f 476 403 436 501
f 436 495 541 501
f 510 414 437 528
f 440 438 439 450
f 439 511 512 450
f 1708 1808 439 438
f 455 454 440 461
f 440 450 466 461
f 441 398 442 520
f 441 401 1770 1771
f 442 462 540 608
f 443 527 528 437
f 556 508 444 491
f 445 444 508 561
f 447 448 446 393
f 1821 1820 446 448
f 534 448 447 539
f 454 452 451 390
f 453 451 452 470
f 452 454 455 475
f 1703 412 453 537
f 1497 1493 456 457
f 457 1797 614 1497
f 458 456 1498 351
f 459 449 619 1750
f 490 455 461 483
f 1750 540 462 459
f 463 464 465 1724
f 1721 577 463 1724
f 579 628 464 463
f 465 464 1715 1807
f 483 461 466 477
f 466 450 512 533
f 527 443 467 554
f 1723 469 468 1823
f 1722 624 469 1723
f 470 452 475 502
f 537 453 470 546
f 526 471 1841 1839
f 1906 1841 471 525
f 498 613 472 1840
f 542 434 473 547
f 592 1679 474 1681
f 475 455 490 500
f 477 478 479 483
f 477 466 533 530
f 481 479 478 482
f 478 477 530 531
f 478 531 532 482
f 479 489 490 483
f 506 489 479 1883
f 498 1840 480 1897
f 591 592 480 610
f 1681 1817 480 592
f 1839 1897 480 1817
f 482 532 536 494
f 484 427 485 1459
f 484 1470 1469 427
f 486 575 554 467
f 486 507 590 575
f 576 535 488 612
f 611 612 488 524
f 500 490 489 1837
f 522 523 491 402
f 557 497 492 558
f 597 558 492 493
f 496 494 536 559
f 496 1620 1614 420
f 562 487 497 557
f 499 488 535 543
f 499 543 597 493
f 500 505 502 475
f 504 505 500 1837
f 518 476 501 593
f 594 593 501 541
f 581 582 583 1869
f 546 470 502 1843
f 568 1843 502 505
f 724 495 503 509
f 565 564 504 1837
f 568 505 504 569
f 1895 565 506 1804
f 506 1883 1660 1804
f 1837 489 506 565
f 507 487 562 590
f 508 556 682 641
f 509 599 1751 724
f 538 460 510 585
f 598 589 511 1704
f 511 439 1808 1704
f 512 511 589 596
f 1843 533 512 596
f 563 514 513 566
f 1592 1454 513 432
f 514 615 614 1797
f 514 563 673 615
f 515 516 517 1606
f 516 542 567 517
f 1582 435 516 515
f 517 643 587 1606
f 517 567 1844 643
f 646 732 519 561
f 608 521 520 442
f 522 520 521 523
f 683 523 521 737
f 556 491 523 683
f 524 519 732 611
f 525 471 526 529
f 863 1911 671 672
f 525 529 1683 671
f 526 1682 1678 529
f 528 584 585 510
f 528 527 595 584
f 568 569 531 530
f 569 574 532 531
f 568 530 533 1843
f 623 1726 534 539
f 534 636 1821 448
f 535 576 599 1884
f 536 532 1867 617
f 536 617 620 559
f 544 545 539 447
f 724 726 541 495
f 555 545 544 1703
f 545 622 623 539
f 645 622 545 555
f 609 537 546 642
f 546 1861 658 642
f 547 473 551 635
f 547 701 1889 542
f 770 701 547 635
f 1640 1638 548 1641
f 550 548 549 560
f 549 548 1638 1631
f 550 552 1641 548
f 551 553 621 635
f 1905 551 552 550
f 1905 550 560 605
f 554 777 595 527
f 557 558 604 606
f 627 626 559 620
f 559 626 1620 496
f 560 549 616 634
f 561 508 641 646
f 562 557 606 644
f 655 590 562 644
f 563 566 588 656
f 563 656 657 673
f 569 504 564 574
f 564 1662 976 574
f 1454 1453 566 513
f 1889 701 702 715
f 713 714 1889 715
f 1889 714 816 864
f 578 577 570 603
f 570 577 1721 571
f 572 570 571 573
f 624 573 571 469
f 1711 469 571 1721
f 603 570 572 654
f 605 572 573 1905
f 573 624 625 553
f 650 632 1867 976
f 575 590 655 778
f 575 778 777 554
f 687 688 576 612
f 577 578 579 463
f 578 667 629 579
f 578 603 670 667
f 597 543 580 1838
f 640 663 580 538
f 580 663 661 1838
f 602 618 581 1842
f 666 582 581 618
f 582 666 716 1677
f 1677 1666 583 582
f 648 585 584 649
f 584 595 668 649
f 640 538 585 648
f 586 1453 1452 1591
f 588 586 587 1796
f 587 643 676 1796
f 1591 1606 587 586
f 588 1796 703 656
f 588 566 1453 586
f 589 598 686 757
f 691 596 589 757
f 592 591 665 1679
f 619 518 593 660
f 659 660 593 594
f 726 751 594 541
f 690 1861 596 691
f 604 558 597 1838
f 780 686 598 1706
f 688 1751 599 576
f 600 601 602 1470
f 674 675 601 600
f 602 601 669 618
f 1469 1470 602 1842
f 661 662 604 1838
f 604 662 677 606
f 634 653 605 560
f 605 653 654 572
f 678 644 606 677
f 608 540 607 718
f 719 718 607 735
f 607 540 1750 679
f 737 521 608 718
f 645 555 609 647
f 1703 537 609 555
f 1123 932 1906 1911
f 610 480 1840 1841
f 732 687 612 611
f 614 615 1484 1485
f 849 1484 615 673
f 616 549 1631 693
f 617 1867 689 704
f 617 704 720 620
f 819 666 618 669
f 679 1750 619 660
f 620 720 771 627
f 651 621 553 625
f 727 739 621 651
f 770 635 621 783
f 793 761 1888 739
f 1888 761 872 893
f 884 783 1888 894
f 722 723 622 645
f 622 723 728 623
f 623 728 832 1726
f 624 1722 747 625
f 667 670 1863 721
f 1863 670 727 651
f 1898 860 861 867
f 626 1625 1621 1620
f 1625 626 627 1627
f 628 579 629 753
f 1715 464 628 1716
f 628 753 1720 1716
f 752 753 629 754
f 1900 631 630 652
f 632 630 631 633
f 684 633 631 685
f 690 685 631 1900
f 652 630 632 650
f 632 633 689 1867
f 806 689 633 684
f 634 616 692 711
f 636 637 638 639
f 1726 637 636 534
f 791 638 637 868
f 638 791 706 708
f 1829 639 638 708
f 1821 636 639 1819
f 641 760 731 646
f 647 609 642 743
f 645 647 750 722
f 648 733 734 640
f 1780 733 648 649
f 649 668 786 1780
f 652 709 658 1900
f 653 634 711 1881
f 653 739 727 654
f 654 727 670 603
f 678 1776 655 644
f 657 656 703 811
f 658 710 743 642
f 679 660 659 736
f 659 594 751 814
f 661 663 782 1834
f 1774 662 661 1834
f 663 640 734 782
f 665 591 664 680
f 664 825 776 680
f 913 825 1882 830
f 1678 1679 665 1680
f 666 819 820 716
f 754 629 667 796
f 777 779 668 595
f 675 818 669 601
f 669 818 883 819
f 672 762 765 805
f 1683 762 672 671
f 811 849 673 657
f 1489 1490 674 600
f 675 674 712 730
f 769 1894 730 774
f 1894 769 807 846
f 676 797 703 1796
f 676 643 1844 1862
f 1774 1775 677 662
f 677 1775 1816 678
f 735 607 679 736
f 1680 665 680 763
f 681 841 790 682
f 681 738 842 841
f 683 681 682 556
f 760 641 682 790
f 738 681 683 737
f 787 684 685 795
f 810 795 685 690
f 686 781 755 757
f 687 732 749 801
f 688 687 801 812
f 689 806 823 704
f 755 756 691 757
f 810 690 691 756
f 693 694 692 616
f 1633 694 693 1632
f 694 1802 826 692
f 695 713 717 696
f 697 695 696 862
f 696 717 799 862
f 713 695 697 714
f 788 789 697 862
f 699 700 698 1443
f 744 710 698 700
f 758 700 699 759
f 699 822 1848 759
f 702 701 770 885
f 702 886 813 715
f 962 963 703 797
f 706 707 705 708
f 705 741 747 1722
f 1062 1846 706 925
f 741 705 707 746
f 707 706 1846 746
f 1831 1829 708 705
f 710 658 709 698
f 976 977 1887 650
f 1887 977 1005 1116
f 1093 1078 1887 1116
f 1443 698 709 1444
f 742 743 710 744
f 711 692 826 836
f 711 836 866 1881
f 774 730 712 1491
f 712 674 1490 1789
f 813 717 713 715
f 714 697 789 816
f 716 820 865 1676
f 990 799 717 813
f 738 737 718 719
f 842 738 719 1866
f 720 704 823 855
f 721 1863 761 793
f 796 667 721 824
f 722 750 772 794
f 798 723 722 794
f 725 726 724 1751
f 725 831 751 726
f 725 871 896 831
f 798 817 728 723
f 1729 613 729 610
f 732 646 731 749
f 731 760 875 876
f 733 1780 786 1833
f 733 1833 1774 1834
f 734 733 1834 782
f 735 858 1866 719
f 736 659 814 901
f 858 735 736 901
f 748 1882 740 792
f 935 792 740 745
f 890 741 746 1825
f 772 750 742 775
f 742 744 773 775
f 750 647 743 742
f 744 700 758 773
f 934 935 745 900
f 860 625 747 891
f 747 741 890 1063
f 808 802 748 898
f 830 1882 748 854
f 748 792 847 898
f 749 850 812 801
f 749 731 876 914
f 835 834 752 848
f 752 834 1720 753
f 754 895 848 752
f 775 756 755 772
f 773 810 756 775
f 787 795 758 759
f 759 1848 800 787
f 921 875 760 790
f 867 872 761 1898
f 762 763 764 765
f 762 1683 1680 763
f 776 764 763 680
f 1697 1695 764 776
f 765 764 1695 1694
f 851 852 766 1801
f 766 768 1800 1801
f 768 766 767 1624
f 767 766 852 930
f 929 1636 767 930
f 1635 1624 767 1636
f 807 1904 815 947
f 1904 857 844 845
f 769 774 856 857
f 771 720 855 859
f 771 1626 1627 627
f 772 755 781 794
f 795 810 773 758
f 779 777 778 1779
f 1776 1779 778 655
f 786 668 779 784
f 781 686 780 840
f 780 1706 1718 1719
f 781 840 798 794
f 783 884 885 770
f 784 779 1779 1778
f 1824 785 784 1778
f 786 784 785 1833
f 787 800 806 684
f 788 862 799 877
f 1643 789 788 877
f 974 816 789 1643
f 791 869 860 891
f 925 706 791 891
f 792 935 968 847
f 793 873 824 721
f 793 1881 866 873
f 796 824 867 861
f 895 754 796 861
f 797 676 1899 962
f 843 817 798 840
f 823 806 800 1848
f 802 804 809 853
f 802 853 854 748
f 804 802 803 833
f 803 802 808 821
f 1880 821 822 965
f 1011 1836 1880 1023
f 1024 1023 1880 965
f 1026 833 803 1836
f 863 672 805 889
f 1694 1001 805 765
f 807 947 948 846
f 897 1609 808 898
f 922 923 809 804
f 1126 853 809 1684
f 809 1248 1162 1684
f 952 849 811 1742
f 811 703 963 1742
f 871 725 812 850
f 812 725 1751 688
f 813 886 989 990
f 814 751 831 971
f 1879 971 982 1086
f 815 1904 845 966
f 1055 1056 815 1045
f 1099 1045 815 966
f 1054 864 816 974
f 832 728 817 1725
f 818 1894 846 1655
f 1067 883 818 1655
f 820 819 883 1039
f 1609 859 821 808
f 822 855 823 1848
f 859 855 822 821
f 822 699 1443 965
f 872 867 824 873
f 825 913 1043 1044
f 825 1044 1697 776
f 826 938 906 836
f 826 1802 941 938
f 827 828 829 1668
f 944 945 827 946
f 827 1668 1079 946
f 1662 828 827 945
f 829 828 1663 1673
f 830 973 972 913
f 995 973 830 996
f 830 854 1031 996
f 831 896 982 971
f 832 1725 870 868
f 833 1161 922 804
f 833 1026 1158 1785
f 834 835 843 1719
f 1718 1720 834 1719
f 835 848 870 1725
f 893 866 836 906
f 1081 838 837 1011
f 1743 887 838 1081
f 839 878 879 837
f 887 878 839 838
f 840 780 1719 843
f 841 1022 921 790
f 842 1068 1022 841
f 1847 1068 842 1866
f 843 835 1725 817
f 845 1885 932 966
f 1899 959 960 1850
f 1862 844 981 959
f 847 968 928 899
f 869 870 848 895
f 896 871 850 1849
f 850 749 914 1849
f 1609 897 851 1626
f 1627 1626 851 1801
f 897 899 852 851
f 1126 1031 854 853
f 1491 1000 856 774
f 981 844 857 1734
f 1735 1734 857 856
f 858 1136 1108 1866
f 858 901 1144 1136
f 1626 771 859 1609
f 861 860 869 895
f 1860 1141 863 1909
f 863 1141 1123 1911
f 1845 567 864 900
f 1039 1040 865 820
f 869 791 868 870
f 1726 832 868 637
f 893 872 873 866
f 874 1108 1109 1893
f 876 875 1125 1048
f 877 799 990 1645
f 878 887 888 892
f 879 878 892 912
f 1011 837 879 1836
f 879 912 1026 1836
f 881 882 880 1013
f 905 882 881 909
f 881 993 933 909
f 881 1013 1012 993
f 882 1814 1858 880
f 907 908 884 894
f 886 702 885 915
f 908 915 885 884
f 886 915 1085 989
f 888 903 902 892
f 888 979 980 903
f 1743 979 888 887
f 889 972 1909 863
f 889 805 1001 1050
f 889 1050 1076 972
f 891 747 1063 925
f 894 1888 893 906
f 1048 982 896 876
f 899 897 898 847
f 930 852 899 928
f 900 864 1054 934
f 1859 1845 900 745
f 1121 1144 901 1879
f 902 903 904 910
f 912 892 902 924
f 902 910 931 924
f 903 980 1032 904
f 916 917 905 909
f 905 1084 1814 882
f 907 894 906 938
f 941 942 907 938
f 907 942 1642 908
f 909 933 927 916
f 910 904 911 918
f 910 918 937 931
f 1032 1033 911 904
f 912 924 1025 1026
f 1076 1043 913 972
f 915 908 1642 1085
f 916 927 926 1746
f 1084 905 917 1090
f 917 916 1746 1815
f 1748 1090 917 1815
f 919 920 918 911
f 936 937 918 920
f 919 939 940 920
f 919 911 1033 1053
f 1051 939 919 1053
f 1125 875 921 1132
f 922 1155 1046 923
f 1160 1155 922 1161
f 1248 809 923 1255
f 1266 1255 1878 1270
f 1061 1062 925 1063
f 958 1746 926 957
f 926 927 961 1003
f 929 930 928 954
f 1637 1636 929 943
f 964 1027 931 937
f 931 1027 1025 924
f 1099 966 932 1124
f 961 927 933 1029
f 1047 1029 933 993
f 935 934 969 968
f 940 985 936 920
f 937 936 950 964
f 970 940 939 988
f 1059 988 939 1051
f 942 941 943 949
f 942 949 1018 1642
f 954 949 943 929
f 1802 1637 943 941
f 944 946 1100 1143
f 945 977 976 1662
f 945 944 1005 977
f 946 1079 1080 1100
f 947 815 1056 1092
f 948 947 1092 1067
f 1655 846 948 1067
f 949 954 969 1018
f 985 994 950 936
f 953 951 952 975
f 1484 849 952 951
f 953 975 1030 1020
f 953 1482 1481 951
f 1486 1482 953 1020
f 968 969 954 928
f 957 955 956 958
f 956 955 978 984
f 999 958 956 1009
f 1019 1009 956 984
f 967 955 957 1813
f 1003 1813 957 926
f 958 999 1815 1746
f 1133 1129 959 981
f 1903 1010 960 1034
f 960 959 1129 1034
f 1028 1002 961 1029
f 962 1809 1213 1736
f 1850 1809 962 1899
f 963 962 1736 1741
f 963 1741 1739 1742
f 1910 1908 1860 1083
f 964 950 996 1908
f 967 983 978 955
f 1066 983 967 1811
f 967 1813 1810 1811
f 1876 1018 969 934
f 985 940 970 998
f 1035 998 970 987
f 974 1645 1644 1054
f 1021 1030 975 1738
f 975 1739 1740 1738
f 975 952 1742 1739
f 992 991 978 983
f 1117 980 979 1852
f 983 1066 1069 992
f 984 978 991 1074
f 1105 1019 984 1074
f 997 994 985 998
f 986 1733 1730 987
f 986 1744 1745 1733
f 988 986 987 970
f 987 1730 1097 1035
f 1744 986 988 1059
f 1644 989 1085 1876
f 989 1644 1645 990
f 1075 1074 991 1812
f 1812 991 992 1071
f 994 995 996 950
f 1010 995 994 997
f 1089 1083 1903 1034
f 1890 1101 1102 1111
f 1890 1111 1122 1141
f 997 998 1035 1049
f 1118 1119 999 1009
f 1000 1491 1487 1492
f 1000 1021 1735 856
f 1001 1701 1179 1050
f 1003 961 1002 1004
f 1002 1052 1042 1004
f 1072 1052 1002 1028
f 1813 1003 1004 1810
f 1005 944 1143 1772
f 1188 1116 1005 1772
f 1007 1008 1006 1731
f 1071 1731 1006 1812
f 1006 1008 1204 1749
f 1008 1007 1730 1733
f 1010 997 1049 1855
f 1082 1081 1011 1023
f 1012 1060 1047 993
f 1090 1012 1013 1084
f 1013 880 1814 1084
f 1014 1015 1016 1017
f 1139 1015 1014 1091
f 1822 1057 1015 1139
f 1038 1041 1016 1036
f 1016 1041 1042 1017
f 1057 1036 1016 1015
f 1091 1014 1017 1103
f 1118 1009 1019 1157
f 1021 1000 1020 1030
f 1020 1000 1492 1486
f 1132 921 1022 1087
f 1078 1082 1023 1024
f 1443 1444 1024 965
f 1078 1024 1444 1887
f 1025 1131 1158 1026
f 1131 1025 1027 1154
f 1027 1910 1830 1154
f 1028 1029 1047 1094
f 1104 1072 1028 1094
f 1101 1890 1031 1126
f 1032 980 1117 1127
f 1032 1127 1146 1033
f 1173 1089 1034 1222
f 1034 1129 1213 1222
f 1035 1097 1098 1049
f 1036 1057 1058 1037
f 1038 1036 1037 1064
f 1037 1096 1065 1064
f 1066 1811 1038 1064
f 1039 883 1067 1092
f 1055 1113 1040 1056
f 1040 1039 1092 1056
f 1140 865 1040 1113
f 1811 1810 1041 1038
f 1042 1052 1103 1017
f 1810 1004 1042 1041
f 1253 1194 1877 1258
f 1256 1258 1877 1177
f 1194 1195 1044 1877
f 1045 1878 1046 1055
f 1270 1878 1045 1099
f 1086 982 1048 1151
f 1169 1151 1048 1125
f 1107 1130 1865 1098
f 1865 1130 1170 1218
f 1114 1051 1053 1115
f 1053 1033 1146 1115
f 1642 1018 1876 1085
f 1112 1113 1055 1046
f 1432 1058 1057 1822
f 1058 1095 1096 1037
f 1059 1051 1114 1128
f 1090 1748 1060 1012
f 1094 1047 1060 1110
f 1061 1818 1846 1062
f 1818 1061 1063 1832
f 1825 1832 1063 890
f 1066 1064 1065 1069
f 1068 1847 1073 874
f 1087 1022 1893 1088
f 1069 1070 1071 992
f 1107 1070 1069 1065
f 1135 1070 1107 1106
f 1135 1731 1071 1070
f 1103 1052 1072 1138
f 1206 1747 1875 1178
f 1875 1747 1432 1138
f 1105 1074 1075 1174
f 1177 1043 1076 1180
f 1179 1180 1076 1050
f 1077 1158 1131 1147
f 1081 1082 1902 1743
f 1140 1080 1079 1670
f 1079 1668 1669 1670
f 1166 1100 1080 1112
f 1083 1182 1830 1910
f 1086 1120 1121 1879
f 1109 1165 1088 1893
f 1243 1087 1088 1184
f 1182 1083 1089 1183
f 1091 1103 1138 1139
f 1093 1116 1188 1198
f 1095 1058 1432 1854
f 1107 1065 1096 1130
f 1170 1130 1096 1168
f 1097 1106 1107 1098
f 1228 1270 1099 1124
f 1225 1143 1100 1166
f 1102 1901 1214 1215
f 1104 1094 1110 1134
f 1178 1875 1104 1134
f 1157 1019 1105 1207
f 1105 1174 1175 1207
f 1106 1097 1730 1007
f 1106 1007 1731 1135
f 1150 1109 1108 1137
f 1109 1150 1164 1165
f 1748 1119 1110 1060
f 1111 1102 1215 1230
f 1229 1122 1111 1230
f 1140 1113 1112 1080
f 1112 1046 1155 1156
f 1112 1156 1239 1166
f 1149 1163 1114 1115
f 1181 1128 1114 1163
f 1148 1127 1117 1147
f 1119 1118 1134 1110
f 1119 1748 1815 999
f 1120 1086 1151 1224
f 1120 1224 1237 1216
f 1216 1167 1121 1120
f 1123 1141 1122 1142
f 1124 932 1123 1142
f 1162 1101 1126 1684
f 1127 1148 1153 1146
f 1744 1059 1128 1187
f 1169 1125 1132 1244
f 1243 1244 1132 1087
f 1213 1129 1133 1736
f 1133 981 1734 1737
f 1134 1118 1157 1178
f 1137 1108 1136 1152
f 1136 1144 1145 1152
f 1137 1152 1196 1874
f 1851 1150 1137 1853
f 1139 1138 1432 1822
f 1676 865 1140 1670
f 1228 1124 1142 1235
f 1142 1122 1229 1235
f 1143 1225 1773 1772
f 1167 1145 1144 1121
f 1196 1152 1145 1223
f 1145 1167 1277 1223
f 1149 1115 1146 1153
f 1154 1148 1147 1131
f 1147 1117 1852 1077
f 1149 1182 1183 1163
f 1257 1224 1151 1169
f 1154 1830 1153 1148
f 1182 1149 1153 1830
f 1155 1160 1232 1156
f 1156 1232 1271 1239
f 1158 1077 1159 1785
f 1159 1077 1853 1185
f 1233 1234 1160 1161
f 1160 1234 1265 1232
f 1785 1233 1161 833
f 1236 1901 1162 1251
f 1162 1248 1249 1251
f 1193 1165 1874 1196
f 1198 1892 1164 1907
f 1851 1907 1164 1150
f 1874 1185 1853 1137
f 1184 1088 1165 1193
f 1166 1239 1305 1225
f 1276 1277 1167 1216
f 1168 1856 1189 1197
f 1176 1857 1170 1168
f 1231 1218 1170 1857
f 1171 1865 1218 1219
f 1171 1173 1222 1172
f 1171 1172 1855 1865
f 1213 1809 1172 1222
f 1183 1089 1173 1210
f 1219 1210 1173 1171
f 1174 1075 1749 1203
f 1175 1174 1203 1176
f 1206 1207 1175 1197
f 1197 1175 1176 1168
f 1207 1206 1178 1157
f 1179 1288 1293 1180
f 1256 1177 1180 1293
f 1183 1210 1181 1163
f 1181 1186 1187 1128
f 1181 1210 1219 1186
f 1184 1252 1783 1243
f 1245 1159 1892 1260
f 1892 1198 1262 1260
f 1186 1219 1218 1231
f 1732 1187 1186 1231
f 1745 1744 1187 1732
f 1262 1198 1188 1301
f 1188 1772 1773 1301
f 1189 1854 1432 1747
f 1190 1191 1192 1696
f 1220 1191 1190 1221
f 1694 1695 1190 1696
f 1697 1221 1190 1695
f 1283 1263 1191 1220
f 1263 1264 1192 1191
f 1252 1184 1193 1259
f 1241 1195 1194 1240
f 1250 1240 1194 1253
f 1697 1044 1195 1221
f 1259 1193 1196 1223
f 1747 1206 1197 1189
f 1199 1211 1212 1200
f 1226 1227 1199 1201
f 1236 1211 1199 1227
f 1201 1199 1200 1202
f 1200 1208 1209 1202
f 1238 1201 1202 1242
f 1204 1205 1203 1749
f 1203 1205 1857 1176
f 1732 1205 1204 1745
f 1204 1008 1733 1745
f 1231 1857 1205 1732
f 1208 1200 1212 1217
f 1241 1240 1208 1217
f 1209 1208 1240 1250
f 1242 1202 1209 1273
f 1268 1269 1211 1236
f 1212 1246 1247 1217
f 1212 1211 1269 1246
f 1214 1227 1226 1254
f 1214 1901 1236 1227
f 1261 1215 1214 1254
f 1282 1276 1216 1237
f 1220 1873 1274 1283
f 1221 1195 1873 1220
f 1290 1237 1224 1257
f 1226 1201 1238 1689
f 1279 1254 1226 1689
f 1228 1289 1266 1270
f 1296 1316 1229 1230
f 1261 1296 1230 1215
f 1232 1265 1294 1271
f 1245 1295 1234 1233
f 1235 1312 1289 1228
f 1316 1312 1235 1229
f 1241 1217 1247 1272
f 1267 1238 1242 1700
f 1257 1169 1244 1784
f 1244 1243 1783 1784
f 1245 1260 1275 1295
f 1785 1159 1245 1233
f 1246 1269 1304 1281
f 1247 1246 1281 1298
f 1306 1272 1247 1298
f 1249 1248 1255 1291
f 1285 1251 1249 1349
f 1249 1291 1334 1349
f 1273 1209 1250 1278
f 1250 1253 1284 1278
f 1268 1236 1251 1285
f 1254 1279 1280 1261
f 1324 1290 1257 1784
f 1284 1253 1258 1699
f 1258 1256 1338 1699
f 1259 1223 1277 1314
f 1259 1308 1309 1252
f 1292 1275 1260 1262
f 1344 1264 1263 1331
f 1264 1311 1286 1192
f 1393 1311 1264 1344
f 1265 1234 1295 1307
f 1291 1255 1266 1300
f 1299 1300 1266 1289
f 1267 1690 1689 1238
f 1303 1268 1319 1330
f 1303 1304 1269 1268
f 1305 1239 1271 1333
f 1271 1294 1332 1333
f 1274 1873 1272 1306
f 1273 1365 1700 1242
f 1322 1283 1274 1310
f 1347 1348 1275 1292
f 1314 1277 1276 1318
f 1278 1367 1365 1273
f 1279 1688 1687 1280
f 1296 1261 1280 1686
f 1297 1298 1281 1693
f 1282 1237 1290 1320
f 1318 1276 1282 1321
f 1331 1263 1283 1322
f 1284 1699 1355 1377
f 1367 1278 1284 1377
f 1319 1268 1285 1327
f 1362 1327 1285 1349
f 1287 1288 1286 1311
f 1696 1192 1286 1701
f 1293 1288 1287 1302
f 1701 1286 1288 1179
f 1289 1312 1313 1299
f 1335 1334 1291 1300
f 1292 1262 1301 1358
f 1292 1358 1359 1347
f 1293 1302 1338 1256
f 1294 1265 1315 1323
f 1348 1307 1295 1275
f 1306 1298 1297 1329
f 1340 1329 1297 1702
f 1299 1313 1343 1896
f 1307 1348 1886 1328
f 1300 1299 1315 1328
f 1886 1389 1418 1335
f 1302 1287 1336 1339
f 1304 1303 1330 1351
f 1304 1351 1693 1281
f 1346 1345 1305 1361
f 1305 1333 1379 1361
f 1305 1345 1773 1225
f 1310 1274 1306 1871
f 1315 1265 1307 1328
f 1308 1259 1314 1368
f 1342 1309 1308 1360
f 1308 1368 1369 1360
f 1341 1325 1309 1342
f 1309 1325 1783 1252
f 1339 1322 1310 1353
f 1370 1371 1310 1871
f 1310 1371 1373 1353
f 1336 1287 1311 1393
f 1312 1316 1317 1313
f 1356 1323 1896 1364
f 1896 1864 1390 1364
f 1316 1296 1686 1317
f 1343 1313 1317 1357
f 1363 1357 1317 1686
f 1368 1314 1318 1406
f 1318 1321 1381 1406
f 1330 1891 1376 1352
f 1319 1327 1372 1394
f 1382 1363 1891 1394
f 1320 1290 1324 1326
f 1337 1282 1320 1404
f 1321 1282 1337 1354
f 1321 1354 1378 1381
f 1332 1294 1323 1408
f 1781 1408 1323 1356
f 1324 1784 1783 1325
f 1872 1324 1325 1341
f 1381 1378 1326 1403
f 1404 1320 1326 1378
f 1329 1340 1366 1375
f 1385 1698 1331 1322
f 1331 1698 1425 1344
f 1379 1333 1332 1384
f 1334 1422 1362 1349
f 1335 1418 1422 1334
f 1364 1354 1337 1356
f 1338 1302 1339 1353
f 1338 1353 1355 1699
f 1385 1322 1339 1386
f 1339 1336 1414 1386
f 1341 1342 1397 1400
f 1341 1400 1401 1872
f 1342 1360 1396 1397
f 1380 1388 1343 1870
f 1343 1388 1864 1896
f 1392 1393 1344 1425
f 1358 1345 1346 1359
f 1346 1398 1399 1359
f 1347 1359 1399 1405
f 1348 1347 1405 1391
f 1411 1886 1348 1391
f 1688 1690 1350 1352
f 1350 1691 1693 1351
f 1352 1350 1351 1330
f 1390 1378 1354 1364
f 1370 1374 1355 1383
f 1355 1353 1373 1383
f 1356 1337 1404 1781
f 1362 1380 1870 1327
f 1372 1327 1870 1387
f 1382 1387 1357 1363
f 1358 1301 1773 1345
f 1398 1346 1361 1402
f 1361 1379 1407 1402
f 1362 1692 1419 1380
f 1423 1692 1362 1422
f 1376 1891 1363 1687
f 1366 1340 1365 1367
f 1365 1340 1702 1700
f 1375 1366 1367 1377
f 1369 1395 1396 1360
f 1369 1368 1406 1410
f 1375 1374 1370 1871
f 1370 1383 1421 1685
f 1416 1373 1371 1417
f 1685 1417 1371 1370
f 1685 1394 1372 1417
f 1374 1375 1377 1355
f 1688 1352 1376 1687
f 1379 1384 1413 1407
f 1380 1419 1420 1388
f 1381 1403 1409 1415
f 1410 1406 1381 1415
f 1416 1387 1382 1421
f 1383 1373 1416 1421
f 1408 1864 1384 1332
f 1384 1389 1412 1413
f 1392 1426 1386 1414
f 1418 1420 1386 1426
f 1419 1385 1386 1420
f 1387 1416 1417 1372
f 1418 1389 1388 1420
f 1389 1886 1411 1412
f 1390 1781 1404 1378
f 1408 1781 1390 1864
f 1391 1429 1396 1395
f 1391 1395 1431 1411
f 1414 1336 1393 1392
f 1394 1685 1421 1382
f 1410 1431 1395 1369
f 1396 1429 1430 1397
f 1397 1430 1782 1400
f 1782 1430 1398 1402
f 1399 1398 1430 1429
f 1427 1401 1400 1782
f 1403 1872 1401 1409
f 1427 1782 1402 1407
f 1429 1391 1405 1399
f 1407 1413 1428 1427
f 1409 1428 1424 1415
f 1409 1401 1427 1428
f 1410 1415 1424 1431
f 1411 1431 1424 1412
f 1412 1424 1428 1413
f 1423 1422 1418 1426
f 1419 1692 1698 1385
f 1698 1692 1423 1425
f 1426 1392 1425 1423
f 1434 1435 1433 1436
f 1433 1435 1463 1439
f 1434 1464 1461 1435
f 1485 1481 1434 1436
f 1436 1433 1493 1497
f 1437 1438 1439 1440
f 1441 1442 1437 1499
f 1495 1499 1437 1440
f 1442 1498 1438 1437
f 1439 1438 1493 1433
f 1440 1439 1463 1494
f 1445 1551 1447 10
f 1446 10 1447 1448
f 1567 1448 1447 16
f 1570 40 1448 1567
f 1451 1788 1449 1450
f 1450 1477 1474 1451
f 1450 77 1601 1477
f 1452 1453 1454 1455
f 1452 1590 1583 1591
f 1454 1592 1593 1455
f 1590 1452 1455 1595
f 1511 1456 1457 1512
f 1515 1536 1457 221
f 1458 1459 1460 1479
f 1462 1480 1458 1479
f 1489 484 1459 1458
f 1461 1462 1463 1435
f 1488 1480 1462 1461
f 1494 1463 1462 1479
f 1481 1482 1464 1434
f 1488 1461 1464 1483
f 1562 1467 1465 1563
f 1466 1465 1467 1468
f 1554 247 1466 1468
f 1787 1468 1467 1561
f 1556 1554 1468 1787
f 1470 484 1489 600
f 1471 1472 1473 13
f 1473 53 1478 24
f 1477 1476 1475 1474
f 1594 1476 1477 1601
f 1479 1460 1496 1494
f 1489 1458 1480 1490
f 1484 951 1481 1485
f 1483 1464 1482 1486
f 1492 1487 1483 1486
f 1485 1436 1497 614
f 1488 1483 1487 1789
f 1490 1480 1488 1789
f 1491 712 1789 1487
f 1493 1438 1498 456
f 1495 1440 1494 1496
f 1507 321 1500 1513
f 1501 215 1502 1608
f 1502 1503 1514 1521
f 1509 1508 1504 1506
f 1505 1504 1508 1790
f 1505 1790 1514 1503
f 1506 1507 1511 1509
f 1508 1509 1510 1516
f 1510 1509 1511 1512
f 1510 1519 1517 1516
f 1534 1519 1510 1512
f 1513 1456 1511 1507
f 1536 1534 1512 1457
f 1518 1522 1514 1790
f 1516 1518 1790 1508
f 1518 1516 1517 1529
f 1517 1531 1530 1529
f 1519 1533 1531 1517
f 1519 1534 1535 1533
f 1520 1522 1526 1525
f 1522 1520 1521 1514
f 1524 1607 1521 1520
f 1608 1502 1521 1607
f 1522 1518 1529 1526
f 1525 1523 1524 1520
f 1525 1526 1527 1528
f 1539 1523 1525 1528
f 1527 1526 1529 1530
f 1527 1532 1540 1528
f 1530 1531 1532 1527
f 1532 1531 1533 1542
f 1541 1540 1532 1542
f 1533 1535 1543 1542
f 1536 1537 1535 1534
f 1544 1543 1535 1537
f 1539 18 1538 1523
f 1539 1528 1540 1545
f 1546 1545 1540 1541
f 1541 1542 1543 39
f 1543 1544 1547 39
f 1548 72 1792 1552
f 1550 1554 1556 1791
f 1553 28 1552 1792
f 1828 1548 1552 20
f 1553 1555 1557 28
f 1553 1792 1791 1556
f 1555 1553 1556 1787
f 1555 1787 1561 1559
f 1555 1559 1786 1557
f 1558 1560 1566 1574
f 1558 1573 1786 1559
f 1560 1558 1559 1561
f 1564 1566 1560 1562
f 1562 1560 1561 1467
f 1564 1562 1563 1565
f 1568 1564 1565 1581
f 1566 1564 1568 1793
f 1571 1576 1575 1572
f 1571 1574 1577 1576
f 1574 1571 1573 1558
f 1574 1566 1793 1577
f 1587 1586 1575 1576
f 1578 1579 1577 1793
f 1587 1576 1577 1579
f 1578 1584 1585 1579
f 1588 1587 1579 1585
f 1580 1582 1584 1578
f 1793 1568 1580 1578
f 1582 515 1583 1584
f 1585 1584 1583 1590
f 1606 1591 1583 515
f 1585 1590 1595 1588
f 1586 1587 1588 1589
f 1589 1588 1595 1596
f 1605 1586 1589 1602
f 1592 431 1794 1593
f 1595 1455 1593 1596
f 1597 1596 1593 1794
f 1602 1589 1596 1597
f 1598 1602 1597 1599
f 1603 1604 1598 1600
f 1600 1598 1599 1795
f 1794 1798 1599 1597
f 1600 1594 1601 1603
f 1604 1605 1602 1598
f 1615 366 1611 1610
f 1616 1617 1621 1799
f 1617 1614 1620 1621
f 1619 367 1618 1630
f 1622 1623 1618 424
f 1619 1629 1639 1613
f 1624 1623 1622 768
f 1622 1799 1800 768
f 1630 1618 1623 1634
f 1624 1635 1634 1623
f 1799 1621 1625 1800
f 1801 1800 1625 1627
f 1630 1628 1629 1619
f 1631 1638 1629 1628
f 1630 1634 1632 1628
f 1631 1628 1632 693
f 1634 1635 1633 1632
f 1802 694 1633 1637
f 1635 1636 1637 1633
f 1639 1629 1638 1640
f 1645 974 1643 877
f 1647 1649 1650 1648
f 1648 1651 1652 208
f 1650 224 1651 1648
f 1654 1653 1805 1803
f 1667 407 1658 1803
f 1804 1660 1659 1665
f 1661 371 1660 1883
f 1663 828 1662 1895
f 1663 1665 1664 1673
f 1804 1665 1663 1895
f 1672 1673 1664 1667
f 1666 1677 1674 1675
f 1805 1653 1666 1675
f 1869 583 1666 1653
f 1667 1803 1805 1672
f 1671 1669 1668 829
f 1676 1670 1669 1674
f 1673 1672 1671 829
f 1674 1669 1671 1675
f 1675 1671 1672 1805
f 1677 716 1676 1674
f 1683 529 1678 1680
f 1682 474 1679 1678
f 1682 1817 1681 474
f 1682 526 1839 1817
f 1686 1280 1687 1363
f 1689 1690 1688 1279
f 1691 1350 1690 1267
f 1691 1267 1700 1702
f 1693 1691 1702 1297
f 1701 1001 1694 1696
f 1704 1705 1706 598
f 1808 1713 1705 1704
f 1717 1718 1706 1705
f 1709 1710 1707 361
f 1713 1808 1708 1707
f 1710 1714 1713 1707
f 1715 1714 1710 1807
f 1710 1709 1727 1807
f 1724 383 1711 1721
f 1727 1709 1712 1728
f 1717 1705 1713 1714
f 1714 1715 1716 1717
f 1716 1720 1718 1717
f 1722 1723 1831 705
f 1723 1823 1819 1831
f 1820 1835 1728 446
f 1737 1734 1735 1740
f 1735 1021 1738 1740
f 1736 1133 1737 1741
f 1740 1739 1741 1737
f 1812 1006 1749 1075
f 1755 1771 1768 1756
f 1762 1763 1761 1760
f 1764 1763 1762 128
f 1765 348 1764 181
f 1766 1767 1770 314
f 1770 1767 1768 1771
f 1824 1816 1775 785
f 1833 785 1775 1774
f 1776 1777 1778 1779
f 1816 1777 1776 678
f 1816 1824 1778 1777
f 1795 1599 1798 257
f 1825 746 1818 1832
f 1820 1821 1819 1826
f 1819 639 1829 1831
f 1823 468 1826 1819
f 1839 1841 1840 472
f 1907 1851 1852 1902
f 1902 1852 979 1743
f 1852 1851 1853 1077
f 876 896 1849 914
f 960 1010 1855 1850
f 1850 1855 1172 1809
f 1095 1856 1168 1096
f 1856 1095 1854 1189
f 1860 1909 1903 1083
f 1861 546 1843 596
f 1862 1844 845 844
f 1898 651 625 860
f 1864 1388 1389 1384
f 1865 1855 1049 1098
f 1866 1108 874 1847
f 1867 532 574 976
f 1868 68 47 48
f 1869 358 1842 581
f 1870 1343 1357 1387
f 1871 1306 1329 1375
f 1872 1403 1326 1324
f 1873 1195 1241 1272
f 1874 1165 1164 1185
f 1875 1138 1072 1104
f 1876 934 1054 1644
f 1877 1044 1043 1177
f 1878 1255 923 1046
f 1879 901 814 971
f 1880 1836 803 821
f 1881 793 739 653
f 1882 825 664 740
f 1883 479 481 1661
f 1884 599 418 460
f 1906 1729 610 1841
f 1886 1335 1300 1328
f 1887 1444 709 650
f 1888 783 621 739
f 1889 864 567 542
f 1890 1141 1860 1908
f 1891 1330 1319 1394
f 1892 1159 1185 1164
f 1893 1022 1068 874
f 1894 818 675 730
f 1895 1662 564 565
f 1896 1323 1315 1299
f 1897 364 365 729
f 1898 761 1863 651
f 1899 676 1862 959
f 1900 658 1861 690
f 1901 1102 1101 1162
f 1902 1082 1078 1093
f 1903 973 995 1010
f 1904 807 769 857
f 1905 573 553 551
f 1906 932 1885 1729
f 1907 1902 1093 1198
f 1908 996 1031 1890
f 1909 972 973 1903
f 1910 1027 964 1908
f 1911 1906 525 671
