v -0.681584 1.51251 -1.92032
v -0.618925 1.58907 -1.67906
v -0.955053 1.5737 -1.86594
v -0.560675 1.66385 -1.43084
v -0.50193 1.76507 -1.19352
v -0.742028 1.68784 -1.10871
v -0.816465 1.64765 -1.35942
v -0.433571 1.74661 -1.78652
v -1.20168 1.69936 -1.81035
v -1.44409 1.82887 -1.7445
v -1.24835 1.72145 -2.07905
v -1.36994 1.83665 -1.4792
v -1.12933 1.72326 -1.55088
v -1.05442 1.74329 -1.29306
v -0.974794 1.75957 -1.03649
v -1.18722 1.87441 -0.96627
v -1.68892 1.9526 -1.66767
v -1.7389 1.98725 -1.95101
v -1.49133 1.85938 -2.01964
v -1.2827 1.85583 -1.22151
v -1.39267 2.00443 -0.893515
v -1.39597 2.18316 -2.47436
v -1.13715 2.06862 -2.49093
v -1.22214 1.84629 -2.32731
v -1.92149 2.10112 -1.57844
v -1.97216 2.1372 -1.86718
v -0.427122 1.87877 -2.1497
v -0.611876 1.87811 -2.38641
v -0.390473 2.09434 -2.21991
v -1.50515 1.98128 -1.14397
v -1.58308 2.15505 -0.822294
v -0.78758 2.23228 -2.52287
v -0.568771 2.12678 -2.4272
v -2.12202 2.35617 -0.521001
v -2.15662 2.32112 -0.332732
v -0.317162 2.18258 -1.993
v -0.311101 2.06961 -1.6498
v -0.350849 1.96205 -1.89439
v -2.30367 2.10816 -0.595363
v -2.23551 2.36372 -0.725278
v -2.0439 2.34859 -0.542809
v -2.18692 2.33629 -0.753755
v -1.70653 2.14376 -1.06411
v -2.02548 2.32728 -1.2012
v -1.82572 2.1215 -1.30877
v -2.46601 2.15703 -0.814852
v -0.294983 2.29607 -1.76235
v -1.74859 2.32259 -0.750786
v -1.88178 2.34191 -0.980548
v -2.30418 2.12155 -0.24528
v -2.27514 2.41002 -0.204275
v -2.08171 2.45483 -0.316605
v -2.35358 2.4152 -0.879621
v -2.60136 2.18673 -0.140703
v -2.49843 2.43943 -0.184226
v -2.41435 2.43296 -0.818949
v -0.262838 2.18853 -1.41627
v -2.58996 2.48172 -0.782648
v -2.78841 2.24389 -0.266674
v -2.67855 2.47912 -0.297601
v -0.753211 2.69074 -1.07594
v -2.79636 2.26363 -0.468631
v -2.79173 2.53441 -0.484912
v -2.77793 2.2697 -0.656301
v -2.72443 2.53799 -0.70476
v -2.35703 2.37891 -0.137769
v -2.57999 2.44186 -0.135895
v -2.14395 2.37817 -0.242012
v -1.24442 2.36728 -0.802295
v -1.27231 2.43159 -1.00371
v -1.40524 2.35228 -0.81458
v -1.9738 2.42827 -0.314747
v -0.710841 2.75587 -1.09817
v -2.03901 2.5324 -0.862988
v -1.91025 2.43543 -0.640835
v -1.31912 2.25628 -0.353358
v -1.3654 2.55617 -0.156436
v -1.49894 2.40361 -0.300419
v -1.6264 2.32061 -0.511111
v -1.79378 2.39937 -0.397141
v -1.68605 2.44323 -0.156458
v -2.0397 2.5226 -0.54519
v -2.1375 2.59987 -0.766179
v -2.18022 2.62017 -0.0748256
v -1.35487 2.49078 -0.703461
v -1.28769 2.623 -0.616168
v -2.16307 2.61336 -1.04385
v -1.0791 2.45066 -0.746657
v -2.4482 2.66348 -0.0878475
v -0.317844 2.6389 -1.66174
v -0.247173 2.42283 -1.53897
v -0.350027 2.50541 -1.88186
v -2.11791 2.5697 -0.022365
v -2.6598 2.7175 -0.222529
v -2.72004 2.52202 -0.659219
v -2.73199 2.7657 -0.437735
v -2.74891 2.51421 -0.471273
v -2.57898 2.68523 -0.0778469
v -2.73833 2.74955 -0.264093
v -2.35139 2.60985 5.60782e-05
v -2.56565 2.47359 -0.848401
v -2.69994 2.8102 -0.825558
v -0.848728 2.72105 -1.05967
v -1.15853 2.44408 -0.239934
v -1.24415 2.76391 -0.0939373
v -0.592647 2.84957 -1.06399
v -2.79345 2.79745 -0.519009
v -0.454789 2.69796 -2.0013
v -0.447647 2.83078 -1.77572
v -2.47197 2.70672 -0.953514
v -0.968304 2.63427 -1.01198
v -1.89808 2.51918 -0.0686573
v -1.79632 2.66532 0.137746
v -1.55554 2.58745 0.0286161
v -1.4229 2.8043 0.117159
v -0.681134 2.86965 -0.856407
v -0.211731 2.56569 -1.31607
v -0.236775 2.79669 -1.45889
v -0.208258 2.71456 -1.0859
v -0.840834 2.88595 -0.561229
v -1.46293 2.72778 -0.501947
v -1.2562 2.7717 -0.45852
v -1.63671 2.74792 -0.576932
v -1.71175 2.70431 -0.786682
v -1.74487 2.86459 -0.566108
v -1.13935 2.55295 -1.02693
v -1.26528 2.7475 -0.985509
v -1.47209 2.59165 -1.0109
v -1.60026 2.81682 -0.978469
v -0.903085 2.91213 -1.04775
v -1.35724 2.96057 -0.956312
v -1.04662 2.87324 -0.972663
v -1.80614 2.93313 -0.750929
v -2.65719 2.94968 -0.132483
v -2.40367 2.89393 -0.00963629
v -0.601429 3.01057 -1.8878
v -0.584362 2.88339 -2.12362
v -0.850288 2.96032 -1.19985
v -1.7053 2.72404 -0.336643
v -1.83721 2.82911 -0.0451534
v -1.51065 2.81449 -0.381231
v -1.85024 2.84707 -0.397413
v -1.68485 3.05757 -0.91186
v -1.88978 2.97458 -0.208267
v -1.13212 2.99095 -0.108487
v -1.28592 3.0342 0.148374
v -2.85526 3.02687 -0.520525
v -2.94348 2.98823 -0.835066
v -1.37557 2.83246 -0.213829
v -1.57962 2.87266 -0.148966
v -1.72343 2.83442 -0.470932
v -1.02113 2.67122 -0.217942
v -0.907732 2.91141 -0.25888
v -0.655625 2.79921 -1.1984
v -0.683912 2.98724 -1.2918
v -1.83726 3.00197 -0.508402
v -1.34214 2.98146 -0.129647
v -1.17827 2.99049 -0.407187
v -0.535293 3.18296 -1.69913
v -1.87961 3.11027 -0.690569
v -2.33775 2.9747 -1.94988
v -2.42471 2.85473 -1.76139
v -2.56938 3.10421 -1.98186
v -0.547609 3.08983 -1.16688
v -2.05953 2.76121 0.157818
v -2.30813 3.02991 0.242692
v -2.3394 2.82043 0.13958
v -0.58554 3.13696 -0.88206
v -0.735315 3.0614 -2.24398
v -0.7502 3.19452 -2.00657
v -0.864961 3.15312 -0.641381
v -1.98229 2.96337 0.300088
v -1.88562 3.05687 0.0988191
v -1.93083 3.0604 -0.440924
v -2.73377 2.96421 -0.974461
v -2.76747 3.02807 -0.701077
v -2.44597 3.00394 -0.905994
v -1.7628 3.12015 -1.41665
v -1.03936 3.26639 -0.194585
v -2.29301 2.93388 -0.815996
v -2.05342 3.06443 -0.611612
v -2.22828 3.16231 -0.716742
v -1.9456 2.89283 -0.187249
v -1.93774 2.97249 -0.433792
v -2.11097 2.85998 0.00229208
v -2.06571 3.07865 0.0204232
v -2.22635 3.14853 -2.06006
v -2.49649 3.00279 -0.74671
v -2.75492 2.95966 -0.228036
v -2.69545 3.1617 -0.199648
v -1.81132 3.13657 -1.53195
v -1.79093 3.2721 -0.826327
v -1.13576 3.25535 0.105456
v -0.814563 3.24651 -1.31141
v -0.913289 3.20938 -1.1926
v -0.82618 3.16262 -0.356571
v -2.75356 2.83903 -1.18552
v -2.9456 3.05884 -1.15318
v -2.7278 2.89659 -1.48531
v -2.63671 3.03015 -0.594527
v -2.5131 3.24082 -0.483136
v -1.59607 3.01958 0.0417215
v -1.54352 3.29602 0.0501643
v -1.33157 3.24874 -0.170084
v -1.20557 3.21611 -0.474482
v -1.97846 3.24593 -0.587055
v -1.24379 3.36002 -0.918442
v -1.46005 3.19927 -0.948394
v -2.97518 3.2333 -0.388915
v -1.9382 3.19573 -2.17864
v -2.07779 2.98294 -2.19672
v -0.945126 3.40624 -0.727339
v -1.22743 3.44969 -0.536732
v -0.625905 3.36188 -1.18729
v -2.54267 3.09488 -0.651423
v -2.41959 3.27237 -0.614559
v -2.26916 3.19117 -0.843495
v -2.17308 3.40669 -0.682518
v -0.597903 3.08729 -0.47741
v -0.572721 3.35622 -0.621289
v -1.85207 3.33065 0.126677
v -0.646749 3.41892 -0.907228
v -2.07336 3.36667 0.150256
v -2.79203 3.13262 -0.450124
v -2.80689 3.25427 -0.191831
v -2.64153 3.20783 -0.421127
v -2.71599 3.30946 -0.165217
v -2.36855 3.13354 0.0620815
v -2.3475 3.38441 0.140365
v -2.88646 3.28151 -0.465816
v -2.87559 3.385 -0.177235
v -1.72016 3.38767 -1.12606
v -1.13971 3.12087 -0.955303
v -1.00903 3.17766 -1.05999
v -1.12774 3.42641 -1.09839
v -0.740426 3.33894 -1.79949
v -0.9635 3.4732 -1.88891
v -1.90626 3.47852 -0.748767
v -2.82093 3.36292 -0.0574972
v -2.57663 3.4382 -0.00768847
v -2.63769 3.19114 -0.0540713
v -2.37566 3.20922 -0.614673
v -2.83248 3.22465 0.0613725
v -2.62255 3.24733 -0.310589
v -2.32276 3.45455 -0.563768
v -2.41447 3.44999 -0.39072
v -2.54194 3.46134 -0.234428
v -0.818696 3.43129 -0.518009
v -2.75438 3.31026 0.102725
v -1.0737 3.49103 -0.422273
v -0.886775 3.50327 -1.37736
v -1.0446 3.43994 -1.27289
v -2.18613 3.43869 -0.807502
v -2.0867 3.4322 -1.06438
v -2.18619 3.17731 -1.11503
v -2.67534 3.39624 -0.146823
v -2.58462 3.36249 -0.387393
v -1.24331 3.58725 -0.926353
v -1.73945 3.5964 0.121131
v -2.56753 3.50447 -0.401044
v -2.73721 3.43825 0.118466
v -0.956343 3.6515 -1.71734
v -2.04549 3.61732 -0.616465
v -1.23548 3.52768 -0.189613
v -2.78808 3.48751 -0.0718671
v -2.92762 3.51662 -0.117621
v -0.937677 3.35009 -2.10223
v -1.20301 3.5777 -1.95353
v -1.16966 3.45713 -2.13202
v -2.71819 3.49742 -0.0411872
v -2.9308 3.49753 -0.716515
v -2.85141 3.50222 -0.456496
v -2.85554 3.54958 -0.168327
v -2.96702 3.53519 -0.434513
v -2.36503 3.47006 -0.589053
v -1.77152 3.48324 -1.36184
v -1.84042 3.69071 -1.30459
v -1.9268 3.51796 -1.02766
v -1.55878 3.40015 -0.82175
v -1.67874 3.63505 -0.75186
v -0.710396 3.61223 -1.22572
v -1.51286 3.5626 -0.0120206
v -1.29153 3.62492 -1.1454
v -2.00866 3.6371 0.1386
v -2.71364 3.40414 -0.0620117
v -1.05638 3.61107 -0.794183
v -0.746351 3.64963 -0.964381
v -1.61685 3.85546 -1.03217
v -1.7039 3.69198 -1.12626
v -2.48721 3.6784 -0.00166704
v -2.76735 3.30427 -1.53272
v -2.66281 3.36242 -1.80602
v -2.81894 3.58989 -1.48467
v -1.24629 3.74941 -0.938044
v -1.40868 3.54031 -2.08332
v -1.20814 3.63686 -1.39652
v -2.56407 3.45077 -1.9601
v -2.41519 3.29931 -2.01806
v -2.59771 3.41741 -2.10176
v -2.31372 3.41649 -2.01594
v -1.43977 3.70362 -0.661331
v -1.33197 3.71481 -1.0377
v -2.74279 3.29061 -1.94305
v -2.74402 3.57607 -2.0357
v -2.83509 3.53617 -1.8839
v -2.18589 3.69861 -0.489287
v -2.33597 3.69323 -0.353185
v -1.23065 3.72139 -1.79086
v -1.06182 3.79606 -0.858413
v -0.99305 3.73352 -1.4482
v -1.99718 3.44019 -1.32013
v -1.98986 3.69393 -1.54626
v -1.94089 3.47363 -1.58347
v -2.72191 3.64525 -1.74963
v -1.16751 3.71638 -0.609108
v -0.855254 3.76729 -0.558517
v -1.83849 3.80393 -0.597651
v -2.69356 3.58902 -1.91515
v -2.05116 3.70787 -1.28115
v -1.60984 3.78897 -1.94985
v -1.62901 3.84721 -1.78566
v -1.58576 3.69122 -1.89502
v -2.81949 3.58494 -0.00241405
v -2.89377 3.67305 0.0378903
v -1.64857 3.76949 -1.84051
v -1.75651 3.77231 -1.51831
v -2.87743 3.70109 -0.137973
v -2.80041 3.67377 -0.192909
v -1.34588 3.60599 -1.97106
v -1.47161 3.59774 -2.01282
v -2.50412 3.66389 -0.368422
v -2.36437 3.66906 -0.594647
v -0.823538 3.83735 -1.27353
v -2.299 3.45707 -2.1329
v -2.39018 3.74947 -2.02454
v -2.21303 3.68556 -2.10385
v -1.367 3.78 -0.312874
v -1.536 3.86206 -0.0597991
v -2.8255 3.69322 -0.464051
v -2.63946 3.61052 -0.117469
v -1.82472 3.74833 -0.695838
v -2.08402 3.97608 -0.77573
v -1.96385 3.95804 -0.558796
v -2.8456 3.72299 -0.70928
v -1.94468 3.91664 0.0854491
v -2.51942 3.669 -0.0252845
v -2.74704 3.65041 0.088018
v -1.73157 4.06951 -1.13687
v -2.2578 3.59781 -1.97602
v -1.42737 3.69551 -1.87498
v -1.72288 3.87618 -0.00233168
v -0.867181 3.84547 -0.822447
v -1.02934 3.86413 -0.709145
v -0.852928 3.68162 -0.687555
v -1.39572 3.81483 -1.90617
v -1.72125 3.99661 -1.65628
v -1.49742 4.0016 -1.77526
v -2.78355 3.76057 -1.85437
v -1.41568 3.81316 -1.06475
v -1.4457 3.84056 -1.25443
v -1.9348 3.97938 -1.68889
v -1.92265 3.64172 -1.80546
v -1.94305 3.69627 -1.63072
v -1.56197 3.89182 -0.498128
v -1.32155 3.90057 -0.97016
v -1.31944 3.80475 -1.4761
v -2.66798 3.7198 -1.93018
v -1.2694 3.69435 -0.530316
v -2.29136 3.65306 0.169359
v -2.22168 3.90953 0.108435
v -2.40975 3.90655 -0.0196377
v -2.54674 3.82486 -0.392075
v -2.62757 3.82005 -0.150442
v -2.72368 3.83733 -1.4195
v -2.47471 3.82796 -0.632266
v -2.02167 3.99555 -0.478243
v -2.45626 3.68947 -0.2056
v -2.67658 3.89168 -1.64416
v -2.40759 3.90976 -0.227191
v -2.08241 3.77646 -1.92152
v -2.06405 3.6198 -1.89331
v -2.30094 3.94937 -0.376974
v -1.16222 3.95492 -0.941225
v -2.30799 3.85506 -1.09182
v -2.2322 3.67476 -0.818912
v -2.39263 3.83368 -0.864439
v -2.69058 3.82797 -1.93013
v -2.7745 3.7097 -1.98051
v -1.54025 3.99326 -2.00637
v -2.83379 3.82291 0.0617977
v -2.74904 3.8791 -0.179643
v -1.11088 3.95884 -1.48522
v -2.21268 3.67677 0.276605
v -2.26811 3.8695 0.19433
v -2.82506 3.74823 -0.95222
v -2.61543 3.86167 -0.914277
v -2.50667 3.97349 -1.8059
v -2.3612 3.87971 -1.9094
v -2.76024 3.82405 -0.193494
v -2.15824 3.92665 -2.02838
v -1.03502 3.90221 -0.626183
v -1.73943 4.04076 -2.03916
v -2.70832 3.82675 -0.434231
v -2.42363 4.1658 -0.189325
v -2.2824 3.86775 -0.806356
v -2.41517 3.94423 -0.402126
v -2.68664 3.91691 -0.489403
v -1.28366 3.93336 -1.65758
v -2.70181 3.81884 0.0922151
v -1.16062 3.91762 -0.847817
v -1.42036 3.89095 -0.604794
v -1.47529 3.84536 -0.88645
v -2.66727 3.84696 -0.678072
v -1.48523 4.18637 -1.88737
v -2.54866 3.85043 -0.0870197
v -0.957474 4.05034 -1.29422
v -2.03982 3.78739 -0.919717
v -2.89509 3.73478 -1.63883
v -2.71928 3.95218 -1.59318
v -2.66771 3.96987 -1.81004
v -2.54855 3.88786 -1.14147
v -1.86225 4.17058 -1.08754
v -2.01731 4.02313 -0.99483
v -2.05257 4.11132 -0.361501
v -1.85871 4.08927 -1.0506
v -1.76957 4.10593 -1.07656
v -1.8542 4.10759 -1.07127
v -2.12996 4.02885 -0.848213
v -1.72208 4.04582 -1.00646
v -1.72918 3.97025 -1.16413
v -2.22601 3.88807 -1.31629
v -1.69271 4.09334 -0.28639
v -2.26094 3.93236 -1.16184
v -2.03016 4.05391 -0.984701
v -2.41439 4.00343 -1.79061
v -2.14573 4.12655 -1.88754
v -2.28184 3.87045 -1.84281
v -2.47137 3.91427 -1.36327
v -2.73737 4.06224 -0.441061
v -2.12215 4.10934 -0.653235
v -2.37412 3.94373 -1.54197
v -1.79535 4.05085 -0.0896782
v -0.96086 3.89129 -1.56004
v -1.02143 4.139 -1.36787
v -0.703188 3.91432 -1.28575
v -2.60994 3.93586 -0.811991
v -2.82728 3.88321 -1.08631
v -2.87552 3.84933 -0.785846
v -2.4685 4.10975 0.127799
v -2.72966 4.05944 -0.444053
v -2.77479 3.97071 -0.491296
v -1.5826 4.0666 -0.796612
v -2.12906 3.86935 -1.49603
v -1.38158 4.10994 -0.685416
v -1.66712 4.0027 -0.615127
v -2.59065 4.0535 -0.675934
v -2.59065 4.0535 -0.675934
v -2.48759 3.99575 -0.622545
v -1.74174 4.19532 -1.81166
v -2.64807 4.00615 -0.585741
v -1.95941 3.83499 -2.05131
v -2.77374 3.92006 -1.35602
v -2.5417 3.95839 -1.11003
v -1.11435 3.96698 -1.15773
v -1.23228 3.91342 -1.23813
v -2.31269 3.99485 -0.807144
v -2.65515 3.93673 -0.651629
v -2.51147 3.95096 -0.886026
v -1.12351 4.1291 -0.784851
v -2.47849 3.97852 -1.3763
v -2.20869 3.99772 -1.41978
v -1.94242 4.0842 -1.72305
v -2.32258 4.02378 -0.859741
v -2.5584 3.96551 -0.79518
v -2.62424 3.97838 -1.99979
v -2.44018 4.08412 -0.184608
v -1.95155 4.08938 -1.97646
v -1.35989 4.07925 -0.978954
v -1.66347 4.09162 -1.10466
v -2.45911 4.12764 -0.0010666
v -2.18521 4.07685 -1.64936
v -2.43095 3.99161 -1.59488
v -2.32943 3.99756 -1.08061
v -2.32398 4.02393 -1.29787
v -2.53373 3.97673 -1.01939
v -2.42345 3.97089 -1.11346
v -2.46794 3.97817 -1.35071
v -2.24388 4.02404 -1.36798
v -2.27236 3.98986 -1.09072
v -2.66504 4.16304 -0.625906
v -2.13592 4.05435 -1.36596
v -2.12411 4.06734 -0.999784
v -2.12848 4.03561 -1.17914
v -1.89498 4.26239 -0.0188477
v -2.05737 4.37552 0.072719
v -2.75637 4.1347 -0.424321
v -2.54375 3.99744 -1.61299
v -2.32393 4.06705 -1.6408
v -2.52566 4.02329 -1.45266
v -2.50512 4.00077 -1.24025
v -2.34552 4.05866 -1.50458
v -1.93704 4.0873 -1.43941
v -1.91123 4.06909 -1.28927
v -1.95071 4.14564 -1.11811
v -2.08943 4.03359 -1.30774
v -1.78118 4.11456 -1.35918
v -2.59214 4.05414 -0.676371
v -2.59214 4.05414 -0.676371
v -2.48023 4.22613 -0.184123
v -2.57996 4.12208 -0.986248
v -2.2941 4.11893 -0.641725
v -2.21005 4.21014 -0.896129
v -1.76973 4.02001 -1.10438
v -1.76334 4.04883 -1.30391
v -2.52179 4.17895 -1.19144
v -2.54918 4.21721 -0.835079
v -1.94166 4.13145 -1.60401
v -2.15193 4.09655 -1.55029
v -1.63009 4.1468 -1.33729
v -1.76771 4.08443 -1.47504
v -2.39034 4.2784 -1.04141
v -2.59214 4.05414 -0.676371
v -1.66829 4.31008 -0.733791
v -2.25942 4.3346 0.0618275
v -1.9393 4.2033 0.0385318
v -2.68603 4.04765 -0.774311
v -2.13151 4.0769 -1.55366
v -1.97347 4.3388 -0.425553
v -1.86575 4.19014 -0.382748
v -2.3905 4.29587 -1.27732
v -2.34284 4.34828 0.00771456
v -2.36333 3.99334 -1.9797
v -2.21832 4.10382 -1.72269
v -2.48136 4.23246 -1.39373
v -1.82508 4.08636 -1.56627
v -1.29211 4.1619 -0.406934
v -2.21318 4.12741 -1.72803
v -2.16288 4.2296 -0.760867
v -2.38377 4.08318 -1.71576
v -2.13065 4.24228 -1.10178
v -2.02682 4.1664 -1.74694
v -1.79892 4.34426 -0.193483
v -1.5516 4.21761 -0.266783
v -2.5715 4.11936 -0.415191
v -2.67282 4.13928 -0.394858
v -2.72966 4.05944 -0.444053
v -1.9035 4.09976 -1.54081
v -2.04599 4.28417 -1.01686
v -2.13005 4.24545 -0.881414
v -1.76767 4.09359 -1.24387
v -1.81191 4.19564 -1.01472
v -1.61851 4.06616 -0.485046
v -1.93756 4.37901 -1.0237
v -1.70597 4.18766 -1.17748
v -2.41867 4.24391 -0.931528
v -1.69572 4.18223 -0.879092
v -1.68441 4.07469 -0.590486
v -1.74158 4.29822 -0.554228
v -1.74385 4.38145 -0.859709
v -2.0628 4.32576 -1.00522
v -1.75766 4.17693 -1.01822
v -2.05977 4.2742 -0.324549
v -2.33244 4.28218 -1.1321
v -1.71667 4.13148 -1.17249
v -1.77253 4.33186 -0.945924
v -2.51456 4.21418 -0.55006
v -2.50902 4.16474 -0.112861
v -1.54202 4.26913 -1.20967
v -1.58426 4.17203 -0.0216095
v -1.80329 4.39667 -0.182781
v -2.14237 4.21093 -0.696452
v -2.20907 4.44998 -0.686714
v -2.06745 4.43185 -0.489903
v -2.24026 4.37595 -0.962804
v -2.4348 3.94023 -0.541235
v -2.23152 4.31647 -1.31813
v -1.78886 4.24856 -1.70981
v -2.36258 4.2128 -0.729039
v -2.23436 4.24053 -0.874503
v -2.25509 4.29874 -0.43079
v -2.16121 4.42785 -1.10752
v -1.88995 4.19688 -1.19795
v -2.03439 4.52122 -0.461984
v -2.37662 4.43327 -0.353762
v -1.81702 4.45358 -0.34143
v -2.28657 4.4296 -0.776236
v -2.32514 4.47219 -0.850957
v -2.14101 4.46647 -0.455308
v -1.94833 4.55404 0.0352766
v -2.43882 4.35847 -0.314634
v -2.09712 4.33396 -1.24449
v -1.88213 4.15799 -1.29514
v -2.49839 4.13045 -0.180893
v -2.60963 4.2827 -1.0815
v -2.55596 4.4708 -0.865884
v -2.6377 4.36693 -0.89291
v -2.54673 4.37673 -1.12145
v -2.39271 4.32481 -1.54553
v -2.05002 4.29428 -1.27751
v -2.23458 4.32349 -1.52714
v -2.45684 4.36944 -0.0662256
v -2.58049 4.49541 -1.32602
v -2.7021 4.38002 -1.29967
v -2.39575 4.21594 -1.70771
v -2.15637 4.29058 -0.554934
v -2.1437 4.59753 -0.566426
v -2.05137 4.33986 -1.48918
v -2.03568 4.4853 -1.13273
v -2.38044 4.42794 -1.12819
v -2.43837 4.43465 -0.90821
v -1.82537 4.52915 -0.5914
v -2.33328 4.41739 -1.00542
v -2.2769 4.68925 -0.729664
v -2.15267 4.73195 -0.541678
v -2.39384 4.56858 -1.30898
v -1.75905 4.63309 -0.1672
v -2.80416 4.49838 -0.801268
v -1.94501 4.60908 -1.07806
v -1.82422 4.5404 -0.960368
v -2.59247 4.68004 -0.871518
v -2.4002 4.52899 -1.29914
v -1.9382 4.61853 -0.511101
v -2.5701 4.56235 -0.869642
v -2.1627 4.60301 -1.23284
v -1.89625 4.73612 -0.595276
v -2.3253 4.58282 -0.00195302
v -2.29468 4.61215 -0.0288988
v -2.34913 4.59388 -0.352967
v -2.43073 4.74113 -0.844058
v -2.08303 4.67059 -1.2202
v -1.87857 4.51919 -0.487115
v -1.74946 4.5185 -0.693238
v -1.83971 4.725 -0.735348
v -1.92929 4.78996 -0.46327
v -2.44377 4.74913 -0.889583
v -1.72743 4.75758 -0.415345
v -1.77883 4.64597 -0.315896
v -1.81257 4.58969 -0.858304
v -1.94767 4.82238 -0.816864
v -1.90295 4.71859 -0.943962
v -1.95012 4.78569 -0.740025
v -1.91796 4.85693 -0.518607
v -2.14922 4.70648 -0.430619
v -2.70121 4.83374 -0.980136
v -2.56352 4.88818 -0.931137
v -1.87661 4.77419 -0.591896
v -2.0688 4.46731 0.0673595
v -1.90369 4.73967 -0.0353182
v -1.69817 4.83005 -0.528729
v -1.83922 4.70668 -0.55226
v -2.25371 4.81483 -0.120924
v -2.20361 4.85641 -0.0277211
v -2.68998 4.76723 -0.937388
v -2.03479 4.84413 -0.927927
v -2.28518 4.92099 -0.953004
v -2.27741 4.80778 -0.835798
v -2.36585 4.63587 -0.267584
v -2.30815 4.84868 -0.220565
v -2.17686 4.77286 -0.433228
v -1.89985 4.94595 -0.556904
v -2.25728 4.89895 -1.17928
v -1.82223 4.86763 -0.102655
v -2.22239 4.78338 -0.701776
v -2.16787 4.86908 -0.402262
v -2.10571 4.86825 -0.567677
v -1.71218 4.95958 -0.338629
v -2.28682 4.81743 -0.814247
v -2.15636 4.90967 -0.49111
v -2.06563 4.82412 -1.0054
v -2.79107 4.81295 -1.18418
v -2.56101 4.9211 -0.930803
v -2.52987 4.92853 -0.981328
v -2.63925 5.01766 -0.990639
v -2.72836 4.86388 -1.21928
v -2.42222 4.88113 -0.879703
v -2.35816 4.82029 -0.874126
v -2.18034 4.9539 -0.716969
v -2.50626 5.00047 -1.13562
v -2.49094 4.79267 -1.3462
v -2.23396 4.84136 -1.19312
v -2.57309 4.984 -1.14129
v -2.36707 4.85545 -0.926331
v -1.97652 4.9752 -0.785598
v -2.13056 4.90367 -0.749754
v -1.90363 4.88957 -0.555659
v -1.8391 4.82289 -0.712685
v -1.90172 4.91755 -0.630674
v -1.92443 5.04254 -0.0771553
v -2.11553 4.96917 -0.00832435
v -2.27526 5.04323 -0.122997
v -1.74355 4.90149 -0.282656
v -1.78257 5.10642 -0.264188
v -1.69806 5.00735 -0.45971
v -1.95483 4.92126 -0.468551
v -1.71148 5.04643 -0.516774
v -2.51556 4.97305 -0.943799
v -2.29911 4.8113 -0.904611
v -1.93286 4.93638 -0.46307
v -2.22675 5.10741 -0.487588
v -2.05414 5.15411 -0.591203
v -2.04939 5.17996 -0.747563
v -2.21612 5.10656 -0.687373
v -2.36205 4.87536 -0.92691
v -2.14033 3.2074 -1.39429
v -2.36554 2.9649 -1.1937
v -0.448187 3.57024 -1.33904
v -0.515533 3.72033 -1.12683
v -0.397109 3.50556 -0.948355
v -1.49192 3.21451 -2.38421
v -1.67106 3.32061 -2.23621
v -1.41456 3.41071 -2.23346
v -0.389354 2.29275 -2.25569
v -0.507408 2.39313 -2.40004
v -0.941186 3.2064 -2.32571
v -1.18556 3.31097 -2.32388
v -0.78718 2.57114 -0.293246
v -1.93724 2.83893 -2.35337
v -1.79876 3.08628 -2.33452
v -1.61144 2.96576 -2.45326
v -1.74671 2.69807 -2.46515
v -1.8316 3.44108 -2.09308
v -1.99476 3.57645 -2.09646
v -0.497011 1.66206 -2.05023
v -0.785138 1.51067 -2.14103
v -0.665733 1.64242 -2.30502
v -0.363876 3.25331 -0.780593
v -0.587814 3.61197 -0.776696
v -0.659833 3.81315 -0.95136
v -0.948196 3.99803 -0.964389
v -0.772205 3.96805 -1.11336
v -0.942346 4.07716 -1.18311
v -0.296226 3.18562 -1.39177
v -0.459551 3.3826 -1.53634
v -0.663095 3.75213 -1.4808
v -0.352242 3.00549 -1.59244
v -0.205069 2.95902 -1.23407
v -0.241829 3.11621 -0.998808
v -0.266654 2.85823 -0.853124
v -0.469598 2.72561 -0.519117
v -0.400885 2.98543 -0.642021
v -0.238499 2.32605 -1.18731
v -0.32192 2.60747 -0.724421
v -0.584108 2.47558 -0.436336
v -0.434536 2.3728 -0.634724
v -0.667775 2.82633 -0.356479
v -0.250914 2.46975 -0.95653
v -0.356137 2.24647 -0.858037
v -0.338554 2.10172 -1.07801
v -0.583224 2.16515 -0.574873
v -0.94719 2.3293 -0.298604
v -0.746664 2.24073 -0.41023
v -0.470933 1.9014 -0.977079
v -0.352062 1.9626 -1.30165
v -0.938433 2.02204 -0.495255
v -0.767299 1.96562 -0.602532
v -0.62711 1.92316 -0.742912
v -0.486054 2.05649 -0.780766
v -1.12931 2.12227 -0.409287
v -0.395576 1.8485 -1.5381
v -0.879733 1.81703 -0.791675
v -1.08089 1.90291 -0.711039
v -0.671665 1.79685 -0.889151
v -1.60442 1.96457 -1.39986
v -0.883964 1.61698 -1.61321
v -2.25324 2.54588 -1.37582
v -2.46425 2.73433 -1.25603
v -2.2985 2.55147 -1.6501
v -2.29621 2.63501 -1.90591
v -2.17121 2.41946 -2.04469
v -2.17402 2.3197 -1.76449
v -1.97127 2.24108 -2.15143
v -2.126 2.28919 -1.47297
v -1.01031 1.57946 -2.12951
v -2.08408 2.60537 -2.26145
v -1.88571 2.4424 -2.36767
v -2.21125 2.78705 -2.10415
v -1.52138 2.56759 -2.53359
v -1.65052 2.30316 -2.43792
v -0.958204 1.7228 -2.35415
v -0.875533 1.95775 -2.48451
v -0.903403 2.62027 -2.56976
v -0.682585 2.51202 -2.50465
v -1.02884 2.33804 -2.56419
v -1.14669 2.7299 -2.57622
v -1.39085 2.84439 -2.54029
v -1.26888 3.10313 -2.47738
v -0.789527 2.87333 -2.45262
v -1.02055 2.99601 -2.50494
v -0.461562 2.56029 -2.21764
v -0.357504 2.38304 -2.10328
v -1.57911 3.54318 -2.07241
v -0.687671 3.53952 -1.64675
v -2.88581 3.78933 -0.459273
v -3.00664 3.64546 -1.09548
v -2.90498 3.12979 -1.44532
v -3.03692 3.34702 -1.12094
v -2.99378 3.40844 -1.41058
v -2.96347 3.69562 -1.38091
v -2.84442 3.20337 -1.71184
v -2.67868 2.97943 -1.75332
v -2.92915 3.46963 -1.67036
v -2.09009 3.3343 -2.09821
v -2.72848 3.30103 -0.0607029
v -1.67817 2.87717 0.25762
v -1.44551 3.36516 0.296158
v -1.35391 3.63056 0.238475
v -1.05824 3.49653 0.0262268
v -1.80115 3.99493 0.186997
v -1.29107 3.8895 0.092285
v -1.77579 3.71359 0.310231
v -2.535 3.43742 0.147982
v -0.830713 3.56897 -0.373436
v -0.883603 3.40739 -0.134567
v -1.02268 3.72632 -0.132475
v -2.59579 2.89818 0.00610512
v -2.58873 3.07784 0.0764491
v -1.90418 3.19882 0.355385
v -2.26932 3.24519 0.301852
v -2.57851 3.25583 0.111821
v -1.0817 4.02448 -0.558834
v -2.23462 3.48141 0.309546
v -1.04237 3.90051 -0.346925
v -1.83037 3.44657 0.36265
v -1.56089 3.11686 0.301864
v -1.26118 4.06566 -0.149731
v -2.35818 2.68859 -0.849502
v -1.66434 3.587 -0.85299
v -1.6182 3.91963 -0.811208
v -2.03303 4.1833 -0.536336
v -2.41918 4.86216 -0.837976
v -2.85927 4.5497 -1.36915
v -2.56437 4.73392 -1.39713
v -2.97514 4.6839 -1.18388
v -2.93734 4.65761 -0.926409
v -2.03419 4.18259 -0.481904
v -2.69833 4.69264 -1.37846
v -2.38291 3.17708 -1.82415
v -1.85513 3.67269 -1.73676
v -2.9106 3.24236 -0.731887
v -2.90294 3.22531 -0.999529
v -2.93949 3.51469 -0.982018
v -2.55851 3.06746 -1.55632
v -2.84673 3.25032 -1.26759
v -2.90271 3.54829 -1.23958
v -2.66541 2.98949 -1.26477
v -1.9744 3.4607 -1.90225
v -2.12356 3.69355 -1.04821
v -2.30093 3.02874 -1.46468
v -1.63262 3.0428 -1.57543
v -2.57803 4.01283 -1.92482
v -1.18132 4.06601 -0.938211
v -1.03531 4.12125 -1.06838
v -1.2291 4.2334 -1.12838
v -1.46517 4.18437 -1.49562
v -2.5651 4.02671 -1.67523
v -2.45803 4.2995 -1.61977
v -2.56509 2.74606 -0.803022
v -2.69922 3.01274 -0.381919
v -2.70633 2.7775 -0.65301
v -2.06575 2.83663 -0.726336
v -1.94708 2.73699 -0.502486
v -1.97358 2.64756 -0.23878
v -1.47088 2.58173 -0.539611
v -1.60582 2.45968 -0.806522
v -0.966334 4.00838 -1.05409
v -0.860133 3.85214 -1.01904
v -1.6652 4.95179 -0.817616
v -1.72184 5.1335 -0.707996
v -1.71084 4.82351 -0.638456
v -2.19854 5.02645 -0.386059
v -2.45654 2.76512 -1.52917
v -1.46592 2.16349 -0.571506
v -1.28119 2.02061 -0.635467
v -1.4797 1.971 -2.28519
v -1.7323 2.09789 -2.22845
v -1.2773 2.44872 -2.56678
v -0.608826 2.72417 -2.33942
v -3.06141 3.2853 -0.805694
v -3.02535 3.59164 -0.781322
v -2.12232 3.25448 -1.63644
v -1.80215 3.25314 -1.58419
v -1.87089 3.51896 -1.61661
v -1.82649 3.32347 -1.59425
v -1.90094 3.66542 -1.62229
v -1.88167 3.71748 -1.72296
v -1.83387 3.67053 -1.67285
v -1.80954 3.6903 -1.59181
v -1.79705 3.42026 -1.62435
v -1.80307 3.4431 -1.47835
v -1.75528 3.21672 -1.54698
v -1.83588 3.45436 -1.63071
v -2.78286 3.79105 -1.18996
v -0.305785 3.35788 -1.17005
v -1.86928 3.68468 -1.64956
v -1.79399 3.25755 -1.47993
v -1.83091 3.24064 -1.51625
v -2.50588 4.20521 -0.71472
v -2.75096 2.50057 -0.268345
v -2.6483 2.22363 -0.781793
v -2.22074 3.08597 -1.68054
v -1.82508 4.08636 -1.56627
v -0.660726 2.72602 -1.03915
v -0.717658 2.61621 -0.915758
v -0.779605 2.78926 -1.13915
v -1.97732 3.02333 -1.40834
v -1.92156 3.27926 -1.41706
v -1.65613 3.55341 -1.04172
v -1.64788 3.56037 -1.192
v -1.71793 3.79481 -1.30023
v -1.60127 3.60938 -1.36406
v -2.72389 3.79535 -1.97894
v -1.4992 3.88339 -1.73072
v -2.02806 3.87208 -1.73055
v -2.63077 3.91509 -0.422938
v -2.3443 4.19229 -0.314116
v -2.09512 4.25655 -0.383054
v -2.2584 4.20424 -0.325664
v -2.72966 4.05944 -0.444053
v -1.88067 4.03939 -1.23046
v -2.01021 4.11314 -1.05455
v -2.53797 4.1082 -0.605281
v -2.22406 4.14844 0.0979053
v -1.75117 4.10585 -1.61128
v -2.41598 4.16166 -0.441901
v -2.49583 4.13617 -0.187444
v -2.08087 4.16737 -1.68228
v -2.01293 4.31626 -1.69285
v -2.07395 3.15678 -1.84891
v -2.19962 3.77755 -1.94997
v -2.53632 4.10681 -0.604335
v -2.59065 4.0535 -0.675934
v -2.5715 4.11936 -0.415191
v -2.43122 4.26214 -0.25198
v -1.8332 3.73146 -1.79857
v -2.19032 4.10572 -0.878843
v -1.61881 3.99049 -1.24748
v -2.52025 3.59131 0.115656
v -1.90888 4.76454 -0.554135
v -2.16936 4.00455 -0.460884
v -2.34724 4.97906 -1.0069
v -1.74803 3.72675 -2.02044
v -1.30529 3.4803 -0.730565
v -0.953735 2.64257 -0.716023
v -1.76196 4.28252 -1.45404
v -1.95485 3.89705 -1.60249
v -2.47619 4.8125 -0.934202
v -1.18213 3.94682 -0.673369
v -2.6328 3.78489 -1.85836
v -2.44305 3.53608 -2.06517
v -2.15037 2.26851 -0.454304
v -1.81357 4.13152 -1.07999
v -2.37356 4.60368 -0.732024
v -1.81975 4.24232 -0.547514
v -2.67854 3.47754 -0.158667
v -2.00181 4.95995 -0.664861
v -2.46146 4.86692 -1.04516
v -2.03929 4.80834 0.0334326
v -2.14669 4.84382 -0.75928
v -2.01204 4.34076 -1.48569
v -2.21143 3.94861 -1.67226
v -2.01745 3.88931 -1.31504
v -2.89843 3.32779 -0.129675
v -1.58196 2.87353 -0.445877
v -2.24224 4.27782 -1.68255
v -1.74415 3.94534 -1.02413
v -2.06116 3.94299 -0.747342
v -1.90133 4.85859 -0.761991
v -2.74745 3.58165 -0.0167904
v -1.65918 3.94467 -1.52896
v -2.6339 4.95334 -0.972962
v -2.20343 4.94841 -0.88236
v -1.84828 4.34229 -1.19941
v -1.99802 3.6784 -1.75289
v -2.05708 4.21949 -0.93572
v -2.10634 4.81104 -0.834382
v -2.12379 4.20176 0.111807
v -1.94013 4.11774 -1.46252
v -2.09958 4.25964 -1.07422
v -2.11974 4.01244 -1.06996
f 1 723 8 2
f 3 1 2 764
f 7 764 2 4
f 3 773 724 1
f 4 5 6 7
f 4 2 8 759
f 4 759 753 5
f 762 6 5 752
f 6 15 14 7
f 8 723 27 38
f 8 38 37 759
f 9 13 12 10
f 764 13 9 3
f 773 3 9 11
f 11 9 10 19
f 874 24 11 19
f 12 13 14 20
f 17 10 12 763
f 14 15 16 20
f 14 13 764 7
f 761 16 15 760
f 762 760 15 6
f 17 18 19 10
f 25 26 18 17
f 18 26 771 875
f 875 874 19 18
f 20 16 21 30
f 20 30 763 12
f 21 16 761 873
f 21 873 872 31
f 22 23 24 874
f 23 783 32 780
f 23 22 876 783
f 773 11 24 779
f 780 779 24 23
f 763 45 25 17
f 25 772 770 26
f 36 38 27 29
f 725 28 27 723
f 29 27 28 33
f 32 33 28 780
f 779 780 28 725
f 30 21 31 43
f 712 29 33 713
f 782 713 33 32
f 34 35 52 82
f 40 39 950 34
f 950 41 72 68
f 37 38 36 47
f 36 29 712 790
f 37 57 753 759
f 39 42 41 950
f 46 39 40 56
f 82 83 40 34
f 74 75 41 42
f 42 39 46 53
f 87 74 42 53
f 44 45 43 49
f 43 31 48 49
f 43 45 763 30
f 772 25 45 44
f 46 56 58 899
f 46 899 101 53
f 57 37 47 91
f 790 92 47 36
f 74 49 48 75
f 80 75 48 79
f 872 79 48 31
f 49 74 87 44
f 50 51 52 35
f 50 54 55 51
f 50 35 68 66
f 52 51 84 862
f 861 82 52 862
f 54 59 60 55
f 66 67 54 50
f 84 51 55 89
f 56 40 83 826
f 58 56 826 857
f 63 62 59 898
f 67 898 59 54
f 97 60 59 62
f 89 55 60 94
f 60 97 96 94
f 904 61 73 154
f 62 64 95 97
f 64 62 63 65
f 63 898 99 107
f 63 107 102 65
f 101 899 64 65
f 66 68 93 100
f 67 98 99 898
f 67 66 100 98
f 68 72 112 93
f 69 70 71 85
f 69 85 86 88
f 126 70 69 88
f 864 71 70 128
f 72 41 75 80
f 73 902 106 154
f 77 78 76 104
f 81 78 77 114
f 80 79 78 81
f 78 79 872 76
f 112 72 80 81
f 113 112 81 114
f 860 83 82 861
f 83 860 180 826
f 135 185 84 89
f 183 862 84 185
f 85 71 864 863
f 120 943 122 158
f 116 903 943 120
f 863 121 86 85
f 87 53 101 110
f 766 765 87 110
f 772 44 87 765
f 111 126 88 943
f 89 94 134 135
f 90 118 117 91
f 92 90 91 47
f 91 117 741 57
f 92 108 109 90
f 93 112 113 165
f 167 100 93 165
f 96 97 95 859
f 95 58 857 859
f 95 64 899 58
f 134 94 96 858
f 98 100 167 815
f 99 189 147 107
f 99 98 815 189
f 101 65 102 110
f 147 148 102 107
f 198 197 102 148
f 766 110 102 197
f 138 130 103 904
f 105 77 104 152
f 758 750 104 76
f 114 77 105 115
f 105 145 146 115
f 155 154 106 164
f 108 92 790 789
f 109 735 118 90
f 137 136 109 108
f 109 136 159 735
f 127 126 111 132
f 111 103 130 132
f 903 103 111 943
f 804 113 114 115
f 164 106 116 168
f 116 120 171 168
f 119 117 118 736
f 119 736 737 738
f 741 117 119 746
f 205 171 120 158
f 122 86 121 141
f 123 963 121 863
f 122 149 157 158
f 864 124 123 863
f 125 123 124 133
f 128 129 124 864
f 124 129 143 133
f 963 123 125 151
f 160 156 125 133
f 126 127 128 70
f 129 128 127 131
f 127 132 233 131
f 131 208 143 129
f 207 208 131 233
f 234 233 132 130
f 192 160 133 143
f 241 228 135 134
f 136 170 236 159
f 137 169 170 136
f 137 108 789 877
f 138 155 194 195
f 138 195 234 130
f 151 142 139 963
f 141 139 140 150
f 140 139 142 144
f 186 173 140 144
f 149 122 141 150
f 156 174 144 142
f 145 105 152 153
f 146 145 179 193
f 146 824 804 115
f 147 189 190 209
f 148 147 209 878
f 148 878 796 198
f 157 149 150 202
f 150 140 173 202
f 151 125 156 142
f 152 104 750 716
f 179 145 153 196
f 153 152 716 745
f 155 138 904 154
f 204 205 158 157
f 174 156 160 206
f 238 206 160 192
f 768 162 161 776
f 163 161 162 800
f 199 800 162 871
f 162 768 767 871
f 187 161 163 298
f 163 303 299 298
f 194 155 164 214
f 166 167 165 172
f 165 113 804 172
f 815 167 166 816
f 166 818 819 816
f 214 164 168 222
f 877 787 169 137
f 237 236 170 267
f 714 267 170 169
f 222 168 171 212
f 172 817 818 166
f 174 184 183 144
f 705 845 175 177
f 175 840 839 176
f 175 845 843 840
f 177 175 176 215
f 176 224 226 215
f 177 215 216 217
f 177 217 255 705
f 890 849 178 896
f 179 196 248 250
f 807 193 179 813
f 179 250 812 813
f 181 182 180 860
f 857 826 180 188
f 218 182 181 206
f 861 184 181 860
f 188 180 182 242
f 183 185 186 144
f 861 862 183 184
f 184 174 206 181
f 185 135 228 186
f 221 173 186 223
f 210 211 187 802
f 334 802 187 298
f 776 161 187 211
f 201 200 188 242
f 859 857 188 200
f 189 815 816 190
f 243 239 962 803
f 265 266 962 239
f 274 209 962 266
f 905 191 895 906
f 883 895 191 881
f 191 849 890 881
f 849 191 905 178
f 192 143 208 279
f 806 805 193 807
f 824 146 193 805
f 194 251 252 195
f 196 219 220 248
f 745 219 196 153
f 199 197 198 795
f 198 796 797 795
f 766 197 199 871
f 799 800 199 795
f 201 242 245 246
f 201 246 247 244
f 201 244 858 200
f 202 203 204 157
f 221 203 202 173
f 203 221 259 282
f 213 205 204 264
f 204 203 282 264
f 212 171 205 213
f 263 218 206 238
f 207 235 283 258
f 208 207 942 279
f 210 721 710 718
f 210 718 717 211
f 942 286 212 213
f 301 942 213 368
f 213 264 337 368
f 251 194 214 281
f 287 281 214 222
f 257 216 215 226
f 260 275 216 257
f 217 253 254 255
f 217 216 275 253
f 242 182 218 245
f 726 220 219 740
f 220 727 354 248
f 222 212 286 287
f 228 229 223 186
f 259 221 223 284
f 224 230 231 225
f 839 230 224 176
f 226 224 225 227
f 225 231 239 243
f 256 257 226 227
f 227 225 243 249
f 241 240 229 228
f 284 223 229 369
f 229 240 290 369
f 271 272 230 839
f 230 272 273 231
f 265 239 231 954
f 233 234 235 207
f 252 235 234 195
f 236 237 262 792
f 733 159 236 792
f 237 268 308 262
f 279 280 238 192
f 238 280 317 263
f 240 241 244 247
f 377 290 240 247
f 858 244 241 134
f 245 218 263 306
f 245 306 307 246
f 246 307 377 247
f 249 261 256 227
f 249 243 803 285
f 250 315 316 812
f 354 315 250 248
f 251 281 333 310
f 252 296 283 235
f 310 296 252 251
f 253 275 332 385
f 254 847 319 311
f 254 253 385 847
f 255 254 311 704
f 260 257 256 954
f 256 261 265 954
f 259 351 338 282
f 259 284 345 351
f 260 331 332 275
f 266 265 261 270
f 285 270 261 249
f 262 308 408 443
f 937 270 285 811
f 968 323 324 327
f 968 346 347 323
f 937 393 394 346
f 821 393 937 811
f 268 237 267 269
f 267 714 715 269
f 268 269 295 329
f 269 715 711 295
f 271 841 395 344
f 271 839 840 841
f 272 271 344 339
f 331 260 954 340
f 273 272 339 328
f 274 266 327 793
f 274 879 878 209
f 276 277 278 232
f 908 910 276 232
f 278 277 961 417
f 278 827 907 232
f 279 942 301 280
f 280 301 364 317
f 281 287 866 333
f 337 264 282 338
f 258 283 302 294
f 359 302 283 360
f 286 258 294 309
f 287 286 309 866
f 288 827 341 828
f 429 348 288 828
f 289 288 936 909
f 288 289 907 827
f 844 843 291 293
f 291 843 845 842
f 293 291 292 314
f 842 837 292 291
f 294 365 383 309
f 360 283 296 366
f 949 299 297 300
f 297 299 304 318
f 314 292 297 318
f 837 300 297 292
f 335 949 300 349
f 381 349 300 846
f 364 301 368 337
f 365 294 302 359
f 304 299 303 305
f 800 799 303 163
f 303 799 801 305
f 304 305 358 388
f 367 318 304 388
f 305 801 418 358
f 317 376 306 263
f 382 307 306 376
f 379 377 307 382
f 308 268 329 350
f 865 866 309 383
f 366 296 310 392
f 416 392 310 333
f 312 313 311 319
f 363 312 453 945
f 846 313 312 973
f 313 880 704 311
f 374 293 314 378
f 314 948 397 378
f 352 353 315 354
f 316 315 353 401
f 316 401 820 822
f 911 387 948 367
f 319 431 453 312
f 321 322 320 325
f 320 389 355 325
f 321 326 969 912
f 322 350 330 791
f 389 320 941 402
f 941 721 722 461
f 322 321 912 350
f 323 273 328 324
f 340 273 323 347
f 324 390 391 327
f 324 328 399 390
f 325 356 361 321
f 405 417 961 433
f 326 277 909 969
f 327 391 407 793
f 328 339 403 399
f 329 295 330 350
f 330 295 711 791
f 331 372 375 332
f 865 416 333 866
f 334 949 335 336
f 334 336 722 802
f 437 398 335 929
f 336 335 398 400
f 336 400 461 722
f 432 364 337 338
f 372 331 340 373
f 342 343 341 417
f 342 966 423 434
f 342 571 835 343
f 343 557 828 341
f 344 395 396 413
f 403 339 344 413
f 369 370 345 284
f 346 415 409 347
f 346 394 449 415
f 347 409 373 340
f 969 854 408 912
f 348 429 430 550
f 348 550 506 592
f 380 929 349 381
f 408 308 350 912
f 351 442 432 338
f 351 345 525 442
f 410 353 352 729
f 730 729 352 728
f 947 411 454 469
f 728 352 354 727
f 356 325 355 357
f 414 459 356 357
f 357 355 389 414
f 475 387 358 420
f 365 359 360 465
f 392 465 360 366
f 433 961 977 471
f 977 356 459 472
f 380 381 362 934
f 362 838 885 934
f 838 362 973 894
f 381 846 973 362
f 363 945 884 882
f 376 317 364 432
f 365 465 464 383
f 913 437 929 380
f 369 290 371 370
f 480 922 370 371
f 525 345 370 922
f 371 290 377 379
f 371 379 476 480
f 373 399 403 372
f 374 438 421 892
f 844 293 374 892
f 375 386 385 332
f 396 386 375 413
f 375 372 403 413
f 376 562 915 382
f 438 374 378 441
f 379 382 915 476
f 416 865 383 464
f 385 386 384 847
f 386 396 421 384
f 358 387 911 388
f 387 475 397 948
f 391 390 409 415
f 464 465 392 416
f 823 810 393 821
f 976 531 404 449
f 976 494 495 531
f 976 808 569 494
f 810 808 394 393
f 892 421 396 395
f 398 437 397 475
f 397 960 441 378
f 398 475 420 435
f 409 390 399 373
f 435 436 400 398
f 400 436 477 461
f 401 947 469 820
f 414 389 402 459
f 402 941 461 477
f 472 459 402 477
f 405 406 939 966
f 404 406 415 449
f 428 966 939 440
f 939 424 829 440
f 463 446 405 433
f 446 407 406 405
f 407 391 415 406
f 448 793 407 446
f 444 443 408 854
f 411 947 410 412
f 410 851 478 412
f 411 412 452 455
f 417 341 827 278
f 966 428 920 423
f 418 419 420 358
f 797 798 418 801
f 470 482 419 462
f 798 462 419 418
f 482 435 420 419
f 431 384 421 438
f 965 426 422 561
f 935 579 578 466
f 452 523 953 455
f 953 529 552 455
f 953 523 632 631
f 434 423 425 427
f 427 425 426 551
f 979 935 466 489
f 428 440 538 935
f 965 561 452 412
f 478 479 965 412
f 429 556 551 426
f 429 828 557 556
f 430 965 479 919
f 431 319 847 384
f 562 376 432 570
f 470 463 433 471
f 434 427 548 549
f 434 549 571 342
f 435 482 481 436
f 960 945 453 441
f 453 431 438 441
f 440 829 605 538
f 570 432 442 525
f 443 444 445 734
f 792 262 443 734
f 444 854 568 853
f 852 731 444 853
f 445 707 706 734
f 728 707 445 730
f 445 444 731 730
f 447 448 446 463
f 447 462 798 794
f 448 447 794 879
f 496 451 450 545
f 450 451 914 439
f 450 439 918 546
f 490 467 451 496
f 455 552 454 411
f 454 552 543 536
f 508 507 456 522
f 507 931 457 456
f 930 897 511 458
f 930 460 526 897
f 473 474 458 511
f 921 930 458 460
f 474 526 460 458
f 462 447 463 470
f 467 468 466 575
f 566 575 466 578
f 914 451 467 575
f 489 466 468 486
f 468 467 490 516
f 469 454 536 820
f 470 471 481 482
f 471 977 472 481
f 473 492 493 483
f 483 485 474 473
f 476 915 509 925
f 481 472 477 436
f 568 479 478 853
f 564 951 479 568
f 480 476 925 567
f 491 484 483 493
f 485 483 484 500
f 485 510 526 474
f 486 487 488 489
f 486 468 516 521
f 487 497 498 488
f 487 486 521 530
f 488 498 527 505
f 505 979 489 488
f 490 496 544 566
f 490 566 578 516
f 501 484 491 518
f 517 518 491 502
f 511 512 492 473
f 502 491 493 503
f 504 503 493 492
f 494 542 589 495
f 627 531 495 589
f 497 487 530 598
f 498 532 533 527
f 498 497 850 532
f 501 499 500 484
f 510 485 500 515
f 500 499 534 515
f 501 539 855 499
f 502 503 514 520
f 504 492 512 540
f 504 513 514 503
f 554 513 504 972
f 547 919 505 527
f 506 430 919 547
f 584 601 509 915
f 509 567 593 925
f 555 512 511 897
f 554 519 514 513
f 555 510 515 563
f 576 563 515 534
f 516 578 579 521
f 517 502 520 535
f 537 518 517 541
f 518 537 539 501
f 520 514 519 944
f 972 944 519 554
f 520 923 901 535
f 523 452 561 565
f 619 632 523 565
f 525 922 524 647
f 526 510 555 897
f 528 916 580 588
f 528 588 622 585
f 529 542 543 552
f 529 528 585 542
f 916 528 529 424
f 530 521 978 591
f 933 404 531 590
f 531 627 628 590
f 533 532 539 537
f 533 537 541 926
f 855 856 534 499
f 535 923 577 517
f 536 543 569 825
f 536 825 822 820
f 560 974 538 586
f 850 855 539 532
f 555 563 540 512
f 576 599 540 563
f 959 944 972 599
f 541 517 577 927
f 542 494 569 543
f 542 585 616 589
f 545 932 544 496
f 592 506 547 607
f 548 427 551 553
f 572 571 549 587
f 549 548 574 587
f 551 556 559 553
f 574 548 553 581
f 624 581 553 618
f 556 557 558 559
f 835 558 557 343
f 558 835 573 611
f 559 558 611 638
f 618 553 559 638
f 561 974 560 565
f 562 583 584 915
f 592 582 564 348
f 854 936 564 568
f 565 560 608 619
f 914 575 566 544
f 601 480 567 509
f 569 808 809 825
f 583 562 570 637
f 647 648 570 525
f 691 637 570 648
f 571 572 573 835
f 573 572 613 614
f 573 614 625 611
f 574 581 609 610
f 856 600 576 534
f 978 422 582 591
f 628 588 580 590
f 615 609 581 624
f 642 643 583 650
f 626 601 584 657
f 643 657 584 583
f 585 622 636 616
f 594 612 952 595
f 586 538 605 606
f 608 560 586 612
f 620 595 952 629
f 656 952 663 684
f 586 606 665 663
f 952 656 676 629
f 587 574 610 623
f 613 572 587 635
f 587 623 653 635
f 588 628 659 622
f 917 924 590 580
f 592 607 591 582
f 598 530 591 607
f 594 595 596 597
f 594 597 602 603
f 620 617 596 595
f 610 609 597 596
f 615 602 597 609
f 850 497 598 604
f 600 959 599 576
f 604 964 600 856
f 647 524 601 626
f 601 524 922 480
f 602 615 679 836
f 602 836 831 603
f 603 621 612 594
f 603 831 832 621
f 604 598 607 964
f 634 606 605 631
f 685 665 606 634
f 608 612 621 630
f 610 596 617 623
f 668 614 958 677
f 675 667 613 635
f 958 639 683 677
f 616 662 957 589
f 653 623 617 834
f 619 608 630 640
f 620 644 834 617
f 661 630 621 832
f 938 646 622 659
f 869 636 622 646
f 669 680 624 618
f 679 615 624 680
f 625 639 638 611
f 668 660 625 614
f 648 647 626 652
f 626 657 658 652
f 659 628 627 651
f 957 662 688 689
f 690 651 957 689
f 644 620 946 645
f 697 830 629 676
f 946 830 703 682
f 654 640 630 661
f 631 632 633 938
f 829 953 631 605
f 632 619 640 633
f 938 633 641 646
f 692 666 634 698
f 870 698 938 659
f 635 671 672 675
f 662 616 636 666
f 637 649 650 583
f 669 618 638 639
f 639 625 660 683
f 639 958 971 669
f 641 633 640 654
f 641 654 975 967
f 642 693 691 694
f 642 687 868 693
f 694 664 643 642
f 645 671 673 644
f 956 696 645 946
f 967 975 684 955
f 692 691 648 688
f 691 693 649 637
f 649 693 868 867
f 687 642 650 686
f 867 686 650 649
f 688 648 652 689
f 690 689 652 658
f 653 970 671 635
f 655 975 654 661
f 676 656 655 682
f 657 643 664 658
f 690 870 659 651
f 699 700 660 668
f 660 700 701 683
f 674 678 661 832
f 661 678 956 655
f 662 666 692 688
f 690 658 664 870
f 698 870 664 694
f 702 663 665 699
f 666 695 685 634
f 666 636 869 695
f 971 940 680 669
f 830 697 667 675
f 702 699 668 677
f 653 670 681 970
f 670 653 834 833
f 696 672 671 645
f 970 681 672 696
f 679 680 940 681
f 940 971 697 703
f 674 644 673 678
f 673 696 956 678
f 674 832 831 833
f 674 833 834 644
f 703 830 675 940
f 677 683 701 702
f 681 670 836 679
f 682 703 697 676
f 684 663 702 701
f 686 967 955 687
f 699 665 955 700
f 701 700 955 684
f 869 967 686 867
f 695 868 687 685
f 698 694 691 692
f 705 255 704 848
f 705 848 842 845
f 706 707 708 893
f 732 733 706 893
f 727 708 707 728
f 708 726 737 893
f 718 710 709 719
f 709 786 785 719
f 711 709 710 791
f 786 709 711 715
f 712 713 789 790
f 713 782 877 789
f 787 788 714 169
f 715 714 788 786
f 717 718 719 720
f 775 774 717 720
f 717 774 776 211
f 720 777 778 775
f 720 719 785 777
f 791 710 721 941
f 802 722 721 210
f 723 1 724 725
f 779 725 724 773
f 727 220 726 708
f 738 737 726 740
f 729 852 851 410
f 852 729 730 731
f 732 893 737 736
f 734 706 733 792
f 733 732 735 159
f 736 118 735 732
f 738 740 739 742
f 746 119 738 742
f 745 739 740 219
f 753 57 741 748
f 743 744 742 739
f 745 716 743 739
f 749 744 743 751
f 743 716 750 751
f 746 742 744 747
f 746 747 748 741
f 747 744 749 757
f 757 752 748 747
f 749 755 756 757
f 754 751 750 758
f 751 754 755 749
f 752 5 753 748
f 756 762 752 757
f 754 761 760 755
f 760 762 756 755
f 761 754 758 873
f 872 873 758 76
f 770 772 765 767
f 767 765 766 871
f 768 769 770 767
f 774 769 768 776
f 771 26 770 769
f 774 775 771 769
f 775 778 875 771
f 777 785 784 876
f 778 22 874 875
f 876 22 778 777
f 788 787 781 784
f 781 783 876 784
f 783 781 782 32
f 787 877 782 781
f 784 785 786 788
f 879 274 793 448
f 878 879 794 796
f 798 797 796 794
f 799 795 797 801
f 811 285 803 819
f 803 190 816 819
f 804 824 817 172
f 806 809 808 810
f 823 805 806 810
f 809 806 807 814
f 812 316 822 814
f 813 812 814 807
f 825 809 814 822
f 817 823 821 818
f 819 818 821 811
f 823 817 824 805
f 833 831 836 670
f 846 300 837 928
f 837 842 848 900
f 880 928 837 900
f 840 843 844 841
f 841 844 892 395
f 880 313 846 928
f 848 704 880 900
f 856 855 850 604
f 851 852 853 478
f 858 96 859 200
f 869 867 868 695
f 881 890 891 882
f 883 881 882 884
f 882 891 894 363
f 884 887 889 883
f 934 887 884 913
f 885 886 887 934
f 894 886 885 838
f 886 888 889 887
f 891 888 886 894
f 889 906 895 883
f 896 906 889 888
f 891 890 896 888
f 61 903 902 73
f 902 903 116 106
f 903 61 904 103
f 178 905 906 896
f 276 910 909 277
f 289 908 232 907
f 908 289 909 910
f 939 924 917 424
f 424 917 580 916
f 924 404 933 590
f 979 505 919 920
f 920 951 425 423
f 425 951 422 426
f 422 951 564 582
f 533 926 547 527
f 964 927 959 600
f 927 964 926 541
f 974 561 422 978
f 936 288 348 564
f 968 327 266 270
f 938 698 634 631
f 939 406 404 924
f 940 675 672 681
f 941 320 322 791
f 942 207 258 286
f 943 88 86 122
f 944 577 923 520
f 945 960 913 884
f 946 620 629 830
f 947 401 353 410
f 948 314 318 367
f 949 334 298 299
f 950 68 35 34
f 951 920 919 479
f 952 612 586 663
f 953 829 424 529
f 954 231 273 340
f 955 665 685 687
f 956 946 682 655
f 957 651 627 589
f 958 614 613 667
f 959 927 577 944
f 960 397 437 913
f 961 277 326 361
f 962 209 190 803
f 963 139 141 121
f 964 607 547 926
f 965 430 429 426
f 966 342 417 405
f 967 869 646 641
f 968 270 937 346
f 969 909 936 854
f 970 696 673 671
f 971 958 667 697
f 972 504 540 599
f 973 312 363 894
f 974 579 935 538
f 975 655 656 684
f 976 449 394 808
f 977 961 361 356
f 978 521 579 974
f 979 920 428 935
