v -0.0685864 -0.0238805 -2.57728
v -0.2188 -0.336486 -2.34123
v -0.216268 -0.254016 -2.60662
v -0.218838 0.458071 -2.14741
v -0.110856 0.138899 -2.19259
v -0.112099 0.513141 -2.42697
v -0.0782511 0.520552 -1.90987
v -0.118221 0.487344 -1.58237
v -0.00432905 0.222443 -1.926
v -0.131056 -0.200775 -2.05873
v 0.0269493 -0.345502 -2.00786
v -0.289859 -0.349632 -1.92062
v -0.63292 0.830713 -2.37801
v -0.640591 0.804294 -2.60157
v -0.968525 0.877221 -2.35289
v -0.0185571 0.179017 -1.6156
v 0.0536724 -0.041026 -1.91355
v -0.0387646 -0.12461 -2.31625
v -0.119392 -0.194499 -2.16049
v -0.235931 -0.549029 -1.73516
v 0.0204041 -0.558795 -1.47634
v -0.288547 -0.706073 -1.54394
v -0.702813 0.74385 -2.1512
v -0.415424 0.655451 -2.1399
v -0.315612 0.772295 -1.89646
v -0.30944 0.74302 -2.38693
v -0.323342 -0.195998 -2.14492
v -0.725194 0.862627 -1.58549
v -0.686845 0.873559 -1.90122
v -1.07238 0.918342 -1.89604
v -0.489725 -0.333383 -2.39486
v -0.53456 -0.435366 -2.20887
v 0.0898108 -0.376053 -1.69936
v -0.190275 0.25974 -2.74063
v -0.0706117 0.238717 -2.50013
v -0.211086 0.0234053 -2.81078
v -0.929928 0.857888 -2.56252
v -1.31838 0.847642 -2.34172
v -1.10978 0.917127 -1.59826
v -1.03028 0.805895 -2.13434
v -1.24362 0.850539 -2.55748
v -1.48742 0.894943 -1.91312
v -1.59491 0.28336 -2.41426
v -1.48257 -0.0120358 -2.47366
v -1.49709 -0.0952342 -2.26094
v -1.60493 0.553368 -2.14775
v -1.57505 0.228915 -2.18305
v -1.71253 0.145918 -2.0034
v -1.23741 -0.3157 -2.33291
v -1.5162 -0.16207 -2.04656
v -1.70812 0.0288141 -1.47965
v -1.71074 0.41348 -1.39921
v -1.7351 0.0860262 -1.73989
v -1.5162 -0.216296 -1.80079
v -1.72713 0.490753 -1.6748
v -1.72922 0.539505 -1.96607
v -1.37341 0.784941 -2.12057
v -1.57257 0.597158 -2.37185
v -1.37623 0.519442 -3.28272
v -1.3213 0.486402 -3.60127
v -1.36395 0.360701 -3.3355
v -1.2949 0.229383 -3.36965
v -1.30544 0.0856008 -3.14159
v -1.24889 -0.234311 -2.53646
v -0.949341 -0.639106 -1.69799
v -1.17048 -0.391427 -1.62752
v -0.931007 -0.581001 -1.95537
v -0.65603 -0.182511 -2.79089
v -0.961524 -0.196282 -2.76079
v -0.757013 -0.0953534 -2.99106
v -1.29385 -0.0476939 -2.93208
v -1.27419 -0.144021 -2.73013
v -0.165062 -0.684862 -0.663058
v -0.230531 -0.313159 -0.549043
v -0.230691 -0.820391 -0.417668
v -1.23826 0.148797 -0.0361235
v -0.963677 0.227699 -0.10208
v -1.27375 0.339364 -0.221975
v -1.09397 0.326362 -3.60774
v -1.25815 0.318155 -3.55621
v -0.921924 0.40148 -0.239388
v -0.911981 0.556494 -0.435355
v -0.520622 0.489379 -3.10542
v -0.496399 0.310887 -3.13366
v -0.655856 0.357943 -3.31709
v -1.28251 0.607879 -3.56098
v -1.29613 0.681276 -3.25967
v -1.23137 0.743845 -3.42703
v -1.67493 -0.43329 -0.267492
v -1.47838 -0.574579 -0.598637
v -1.48438 -0.649299 -0.350861
v -0.342543 0.270671 -2.94675
v -0.376569 0.0758601 -3.01837
v -1.39863 0.257899 -3.09062
v -0.322965 -0.91266 -1.36696
v -0.486109 0.586819 -0.965402
v -0.170953 0.40785 -1.27522
v -0.426382 0.667912 -1.26146
v -1.62836 -0.516676 -0.0676207
v -1.47088 -0.676216 -0.101182
v -1.58191 -0.349229 0.106085
v -1.48458 0.00631371 -0.0432247
v -1.563 0.202177 -0.25118
v -0.385215 0.697214 -2.64476
v -0.506279 0.655189 -2.85095
v -0.200148 -1.07885 -0.821625
v -0.252764 -1.22264 -0.5683
v -0.595493 -1.3085 -0.615946
v -0.324822 -1.13013 -1.17444
v -0.502189 -1.21652 -0.897335
v -0.36723 -0.172295 -2.82825
v -0.518666 -0.0782491 -3.0266
v -1.16432 0.770763 -2.97565
v -1.17068 0.819026 -2.76427
v -0.97977 0.800554 -2.96547
v -0.881711 -0.140854 0.100198
v -0.873086 -0.512804 0.239201
v -0.686601 -0.383448 0.142269
v -1.16713 -0.451775 -1.37592
v -1.45223 -0.301529 -1.31634
v -1.47754 -0.242722 -1.55816
v -1.23583 -0.427439 -1.86712
v -1.49725 0.840733 -1.61992
v -0.547639 -0.542848 -2.01238
v -0.602583 -0.727291 -1.78138
v -0.928244 0.613457 -3.29021
v -1.1483 0.730413 -3.21946
v -1.00357 0.727646 -3.16303
v -1.56096 0.651376 -1.04839
v -1.59021 0.521931 -0.77326
v -1.25019 0.87601 -0.988418
v -0.745646 -1.15063 0.286462
v -0.824691 -1.18238 0.0214369
v -0.66632 -1.36932 0.21889
v -0.751047 -1.08415 -0.815856
v -1.04622 0.461654 -3.60916
v -0.377316 0.491121 -2.90812
v -0.842995 0.403196 -3.47582
v -0.95626 0.176966 -3.3726
v -1.13566 0.164357 -3.35457
v -0.356742 0.753958 -1.5707
v -1.52225 0.763851 -1.33272
v -1.47434 0.641963 -2.5823
v -0.228305 0.503701 -2.69446
v -1.04189 0.581643 -3.52882
v -0.874086 0.502539 -3.39143
v -0.776795 0.593379 -3.16238
v -0.85718 0.678966 -3.09451
v -0.63029 0.612312 -3.02224
v -0.534163 0.473945 -0.688698
v -0.56401 0.345271 -0.421749
v -0.337058 0.0455753 -0.454219
v -1.7011 0.314327 -1.13458
v -0.880885 0.28517 -3.47866
v -1.43103 0.470023 -3.04255
v -1.54321 0.358372 -2.62367
v -0.707458 0.225019 -3.35115
v -0.771969 0.125453 -3.33524
v 0.0463948 -0.112679 -1.64623
v -0.0824375 -0.0728592 -2.07839
v -0.670709 0.0342285 -3.20124
v -0.551025 0.149613 -3.18443
v -1.46494 0.0825508 -2.67085
v -0.563121 -0.260931 -2.59049
v -1.23565 -0.376653 -2.11275
v 0.0120404 -0.237785 -1.38851
v -0.882572 -0.471238 -2.19079
v -1.17857 -0.546236 -1.13887
v -1.44009 -0.378058 -1.0743
v -0.630262 -0.765988 -1.52669
v -0.924133 -0.652316 -1.45219
v -1.22094 -0.732695 -0.657552
v -0.982151 -0.981866 0.0670668
v -1.21465 -0.820594 0.123702
v -1.23948 -0.839654 -0.14609
v -0.656388 -0.87651 -1.30227
v -0.680952 -1.00093 -1.07426
v -0.79511 -1.14306 -0.539727
v -0.963007 -0.886059 -0.721945
v -1.70868 0.0892114 -0.618193
v -1.65588 -0.228379 -0.743077
v -1.66599 -0.33269 -0.503826
v -0.101766 -0.528808 -0.900919
v -0.162666 -0.172765 -0.797861
v -1.45444 -0.47336 -0.836045
v -1.63405 -0.12514 -0.983354
v -0.282845 0.176601 -0.719075
v -0.120272 -0.881719 -1.03292
v -0.694184 -0.775757 0.262593
v -0.392386 -0.571826 -0.0778061
v -0.434077 -0.103606 -0.21394
v -0.550907 -0.254278 -0.0249708
v -1.00776 0.0231192 0.0470198
v -1.18476 -0.0325798 0.118225
v -0.820312 -1.17497 -0.259206
v -0.913684 -0.287433 -2.57052
v -0.88254 -0.379973 -2.38238
v -0.059445 -0.716957 -1.2551
v -1.70508 -0.0393157 -0.364858
v -1.60829 0.383373 -0.49893
v -0.54408 -1.06213 0.242166
v -0.902037 -0.906146 0.269372
v -1.70037 0.207297 -0.875769
v -0.76907 0.842956 -1.27184
v -0.666966 -1.36241 -0.317634
v -0.361984 -1.37852 -0.0315305
v -0.683226 -1.37444 -0.0259244
v -0.651604 0.182376 -0.185094
v -1.00442 -0.99152 -0.201534
v -1.2783 0.712459 -0.711563
v -0.940088 -0.815182 -0.975695
v -1.19342 -0.637532 -0.898608
v -0.92729 -0.72698 -1.2155
v -0.468444 -1.29735 0.211852
v -0.302941 -0.44858 -0.305026
v -1.08807 0.022679 -3.13903
v -0.86137 0.015518 -3.1798
v -0.87162 0.692751 -0.681821
v -1.07039 -0.665975 0.24224
v -1.33842 0.691391 -2.99068
v -0.523813 -0.679486 0.115574
v -1.39018 0.689995 -2.77184
v -0.0386283 -0.377682 -1.14049
v -0.39751 -1.00645 0.0608879
v -1.4305 -0.618092 0.154354
v -1.24604 -0.43168 0.207982
v -0.236948 0.298786 -0.99316
v -1.67329 -0.181994 -0.117937
v -0.0546791 0.0852867 -1.32609
v -0.0993955 -0.0344795 -1.0532
v -0.303902 -1.32648 -0.299536
v -0.310798 -0.930487 -0.175011
v -0.762913 0.0108238 -0.0262648
v -0.934322 0.817477 -2.77305
v -1.00587 -0.971665 -0.470829
v -0.791264 0.715716 -2.95803
v -0.701707 0.765526 -2.80026
v -1.25291 -0.825368 -0.4132
v -1.39785 -0.181509 0.152723
v -1.02152 -0.0960058 -2.95203
v -1.48575 0.42555 -2.82772
v -1.43971 0.168526 -2.8743
v -0.696609 0.477274 -3.25158
v -0.825359 0.813839 -0.962504
v -1.66451 -0.0447749 -1.23013
v -1.05579 -0.264931 0.197746
v -1.29906 0.54328 -0.436884
v -1.09535 0.663195 -3.39151
v -1.1609 0.893038 -1.29475
f 2 3 1 18
f 32 31 2 27
f 3 2 31 164
f 36 1 3 111
f 25 7 4 24
f 6 4 5 35
f 5 4 7 9
f 19 18 5 160
f 24 4 6 26
f 6 35 34 144
f 104 26 6 144
f 9 7 8 16
f 8 7 25 141
f 8 141 98 97
f 8 97 229 16
f 160 5 9 17
f 10 11 12 27
f 19 160 10 27
f 11 33 20 12
f 159 33 11 17
f 11 10 160 17
f 13 23 24 26
f 15 13 14 37
f 14 13 26 104
f 14 104 105 237
f 15 40 23 13
f 15 38 57 40
f 17 9 16 159
f 27 2 18 19
f 35 5 18 1
f 21 22 20 33
f 20 125 124 12
f 170 125 20 22
f 95 22 21 198
f 159 166 21 33
f 29 25 24 23
f 27 12 124 32
f 28 29 30 39
f 40 30 29 23
f 29 28 141 25
f 123 39 30 42
f 31 197 196 164
f 32 124 67 167
f 32 167 197 31
f 34 92 137 144
f 36 34 35 1
f 36 93 92 34
f 38 15 37 41
f 37 234 114 41
f 237 234 37 14
f 143 58 38 41
f 204 28 39 249
f 42 30 40 57
f 41 114 222 143
f 42 57 46 56
f 42 56 55 123
f 43 44 45 47
f 43 47 46 58
f 163 44 43 156
f 49 45 44 64
f 44 163 72 64
f 48 47 45 50
f 46 47 48 56
f 48 50 54 53
f 50 45 49 165
f 167 165 49 197
f 51 121 120 245
f 153 52 51 245
f 53 51 52 55
f 53 55 56 48
f 53 54 121 51
f 54 50 165 122
f 142 123 55 52
f 58 46 57 38
f 156 43 58 143
f 60 61 59 86
f 59 155 220 87
f 62 61 60 80
f 79 80 60 136
f 60 86 145 136
f 61 62 63 94
f 155 59 61 94
f 79 140 62 80
f 62 140 216 63
f 63 71 242 94
f 64 196 197 49
f 65 171 119 66
f 67 65 66 122
f 67 124 125 65
f 67 122 165 167
f 196 69 68 164
f 70 68 69 240
f 69 72 71 240
f 70 112 111 68
f 161 112 70 217
f 216 217 70 240
f 163 242 71 72
f 71 63 216 240
f 196 64 72 69
f 107 106 73 75
f 73 183 184 74
f 75 73 74 215
f 190 232 75 215
f 231 107 75 232
f 103 102 76 78
f 239 194 76 102
f 78 76 77 81
f 116 233 77 193
f 194 193 77 76
f 208 81 77 233
f 78 81 82 247
f 200 103 78 247
f 79 136 138 154
f 139 140 79 154
f 81 208 151 82
f 82 218 210 247
f 83 84 85 243
f 93 162 84 92
f 84 83 137 92
f 85 138 146 243
f 154 138 85 157
f 85 84 162 157
f 86 59 87 88
f 86 88 248 145
f 127 248 88 87
f 90 91 89 182
f 100 99 89 91
f 199 182 89 228
f 91 90 172 238
f 175 100 91 238
f 111 112 93 36
f 161 162 93 112
f 170 22 95 176
f 177 176 95 109
f 97 98 96 227
f 187 227 96 150
f 96 98 204 244
f 218 150 96 244
f 230 229 97 227
f 228 89 99 101
f 101 99 100 225
f 100 175 174 225
f 101 239 102 228
f 101 225 226 239
f 228 102 103 199
f 104 144 137 105
f 106 107 108 110
f 106 110 109 188
f 106 188 183 73
f 205 108 107 231
f 108 178 135 110
f 195 178 108 205
f 109 110 135 177
f 109 95 198 188
f 164 68 111 3
f 115 113 114 234
f 220 222 114 113
f 127 113 115 128
f 148 128 115 236
f 117 118 116 246
f 116 118 192 233
f 116 193 194 246
f 226 219 117 246
f 118 117 189 221
f 190 192 118 221
f 119 120 121 66
f 168 169 120 119
f 121 54 122 66
f 249 39 123 142
f 125 170 171 65
f 127 128 126 248
f 126 128 148 147
f 127 87 220 113
f 131 129 130 210
f 130 129 153 203
f 130 203 180 200
f 131 249 142 129
f 173 133 132 202
f 132 134 214 201
f 134 132 133 207
f 133 195 205 207
f 133 173 209 195
f 235 179 135 178
f 149 105 137 83
f 145 146 138 136
f 161 217 139 158
f 216 140 139 217
f 204 98 141 28
f 142 52 153 129
f 143 222 241 156
f 146 126 147 243
f 248 126 146 145
f 149 147 148 236
f 149 236 237 105
f 243 147 149 83
f 150 151 152 187
f 191 152 151 208
f 218 82 151 150
f 184 187 152 74
f 215 74 152 191
f 186 203 153 245
f 154 157 158 139
f 222 220 155 241
f 242 241 155 94
f 156 241 242 163
f 157 162 161 158
f 159 16 229 166
f 198 21 166 223
f 166 229 230 223
f 171 213 168 119
f 211 212 168 213
f 169 168 212 185
f 169 186 245 120
f 176 213 171 170
f 172 90 185 212
f 172 212 211 179
f 235 238 172 179
f 173 174 175 209
f 202 219 174 173
f 177 135 179 211
f 177 211 213 176
f 178 195 209 235
f 180 181 182 199
f 186 181 180 203
f 185 90 182 181
f 230 184 183 223
f 186 169 185 181
f 187 184 230 227
f 188 198 223 183
f 189 117 219 202
f 191 192 190 215
f 224 232 190 221
f 191 208 233 192
f 200 180 199 103
f 210 130 200 247
f 202 132 201 189
f 201 224 221 189
f 206 207 205 231
f 206 231 232 224
f 207 206 214 134
f 209 175 238 235
f 244 131 210 218
f 214 206 224 201
f 225 174 219 226
f 234 237 236 115
f 239 226 246 194
f 249 131 244 204
