v -61.7079 10.2829 -34.3518
v -65.2471 11.7374 -27.804
v -65.0652 17.6877 -30.3811
v 10.6919 7.68785 -18.1127
v 16.9813 7.71967 -27.531
v 17.8003 7.71247 -19.2883
v 22.9492 7.84946 -36.571
v 23.6887 7.83715 -28.3334
v 29.4024 8.11121 -45.336
v 35.9646 8.51391 -45.5212
v 35.302 8.40933 -37.7479
v -24.3601 12.6824 -6.84388
v -31.6552 12.903 -6.12863
v -31.7334 7.66582 -11.2027
v -5.43298 14.1793 -47.488
v -12.2314 14.3269 -45.6781
v -11.1976 21.4332 -45.8629
v 1.46313 13.3838 -49.4237
v -4.40678 21.2669 -47.7086
v 31.4263 17.8759 -53.7174
v 23.0507 9.68302 -53.7132
v 24.0726 18.3246 -53.7976
v 31.8879 15.5745 -3.75033
v 32.5631 8.15684 -5.78785
v 39.6748 12.4906 -4.1338
v 53.472 18.0399 -6.30611
v 45.9818 19.5732 -4.8784
v 47.4349 11.4631 -5.1583
v 61.1353 15.9494 -8.51593
v 54.8406 10.9845 -8.05507
v 70.8346 20.2992 -36.7487
v 69.5697 14.6886 -35.6301
v 66.1027 20.711 -41.7254
v 66.1507 13.797 -41.9401
v 60.1821 22.0314 -45.3322
v 59.5413 15.5684 -45.6299
v -66.0046 27.0191 -24.0394
v -64.3777 25.7472 -31.1624
v -66.6131 20.0464 -23.5936
v -65.1484 27.8973 -16.6925
v -65.9324 21.3249 -16.5725
v -54.361 27.7622 -6.20135
v -61.1216 28.1264 -10.2149
v -54.8853 20.756 -5.88489
v -47.4278 15.6111 -41.0351
v -54.485 16.9369 -39.6263
v -53.2708 23.8856 -39.7612
v -46.6068 27.0832 -5.15202
v -46.9269 19.7746 -4.67844
v -39.2055 19.5678 -4.59523
v -31.706 19.3042 -4.7453
v -38.9742 26.5041 -5.16635
v 3.72022 22.656 -3.88168
v -3.17557 23.8225 -4.48516
v 3.65505 15.155 -5.93962
v 10.5931 21.1526 -3.64497
v 10.6089 13.5144 -5.80274
v 46.9895 24.3941 -50.4201
v 53.6996 23.6513 -48.1598
v 52.8082 16.6049 -48.6588
v 38.6671 17.3368 -52.756
v 39.981 25.036 -52.1016
v 62.42 29.3851 -10.5882
v 58.7182 23.4831 -7.7747
v 65.089 21.4944 -10.3972
v 71.2603 30.1833 -35.6755
v 72.8997 31.3476 -30.4493
v 73.511 25.8997 -30.8498
v 70.9567 25.7142 -36.5206
v 10.8783 26.9573 -49.2073
v 18.0012 26.5852 -50.8741
v 9.52746 19.6275 -51.4471
v 16.7267 18.8876 -52.9822
v 25.3157 26.1457 -51.9878
v 24.3764 25.6267 -4.77705
v 17.6007 27.1603 -5.63928
v 24.6259 17.3446 -3.82136
v 66.6354 26.8281 -41.2254
v 66.7812 31.6594 -37.3537
v 56.2662 30.4643 -10.9769
v 67.7756 33.8631 -31.154
v 68.6956 34.1704 -24.6844
v 73.128 30.4183 -20.4549
v 73.4418 31.3576 -24.731
v 62.3708 35.1541 -31.812
v 61.2526 32.3898 -38.4235
v 44.8906 38.0976 -34.0321
v 38.7378 39.8444 -35.3743
v 46.7552 39.1785 -25.9755
v 47.9152 29.8569 -45.9672
v 36.4388 36.479 -42.1011
v 42.9506 34.9721 -40.9265
v 41.1979 30.5075 -46.8948
v 5.23936 34.3651 -44.774
v -3.12852 28.3594 -46.2335
v -1.80692 35.3446 -43.778
v 21.4885 38.026 -41.9325
v 19.6887 32.3134 -46.2142
v 13.9139 39.2659 -41.8719
v 12.4062 33.2753 -45.5967
v 24.9998 38.8303 -12.7816
v 17.8892 34.0049 -9.46243
v 24.3944 32.3285 -8.93803
v -24.9102 20.9212 -43.2682
v -31.9184 21.4173 -42.5959
v -30.5542 28.5804 -41.7541
v -24.2543 25.6745 -5.04526
v -17.1336 25.305 -4.95614
v -23.9364 32.4671 -7.57564
v -9.84589 32.0931 -7.1704
v -2.86645 31.2615 -6.92029
v -9.65925 39.6009 -10.4787
v -46.1836 22.8135 -41.1252
v -51.7155 30.7447 -38.7894
v -65.2683 33.9641 -24.1286
v -63.3592 33.0149 -31.1718
v -64.7164 34.793 -16.7556
v -64.1293 41.8766 -17.0497
v -53.6735 34.9678 -6.91098
v -52.3898 42.2327 -8.47442
v -59.6062 42.8056 -10.9467
v -37.63 28.9607 -41.1208
v -36.1602 35.3564 -39.068
v -29.1585 35.2376 -39.6166
v -38.4511 33.1839 -7.11844
v -31.102 32.6435 -7.41554
v -30.6388 39.2064 -9.30302
v -6.27335 50.9001 -35.2485
v 0.829545 47.9359 -37.0876
v -0.563193 41.7773 -40.1288
v -44.717 29.6785 -40.1725
v -43.1309 36.0048 -38.2482
v -56.6937 38.7729 -35.3623
v -49.9858 37.2013 -37.1119
v -45.97 34.0536 -6.68792
v -37.668 39.9393 -8.59377
v 6.59492 40.6003 -41.3305
v 8.14176 46.3147 -37.8586
v -14.5667 43.0067 -37.6121
v -13.946 50.6488 -33.9199
v 6.12683 49.6682 -19.6511
v -2.56336 45.9603 -13.5713
v 4.78702 44.4926 -13.3659
v -2.35342 48.9659 -19.2785
v -34.8619 41.5773 -37.1629
v -34.0207 47.4304 -34.8943
v -28.0628 41.5327 -37.0296
v -51.2502 50.7992 -32.1165
v -54.4337 44.9743 -33.7604
v -56.5923 52.8294 -30.3563
v -50.0652 49.3592 -10.928
v -43.1263 47.8695 -10.8056
v -21.0421 48.7261 -33.4057
v -48.0121 43.2917 -35.1914
v -45.6655 49.4511 -33.5315
v -60.502 46.8441 -31.0537
v 11.9131 42.6089 -13.2892
v 13.6261 48.9797 -16.8525
v 10.2914 51.5344 -35.0361
v 2.61661 51.1046 -32.6859
v 15.5096 44.7325 -38.2685
v 23.014 47.8053 -36.8949
v 23.2996 43.5185 -38.4958
v 12.9933 54.4521 -25.6862
v 11.1499 52.9754 -31.9805
v 4.90647 55.8376 -31.4905
v 6.76315 57.3323 -25.285
v -0.532741 58.2944 -31.1427
v 0.775214 60.3758 -24.7351
v -6.44939 58.6495 -19.3515
v -0.213047 56.3477 -19.7438
v -5.27108 63.6 -24.4017
v -0.814652 55.6239 -19.2793
v 5.31831 52.9191 -19.1713
v 5.90651 53.8659 -19.966
v -36.5993 46.6183 -10.485
v -30.3771 39.2632 -11.6937
v -37.1048 40.1578 -10.8042
v -30.3976 45.3119 -11.4203
v -34.8307 36.0295 -11.274
v -30.6124 32.8402 -11.6862
v -29.6078 36.1604 -11.7897
v -57.2372 50.7843 -12.3065
v -50.7768 44.0431 -12.2317
v -56.4877 47.1041 -14.6253
v -58.9819 52.4576 -24.4173
v -59.4536 53.3373 -25.4437
v -59.8102 51.9604 -19.144
v -55.5343 51.7043 -29.2907
v -12.5646 45.3869 -33.3973
v -19.3463 43.3683 -33.8556
v -19.2197 43.3917 -33.9763
v -12.3709 45.2237 -33.5035
v -45.9725 42.4412 -33.0173
v -39.6143 41.329 -34.5718
v -51.3778 48.7609 -32.2141
v -57.74 49.7629 -19.5297
v -44.1009 41.7613 -11.2198
v 0.0890605 57.6308 -26.6043
v 0.654514 59.6744 -25.3345
v -0.113968 57.2121 -30.6822
v 0.306725 58.0765 -22.6215
v -0.958834 56.4106 -20.0813
v -0.86699 56.5679 -20.3525
v -67.0328 15.5882 -22.8925
v 15.7633 10.0752 -52.8564
v 15.8582 7.76666 -44.5512
v 1.43097 7.76786 -44.9296
v 8.57146 10.9672 -51.2813
v 8.83275 7.76535 -44.1127
v 52.0772 10.3053 -48.6448
v 57.6367 11.6356 -43.9365
v 52.7626 10.6675 -39.071
v 46.7861 9.6648 -12.1615
v 39.8247 8.78735 -9.45282
v -63.5418 10.9466 -21.0226
v -61.0267 9.96241 -14.2426
v -62.3195 15.1935 -10.5928
v 24.5982 7.82833 -20.2972
v 17.576 49.9411 -35.375
v 25.7574 47.89 -32.332
v 23.4071 48.1096 -33.5808
v 29.3621 46.1113 -26.1931
v 21.7731 47.803 -36.264
v 20.3966 48.3448 -35.6075
v 21.7731 47.803 -36.264
v -3.89797 7.7069 -24.4865
v -11.6336 7.73195 -32.8847
v -4.63682 7.7356 -34.1074
v -41.0257 7.79511 -39.5754
v -40.2693 7.75808 -30.3913
v -48.4009 7.97517 -39.3541
v -21.3906 42.2218 -36.9767
v 18.6488 49.1362 -19.286
v 12.2629 51.4543 -19.9206
v 16.5203 44.1058 -15.7108
v 19.0396 51.3044 -25.9
v 26.4198 44.2058 -14.9032
v 36.5983 40.818 -19.3108
v 59.3212 11.8903 -19.5509
v 63.5764 12.9084 -30.9091
v 65.1915 13.2834 -24.2895
v 43.4026 33.6015 -12.0562
v 44.5349 27.3972 -6.25783
v 49.8289 31.83 -11.3514
v -59.1229 9.39684 -26.625
v -54.2777 8.44452 -30.9609
v 51.7472 25.8042 -5.99014
v 27.0655 31.9833 -47.1827
v 29.3846 37.751 -42.3845
v 34.2413 31.3059 -47.3546
v -7.54867 42.9278 -38.6319
v -15.461 35.8683 -41.0637
v 61.0405 12.2191 -12.6341
v 17.519 19.2915 -3.79715
v -22.2603 35.5239 -40.1676
v -16.7519 28.6471 -43.4094
v -23.5923 28.4816 -42.3741
v -9.92415 28.6239 -44.5618
v -18.0026 21.2658 -44.3446
v 40.6504 8.95474 -38.2839
v 45.5443 9.53043 -39.323
v 42.6297 9.11007 -32.4713
v -6.16542 60.3996 -31.3362
v -2.67112 58.6176 -30.1705
v 10.8349 7.6627 -9.68134
v -26.0555 42.226 -34.5552
v -32.8908 41.0772 -35.1712
v -32.8499 41.7056 -34.9265
v -33.6241 7.75785 -39.3721
v -33.0539 14.1118 -42.5415
v 24.9835 8.14654 -3.91895
v 25.0207 7.81133 -12.2191
v 29.3776 8.08536 -37.1124
v 22.7177 7.87094 -45.054
v -40.2447 14.8677 -41.979
v 18.64 40.6362 -13.212
v 0.86292 57.6515 -29.2045
v 45.7992 16.9901 -51.0156
v 44.8697 9.64149 -51.4849
v 31.2606 24.022 -3.91504
v 32.6881 25.6495 -52.3325
v 30.3599 9.51685 -53.7939
v -8.63703 35.8135 -42.1621
v -23.7886 39.2308 -10.3218
v -16.8198 39.5272 -10.4949
v -24.2298 46.1768 -12.9833
v -26.1294 41.9076 -34.5236
v -27.823 47.9269 -35.1807
v 16.2867 7.73923 -36.018
v 9.41463 7.73963 -35.4926
v 66.4586 13.6212 -17.7035
v 71.1718 15.3625 -28.7168
v 48.177 9.97415 -44.2742
v 31.4209 44.3969 -36.4863
v -17.2622 18.4285 -5.29433
v -24.3931 18.8968 -5.00555
v -17.2612 12.3311 -7.50996
v 17.6506 10.6744 -5.44544
v -39.9063 48.0558 -34.6212
v 10.0825 7.71345 -26.7079
v -26.0323 12.4583 -43.2147
v 51.6611 10.4435 -22.3498
v 45.4576 9.48138 -19.0511
v 49.9219 10.1964 -29.0215
v 2.47003 20.6567 -49.6332
v -31.5185 26.1078 -5.04056
v -16.5038 41.3817 -15.6716
v -9.52369 44.08 -17.5513
v -23.0705 38.7697 -13.7837
v 30.8428 30.8379 -8.22045
v 17.3006 50.2711 -32.6093
v 11.8711 52.6498 -32.0124
v 44.0445 9.28477 -25.8698
v 47.776 9.8861 -35.41
v 55.5824 11.2026 -32.8857
v 31.3102 8.13931 -21.6969
v 30.2711 8.10817 -29.2792
v 37.8287 8.63214 -23.5004
v 38.8708 8.71361 -16.3301
v 49.2591 33.9834 -39.9585
v 55.3702 33.1712 -39.0748
v 54.5075 29.2931 -44.8815
v 2.37514 7.73849 -35.0884
v 38.4468 21.4821 -4.03329
v 37.6069 29.0217 -7.43383
v 4.39243 37.4746 -9.61976
v -2.60714 38.7692 -9.86312
v -5.62339 7.76498 -43.9553
v -41.5323 42.1032 -36.3629
v 57.6447 11.5842 -26.3143
v -18.6531 7.72805 -31.5756
v -18.013 7.70042 -22.315
v -25.7539 7.72471 -30.4671
v 3.09495 7.7107 -25.7749
v 3.78893 27.7428 -47.7935
v 42.4953 38.8976 -18.7144
v 48.3816 37.0371 -17.9812
v 41.0011 40.9794 -26.9634
v -12.5355 7.76059 -42.4847
v 54.2302 35.4334 -17.5903
v -17.4181 7.67215 -12.8371
v -55.4986 10.8354 -39.4175
v 15.2617 49.853 -35.7117
v 52.5669 37.8183 -25.2921
v 67.3162 28.2808 -12.2105
v 24.7723 43.1717 -14.9045
v 23.1248 42.1375 -14.9058
v 58.2804 36.7567 -24.8259
v 63.7033 35.7233 -24.6392
v 56.7598 36.185 -32.3978
v -10.2946 11.7461 -8.01953
v -3.35119 7.67778 -14.7254
v -3.38046 10.5933 -8.35082
v -10.2556 17.7598 -5.56155
v -10.361 7.67485 -13.7432
v -1.64474 47.5597 -19.5629
v -9.33661 45.1785 -17.5466
v 1.78178 48.9744 -33.1961
v 9.02598 50.5745 -33.7001
v -5.48242 47.427 -32.985
v -63.4707 47.7056 -24.7914
v -62.3747 40.0685 -31.198
v -64.6806 40.9677 -24.3611
v 3.62264 7.68392 -16.79
v 10.8553 28.6998 -6.105
v 4.03176 30.0866 -6.56317
v -54.195 8.37038 -10.0344
v -53.018 8.23598 -20.253
v -46.585 7.85148 -20.8886
v -25.1538 7.69787 -21.4593
v -57.7748 8.94336 -20.3699
v 17.673 40.418 -18.6344
v 18.7743 40.1422 -18.3139
v 22.1388 44.4162 -14.0893
v -10.9326 7.70353 -23.3567
v 1.71396 57.2718 -31.1363
v 61.137 12.3141 -37.3811
v 65.0867 33.3932 -17.5732
v 69.468 32.5321 -18.4236
v -19.386 7.75538 -40.7376
v 71.8787 15.6407 -21.8081
v 20.5754 46.78 -16.4772
v -39.0486 39.2237 -10.862
v -39.0486 39.2237 -10.862
v -49.3116 44.5885 -12.8924
v -44.967 40.9657 -8.44447
v 30.161 39.0182 -13.0051
v 36.9404 35.4822 -12.7625
v -39.5516 7.73241 -20.8608
v -46.6033 7.82456 -11.7283
v -10.7875 47.6724 -14.371
v -66.1367 15.4401 -17.1804
v -32.358 7.69657 -21.0068
v 11.1358 49.986 -18.6128
v 16.3729 46.1575 -17.1637
v -58.4749 32.0744 -36.4905
v 25.0859 46.477 -18.317
v -26.2124 7.74849 -38.438
v 35.435 43.3621 -27.7375
v -63.1091 48.5381 -17.587
v 59.9315 34.317 -17.343
v -55.169 14.0018 -5.98532
v 42.2489 9.13281 -45.0886
v 10.3044 45.6559 -18.5352
v 11.2435 35.8477 -9.48791
v 18.0533 7.6932 -11.4089
v 50.9473 37.1933 -33.129
v 0.0890605 57.6308 -26.6043
v 20.2901 43.2572 -15.4107
v 20.2914 43.2618 -15.4151
v 24.9985 48.3725 -26.0252
v -61.0714 17.4714 -36.2949
v -1.55257 58.6737 -30.7359
v 61.1361 28.3465 -44.1526
v -47.4021 7.89176 -30.4868
v -39.4112 42.0734 -33.9719
v -45.5914 45.0831 -33.2295
v -39.4112 42.0734 -33.9719
v -10.1144 24.7366 -4.82419
v -61.8471 21.4361 -10.0921
v 36.644 8.5364 -30.5917
v -24.5295 7.66948 -11.9417
v 37.5769 9.50501 -52.9891
v -46.8735 11.8317 -5.09726
v -3.30838 16.7218 -5.79097
v 73.5805 20.3917 -30.6431
v 73.8928 20.4765 -24.6555
v -16.8708 32.4053 -7.39313
v -39.1355 12.8351 -5.43189
v -17.6714 46.8183 -13.8188
v -16.2751 41.4131 -15.6072
v -5.39828 47.2004 -33.2197
v 32.0171 8.15251 -13.8637
v 16.1431 41.667 -18.5704
v 16.6796 40.9491 -18.5576
v -39.0611 7.70031 -10.9081
v -60.0424 24.9173 -37.0756
v -60.6747 35.2663 -10.321
v 3.67408 7.84483 -8.57113
v -0.840821 56.0959 -19.8159
v 17.6408 50.3017 -32.8203
v 17.6391 50.3797 -32.7966
v -19.0565 13.9464 -44.2229
v 14.5875 42.9478 -18.4445
v 73.1984 25.9434 -20.0092
v 73.9817 25.9993 -25.0582
v 71.6423 22.891 -16.0042
v 70.8661 27.2743 -15.3522
v 69.1724 21.7034 -13.2517
v -54.3794 47.0868 -15.5837
v -23.5603 39.801 -13.663
v -39.0437 22.0266 -41.9905
v -34.8307 36.0295 -11.274
v -0.840821 56.0959 -19.8159
v 53.2484 10.6813 -15.3875
v -33.0127 7.72782 -30.3445
v 6.43367 55.1278 -31.5604
v 67.9532 14.7015 -11.6703
v 72.0905 16.7267 -15.2743
v 10.3044 45.6559 -18.5352
v 21.7053 48.075 -36.2512
v 24.7723 43.1717 -14.9045
v 23.969 42.4168 -15.1271
v 16.1431 41.667 -18.5704
v 73.429 19.7971 -20.3157
v 30.8019 44.0405 -18.7342
f 1 2 3 413
f 46 343 1 413
f 247 246 1 343
f 246 216 2 1
f 37 38 3 39
f 3 2 205 39
f 5 6 4 301
f 7 8 5 290
f 8 219 6 5
f 6 407 266 4
f 6 219 273 407
f 8 7 274 318
f 9 10 11 274
f 9 275 21 283
f 424 10 9 283
f 263 422 11 261
f 11 422 318 274
f 11 10 404 261
f 12 13 14 423
f 342 298 12 423
f 297 51 13 12
f 14 394 371 423
f 14 13 430 437
f 15 16 17 19
f 208 329 15 18
f 329 340 16 15
f 444 260 17 16
f 18 15 19 306
f 18 306 72 209
f 19 17 259 95
f 19 95 336 306
f 21 22 20 283
f 62 61 20 282
f 73 22 21 206
f 207 206 21 275
f 282 20 22 74
f 272 24 23 77
f 325 281 23 25
f 25 23 24 215
f 24 272 273 434
f 26 27 28 30
f 64 248 26 29
f 248 244 27 26
f 215 214 28 25
f 28 27 325 25
f 29 26 30 254
f 65 64 29 459
f 29 254 292 459
f 214 456 30 28
f 240 254 30 456
f 68 427 31 69
f 31 33 78 69
f 33 31 32 34
f 427 293 32 31
f 35 33 34 36
f 212 36 34 378
f 241 378 34 32
f 35 415 78 33
f 36 60 59 35
f 37 115 116 38
f 117 115 37 40
f 38 116 397 438
f 413 3 38 438
f 40 37 39 41
f 41 421 43 40
f 205 393 41 39
f 41 393 218 421
f 49 48 42 44
f 42 48 135 119
f 44 42 43 421
f 117 40 43 439
f 119 439 43 42
f 44 403 425 49
f 45 46 47 113
f 45 276 230 232
f 45 232 343 46
f 46 413 438 47
f 397 114 47 438
f 48 49 50 52
f 125 135 48 52
f 49 425 430 50
f 52 50 51 307
f 51 297 107 307
f 51 50 430 13
f 57 56 53 55
f 53 56 366 367
f 55 53 54 426
f 54 111 110 420
f 54 53 367 111
f 266 57 55 440
f 55 426 354 440
f 76 366 56 255
f 255 56 57 299
f 58 59 60 279
f 61 62 58 279
f 59 58 90 323
f 59 323 415 35
f 212 211 60 36
f 61 279 280 424
f 61 424 283 20
f 62 93 90 58
f 62 282 251 93
f 64 65 63 80
f 63 402 341 80
f 379 402 63 346
f 245 248 64 80
f 346 63 65 450
f 66 67 68 69
f 78 79 66 69
f 66 79 81 67
f 67 81 82 84
f 68 67 84 447
f 428 427 68 447
f 306 336 70 72
f 72 70 71 73
f 71 70 100 98
f 206 209 72 73
f 73 71 74 22
f 74 71 98 249
f 77 75 76 255
f 76 75 103 102
f 281 75 77 23
f 299 272 77 255
f 86 79 78 415
f 79 86 85 81
f 83 84 82 380
f 82 81 85 350
f 379 380 82 350
f 83 446 447 84
f 83 380 449 446
f 85 86 322 351
f 86 415 323 322
f 87 408 321 92
f 89 87 88 339
f 92 91 88 87
f 400 339 88 295
f 408 87 89 345
f 90 93 92 321
f 295 88 91 250
f 92 93 251 91
f 95 96 94 336
f 94 96 130 137
f 284 96 95 259
f 252 130 96 284
f 97 250 249 98
f 99 97 98 100
f 99 137 138 161
f 163 97 99 161
f 137 99 100 94
f 100 70 336 94
f 102 103 101 277
f 238 375 101 388
f 311 388 101 103
f 102 277 157 406
f 366 76 102 406
f 281 311 103 75
f 104 105 106 258
f 104 302 271 105
f 104 260 444 302
f 122 106 105 453
f 105 271 276 453
f 296 108 107 297
f 109 107 108 429
f 109 429 286 285
f 109 126 307 107
f 112 110 111 328
f 327 328 111 367
f 142 392 112 328
f 112 286 429 110
f 112 392 431 286
f 113 47 114 131
f 113 453 276 45
f 132 131 114 134
f 133 134 114 397
f 115 117 118 364
f 115 364 363 116
f 133 397 116 363
f 183 401 118 121
f 362 364 118 401
f 118 117 439 121
f 119 120 121 439
f 387 120 119 135
f 152 151 120 387
f 183 121 120 151
f 122 123 124 106
f 122 131 132 123
f 123 132 330 145
f 145 147 124 123
f 258 106 124 256
f 125 126 127 136
f 125 52 307 126
f 285 127 126 109
f 176 136 127 179
f 287 179 127 285
f 128 129 130 252
f 139 140 128 252
f 128 361 160 129
f 129 138 137 130
f 129 160 159 138
f 453 113 131 122
f 133 363 156 149
f 149 154 134 133
f 330 132 134 154
f 135 125 136 387
f 220 161 138 159
f 153 140 139 233
f 139 253 256 233
f 140 190 361 128
f 142 143 141 144
f 141 357 358 144
f 405 357 141 158
f 142 328 327 143
f 143 157 158 141
f 406 157 143 327
f 392 142 144 309
f 432 309 144 358
f 147 145 146 289
f 288 289 146 268
f 146 145 330 300
f 153 233 147 289
f 256 124 147 233
f 194 155 148 418
f 150 148 149 156
f 149 148 155 154
f 362 187 150 156
f 418 148 150 196
f 198 184 151 152
f 153 191 190 140
f 288 191 153 289
f 155 194 195 300
f 330 154 155 300
f 158 157 277 383
f 158 383 374 405
f 360 344 159 160
f 162 163 161 220
f 162 220 225 462
f 295 163 162 221
f 163 295 250 97
f 164 165 166 167
f 164 167 175 235
f 165 164 237 312
f 377 166 165 458
f 168 169 167 166
f 167 169 171 175
f 265 264 168 414
f 168 166 377 414
f 264 172 169 168
f 170 172 200 204
f 172 170 171 169
f 173 174 171 170
f 172 264 201 200
f 173 170 204 441
f 175 171 174 395
f 177 178 176 179
f 176 178 198 152
f 176 152 387 136
f 182 181 177 452
f 177 179 287 452
f 178 177 181 384
f 180 181 182 454
f 180 385 384 181
f 184 185 183 151
f 183 185 188 401
f 184 198 386 451
f 185 197 186 188
f 185 184 451 197
f 187 188 186 189
f 196 150 187 189
f 401 188 187 362
f 190 191 193 433
f 192 193 191 288
f 192 288 268 267
f 194 417 269 195
f 384 386 198 178
f 200 201 199 202
f 200 202 203 204
f 265 278 201 264
f 201 278 409 199
f 204 203 455 441
f 205 2 216 393
f 207 210 209 206
f 207 290 291 210
f 209 210 208 18
f 291 324 208 210
f 211 212 213 294
f 211 280 279 60
f 262 294 213 315
f 213 212 378 316
f 304 214 215 320
f 215 24 434 320
f 216 217 218 393
f 216 246 372 217
f 368 403 218 217
f 219 8 318 317
f 434 273 219 317
f 344 225 220 159
f 400 295 221 223
f 223 221 222 412
f 237 412 222 312
f 313 312 222 443
f 442 443 222 221
f 223 467 239 400
f 225 226 224 462
f 228 229 227 376
f 227 353 356 376
f 365 353 227 335
f 228 332 381 340
f 229 324 335 227
f 229 228 340 329
f 271 270 230 276
f 232 230 231 416
f 231 230 270 457
f 394 390 231 457
f 232 416 247 343
f 236 234 235 396
f 237 164 235 234
f 235 175 395 396
f 236 348 398 234
f 410 411 236 396
f 398 412 237 234
f 348 347 238 398
f 467 388 389 239
f 412 398 467 223
f 243 337 239 389
f 239 337 339 400
f 241 242 240 331
f 303 331 240 456
f 293 242 241 32
f 254 240 242 292
f 245 243 244 248
f 244 326 325 27
f 244 243 389 326
f 337 243 245 338
f 245 80 341 338
f 370 369 247 416
f 372 246 247 369
f 282 74 249 251
f 251 249 250 91
f 253 139 252 284
f 253 257 258 256
f 253 284 259 257
f 260 104 258 257
f 260 257 259 17
f 294 262 261 404
f 263 261 262 315
f 305 314 263 315
f 266 407 299 57
f 365 4 266 440
f 269 267 268 195
f 300 195 268 146
f 270 271 302 399
f 272 299 407 273
f 275 9 274 7
f 275 7 290 207
f 375 383 277 101
f 280 211 294 404
f 281 325 326 311
f 287 285 286 431
f 287 431 308 452
f 301 291 290 5
f 292 242 293 382
f 296 298 352 355
f 296 355 420 108
f 298 296 297 12
f 356 352 298 342
f 324 291 301 335
f 301 4 365 335
f 381 399 302 444
f 305 303 304 314
f 456 214 304 303
f 305 316 331 303
f 310 308 309 432
f 309 308 431 392
f 452 308 310 182
f 458 165 312 313
f 320 319 314 304
f 422 263 314 319
f 315 213 316 305
f 319 317 318 422
f 434 317 319 320
f 321 322 323 90
f 322 321 408 351
f 324 229 329 208
f 388 311 326 389
f 327 367 366 406
f 331 316 378 241
f 376 333 332 228
f 399 381 332 334
f 334 332 333 371
f 333 376 356 342
f 339 337 338 89
f 345 89 338 341
f 340 381 444 16
f 349 345 341 402
f 371 333 342 423
f 351 408 345 349
f 380 379 346 449
f 448 449 346 450
f 464 463 347 348
f 348 236 411 464
f 351 349 350 85
f 350 349 402 379
f 353 354 352 356
f 440 354 353 365
f 355 352 354 426
f 361 359 360 160
f 433 359 361 190
f 363 364 362 156
f 368 369 370 391
f 372 369 368 217
f 425 403 368 391
f 457 334 371 394
f 445 374 373 435
f 375 373 374 383
f 461 405 374 445
f 427 428 382 293
f 459 292 382 460
f 382 428 466 460
f 391 370 390 437
f 390 370 416 231
f 437 390 394 14
f 457 270 399 334
f 421 218 403 44
f 424 280 404 10
f 417 194 418 419
f 420 355 426 54
f 429 108 420 110
f 437 430 425 391
f 428 447 446 466
f 435 373 436 465
f 446 449 448 466
f 448 450 460 466
f 450 65 459 460
f 467 398 238 388
