v -65.1208 11.6547 -19.1029
v -57.1924 8.88505 -19.7475
v -63.3138 10.676 -13.3935
v 29.4019 8.08765 -37.4592
v 36.0215 8.46968 -28.8237
v 28.875 8.03637 -29.3949
v 42.5637 9.09052 -20.4981
v 49.4179 10.0721 -13.2594
v 42.2526 9.03651 -12.6554
v 58.18 11.7097 -33.4067
v 59.5644 11.9961 -39.0746
v 65.587 13.3932 -32.2683
v 72.8347 16.22 -18.7066
v 65.6791 13.4023 -26.6081
v 73.5615 16.5352 -26.0122
v -63.9415 11.6365 -33.7123
v -65.3414 11.7756 -26.3918
v -63.1701 19.1767 -34.093
v -66.2805 18.0481 -18.9501
v -66.2836 25.0431 -19.7677
v -66.1874 18.8172 -26.7911
v -65.9704 25.9851 -27.7906
v -15.4229 19.0925 -44.8503
v -16.6504 12.8549 -44.6549
v -23.3463 19.3716 -43.4379
v 6.54855 8.45144 -50.7895
v 15.5208 15.7162 -52.7485
v 14.3036 7.90647 -52.6102
v 12.212 7.64346 -7.16581
v 4.64476 15.5344 -5.75691
v 4.9921 7.89983 -8.2984
v 22.309 7.73497 -53.6142
v 23.3887 15.238 -53.7398
v 30.4773 7.73885 -53.7721
v 19.4697 7.46855 -5.75814
v 11.8306 15.4556 -5.06444
v 19.0779 15.4731 -4.49444
v 26.367 15.4874 -3.74687
v 25.9159 23.6114 -3.70183
v 38.6313 8.21099 -52.7649
v 38.9441 15.0255 -52.7144
v 46.3903 15.7676 -50.8235
v 31.235 14.9487 -53.7446
v 34.5489 7.88001 -4.12107
v 33.7582 15.6188 -3.68059
v 53.7616 17.0481 -48.2136
v 46.6722 22.0437 -50.6756
v 53.3525 23.1511 -48.3904
v 60.3663 25.8518 -45.1236
v 55.3358 23.0731 -6.83641
v 47.8735 23.27 -5.22862
v 48.5998 16.3555 -5.34547
v 67.4664 22.2625 -40.4305
v 67.8676 15.3596 -40.088
v 61.0481 19.283 -44.9021
v 61.6727 12.5203 -44.6605
v 72.5353 24.0779 -34.1021
v 72.7378 16.2135 -33.3115
v 72.7588 24.1201 -18.6807
v 73.9939 24.5634 -26.2065
v 69.7731 32.1801 -33.9913
v 71.7057 32.8983 -26.219
v 71.1834 31.7692 -18.9865
v -63.8182 23.4544 -12.3164
v -61.797 26.3036 -34.8249
v -57.1376 19.693 -39.6028
v -48.2958 19.7338 -40.8761
v -49.2411 13.428 -40.7005
v -57.8369 12.9687 -38.8937
v -49.973 19.1018 -4.98625
v -57.8968 21.1958 -7.05822
v -58.0572 12.6138 -7.15771
v -50.2475 10.0971 -5.32399
v -39.8018 19.6453 -41.9705
v -31.4908 19.5365 -42.6557
v -32.7353 13.335 -42.5735
v -40.9498 13.3913 -41.9054
v -13.9336 25.7609 -44.5453
v -21.8489 25.8379 -43.1457
v 41.0786 26.7462 -50.5165
v 46.988 26.0925 -50.6562
v 39.8487 21.4026 -52.479
v 32.3593 21.8835 -53.6132
v 62.4247 23.1721 -9.15414
v 62.2691 29.6024 -10.7804
v -54.8184 26.3948 -39.104
v -38.3269 25.9553 -41.6636
v -30.0067 25.8549 -42.3456
v 18.7912 23.6756 -3.73812
v 19.0047 31.293 -8.12929
v 40.3958 23.3385 -4.25033
v 39.7093 29.6987 -8.17515
v 32.6482 30.2595 -8.02544
v 25.9692 30.9666 -8.14355
v 33.0851 23.4122 -3.78148
v 65.5897 29.8271 -40.6205
v 61.0224 35.7049 -31.1295
v 38.2688 40.0335 -19.2717
v 45.7088 38.0972 -20.3654
v 36.5626 42.7987 -26.7203
v 44.1934 39.6209 -27.5691
v 42.0585 38.8403 -34.6564
v 34.4401 42.5154 -34.2549
v 46.5685 34.3671 -13.9769
v 54.3518 33.8015 -15.094
v 39.1388 35.2168 -13.2955
v 32.6284 37.1307 -12.5938
v 32.5661 39.9593 -41.1611
v 39.5126 36.0566 -40.5888
v 3.26319 31.8301 -45.7372
v 1.42845 24.7393 -48.6055
v -4.50809 32.5394 -44.3604
v -2.65604 23.3197 -4.34221
v 4.75258 31.3401 -7.15754
v -2.43872 31.1978 -6.91198
v 4.53248 23.4042 -4.06735
v 11.8907 31.4066 -7.53355
v 12.2362 39.1313 -11.2792
v 4.99124 39.1102 -10.4241
v -2.23203 38.7994 -9.88377
v 19.654 39.2162 -12.5682
v 26.6111 28.8203 -49.9515
v 24.6093 22.6788 -53.7988
v 18.8897 29.5201 -48.2832
v 27.7034 46.5531 -20.7105
v 26.8783 38.6069 -12.8031
v -36.6488 32.09 -40.3628
v -44.8628 32.4154 -39.4526
v -64.6748 33.1346 -28.6528
v -65.3408 32.3642 -20.8033
v -64.9212 40.1518 -21.5444
v -63.3912 40.595 -29.2459
v -57.5174 29.502 -7.55722
v -50.6475 39.1124 -36.3727
v -52.7986 32.964 -37.9734
v -57.9126 40.3182 -34.469
v -60.1136 33.412 -35.0242
v -57.0645 37.7206 -8.2195
v -49.1557 35.4235 -6.78055
v -49.6912 27.5189 -5.38103
v -25.063 31.3286 -7.10993
v -17.285 30.9834 -6.89865
v -17.0399 37.8485 -9.80179
v 5.00425 46.2491 -14.3238
v -18.5197 38.9552 -39.0554
v -10.7488 39.6003 -39.8338
v -12.318 32.7112 -43.0209
v -9.5656 38.1811 -9.7848
v 15.6929 43.624 -38.8677
v 13.1935 37.4121 -43.2653
v 7.19101 45.5739 -38.2779
v -24.7997 38.4518 -9.87722
v -24.9675 46.1121 -12.3555
v -32.5603 39.3723 -9.00564
v -60.2515 56.2132 -23.3388
v -61.7268 47.4274 -14.7191
v -59.03 55.2089 -15.971
v -32.8445 43.4214 -36.5752
v -34.8282 37.8466 -38.3173
v -42.9428 38.1902 -37.3924
v -61.6413 48.1921 -29.8187
v -56.9828 54.5469 -29.0173
v -51.3635 51.8675 -31.6434
v -55.143 46.6242 -32.9647
v -46.0624 49.326 -11.1846
v -47.8931 42.7963 -8.69483
v -40.2383 40.8993 -8.68091
v -41.1688 33.4175 -6.92435
v -17.3369 43.8631 -12.4662
v -10.1235 44.6467 -12.907
v -2.64745 45.8643 -13.5184
v 10.1434 52.5257 -34.5927
v -1.20785 46.8876 -37.4487
v 0.985821 53.8596 -32.6409
v 13.7914 52.4589 -31.6635
v 21.2856 49.9855 -25.3654
v 20.1837 49.1362 -32.9407
v -38.9553 48.6049 -34.4415
v -32.6025 48.4779 -35.6245
v -48.095 44.6279 -34.7532
v -40.7641 43.7373 -35.9974
v -45.6969 49.4439 -33.2341
v -38.9578 47.1545 -11.0817
v -31.9923 45.6791 -11.3285
v -15.7033 45.7657 -33.6097
v -0.914733 46.4726 -32.9523
v -7.85177 47.0705 -33.1322
v -31.0639 41.9082 -35.0797
v -38.5966 41.4413 -34.7445
v -53.0074 52.4984 -12.1026
v -47.7761 42.6254 -11.703
v -54.8256 45.1379 -13.5546
v -57.1059 46.6479 -17.6166
v -57.8272 47.116 -22.8359
v -59.0478 46.8568 -17.7076
v -12.2757 49.3829 -16.7481
v -11.4373 49.0238 -17.0893
v -18.7648 46.4473 -15.0878
v 24.9668 42.1528 -17.503
v 21.0833 47.8523 -17.0281
v 27.206 46.4562 -13.9553
v 12.4793 49.5811 -18.9896
v 11.4908 47.2277 -18.8497
v 4.67239 50.0982 -19.2044
v 7.74914 45.3524 -33.0928
v 19.1601 49.6456 -35.668
v 0.209469 58.0158 -21.8639
v 0.240002 58.1331 -30.4876
v 0.224735 58.0745 -26.1757
v 0.224735 58.0745 -26.1757
v -56.973 8.84728 -32.6768
v -49.5303 7.61981 -40.2
v -55.6029 8.68799 -37.8876
v -49.2307 8.00719 -33.0011
v -33.6833 7.31565 -42.0335
v -33.5146 7.74403 -34.9327
v -41.7863 7.29821 -41.2957
v -41.4182 7.78366 -34.0881
v -1.28372 7.76416 -43.6782
v -9.61988 7.76685 -44.5832
v -1.13635 9.47346 -48.7274
v -17.4493 7.74242 -36.3928
v -9.36947 7.74385 -36.8735
v 14.5128 7.76818 -45.062
v 22.257 7.86489 -45.5891
v 46.4467 9.40235 -50.4537
v 52.2204 10.5805 -41.5321
v 44.9151 9.47054 -43.3114
v 54.2574 10.8019 -47.7798
v 65.1154 13.2253 -20.8806
v 68.7711 16.1752 -12.8769
v 56.9437 10.9707 -7.75791
v 62.5014 12.0553 -10.0928
v 55.8585 16.6578 -6.97772
v 56.4661 11.3193 -14.3428
v 13.2457 7.67797 -14.8092
v 5.77832 7.68024 -15.5535
v -9.65101 7.68136 -15.9255
v -17.5156 8.47234 -8.95251
v -17.528 7.67993 -15.4457
v -1.86593 7.68148 -15.9644
v -9.8087 8.52762 -9.4691
v -41.6972 8.98712 -5.67818
v -41.375 7.71959 -12.7866
v -33.4123 8.54417 -6.79969
v -25.305 8.23668 -7.46527
v -25.4307 7.67716 -14.516
v -49.2292 7.94548 -12.395
v -56.6726 8.72916 -12.9149
v 18.2288 44.6902 -18.1763
v 36.6956 8.56002 -36.7982
v 37.523 8.66537 -44.7383
v 14.3116 7.74579 -37.5557
v 6.54521 7.74486 -37.2444
v 6.72048 7.76577 -44.2496
v 50.9956 10.3782 -34.7028
v -25.4154 7.69802 -21.5082
v -9.48438 7.70157 -22.6994
v 20.0357 45.1562 -34.2069
v 28.8393 46.5224 -24.674
v 16.009 43.8728 -34.2708
v 12.5293 48.1881 -34.794
v 15.3836 46.5512 -36.3127
v 13.9564 47.3696 -35.5534
v -41.2601 7.76058 -27.0284
v -49.1952 7.9851 -26.3665
v 57.0498 11.452 -20.81
v 57.648 11.5871 -27.0762
v -41.2297 7.73907 -19.9444
v -33.3767 7.72208 -27.8087
v -33.3998 7.67999 -13.6389
v -33.3418 7.70073 -20.7028
v 12.5687 50.3989 -19.3107
v 18.9429 48.5204 -20.0237
v 13.2879 49.8065 -18.9988
v 6.32803 52.1858 -18.9087
v 8.0466 56.2579 -24.2512
v 7.40346 55.4229 -31.0746
v 5.80307 54.0604 -32.148
v 0.72384 58.8229 -30.8026
v -0.996863 59.5148 -30.4945
v 12.6735 44.984 -33.7414
v 6.0179 45.7777 -33.1519
v -49.1419 7.9614 -19.5267
v -57.386 8.95393 -26.339
v -0.636206 46.5889 -32.5699
v -32.358 40.0602 -11.3295
v -46.3744 42.8648 -12.5887
v -40.1753 40.7352 -10.9062
v 54.8595 29.1542 -9.20521
v 53.7582 36.9417 -21.8042
v -25.5708 7.30283 -42.7862
v -24.6203 13.1876 -43.3495
v -17.5812 7.11182 -43.8114
v -18.5822 46.1683 -15.0381
v -25.4792 16.1252 -5.76246
v -9.76634 31.0297 -6.79027
v 47.1738 29.3681 -8.59053
v 21.1518 35.5196 -43.7845
v 11.0791 30.7519 -47.076
v -20.196 32.3932 -41.7303
v -8.16112 54.6381 -33.2209
v -9.31783 46.9789 -36.4862
v 14.3357 47.0744 -35.6149
v 7.73535 16.3551 -51.0918
v -8.30898 46.1191 -33.2818
v -15.9146 44.9169 -33.532
v 43.8768 9.27729 -35.841
v 21.9444 7.83611 -37.6827
v 52.4873 28.5128 -47.481
v 43.9588 30.1866 -46.4596
v 0.36245 59.1612 -23.4106
v 16.7647 23.4477 -52.785
v 21.745 48.5283 -21.5513
v 5.80307 54.0604 -32.148
v -6.51215 61.6018 -30.4099
v 26.919 7.4962 -4.51933
v -2.30415 8.32005 -9.26824
v 27.8157 7.93282 -12.9881
v 35.4866 8.39283 -20.7569
v 43.0972 9.1563 -28.2277
v -8.86635 12.1382 -46.5202
v 34.1189 27.7613 -50.6686
v 36.5632 32.3696 -45.9649
v 0.893855 57.2643 -29.3947
v -33.0476 32.0654 -7.16716
v -33.3832 24.6501 -4.66553
v 9.06326 24.0371 -50.7748
v 11.6537 23.5567 -3.80259
v -24.6663 41.5115 -13.2985
v -55.5532 46.3197 -27.731
v -59.6309 47.4543 -24.0324
v 50.2412 10.2414 -27.6521
v -33.5058 16.6303 -5.2063
v -10.0182 23.3479 -4.52949
v 47.2081 33.5845 -41.2713
v 62.7229 16.5026 -9.31204
v 68.6599 23.5393 -12.7622
v -1.59275 7.70205 -22.8617
v 6.16318 7.70172 -22.77
v 23.7999 41.7212 -39.7624
v -1.38217 7.72308 -29.9103
v -45.0443 43.2153 -32.6066
v -38.4923 42.3641 -34.1327
v -45.8968 42.2737 -33.0362
v 0.0278601 17.2577 -49.0252
v -6.20622 25.4183 -46.4343
v 17.2788 44.2959 -34.4674
v -9.35426 7.72237 -29.6727
v 5.11157 38.8821 -42.3755
v 49.6756 10.1333 -20.5225
v 29.1918 34.2644 -45.3441
v -17.4495 7.70018 -22.2347
v -17.4049 7.721 -29.2117
v -0.30114 57.3712 -21.2558
v -0.44593 57.1863 -21.0225
v -0.30114 57.3712 -21.2558
v -46.6577 26.162 -40.6879
v -10.0354 15.7467 -6.39517
v -17.5881 23.5439 -4.52254
v -17.6587 15.8884 -6.2172
v -63.1787 31.1642 -13.1918
v -62.917 39.2326 -13.7987
v -7.66554 18.4701 -46.8238
v 16.8659 45.909 -36.0901
v 6.42174 7.72336 -30.0332
v 18.0224 44.5145 -34.2389
v 24.802 47.6867 -21.1398
v -2.61283 15.6256 -6.20667
v 52.3388 37.522 -28.9254
v -25.4287 7.71903 -28.5612
v -51.59 44.065 -31.1365
v -57.3125 46.2003 -28.7119
v -51.3407 44.9893 -31.1884
v 18.2644 44.594 -18.3682
v -32.0485 40.556 -12.7635
v -39.4421 40.9589 -11.525
v -31.033 42.4086 -34.845
v -23.4558 43.3099 -34.4947
v -25.2695 43.2969 -13.8042
v -23.4905 43.7088 -34.1401
v -63.7129 48.2704 -22.3769
v 62.4027 35.7943 -23.9023
v 64.5987 12.9157 -37.2359
v -41.7037 17.545 -4.77033
v 14.7846 53.2056 -24.8831
v -0.0962293 57.5097 -21.5173
v 62.4465 33.4066 -16.8458
v 68.3308 28.9213 -12.9704
v 0.381623 54.2348 -18.6832
v 6.41838 52.3322 -18.993
v 6.47514 52.3168 -18.997
v 18.2288 44.6902 -18.1763
v 12.5609 46.0072 -15.2184
v -25.1912 44.1915 -35.71
v -17.3254 45.8103 -35.8515
v -4.06125 51.6203 -18.8626
v 11.063 47.5294 -35.3616
v 8.0471 50.2972 -33.6314
v -2.92086 39.6726 -41.1879
v -25.5158 7.74035 -35.7088
v 27.7034 46.5531 -20.7105
v -17.4745 53.3166 -34.3176
v -26.4868 38.1401 -38.6818
v -28.3311 32.1039 -40.9763
v 54.9929 30.7574 -42.8454
v -0.147017 56.2013 -20.2448
v 50.0417 36.2874 -35.5557
v 58.1521 33.5435 -37.4386
v -3.17972 50.5225 -18.7963
v -6.5434 63.0941 -21.9323
v 63.2133 12.7748 -15.8735
v 1.27419 59.6467 -23.5075
v 5.19568 51.8197 -19.7087
v 29.9576 8.14046 -45.5263
v 49.6835 9.75582 -5.92515
v 35.0395 8.31442 -12.5332
v -2.85403 59.6822 -29.3154
v 42.185 8.67131 -4.71
v 41.1955 15.9475 -4.24425
v -41.528 25.7871 -4.85569
v 28.3646 7.9858 -21.2629
v 28.0376 40.6767 -17.8012
v 21.5868 7.8067 -29.8164
v -25.5539 50.7255 -35.036
v 21.1354 7.77554 -21.8843
v 20.5657 7.7422 -13.8564
v 13.9564 47.3696 -35.5534
v -25.3831 23.9373 -4.59814
v -55.5013 45.4343 -9.84714
v -63.6883 16.2441 -12.0764
v -52.4373 44.7436 -14.5872
v -1.32352 7.74416 -36.9762
v 13.7542 7.70078 -22.4572
v 14.0927 7.72336 -30.0396
v 18.0224 44.5145 -34.2389
v 25.655 46.6615 -33.7997
v 31.8773 44.2034 -16.7138
f 3 1 2 249
f 17 285 2 1
f 19 1 3 431
f 3 249 72 431
f 5 6 4 251
f 4 309 225 415
f 4 415 252 251
f 424 309 4 6
f 7 320 5 321
f 320 422 6 5
f 426 424 6 422
f 8 9 7 351
f 7 9 417 320
f 8 416 419 9
f 10 256 227 11
f 333 256 10 268
f 12 10 11 384
f 11 56 54 384
f 12 14 268 10
f 14 15 13 230
f 60 59 13 15
f 13 59 338 231
f 58 15 14 12
f 267 268 14 230
f 16 18 66 69
f 18 16 17 21
f 19 21 17 1
f 17 16 211 285
f 18 21 22 65
f 64 20 19 431
f 21 19 20 22
f 130 129 22 20
f 137 65 22 129
f 25 23 24 293
f 24 322 220 294
f 24 23 364 322
f 25 79 78 23
f 27 28 26 305
f 219 221 26 255
f 26 28 224 255
f 346 305 26 221
f 32 28 27 33
f 27 313 123 33
f 27 305 328 313
f 30 31 29 36
f 113 369 30 116
f 318 31 30 369
f 31 237 236 29
f 32 225 224 28
f 415 225 32 34
f 34 32 33 43
f 34 43 41 40
f 252 415 34 40
f 36 29 35 37
f 35 317 38 37
f 35 29 236 427
f 319 317 35 427
f 116 30 36 329
f 37 38 39 89
f 329 36 37 89
f 44 45 38 317
f 45 95 39 38
f 90 89 39 94
f 40 41 42 226
f 228 252 40 226
f 83 82 41 43
f 82 47 42 41
f 123 83 43 33
f 44 317 319 417
f 45 44 419 420
f 46 42 47 48
f 46 48 49 55
f 56 229 46 55
f 46 229 226 42
f 80 81 47 82
f 48 47 81 310
f 49 96 53 55
f 310 406 49 48
f 50 51 52 234
f 50 84 85 290
f 92 91 51 298
f 290 298 51 50
f 91 420 52 51
f 52 416 232 234
f 53 57 58 54
f 53 96 61 57
f 55 53 54 56
f 227 229 56 11
f 60 15 58 57
f 384 54 58 12
f 59 63 389 338
f 60 57 61 62
f 60 62 63 59
f 97 383 62 61
f 62 383 388 63
f 64 362 130 20
f 64 71 133 362
f 66 18 65 86
f 135 86 65 137
f 66 67 68 69
f 67 66 86 358
f 68 67 74 77
f 68 77 217 212
f 211 16 69 213
f 212 213 69 68
f 70 71 72 73
f 70 140 133 71
f 70 385 421 140
f 431 72 71 64
f 72 249 248 73
f 73 248 244 243
f 385 70 73 243
f 74 75 76 77
f 74 67 358 87
f 75 88 79 25
f 87 88 75 74
f 293 76 75 25
f 217 77 76 215
f 78 147 112 347
f 301 147 78 79
f 78 347 364 23
f 79 88 405 301
f 83 323 80 82
f 311 310 81 80
f 122 323 83 123
f 84 50 234 337
f 84 338 389 85
f 105 290 85 388
f 128 127 87 358
f 88 87 127 405
f 89 90 117 329
f 90 121 118 117
f 93 95 91 92
f 92 298 104 106
f 106 107 93 92
f 93 107 126 94
f 95 93 94 39
f 94 126 121 90
f 95 45 420 91
f 97 61 96 409
f 406 409 96 49
f 97 409 408 370
f 98 106 104 99
f 107 106 98 438
f 260 438 98 100
f 100 98 99 101
f 99 104 105 291
f 100 103 437 260
f 101 102 103 100
f 101 99 291 370
f 102 101 370 408
f 109 108 103 102
f 298 290 105 104
f 105 388 383 291
f 437 103 108 341
f 299 341 108 352
f 109 336 311 324
f 352 108 109 324
f 408 336 109 102
f 400 350 110 112
f 112 110 111 347
f 111 110 300 328
f 111 328 305 346
f 112 147 146 400
f 114 115 113 116
f 114 119 120 115
f 115 120 148 297
f 115 297 335 113
f 117 114 116 329
f 117 118 119 114
f 144 119 118 394
f 120 119 144 171
f 120 171 170 148
f 394 118 121 200
f 122 124 299 352
f 124 122 123 313
f 328 300 124 313
f 126 107 438 201
f 176 314 125 260
f 199 201 438 423
f 125 314 368 402
f 126 201 200 121
f 128 160 159 127
f 130 131 132 129
f 130 362 363 131
f 137 129 132 136
f 132 131 382 161
f 139 138 133 140
f 363 362 133 138
f 136 134 135 137
f 160 128 135 134
f 135 128 358 86
f 136 132 161 164
f 136 164 180 134
f 166 430 138 139
f 168 139 140 421
f 141 142 143 152
f 327 429 141 326
f 142 297 148 143
f 142 360 335 297
f 429 360 142 141
f 397 171 144 414
f 145 146 147 301
f 395 396 145 404
f 146 145 396 303
f 169 143 148 170
f 437 341 149 206
f 149 341 299 150
f 151 149 150 350
f 151 172 206 149
f 169 153 152 143
f 326 141 152 154
f 154 152 153 184
f 153 330 287 184
f 153 169 295 330
f 154 167 168 326
f 156 157 155 382
f 155 162 161 382
f 190 157 156 430
f 192 195 157 190
f 332 155 157 195
f 158 159 160 181
f 178 179 158 181
f 158 395 404 159
f 158 179 425 395
f 159 404 405 127
f 160 134 180 181
f 161 162 163 164
f 162 155 332 373
f 180 164 163 182
f 373 372 163 162
f 165 166 167 183
f 166 139 168 167
f 166 165 190 430
f 167 154 184 183
f 327 326 168 421
f 295 169 170 196
f 196 170 171 397
f 173 174 172 151
f 172 174 286 205
f 173 151 350 400
f 303 302 174 173
f 176 177 175 386
f 175 398 279 278
f 175 177 365 398
f 260 437 177 176
f 263 365 177 259
f 178 189 188 179
f 181 180 182 178
f 182 345 189 178
f 182 163 372 345
f 183 289 191 165
f 184 287 289 183
f 186 187 185 306
f 307 306 185 381
f 185 403 425 381
f 283 286 187 186
f 187 302 403 185
f 378 379 188 189
f 425 179 188 381
f 344 378 189 345
f 191 192 190 165
f 193 192 191 432
f 191 289 288 432
f 194 195 192 193
f 331 332 195 194
f 197 198 196 397
f 380 295 196 198
f 200 201 199 375
f 199 250 203 375
f 393 250 199 423
f 202 394 200 375
f 203 204 202 375
f 202 204 410 414
f 206 172 205 261
f 283 282 205 286
f 205 282 348 261
f 208 209 207 312
f 207 356 387 312
f 210 209 208 325
f 266 285 211 214
f 213 212 214 211
f 217 218 214 212
f 293 292 215 76
f 401 216 215 292
f 217 215 216 218
f 371 270 216 401
f 218 265 266 214
f 218 216 270 265
f 221 219 220 322
f 220 223 222 294
f 433 223 220 219
f 364 346 221 322
f 222 223 349 354
f 371 401 222 354
f 309 253 224 225
f 227 228 226 229
f 251 252 228 308
f 228 227 256 308
f 230 13 231 412
f 233 412 231 337
f 234 232 233 337
f 233 232 235 412
f 351 267 235 8
f 416 8 235 232
f 318 241 237 31
f 434 236 237 340
f 239 240 238 242
f 238 240 353 258
f 239 246 247 240
f 296 246 239 361
f 359 361 239 242
f 240 247 257 353
f 242 238 241 318
f 241 238 258 339
f 241 339 340 237
f 369 359 242 318
f 243 245 334 385
f 245 243 244 271
f 247 246 245 271
f 246 296 334 245
f 247 271 272 257
f 269 244 248 284
f 284 248 249 2
f 251 308 321 5
f 253 254 255 224
f 424 435 253 309
f 435 366 254 253
f 255 254 433 219
f 256 333 321 308
f 257 371 354 353
f 261 367 259 206
f 263 264 262 365
f 262 399 398 365
f 264 263 304 428
f 265 270 272 269
f 266 265 269 284
f 267 351 333 268
f 267 230 412 235
f 269 272 271 244
f 371 257 272 270
f 273 274 275 276
f 273 276 390 392
f 277 276 275 386
f 368 314 275 274
f 390 276 277 413
f 386 175 278 277
f 413 277 278 280
f 280 278 279 281
f 316 280 281 418
f 285 266 284 2
f 302 187 286 174
f 288 289 287 377
f 376 377 287 330
f 294 292 293 24
f 294 222 401 292
f 327 334 296 429
f 296 361 360 429
f 299 124 300 150
f 300 110 350 150
f 404 145 301 405
f 302 303 396 403
f 400 146 303 173
f 310 311 336 406
f 323 324 311 80
f 312 411 316 208
f 312 387 407 411
f 386 275 314 176
f 398 399 315 279
f 325 208 316 418
f 316 411 413 280
f 319 422 320 417
f 319 427 426 422
f 351 7 321 333
f 323 122 352 324
f 327 421 385 334
f 380 376 330 295
f 331 374 373 332
f 335 359 369 113
f 338 84 337 231
f 339 258 349 342
f 340 339 342 366
f 343 344 345 372
f 347 111 346 364
f 367 261 348 436
f 353 354 349 258
f 433 342 349 223
f 356 357 355 387
f 360 361 359 335
f 382 131 363 156
f 363 138 430 156
f 366 342 433 254
f 434 340 366 435
f 383 97 370 291
f 372 373 374 343
f 381 188 379 307
f 389 63 388 85
f 391 392 390 407
f 390 413 411 407
f 414 144 394 202
f 403 396 395 425
f 397 414 410 197
f 408 409 406 336
f 416 52 420 419
f 419 44 417 9
f 434 435 424 426
f 434 426 427 236
f 437 206 259 177
f 438 260 125 423
