v 34.9788 87.3423 -9.34347
v 40.1594 76.9815 -16.0469
v 35.364 83.7055 -17.8554
v 39.1421 83.8176 2.06375
v 39.578 80.3496 -7.1269
v 34.7867 91.1293 -0.558583
v -23.5829 71.3613 -24.4305
v -17.2541 77.4079 -34.8484
v -23.0243 68.6377 -34.7851
v -18.8955 85.1759 -15.6555
v -18.1849 80.738 -26.0342
v -12.2697 61.008 -118.908
v 6.17547 64.1371 -124.523
v -4.33344 61.8998 -129.187
v -2.41667 63.4402 -114.343
v -9.79643 62.323 -103.611
v -0.825618 64.3976 -99.3203
v 6.86689 64.538 -109.513
v -7.31665 63.9992 -88.5535
v 15.8854 64.4009 -119.101
v 7.53978 65.7381 -94.9403
v 15.33 64.7605 -104.392
v 15.4413 66.3113 -90.4256
v 22.9037 64.1544 -98.8006
v 31.1975 61.4007 -106.349
v 24.2588 63.3031 -113.043
v 29.6033 63.1021 -92.6083
v 35.5486 62.0715 -85.7033
v 37.0556 59.396 -98.9196
v 33.9428 60.1229 -121.121
v 40.0017 57.4985 -113.312
v 44.446 54.3482 -104.479
v -19.1803 59.0665 -107.754
v -27.0351 50.8519 -111.647
v -20.2311 52.5333 -123.096
v -25.0035 57.0268 -95.9483
v 0.876873 66.4155 -84.7744
v -4.29427 67.5623 -74.2083
v 9.23027 68.2456 -81.1838
v 4.59028 71.0348 -71.3644
v -15.9806 60.9923 -92.347
v -20.9952 59.7422 -80.7076
v -12.6917 63.8211 -77.2444
v 22.8146 66.1657 -85.5239
v 29.5022 65.5662 -80.0261
v 24.8524 68.5442 -73.1836
v 35.1092 65.0304 -73.5456
v 22.0814 72.5008 -66.1106
v 29.8501 71.633 -61.5373
v -29.8728 55.1187 -83.8124
v -24.7649 59.0042 -69.1218
v -27.4243 58.9266 -57.7909
v -16.6015 64.216 -66.4133
v -33.4906 53.614 -71.6252
v 28.8524 86.9944 98.9157
v 30.7655 79.1059 99.819
v 32.1427 84.7915 88.1478
v 33.4461 92.3594 64.5528
v 36.4642 84.3492 65.6083
v 34.192 96.2442 53.588
v 17.8257 103.187 115.483
v 19.2412 94.1276 118.233
v 22.8247 98.1436 106.756
v 10.065 107.657 122.743
v 11.4803 97.5827 126.698
v 32.1088 105.057 38.2159
v 31.3991 103.466 47.4639
v 36.3261 95.0829 42.2985
v 37.2243 93.0262 31.9143
v 38.0711 90.1632 21.5497
v 34.1082 100.969 27.811
v 29.1458 110.548 31.0416
v 35.9173 80.3915 -25.8873
v 36.366 77.3466 -34.0464
v 29.6861 81.9984 -36.0082
v 29.1805 89.2497 -20.4989
v 29.434 85.8597 -27.6704
v 40.9639 73.7941 -24.7116
v 41.7569 70.9835 -33.1744
v 36.6439 74.5494 -42.1307
v 35.4018 71.1368 -55.0967
v 35.3121 68.2628 -63.0208
v -8.22488 88.6606 133.234
v -10.1716 98.9581 128.996
v -18.3191 95.9972 124.026
v -17.0144 86.5733 129.105
v -24.1504 91.9546 117.939
v -32.5576 83.2372 103.467
v -28.6946 87.852 110.833
v -31.9591 88.6081 96.2927
v -35.9196 77.6533 96.0725
v -38.3255 80.662 56.3771
v -38.8436 79.9144 66.0708
v -30.3756 92.9706 71.3049
v -29.5079 100.767 58.6462
v -28.5311 98.8074 32.3911
v -27.1054 91.0186 21.2391
v -23.8374 107.88 24.6276
v -22.3687 101.294 15.4558
v -21.123 95.7196 6.20764
v -25.8367 85.0471 9.20676
v -24.9186 79.7431 -2.40693
v -15.7454 74.1529 -44.8373
v -21.9383 66.5322 -45.188
v -18.7323 114.918 16.1623
v -17.0452 111.635 9.74396
v -14.3879 100.701 -8.22265
v -15.9198 107.407 3.09476
v -13.4226 94.8008 -19.078
v -19.7989 90.2564 -4.86759
v -11.9316 86.3376 -35.1147
v -10.6547 80.7605 -45.6212
v 22.5231 84.7109 -37.8217
v 22.3921 90.8437 -28.2943
v 22.331 93.1354 -24.6088
v 28.8771 93.3157 -11.9664
v 22.1867 98.4561 -15.0106
v 28.7054 97.5143 -3.24735
v 22.0079 103.332 -6.16851
v 24.7301 112.249 41.896
v 25.9378 107.419 49.8917
v 31.6109 90.6031 75.6519
v 34.6818 83.961 76.8487
v 29.1557 90.9266 86.5541
v 25.9258 95.8368 84.5582
v 27.3355 95.9268 74.5934
v 26.2161 93.7162 97.037
v 23.5767 99.054 94.1541
v 24.7316 90.1935 108.856
v 20.6048 104.584 102.679
v 16.0846 110.827 109.756
v 8.59887 115.989 115.114
v -19.0057 104.137 117.46
v -24.2997 98.7775 110.942
v -28.3886 93.4528 103.75
v -26.3082 96.2984 96.8181
v -35.7448 82.992 89.2285
v -30.3229 89.8681 80.996
v 39.6566 69.4455 15.9014
v 41.0591 66.8668 6.02276
v 40.2457 78.4341 13.976
v 39.2179 57.9504 7.16872
v 40.7907 55.7252 -2.54289
v 42.4177 64.1596 -3.67831
v 42.1276 72.5444 -5.17626
v 42.9678 69.4861 -14.5229
v 39.047 45.4998 -11.6201
v 42.3578 53.4752 -12.5343
v 41.4518 43.4601 -23.0185
v -36.3021 52.7403 -24.1245
v -35.8128 55.0419 -12.3283
v -29.6858 65.0006 -12.5696
v -36.7146 51.7831 -36.0361
v -29.5126 61.9238 -23.9939
v -30.0114 69.147 -0.866845
v -24.2045 75.1204 -13.6036
v -35.5275 58.6029 -0.402867
v 41.9147 57.8033 -90.7642
v 47.5375 51.8745 -94.8491
v 50.0144 50.4764 -84.7302
v 50.9323 42.3719 -86.073
v 49.229 43.5344 -97.1133
v 46.5294 45.3733 -107.786
v 38.9942 50.5564 -125.766
v -26.9228 36.1871 -112.622
v -33.5261 34.4104 -101.018
v -32.2326 48.3692 -99.2176
v -37.0896 46.3128 -86.558
v 4.10057 59.8124 -136.685
v -11.9173 52.9461 -132.495
v 25.854 62.1156 -128.151
v 15.6922 62.3866 -133.333
v 12.9615 55.4647 -140.073
v 31.9633 53.2176 -133.759
v 22.3864 54.6909 -138.645
v 43.8115 61.0903 -69.5579
v 38.9972 65.1563 -66.0379
v 41.2426 65.8708 -58.072
v 40.2204 61.4133 -77.8618
v 45.6962 56.8146 -81.9772
v 48.4165 56.0265 -72.8475
v -36.6627 51.8159 -47.983
v -29.0201 59.2267 -46.5288
v -35.707 52.5562 -59.7866
v -42.8078 43.7438 -61.8166
v -43.6263 42.9701 -49.787
v -40.7511 44.7464 -73.6173
v 33.757 77.2043 89.0419
v 31.5444 70.5539 100.842
v 33.9112 68.9603 90.1718
v 35.743 76.1395 78.0644
v 35.1594 67.8836 79.5225
v 36.9001 75.6885 67.0846
v 2.84896 88.9022 133.618
v 13.2317 87.1904 128.002
v 20.7697 84.5694 119.515
v 26.5021 81.6562 110.002
v 27.6374 72.5599 110.747
v 37.4854 84.9546 54.8696
v 37.2386 75.3383 56.3515
v 37.1545 74.6804 45.9267
v 38.2585 83.222 33.993
v 37.7708 84.5908 44.2646
v 37.4824 73.4666 35.8593
v 35.7889 65.0901 47.2722
v 35.8214 63.7633 37.4026
v 39.1834 80.9893 23.9053
v 38.3721 71.6552 25.8725
v 36.5008 62.0603 27.3678
v 44.9839 58.9274 -23.4664
v 46.6531 56.8469 -33.586
v 44.0228 66.597 -23.8533
v 45.2584 64.0948 -33.308
v 43.6502 61.4589 -13.4461
v 42.2138 68.8603 -41.7044
v 46.2694 49.5747 -33.9592
v 48.3222 48.5985 -44.3608
v 48.2531 55.8303 -43.4579
v 50.1014 48.068 -54.5955
v 49.528 54.9962 -53.4598
v 51.3479 48.3717 -64.5877
v 49.7349 55.2868 -63.2435
v 46.1224 60.8169 -60.9789
v 46.6912 61.2736 -52.0117
v 36.673 72.1826 -49.3485
v 42.3562 66.7865 -50.3711
v 46.564 40.8737 -44.854
v 48.4676 40.4884 -54.9952
v 50.1067 40.7493 -65.0565
v -23.5435 83.4235 123.086
v -21.8605 74.2236 126.646
v -14.8787 76.4825 131.994
v -19.8315 64.5182 128.228
v -12.482 66.3712 133.002
v -31.9945 76.8276 109.215
v -28.2883 80.2633 116.254
v -30.9863 68.9892 113.438
v -25.476 62.3943 122.323
v -27.0982 71.6759 120.229
v -35.0047 72.9491 102.047
v -33.7928 66.4035 107.125
v -39.0045 73.476 82.4627
v -39.1362 62.391 77.9056
v -38.4983 60.4918 85.5122
v -38.2346 69.7537 89.7239
v -36.7852 66.284 96.9379
v -39.6894 65.7659 61.9792
v -39.5763 64.3566 69.9805
v -39.0656 77.592 74.4937
v -37.5878 74.5181 45.6208
v -39.5329 65.0606 56.2461
v -30.4783 74.187 11.2319
v -35.4094 67.6383 23.3874
v -36.4655 70.047 34.0734
v -29.4656 60.0964 -35.2839
v -42.743 43.1505 -24.8386
v -43.4849 42.7125 -37.359
v -37.6767 68.5312 40.2125
v -39.1856 58.9219 33.9236
v -39.5662 55.451 23.2888
v -39.8061 46.3525 37.5958
v -40.2561 42.6181 23.4263
v -35.3513 62.9538 11.7317
v -40.2489 51.7749 12.4347
v -39.0978 49.9883 61.6062
v -39.2696 63.5025 47.3642
v -39.1974 48.4729 48.256
v -38.5383 50.2663 77.3661
v -38.5397 50.3493 69.9732
v -38.3932 50.0354 91.7021
v -38.7715 50.1176 84.5878
v -33.718 58.1902 108.495
v -36.8094 50.0819 100.042
v -33.7637 50.5286 108.887
v -36.4648 57.3376 99.8032
v -35.7541 63.346 101.31
v -37.6097 58.6632 93.006
v -23.6246 52.9598 122.948
v -29.9872 60.2317 115.784
v -29.057 51.4867 116.421
v -17.8448 54.8282 128.824
v 34.052 50.9664 17.9284
v 32.8674 52.7902 28.6198
v 28.6436 42.4313 17.9652
v 27.3883 44.1589 29.8318
v 32.6824 54.4804 39.1001
v 27.8272 46.1745 42.3255
v 29.4993 46.9383 47.9825
v 33.4365 55.8153 48.1838
v 32.124 48.86 59.93
v 34.5745 57.1912 58.8684
v 34.2767 58.4994 70.0198
v 33.0277 50.1859 71.6106
v 36.064 66.1444 57.763
v 35.7167 67.0432 68.5859
v 23.3148 64.4886 119.726
v 15.955 65.9732 127.968
v 15.7637 55.5425 127.365
v 6.73594 67.1629 133.646
v 6.64674 56.6214 132.532
v 22.2399 74.696 120.053
v 14.8893 76.6214 128.481
v 5.0032 77.9404 134.63
v 32.7277 51.0402 84.3516
v 34.206 59.4277 81.266
v 33.801 60.2558 91.1217
v 33.2184 51.1288 90.7274
v 31.6896 61.5176 102.034
v 31.9383 52.2446 104.786
v -39.4765 32.7391 -88.2761
v -44.833 31.8986 -73.5082
v 47.162 34.4736 -85.9152
v 51.1324 41.4768 -75.0115
v 47.2619 33.45 -72.8597
v 46.0314 35.4635 -97.5533
v 13.8116 45.0584 -140.331
v 22.5356 44.9205 -138.951
v 5.29136 50.7279 -141.068
v 5.95524 44.3063 -139.402
v -10.9733 40.4431 -130.928
v -2.5392 52.407 -138.565
v -2.50343 42.7116 -136.338
v 38.0672 39.7937 -125.318
v 40.5456 38.3688 -120.599
v 42.9846 47.9479 -117.69
v 44.0187 36.5165 -108.894
v -40.9803 47.7887 -0.383115
v -40.815 39.6797 15.0476
v -44.2769 35.9676 -1.57245
v -41.8734 44.5831 -12.4109
v 34.1919 37.9542 -9.36846
v 37.2669 47.2534 -2.07112
v 35.684 49.0528 7.28
v 37.7004 60.1149 17.2312
v 0.584362 99.8456 130.844
v -1.11726 110.035 125.729
v -11.5736 108.336 122.985
v -5.88357 77.9659 135.392
v -3.30134 67.4778 135.436
v -2.47849 56.838 134.085
v -10.7854 56.1883 132.607
v 13.4782 72.7422 -68.816
v 17.2426 68.8373 -77.3878
v 22.7248 79.7365 -47.9195
v 29.7017 78.3283 -44.6513
v 29.0374 75.2528 -53.2441
v -10.0119 71.8111 -64.5627
v 1.22631 75.4485 -61.4406
v -13.4996 71.8254 -54.8251
v -19.7844 65.1082 -55.7969
v -8.37892 76.1955 -55.4916
v -5.47673 73.5625 -62.7523
v 11.7398 77.4396 -59.6854
v 21.6794 77.1553 -58.9289
v 23.3814 116.239 32.1376
v 27.6749 98.4614 65.6824
v 27.0273 102.639 57.4583
v -1.77248 118.676 117.7
v -11.7003 116.28 115.546
v -18.1121 110.853 109.958
v -22.4526 103.706 104.219
v -29.1289 91.6383 88.0797
v 29.2661 83.1295 -11.1115
v 25.4841 90.6595 -17.0885
v 25.6725 95.5989 -8.21648
v 28.3428 87.4923 -2.26278
v 24.9916 100.504 0.870752
v 27.2967 91.3376 6.69686
v 17.1782 100.994 -12.9749
v 17.2465 96.2543 -21.6867
v 16.3541 105.975 -4.19278
v -20.8188 85.5769 0.817856
v -20.4124 90.0657 9.69332
v -16.5638 99.4853 4.11296
v -16.137 95.1316 -3.96171
v -20.2262 81.329 -8.49174
v -15.6509 90.8387 -12.5656
v -6.57271 97.9909 -14.9043
v -6.75619 102.542 -6.99065
v -6.57187 104.79 -0.109893
v 11.2186 130.587 42.5736
v 11.824 126.173 33.086
v 1.3431 128.19 30.5765
v 1.88197 132.174 38.9999
v 1.527 123.298 21.9241
v 12.6029 121.874 23.728
v -10.0144 125.784 31.8797
v -16.2044 125.458 43.4354
v -8.63925 131.404 39.1488
v -10.3851 120.606 23.68
v 13.6337 116.76 14.4679
v 2.33217 117.886 12.8539
v -9.88656 115.617 15.102
v 4.39186 107.355 -7.47782
v 3.96157 111.859 2.81854
v 15.0299 111.259 5.18887
v -12.0641 108.854 8.33145
v 5.0523 101.106 -14.6217
v 16.8033 86.1016 -39.0597
v 6.04895 86.6951 -40.9355
v 5.72569 91.562 -32.0194
v 16.9369 91.2402 -30.3493
v -5.1794 88.9577 -32.337
v -5.9613 93.5469 -23.5
v 5.42812 96.2942 -23.1911
v -4.47996 84.1804 -41.2106
v 16.9189 81.1753 -48.1197
v 6.40449 81.6832 -49.8857
v -3.81105 79.3028 -50.0304
v 16.9506 76.1344 -57.546
v 6.57617 76.7086 -58.9964
v 6.57427 71.0978 -68.1417
v 16.4668 70.8688 -67.3816
v -3.624 74.6671 -58.8436
v -3.1007 68.4438 -67.0369
v -18.8581 113.307 29.1179
v -18.5521 118.795 36.8247
v -21.7622 103.663 36.4228
v -21.7371 113.363 38.4655
v -18.0404 116.243 39.6694
v -18.3141 108.299 20.7477
v -20.7874 98.303 27.8732
v -17.4092 103.703 12.299
v -20.5573 94.4088 18.6048
v -14.5876 86.3449 -21.353
v -19.4497 76.9481 -18.0181
v -14.0334 82.2555 -30.6708
v -12.182 73.5476 -48.8621
v -13.4611 78.3361 -40.0389
v -17.9101 68.5338 -37.8687
v -18.2273 72.2805 -27.573
v -9.6451 70.8833 -56.7414
v -12.4958 63.7807 -62.0486
v -17.3585 65.0219 -48.7662
v 25.1102 66.7049 -65.175
v 25.7673 72.2212 -53.9792
v 25.6138 76.7373 -44.1054
v 31.4052 69.937 -38.7666
v 32.208 66.1902 -48.4056
v 25.5122 81.2549 -34.8127
v 25.3649 85.8165 -25.7957
v 30.944 73.7561 -29.167
v 30.333 78.0851 -19.8755
v 23.4574 105.461 10.0264
v 25.7368 95.9682 15.5149
v 20.2548 115.062 28.0901
v 21.4178 110.189 19.0964
v 21.7955 105.116 33.133
v 23.5255 100.424 24.3745
v 19.6486 119.8 37.2448
v 20.5252 122.921 45.4917
v 23.9037 114.16 39.6658
v 28.7505 68.8521 -56.4071
v 26.1615 90.6656 -14.1001
v 26.0107 85.5567 -22.757
v 20.5596 97.7811 -16.5175
v 20.6369 92.51 -25.2031
v 25.9581 95.463 -5.67054
v 25.0517 99.6049 2.5046
v 21.3241 104.17 -0.855776
v 19.6509 101.207 -10.5883
v -16.3186 89.2788 -12.2332
v -16.908 93.722 -2.87307
v -15.1579 84.6063 -21.4027
v -8.48017 91.3603 -24.3922
v -9.46516 95.9987 -15.3137
v -10.3769 100.55 -6.00152
v 12.6926 125.425 33.1132
v 3.1625 127.456 30.0393
v 4.70972 122.243 20.9601
v 14.5084 120.686 23.813
v -14.2935 115.822 21.7618
v -5.43007 120.59 20.2965
v -6.93698 125.864 29.8126
v -15.3432 120.754 32.0288
v 16.35 115.447 14.8984
v 6.23891 116.847 11.8202
v -12.8461 110.69 12.2668
v -3.88975 115.2 10.9626
v 17.9578 110.36 6.19876
v 7.5564 111.363 2.65062
v -1.09802 105.36 -7.14313
v -2.46006 109.594 1.71013
v -11.3992 105.466 3.13416
v 0.576338 99.2274 -16.1606
v 1.33962 94.2805 -25.3613
v 9.37619 107.205 -8.04065
v 11.3675 94.7708 -25.4287
v 10.9686 100.128 -15.8351
v 3.21034 84.8507 -43.1295
v 12.7301 84.5983 -43.0406
v 11.8392 89.6616 -34.4438
v 2.13981 89.597 -34.3628
v 20.5429 87.033 -33.8462
v -7.52547 86.8335 -33.4278
v -6.26437 82.3268 -42.3172
v 13.9234 79.833 -51.4282
v 4.4251 80.188 -51.6618
v -4.94365 77.9398 -51.0607
v 5.58168 75.7565 -59.9812
v 15.1923 75.1625 -59.5401
v -3.98315 73.7739 -59.5465
v -19.1976 107.738 24.6954
v -19.7554 112.545 34.6712
v -18.2343 103.067 15.3097
v -17.4589 98.403 6.20215
v -14.7858 80.6477 -30.9061
v -14.0998 76.7328 -40.4245
v -12.2278 72.387 -49.3841
v -9.88268 70.3006 -57.2039
v 23.0602 72.116 -58.3683
v 22.0357 77.0066 -50.5789
v 25.6521 69.7824 -54.3705
v 27.4376 71.784 -49.3203
v 21.0469 81.803 -42.2818
v 26.6613 76.1372 -40.5186
v 26.3321 80.8275 -31.6649
v 23.4239 103.971 11.0931
v 21.4362 108.615 19.6445
v 20.1576 113.839 28.3143
v 19.4739 119.149 37.3203
v 41.2764 75.5869 4.29699
v 31.4614 68.3479 -67.8722
v 38.7151 87.1537 11.589
v 34.5394 98.1025 17.9481
v -12.438 88.9933 -30.2631
v 28.9946 105.571 14.1401
v 29.4538 108.405 22.7788
v 46.1343 62.6722 -42.6668
v -49.1947 32.7083 -38.1875
v -48.2281 32.5757 -25.2114
v 44.1526 51.3317 -23.1297
v -47.3002 32.7178 -12.6644
v 44.2705 41.7921 -34.6288
v 31.0395 40.4566 5.29952
v 32.6085 39.2935 -1.87046
v 45.2555 32.9965 -55.2426
v -31.5111 79.4159 23.7071
v 41.3549 33.9269 -36.9386
v 43.4308 33.3312 -45.54
v -47.3713 32.3839 -63.1762
v -49.0681 32.8364 -51.0808
v 46.5076 33.0565 -64.8122
v 37.524 35.6157 -23.002
v 22.048 113.091 11.106
v 22.4844 115.92 21.0589
v -39.1907 61.0664 40.908
v 28.1595 63.0066 111.236
v 28.7266 101.708 5.46622
v 21.9536 108.294 2.41807
v 27.6766 53.2116 111.689
v -39.1747 47.6554 43.343
v 34.6803 94.7898 8.53634
v -27.318 110.642 45.4429
v -21.9311 118.048 26.3596
v -39.3078 50.267 59.315
v 23.832 53.9943 117.996
v -19.3352 38.1019 -122.949
v 51.4254 49.2232 -74.4308
v -24.4876 116.897 34.9639
v 31.4041 42.7716 -134.407
v -34.091 85.1252 38.6987
f 2 3 1 5
f 76 116 1 3
f 145 146 2 5
f 3 2 78 73
f 145 5 4 522
f 553 524 4 6
f 6 4 5 1
f 116 118 6 1
f 8 9 7 11
f 10 11 7 156
f 8 103 104 9
f 9 255 154 7
f 107 109 10 110
f 526 11 10 109
f 111 8 11 526
f 13 14 12 15
f 16 15 12 33
f 12 35 34 33
f 13 172 169 14
f 13 20 171 172
f 35 12 14 170
f 15 18 20 13
f 16 17 18 15
f 19 17 16 41
f 16 33 36 41
f 37 21 17 19
f 21 22 18 17
f 19 41 42 43
f 22 26 20 18
f 30 171 20 26
f 22 21 23 24
f 22 24 25 26
f 27 24 23 44
f 23 21 37 39
f 25 24 27 29
f 30 26 25 31
f 32 31 25 29
f 27 44 45 28
f 29 27 28 158
f 28 45 47 179
f 28 179 180 158
f 164 30 31 325
f 158 159 32 29
f 32 159 162 163
f 325 31 32 163
f 36 33 34 167
f 34 165 166 167
f 35 558 165 34
f 37 19 43 38
f 39 37 38 40
f 53 347 38 43
f 44 23 39 343
f 342 343 39 40
f 40 38 347 348
f 40 348 353 342
f 50 42 41 36
f 51 53 43 42
f 343 46 45 44
f 47 45 46 523
f 46 48 49 523
f 342 48 46 343
f 82 177 47 523
f 47 177 176 179
f 48 354 346 49
f 49 81 82 523
f 51 42 50 54
f 167 168 50 36
f 187 54 50 168
f 53 51 52 350
f 52 51 54 184
f 52 183 104 350
f 124 127 55 57
f 57 55 56 188
f 56 55 129 197
f 198 189 56 197
f 57 123 122 124
f 58 122 123 59
f 58 356 126 122
f 60 58 59 199
f 59 123 191 193
f 66 67 60 68
f 121 357 60 67
f 60 357 356 58
f 61 64 65 62
f 61 63 130 131
f 61 131 132 64
f 63 61 62 129
f 62 65 195 196
f 62 196 197 129
f 128 130 63 127
f 335 65 64 336
f 64 132 358 336
f 194 195 65 335
f 69 71 66 68
f 120 121 67 66
f 68 60 199 203
f 202 69 68 203
f 71 69 70 525
f 70 207 141 524
f 202 207 70 69
f 72 66 71 528
f 527 528 71 525
f 72 355 120 66
f 72 528 546 355
f 73 74 75 77
f 76 3 73 77
f 73 78 79 74
f 75 74 80 345
f 114 115 76 77
f 117 116 76 115
f 113 114 77 75
f 146 212 78 2
f 80 74 79 215
f 212 213 79 78
f 346 345 80 225
f 81 225 226 178
f 346 225 81 49
f 178 177 82 81
f 83 84 85 86
f 83 86 232 338
f 84 83 194 335
f 84 335 336 337
f 85 84 337 133
f 86 85 87 230
f 133 134 87 85
f 87 89 236 230
f 88 91 240 235
f 90 88 89 135
f 134 135 89 87
f 235 236 89 88
f 91 88 90 137
f 90 135 136 362
f 138 137 90 362
f 91 137 242 245
f 91 245 246 240
f 92 93 94 95
f 562 96 97 538
f 253 254 562 538
f 562 254 258 250
f 138 94 93 249
f 93 92 251 247
f 96 562 95 554
f 560 98 96 554
f 97 96 98 99
f 100 101 97 99
f 97 101 252 538
f 555 105 98 560
f 105 106 99 98
f 108 100 99 106
f 102 101 100 110
f 100 108 107 110
f 102 155 252 101
f 111 112 103 8
f 104 183 255 9
f 349 350 104 103
f 156 102 110 10
f 112 351 349 103
f 113 75 345 344
f 119 118 116 117
f 118 549 553 6
f 549 118 119 550
f 125 124 122 126
f 123 57 188 191
f 125 128 127 124
f 127 63 129 55
f 133 360 361 134
f 134 361 136 135
f 242 137 138 249
f 142 140 139 334
f 207 208 139 141
f 141 139 140 522
f 140 142 143 144
f 145 522 140 144
f 147 148 143 332
f 143 142 333 332
f 146 145 144 214
f 144 143 148 214
f 146 214 210 212
f 536 331 147 332
f 148 147 149 532
f 210 214 148 532
f 216 532 149 534
f 149 147 331 544
f 150 151 152 154
f 150 256 330 151
f 151 157 155 152
f 153 150 154 255
f 183 182 153 255
f 153 182 186 257
f 153 257 256 150
f 156 7 154 152
f 156 152 155 102
f 155 157 263 252
f 157 327 264 263
f 157 151 330 327
f 180 160 159 158
f 160 161 162 159
f 160 180 181 559
f 313 161 160 559
f 315 162 161 312
f 326 163 162 315
f 324 325 163 326
f 171 30 164 174
f 324 323 164 325
f 561 174 164 323
f 168 167 166 310
f 170 14 169 321
f 558 35 170 320
f 173 169 172 175
f 174 175 172 171
f 319 318 173 316
f 173 318 321 169
f 316 173 175 317
f 561 317 175 174
f 176 177 178 223
f 178 226 224 223
f 179 176 181 180
f 181 222 221 559
f 223 222 181 176
f 182 184 185 186
f 184 182 183 52
f 187 185 184 54
f 311 541 185 187
f 530 257 186 542
f 541 542 186 185
f 310 311 187 168
f 188 56 189 190
f 306 190 189 308
f 190 192 191 188
f 305 192 190 306
f 193 191 192 295
f 292 295 192 305
f 193 200 199 59
f 302 195 194 303
f 338 303 194 83
f 195 302 301 196
f 196 301 198 197
f 296 548 198 301
f 308 189 198 548
f 199 200 201 203
f 200 294 205 201
f 200 193 295 294
f 201 205 206 204
f 204 202 203 201
f 204 208 207 202
f 204 206 209 208
f 283 209 206 286
f 206 205 289 286
f 208 209 334 139
f 282 334 209 283
f 212 210 211 213
f 211 216 217 218
f 529 213 211 218
f 211 210 532 216
f 215 79 213 529
f 224 226 215 529
f 225 80 215 226
f 217 219 220 218
f 217 216 534 227
f 218 220 224 529
f 219 221 222 220
f 227 228 219 217
f 219 228 229 221
f 221 229 313 559
f 222 223 224 220
f 537 228 227 540
f 539 540 227 534
f 543 229 228 537
f 314 313 229 543
f 230 231 232 86
f 231 230 236 239
f 232 231 233 234
f 233 231 239 238
f 234 233 281 341
f 338 232 234 339
f 235 237 239 236
f 235 240 241 237
f 238 239 237 279
f 281 233 238 278
f 276 241 240 246
f 241 272 279 237
f 243 244 245 242
f 243 242 249 248
f 243 248 269 268
f 244 277 246 245
f 244 243 268 271
f 244 271 270 277
f 247 248 249 93
f 248 247 265 269
f 251 92 250 266
f 265 247 251 556
f 251 266 267 556
f 252 263 253 538
f 259 254 253 260
f 253 263 264 260
f 530 531 256 257
f 258 254 259 547
f 258 547 266 250
f 261 259 260 262
f 328 262 260 264
f 261 552 547 259
f 267 266 547 552
f 270 273 275 277
f 273 274 272 275
f 276 275 272 241
f 279 272 274 280
f 276 246 277 275
f 278 238 279 280
f 282 284 535 333
f 284 282 283 285
f 285 283 286 287
f 286 289 288 287
f 290 288 289 291
f 294 291 289 205
f 291 292 293 290
f 295 292 291 294
f 304 293 292 305
f 296 297 298 557
f 296 301 302 297
f 551 548 296 557
f 303 299 297 302
f 298 297 299 300
f 340 300 299 339
f 339 299 303 338
f 304 305 306 307
f 307 306 308 309
f 309 308 548 551
f 313 314 312 161
f 321 318 319 322
f 321 322 320 170
f 328 264 327 329
f 533 329 327 330
f 531 533 330 256
f 333 142 334 282
f 536 332 333 535
f 336 358 359 337
f 337 359 360 133
f 339 234 341 340
f 342 353 354 48
f 344 345 346 354
f 350 349 347 53
f 349 351 352 347
f 363 364 365 366
f 458 454 363 366
f 369 365 364 370
f 364 363 443 441
f 371 367 365 369
f 366 365 367 368
f 368 367 444 445
f 368 459 458 366
f 368 445 518 459
f 369 398 394 371
f 398 369 370 405
f 370 402 401 405
f 370 364 441 402
f 371 394 395 396
f 444 367 371 396
f 372 373 374 375
f 373 372 463 506
f 397 380 374 423
f 424 423 374 373
f 376 372 375 377
f 378 377 375 379
f 375 374 380 379
f 376 462 463 372
f 464 462 376 426
f 426 376 377 425
f 394 398 378 379
f 425 377 378 404
f 394 379 380 395
f 381 382 383 384
f 450 382 381 451
f 469 468 381 384
f 521 451 381 468
f 385 383 382 386
f 446 386 382 450
f 389 384 383 387
f 390 387 383 385
f 385 386 391 392
f 393 390 385 392
f 386 446 447 391
f 388 389 387 417
f 416 417 387 390
f 388 475 474 389
f 504 475 388 420
f 389 474 469 384
f 421 416 390 393
f 391 447 444 396
f 396 395 392 391
f 397 393 392 395
f 423 421 393 397
f 404 378 398 405
f 399 400 401 402
f 437 407 399 440
f 407 408 400 399
f 409 406 400 408
f 401 403 404 405
f 406 403 401 400
f 440 399 402 441
f 429 427 403 406
f 427 425 404 403
f 407 410 411 408
f 436 410 407 437
f 414 409 408 411
f 409 428 429 406
f 432 428 409 414
f 412 411 410 413
f 435 413 410 436
f 415 414 411 412
f 412 413 501 500
f 415 433 432 414
f 415 412 500 502
f 416 418 419 417
f 417 419 420 388
f 418 416 421 422
f 503 504 418 422
f 504 420 419 418
f 422 421 423 424
f 422 424 505 503
f 424 373 506 505
f 427 431 426 425
f 430 429 428 434
f 429 430 431 427
f 430 508 507 431
f 509 508 430 434
f 431 507 464 426
f 432 433 434 428
f 433 415 502 510
f 509 434 433 510
f 439 453 435 436
f 435 511 501 413
f 513 511 435 453
f 437 438 439 436
f 442 438 437 440
f 517 516 438 442
f 439 514 513 453
f 516 514 439 438
f 441 443 442 440
f 455 517 442 443
f 443 363 454 455
f 449 445 444 447
f 445 449 519 518
f 446 450 452 448
f 448 449 447 446
f 519 449 448 520
f 452 450 451 521
f 520 448 452 521
f 461 456 454 458
f 455 454 456 457
f 488 457 456 489
f 457 494 517 455
f 458 459 460 461
f 460 480 481 487
f 518 480 460 459
f 461 487 489 456
f 462 466 467 463
f 463 467 484 506
f 464 465 466 462
f 485 466 465 486
f 507 495 465 464
f 467 482 483 484
f 485 482 467 466
f 468 469 470 471
f 520 521 468 471
f 473 470 469 474
f 476 471 470 477
f 479 477 470 473
f 471 476 519 520
f 472 473 474 475
f 505 478 472 503
f 478 479 473 472
f 503 472 475 504
f 476 480 518 519
f 480 476 477 481
f 483 481 477 479
f 506 484 478 505
f 484 483 479 478
f 482 485 489 487
f 483 482 487 481
f 486 488 489 485
f 495 493 486 465
f 488 486 493 492
f 494 457 488 492
f 490 491 492 493
f 497 491 490 498
f 499 498 490 496
f 492 491 515 494
f 496 490 493 495
f 496 495 507 508
f 509 499 496 508
f 500 501 497 498
f 511 512 497 501
f 497 512 515 491
f 502 500 498 499
f 510 502 499 509
f 512 511 513 514
f 512 514 516 515
f 515 516 517 494
f 524 141 522 4
f 524 553 525 70
f 549 527 525 553
f 527 549 550 545
f 528 527 545 546
f 544 539 534 149
f 562 250 92 95
