v 36.548 90.5329 5.8875
v 35.9588 94.998 16.5622
v 39.4979 83.994 8.25426
v 32.3206 96.1126 3.04189
v 40.9355 75.9592 -13.0159
v 40.2539 79.7849 -2.45266
v 42.9103 69.2357 -11.4442
v -26.2141 63.485 -38.7832
v -18.559 72.6473 -40.1843
v -26.1641 61.0417 -51.1005
v -26.1824 71.302 -13.486
v -19.8138 83.0475 -15.6924
v -25.9786 66.8295 -26.0468
v -26.6487 76.3724 -1.51163
v 4.1244 64.3241 -110.271
v 11.8465 64.4958 -118.57
v -6.19358 62.7037 -115.071
v -12.4039 61.5147 -105.387
v 21.1008 63.5593 -126.355
v 11.0818 63.3038 -131.431
v 13.7895 64.7944 -105.192
v 21.1567 63.879 -112.996
v 22.5772 64.1385 -99.6983
v 29.4862 61.9566 -106.564
v 7.3149 65.463 -97.3032
v 30.1238 61.7337 -119.644
v 36.641 59.5944 -98.7427
v 37.7739 58.7662 -111.81
v 38.1708 53.8731 -125.723
v 43.4625 49.8291 -116.046
v 1.55351 63.6523 -123.848
v -16.7703 59.1517 -120.07
v -22.5725 57.1761 -109.309
v 2.14721 65.9789 -88.8952
v -1.68064 66.7032 -80.1787
v 7.92434 69.0291 -77.8895
v 16.4249 65.8715 -92.7008
v 30.2718 62.7308 -93.5976
v 11.5403 67.4077 -85.3497
v 24.8874 65.3766 -87.4571
v 32.7262 64.1975 -81.3138
v 37.1472 61.1927 -86.2743
v 28.5317 66.7457 -76.2733
v 39.8487 62.5021 -74.154
v 42.7302 57.4565 -89.742
v -7.44859 63.6201 -92.0529
v -2.30059 64.0329 -101.435
v -11.3349 63.5355 -82.2769
v -17.327 60.3649 -94.9921
v -14.0076 64.2557 -72.4965
v -23.7212 59.0651 -73.5
v 31.9654 84.8504 88.8731
v 33.3297 77.8617 90.822
v 34.5884 84.2968 76.6191
v 35.6604 76.6872 78.608
v 33.2982 93.4337 62.8353
v 36.3851 85.1414 64.6661
v 31.8175 90.736 74.451
v 34.0333 97.3704 51.7586
v 8.2973 88.4028 131.498
v 17.5603 86.1481 123.565
v 16.2584 96.0793 121.922
v 23.1393 91.6574 111.878
v 24.4464 83.1201 113.699
v 37.0486 93.8328 30.2232
v 34.5891 99.9271 27.4513
v 34.0675 101.154 39.5347
v 38.4821 88.4918 19.2673
v 31.8428 103.571 20.2712
v 32.1382 100.491 13.0011
v 46.8297 61.3065 -44.3176
v 43.6171 64.6636 -54.28
v 43.4271 66.7992 -44.2804
v 38.8587 69.0555 -53.5946
v 32.2227 73.3788 -54.1542
v 38.8131 71.7519 -44.811
v 31.5241 71.3547 -60.358
v 24.6908 75.8016 -56.9388
v 43.1776 59.6887 -77.7157
v 46.9506 58.8826 -66.5557
v 25.8736 69.1817 -70.4377
v 35.4253 65.7868 -70.4067
v 38.2775 66.7774 -62.1081
v -16.52 96.9916 125.367
v -17.0327 105.849 119.147
v -24.3502 99.0636 110.37
v -24.5314 92.2094 116.981
v -30.4773 85.9822 107.47
v -29.3987 79.2847 114.279
v -35.3054 78.175 98.0216
v -34.1192 72.4602 104.881
v -38.2843 66.9071 89.4018
v -34.4027 87.3167 43.2088
v -31.6741 91.5737 63.9897
v -29.6462 101.15 53.868
v -28.4721 88.5401 23.3293
v -29.4515 97.8595 34.7041
v -24.8186 106.76 26.8109
v -23.0187 99.8527 16.1688
v -21.5129 93.4256 4.82093
v -27.3168 82.0464 10.5685
v -20.5176 88.0792 -5.35554
v -14.2168 99.5303 -10.4063
v -16.9768 111.049 9.102
v -19.2687 77.6411 -27.8411
v -12.4295 88.6582 -30.8077
v 25.9102 78.0557 -49.1563
v 22.6584 82.2837 -42.5626
v 27.797 81.6308 -39.2791
v 32.5052 91.4818 -7.01217
v 32.7685 87.0828 -16.7914
v 27.3664 95.9134 -9.69053
v 27.2783 100.894 0.457449
v 27.4097 105.891 10.559
v 27.9798 109.832 20.4823
v 36.9293 86.2428 -4.47472
v 27.6343 100.093 61.3202
v 29.3925 90.5692 86.5158
v 26.173 93.476 98.372
v 28.2039 87.4525 100.786
v 29.6393 80.1319 102.765
v 26.8678 93.968 82.7704
v 21.9473 99.0504 108.864
v 15.7508 104.975 117.791
v -22.8574 104.641 104.378
v -30.0052 91.3101 100.164
v -35.3681 83.8077 89.4562
v -28.0965 109.582 45.3409
v -25.8577 116.711 37.3152
v -19.6283 116.037 18.9887
v 38.2285 58.5436 12.4422
v 39.9904 55.9451 1.22613
v 40.1774 67.4452 11.4438
v 41.7436 64.4155 0.522394
v 43.2389 61.44 -10.5247
v 41.9337 72.6468 -0.630288
v 44.7556 58.6283 -21.8507
v 44.1034 65.9742 -22.3675
v -42.399 44.5869 -38.0327
v -41.0236 46.0823 -22.8421
v -33.3912 56.4501 -24.5043
v -39.9229 48.8745 -9.24122
v -39.1961 52.7823 4.12387
v -32.819 59.9852 -11.3021
v -32.6787 64.6526 1.67151
v 43.6879 55.2451 -102.596
v 47.3597 46.3372 -104.828
v -21.4569 49.081 -122.08
v -27.9585 47.4366 -111.786
v -27.083 55.4418 -97.9329
v -32.9447 45.8656 -100.093
v -8.77816 60.3758 -129.211
v 1.45474 60.4697 -135.322
v 20.0114 57.3823 -137.961
v 10.2401 55.41 -140.269
v -5.26795 52.8547 -137.25
v 30.1965 56.8991 -133.38
v 47.6023 55.4544 -79.8008
v 47.8255 52.095 -92.4408
v 50.5645 40.5774 -70.6087
v 51.1308 41.7109 -81.8555
v 51.6338 47.8985 -70.0489
v 50.7685 49.5377 -81.64
v 50.1126 43.6602 -92.8158
v -30.8108 54.1095 -86.3823
v -21.1082 59.4558 -84.2898
v -37.3999 44.7002 -87.7921
v -40.5772 44.0447 -76.4089
v -33.49 53.3188 -74.9533
v -34.9707 52.9979 -63.2978
v 33.5971 69.601 92.1536
v 35.1486 68.2953 80.0267
v 36.9603 76.3306 66.656
v 33.5555 60.725 93.2929
v 34.2258 59.5635 80.9442
v 34.2958 58.6781 70.2092
v 35.7954 67.4634 68.3598
v 37.3987 86.4852 53.2578
v 37.3214 76.2032 55.0433
v 36.1377 66.5683 56.6913
v 18.9073 75.8923 124.238
v 30.5167 71.5175 103.962
v 25.6075 73.735 114.529
v 30.7153 62.2612 105.18
v 37.7528 86.846 42.2209
v 38.4215 83.606 31.6561
v 37.2695 75.4722 43.8913
v 37.7128 73.3127 33.099
v 35.8353 65.3488 45.327
v 35.9743 63.4715 34.5729
v 39.5008 79.8586 20.9928
v 38.7475 70.4718 22.308
v 40.7509 76.2551 10.1605
v 36.8362 61.1002 23.5958
v 48.5613 48.5003 -45.6297
v 50.5821 47.6184 -57.9928
v 49.9879 54.0224 -56.9586
v 47.6236 59.5922 -55.3514
v 43.7313 41.932 -32.5961
v 46.7033 40.7639 -45.6585
v 46.0916 49.478 -33.2539
v 50.1015 54.0451 -68.7227
v 49.0546 40.2496 -58.9891
v -23.3609 84.0727 123.188
v -14.8179 87.1829 130.529
v -21.4094 74.3833 127.141
v -12.2918 76.7039 133.341
v -27.7434 71.0965 119.157
v -34.1552 56.7523 107.391
v -31.0803 59.5287 113.95
v -35.6052 60.2783 102.245
v -32.3849 67.1421 110.623
v -38.7424 50.1615 89.7087
v -38.0952 50.0522 96.9124
v -36.9294 62.8967 96.3994
v -37.9377 73.4508 47.2464
v -32.8012 70.3315 14.8746
v -38.4723 57.451 17.7675
v -33.3529 77.599 28.8671
v -37.8537 63.9759 33.0391
v -35.1177 53.2671 -50.9578
v -25.3307 59.5486 -62.5603
v -39.7821 46.4303 38.2657
v -41.5048 42.0362 19.0025
v -39.0288 51.2442 66.0662
v -39.4599 48.6581 49.2857
v -38.3551 51.3003 74.8199
v -30.1076 51.3286 114.294
v -35.1064 50.3913 105.714
v -24.1269 52.8849 122.001
v -26.0733 62.053 121.52
v -17.2255 54.8348 128.707
v -19.3079 64.5134 128.66
v 43.4547 33.3211 -45.849
v 39.6125 34.6869 -30.5475
v 43.7984 51.2626 -21.5087
v 41.0366 43.5979 -21.4427
v 34.6422 49.8765 13.058
v 33.1665 52.0908 24.8178
v 29.5073 41.7051 13.1872
v 27.9184 43.6546 26.1962
v 32.7244 54.203 36.3399
v 28.2975 45.7638 39.992
v 29.2447 46.702 46.1584
v 33.3079 55.8467 46.3487
v 31.814 48.6755 59.6001
v 34.6045 57.3267 58.1187
v 29.7262 52.7498 107.761
v 32.5433 50.1989 73.4245
v 32.7971 50.5667 79.9294
v 33.0178 51.3934 94.1156
v 30.8153 43.0373 -135.779
v -19.6178 38.1765 -121.49
v -13.8109 50.692 -130.907
v -11.9402 40.1436 -129.212
v -42.8826 32.6405 -76.7614
v 44.9588 36.0904 -104.796
v 46.7181 34.8848 -90.4141
v 47.4645 34.0909 -81.6173
v 21.2206 45.1425 -139.635
v 2.47789 50.6678 -140.409
v 12.1218 44.8482 -140.987
v -4.22425 41.9744 -134.664
v 3.43477 43.9408 -138.539
v -33.127 34.4788 -100.487
v -26.6837 36.201 -111.871
v 38.2609 39.9064 -127.934
v 41.9731 37.5869 -117.187
v -46.265 34.0389 -19.508
v -47.7376 32.6669 -39.7275
v 38.4777 45.7348 -9.24118
v 33.8537 38.3254 -7.43825
v 36.5711 47.6954 1.27368
v 32.2961 39.5045 -0.525539
v 41.8174 53.5097 -9.90112
v 6.12015 109.583 124.291
v 6.59778 99.4142 129.294
v -6.53409 109.921 124.813
v -5.71759 99.763 130.323
v -5.6381 119.367 118.486
v -3.57002 88.876 134.063
v 10.1368 77.4341 132.14
v -1.01988 77.7227 135.818
v 11.0685 56.407 131.223
v 11.0895 66.79 131.54
v 1.22553 57.0317 134.316
v -10.2424 66.4178 133.891
v -8.66553 56.4571 133.225
v 0.438706 67.1358 135.259
v 5.92852 71.5084 -70.7864
v -4.18657 68.6109 -71.7143
v 20.3986 67.5471 -80.9396
v 17.2012 69.7546 -74.2935
v 15.9172 72.8616 -67.9424
v 4.83662 74.2712 -64.8847
v 16.0921 76.4668 -62.2114
v 17.8149 77.7413 -56.3803
v 24.791 72.6863 -64.0803
v -6.83399 72.1246 -64.4471
v -9.27943 75.3488 -56.6681
v 4.81271 75.4204 -62.1388
v 22.2044 96.7344 -18.9882
v 22.0972 99.4255 -13.8377
v 27.5574 91.6571 -18.5544
v 21.8039 111.554 8.52601
v 21.9595 118.406 19.8
v 22.4786 119.373 26.5454
v 29.9343 109.111 29.6888
v 28.3077 95.6083 71.1924
v 23.8845 97.4003 93.8745
v 20.7122 104.579 103.496
v 15.9231 112.262 111.645
v 7.02803 118.65 117.669
v -16.4569 113.827 112.883
v -27.4638 94.3991 94.4979
v -31.2969 88.2973 80.3163
v 29.4995 83.4273 -12.3034
v 23.6985 93.9716 -18.0033
v 23.3939 99.459 -8.18127
v 28.2651 88.9137 -2.13192
v 23.1508 104.688 1.75409
v 26.729 94.0881 7.9176
v -19.4372 84.985 -11.8227
v -19.7491 90.2412 -1.32716
v -12.6391 98.9586 -5.88397
v -11.9618 93.5098 -16.3677
v -19.5104 95.4452 9.00521
v -13.1865 104.953 4.44315
v 10.8884 126.483 32.727
v 10.5156 123.119 24.6443
v -2.48576 123.365 22.8639
v -1.4001 129.574 33.6347
v 10.5047 118.218 15.1768
v -2.62566 117.017 12.6397
v 10.4994 114.523 8.57717
v -0.763953 97.8026 -18.763
v -1.73519 103.733 -8.38694
v 12.2704 92.5877 -29.7557
v 0.140638 92.3053 -29.228
v 11.6543 98.2966 -19.6462
v 11.1677 103.942 -9.79073
v -11.1755 88.153 -26.8042
v 14.2877 80.7271 -50.2429
v 2.82675 80.9581 -50.4102
v 1.27351 86.7988 -39.7894
v 13.1567 86.6319 -39.8945
v -8.37332 77.9718 -48.6007
v -10.1927 83.1679 -37.5579
v 4.66246 74.8941 -61.3
v 15.4204 74.5445 -60.6579
v -6.00099 72.5679 -60.3882
v -12.9345 125.24 35.5602
v -17.2403 117.485 30.787
v -15.7974 119.235 27.7731
v -14.3885 117.995 24.6289
v -14.1214 111.382 14.5009
v -20.0369 101.055 19.0552
v -20.1809 106.958 28.7779
v -3.04455 111.278 1.80962
v -18.3794 79.376 -22.0807
v -17.6862 74.0179 -32.6839
v -16.6073 69.1346 -43.6501
v -13.2669 74.895 -52.1073
v 24.7882 76.9888 -54.6052
v 24.6434 76.2451 -47.8447
v 28.1803 75.3376 -43.3806
v 23.994 81.8892 -37.5273
v 23.5718 87.8226 -27.5973
v 30.3102 77.9701 -22.5879
v 31.2842 72.7869 -33.0767
v 22.1459 109.247 11.1495
v 15.1654 108.413 -0.187401
v 24.67 98.6884 17.9065
v 20.6456 113.254 20.9554
v 19.8376 117.306 30.8757
v 20.4509 112.463 30.9769
v 22.631 102.789 28.0604
v 18.6802 122.236 32.5375
v 11.4027 126.321 33.7841
v 24.9148 96.8178 -7.19267
v 25.0546 90.766 -17.2744
v 23.9213 103.036 3.04471
v 17.4867 101.799 -10.6977
v 17.7741 96.0953 -21.1505
v 16.8978 107.601 -0.128875
v -12.7892 93.4849 -14.1514
v -13.1607 98.6714 -4.54176
v -13.9276 103.551 4.52197
v 0.525981 126.465 28.0339
v -10.6218 123.507 29.5018
v 14.5944 113.789 10.1917
v 13.5538 119.835 21.1496
v 2.5544 121.061 18.7248
v -8.45723 119.143 20.0191
v 4.73606 114.94 8.47593
v -6.36013 113.639 10.0591
v -2.9781 93.7576 -24.4327
v -2.87706 99.2129 -14.7591
v -12.1768 87.9534 -23.9725
v 9.46785 111.434 -3.51712
v 8.13774 102.016 -12.7646
v 7.51564 96.163 -23.0481
v 16.915 90.3935 -31.1882
v 6.7995 90.6884 -33.1211
v -3.14194 88.365 -34.2016
v -12.0119 82.8888 -34.1003
v 15.8038 79.6917 -50.89
v 16.1659 84.8473 -41.0136
v 6.11746 85.2907 -42.8293
v 5.4839 80.0277 -52.1744
v -8.97242 74.3151 -48.8517
v -4.16804 77.4604 -52.5277
v -11.5608 77.647 -43.8404
v -3.46665 82.8102 -43.686
v -16.8341 114.097 24.6548
v -15.3323 108.806 14.2231
v -6.81293 102.909 -5.48217
v -3.98193 110.124 3.29741
v 25.0034 75.3472 -47.9797
v 24.9023 80.1796 -37.6195
v 24.8963 85.2731 -27.3793
v 22.0411 108.186 13.42
v 20.4327 112.395 24.0899
v 19.706 117.448 34.022
v 33.7663 78.6969 -36.7663
v 33.2553 82.7456 -26.8393
v 38.0679 78.0651 -24.8853
v 27.8531 86.5531 -28.8568
v 22.4458 89.3054 -30.4511
v -34.416 54.2931 -38.0369
v -43.0136 44.0989 -51.4147
v -42.433 43.997 -64.1984
v -15.0357 103.735 -3.16365
v 41.8215 72.3454 -23.5191
v 45.5762 63.201 -33.3162
v 48.537 55.1955 -45.0165
v 46.6112 56.3719 -33.2907
v -15.8773 65.8743 -62.8043
v -13.6033 95.549 -17.88
v -17.4467 68.5059 -52.4477
v -47.4604 32.6655 -52.0803
v 42.7316 63.1351 -64.1662
v 42.8788 69.1256 -33.9318
v 26.3435 106.275 52.3613
v 24.4006 115.245 43.0857
v 38.8439 74.4136 -34.9777
v 30.9075 68.6807 -67.0285
v 46.4214 32.8117 -61.7295
v -46.06 32.7525 -64.8184
v 47.3993 33.2188 -71.3131
v 37.3608 82.0547 -14.6851
v -39.2158 74.0109 79.7524
v 37.5038 35.7033 -22.8341
v -11.5099 81.8 -42.9344
v 26.4491 63.7678 114.595
v 19.9091 65.4316 124.159
v -44.2309 36.1006 -6.8299
v 21.9444 105.385 -2.14597
v -38.3083 50.8001 82.8657
v -22.1564 117.282 26.7795
v 19.9574 54.8376 124.184
v 26.9887 53.3169 113.246
v -42.4768 39.0301 6.4669
v -39.2299 33.2308 -86.3782
v 32.9877 75.8616 -46.2701
f 6 116 1 3
f 3 1 2 68
f 2 1 4 70
f 2 66 65 68
f 69 66 2 70
f 3 68 191 193
f 4 110 112 113
f 4 1 116 110
f 5 7 138 434
f 7 5 6 136
f 193 136 6 3
f 451 116 6 5
f 137 138 7 135
f 8 10 221 430
f 10 8 9 440
f 13 105 9 8
f 9 105 106 454
f 13 11 12 105
f 12 11 14 102
f 13 141 144 11
f 13 8 430 141
f 100 102 14 101
f 14 11 144 145
f 15 17 18 47
f 15 21 22 16
f 25 21 15 47
f 17 15 16 31
f 16 19 20 31
f 32 33 18 17
f 46 47 18 49
f 22 26 19 16
f 19 26 29 157
f 152 31 20 153
f 157 154 20 19
f 21 23 24 22
f 23 21 25 37
f 26 22 24 28
f 38 27 24 23
f 46 34 25 47
f 30 29 26 28
f 28 24 27 146
f 252 157 29 267
f 146 147 30 28
f 267 29 30 268
f 32 17 31 152
f 32 148 149 33
f 33 150 49 18
f 33 149 151 150
f 34 35 36 39
f 34 39 37 25
f 48 35 34 46
f 35 48 50 291
f 290 36 35 291
f 292 39 36 293
f 36 290 294 293
f 38 23 37 40
f 45 27 38 42
f 40 37 39 292
f 40 41 42 38
f 40 292 43 41
f 42 41 44 79
f 42 79 158 45
f 44 41 43 82
f 43 292 293 81
f 80 79 44 442
f 44 82 83 442
f 45 159 146 27
f 48 46 49 166
f 51 50 48 166
f 49 150 165 166
f 50 438 299 291
f 51 169 170 222
f 51 222 438 50
f 58 118 52 54
f 54 52 53 55
f 53 52 120 121
f 53 171 172 55
f 182 171 53 121
f 54 57 56 58
f 54 55 173 57
f 56 117 309 58
f 59 56 57 178
f 57 173 179 178
f 58 309 122 118
f 117 56 59 444
f 60 61 62 277
f 181 61 60 282
f 61 181 183 64
f 64 63 62 61
f 62 63 123 124
f 276 277 62 124
f 63 120 119 123
f 121 120 63 64
f 182 121 64 183
f 65 67 185 186
f 67 65 66 308
f 67 59 178 185
f 67 308 307 445
f 67 445 444 59
f 186 191 68 65
f 308 66 69 115
f 113 114 70 4
f 115 69 70 114
f 72 73 71 198
f 197 198 71 436
f 71 435 437 436
f 83 74 72 442
f 73 72 74 76
f 73 443 435 71
f 73 76 446 443
f 77 75 74 83
f 76 74 75 465
f 107 465 75 78
f 425 446 76 465
f 78 75 77 298
f 79 80 202 158
f 197 202 80 198
f 82 43 81 447
f 447 77 83 82
f 84 85 86 87
f 204 205 84 87
f 84 279 278 85
f 125 86 85 314
f 88 87 86 126
f 127 90 88 126
f 204 87 88 89
f 90 91 89 88
f 89 208 206 204
f 89 91 212 208
f 452 92 90 127
f 91 90 92 215
f 92 452 227 459
f 94 95 93 216
f 96 219 93 97
f 220 216 93 219
f 127 316 94 452
f 94 225 227 452
f 97 93 95 128
f 96 97 98 99
f 96 101 217 219
f 104 99 98 130
f 98 97 128 129
f 99 100 101 96
f 103 102 100 433
f 100 99 104 433
f 145 217 101 14
f 439 12 102 103
f 105 12 439 106
f 108 109 107 297
f 107 78 296 297
f 107 109 425 465
f 428 109 108 429
f 110 116 451 111
f 112 110 111 304
f 458 113 112 303
f 114 305 306 115
f 114 113 458 305
f 115 306 307 308
f 118 119 120 52
f 119 118 122 310
f 119 310 311 123
f 123 311 312 124
f 124 312 313 276
f 126 86 125 315
f 315 316 127 126
f 130 98 129 460
f 273 132 131 238
f 133 131 132 134
f 271 275 132 273
f 194 131 133 192
f 193 133 134 136
f 134 132 275 135
f 136 134 135 7
f 135 275 236 137
f 437 435 138 137
f 139 140 141 430
f 269 140 139 270
f 141 140 142 144
f 269 457 142 140
f 144 142 143 145
f 143 218 217 145
f 457 463 143 142
f 159 164 147 146
f 268 30 147 257
f 148 32 152 254
f 266 149 148 253
f 151 167 165 150
f 151 149 266 265
f 153 20 154 155
f 153 156 254 152
f 156 153 155 261
f 155 154 260 262
f 157 252 260 154
f 159 45 158 163
f 259 161 160 450
f 162 160 161 163
f 203 160 162 196
f 163 161 164 159
f 202 162 163 158
f 257 147 164 258
f 164 161 259 258
f 169 51 166 165
f 167 168 169 165
f 256 168 167 464
f 167 151 265 464
f 168 432 170 169
f 449 432 168 256
f 171 182 184 174
f 173 55 172 177
f 174 175 172 171
f 172 175 176 177
f 174 184 248 251
f 250 175 174 251
f 246 247 176 249
f 250 249 176 175
f 179 173 177 180
f 247 180 177 176
f 179 187 185 178
f 189 187 179 180
f 245 189 180 247
f 184 182 183 455
f 183 181 456 455
f 187 188 186 185
f 189 190 188 187
f 191 186 188 192
f 188 190 194 192
f 190 189 245 242
f 192 133 193 191
f 238 131 194 239
f 242 239 194 190
f 195 196 197 436
f 195 200 203 196
f 437 201 195 436
f 202 197 196 162
f 442 72 198 80
f 234 200 199 235
f 236 237 199 201
f 453 235 199 237
f 201 199 200 195
f 234 448 203 200
f 450 160 203 448
f 204 206 207 205
f 279 84 205 281
f 206 233 287 207
f 281 205 207 283
f 208 212 210 231
f 233 206 208 231
f 214 229 209 211
f 228 210 209 229
f 211 209 210 212
f 230 231 210 228
f 215 211 212 91
f 215 213 214 211
f 215 92 459 213
f 223 226 216 220
f 216 226 225 94
f 217 218 220 219
f 218 224 223 220
f 463 224 218 143
f 222 170 221 10
f 221 170 432 431
f 222 10 440 438
f 232 233 231 230
f 287 233 232 288
f 236 201 437 137
f 237 271 272 453
f 237 236 275 271
f 274 273 238 240
f 240 238 239 241
f 242 243 241 239
f 242 245 244 243
f 245 247 246 244
f 248 184 455 462
f 253 148 254 255
f 254 156 263 255
f 261 155 262 264
f 263 156 261 264
f 270 139 431 441
f 272 271 273 274
f 276 278 279 277
f 280 278 276 313
f 277 279 281 60
f 278 280 314 85
f 281 283 282 60
f 282 285 456 181
f 285 282 283 289
f 283 207 287 289
f 286 284 285 289
f 285 284 461 456
f 289 287 288 286
f 299 295 290 291
f 293 294 298 81
f 294 290 295 296
f 297 296 295 301
f 298 294 296 78
f 298 77 447 81
f 299 300 301 295
f 299 438 440 300
f 428 429 302 304
f 304 302 303 112
f 426 428 304 111
f 317 318 319 320
f 317 320 380 381
f 318 340 341 319
f 318 317 369 368
f 319 341 372 321
f 320 319 321 322
f 320 322 382 380
f 335 371 321 372
f 373 322 321 371
f 323 324 325 326
f 323 386 387 324
f 323 360 399 386
f 324 327 328 325
f 324 387 388 327
f 337 336 326 325
f 360 323 326 342
f 328 356 334 359
f 337 325 328 359
f 357 356 328 327
f 329 330 331 332
f 375 330 329 378
f 374 333 330 375
f 333 334 331 330
f 356 355 331 334
f 355 352 332 331
f 379 329 332 389
f 333 374 371 335
f 334 333 335 359
f 338 339 336 340
f 336 337 341 340
f 342 326 336 339
f 346 345 339 338
f 348 342 339 345
f 340 318 368 338
f 341 337 359 372
f 343 344 345 346
f 349 344 343 350
f 364 350 343 365
f 344 349 351 347
f 347 348 345 344
f 365 343 346 367
f 368 367 346 338
f 361 348 347 362
f 347 351 363 362
f 348 361 360 342
f 349 350 407 410
f 412 351 349 410
f 411 363 351 412
f 352 353 354 390
f 389 332 352 390
f 353 352 355 358
f 415 354 353 358
f 356 357 358 355
f 357 327 388 416
f 358 357 416 415
f 361 406 399 360
f 413 406 361 362
f 411 413 362 363
f 364 419 407 350
f 364 365 366 419
f 367 370 366 365
f 420 419 366 370
f 368 369 370 367
f 381 421 369 317
f 421 420 370 369
f 377 373 371 374
f 373 422 382 322
f 376 377 374 375
f 376 375 378 424
f 376 424 423 377
f 377 423 422 373
f 378 329 379 424
f 379 392 423 424
f 380 382 385 383
f 381 380 383 384
f 391 385 382 422
f 383 385 400 401
f 384 383 401 402
f 384 403 421 381
f 397 398 386 399
f 387 386 398 417
f 388 418 396 416
f 388 387 417 418
f 392 379 389 393
f 394 393 389 390
f 415 394 390 354
f 391 392 393 395
f 400 385 391 395
f 423 392 391 422
f 396 395 393 394
f 416 396 394 415
f 395 396 418 400
f 397 402 401 398
f 404 402 397 405
f 406 405 397 399
f 417 398 401 400
f 403 384 402 404
f 403 408 420 421
f 408 403 404 409
f 405 414 409 404
f 413 414 405 406
f 407 408 409 410
f 419 420 408 407
f 412 410 409 414
f 413 411 412 414
f 425 426 427 446
f 425 109 428 426
f 451 427 426 111
f 443 446 427 434
f 430 221 431 139
f 441 431 432 449
f 434 138 435 443
f 434 427 451 5
f 440 9 454 300
f 461 462 455 456
